<svg xmlns="http://www.w3.org/2000/svg" xmlns:xlink="http://www.w3.org/1999/xlink" viewBox="-17 -12 558 348" width="558" height="348"><rect data-layer="canvas-bg" x="-17.00" y="-12.00" width="558.00" height="348.00" fill="#FAFBFC"/><g data-part="0" data-part-id="vpc" transform="translate(-12.00 -12.00)"><defs><linearGradient id="p0-rounded-side" x1="50%" y1="0%" x2="50%" y2="100%"><stop offset="0%" stop-color="#D9DFF0"/><stop offset="100%" stop-color="#C9D1E5"/></linearGradient></defs><g data-face="wrap"><path data-face="side" d="M 512.09,199.90 L 511.94,201.19 L 511.51,202.46 L 510.78,203.69 L 509.79,204.85 L 508.55,205.93 L 507.07,206.90 L 497.83,212.23 L 488.59,217.57 L 479.36,222.90 L 470.12,228.23 L 460.88,233.57 L 451.64,238.90 L 442.40,244.23 L 433.17,249.57 L 423.93,254.90 L 414.69,260.23 L 405.45,265.57 L 396.22,270.90 L 386.98,276.23 L 377.74,281.57 L 368.50,286.90 L 359.27,292.23 L 350.03,297.57 L 340.79,302.90 L 339.10,303.75 L 337.24,304.47 L 335.23,305.05 L 333.10,305.46 L 330.90,305.71 L 328.67,305.80 L 326.43,305.71 L 324.23,305.46 L 322.11,305.05 L 320.09,304.47 L 318.23,303.75 L 316.54,302.90 L 300.57,293.68 L 284.60,284.46 L 268.62,275.23 L 252.65,266.01 L 236.68,256.79 L 220.70,247.57 L 204.73,238.34 L 188.76,229.12 L 172.78,219.90 L 156.81,210.68 L 140.84,201.46 L 124.86,192.23 L 108.89,183.01 L 92.92,173.79 L 76.94,164.57 L 60.97,155.34 L 45.00,146.12 L 29.02,136.90 L 27.54,135.93 L 26.30,134.85 L 25.31,133.69 L 24.58,132.46 L 24.15,131.19 L 24.15,137.19 L 24.58,138.46 L 25.31,139.69 L 26.30,140.85 L 27.54,141.93 L 29.02,142.90 L 45.00,152.12 L 60.97,161.34 L 76.94,170.57 L 92.92,179.79 L 108.89,189.01 L 124.86,198.23 L 140.84,207.46 L 156.81,216.68 L 172.78,225.90 L 188.76,235.12 L 204.73,244.34 L 220.70,253.57 L 236.68,262.79 L 252.65,272.01 L 268.62,281.23 L 284.60,290.46 L 300.57,299.68 L 316.54,308.90 L 318.23,309.75 L 320.09,310.47 L 322.11,311.05 L 324.23,311.46 L 326.43,311.71 L 328.67,311.80 L 330.90,311.71 L 333.10,311.46 L 335.23,311.05 L 337.24,310.47 L 339.10,309.75 L 340.79,308.90 L 350.03,303.57 L 359.27,298.23 L 368.50,292.90 L 377.74,287.57 L 386.98,282.23 L 396.22,276.90 L 405.45,271.57 L 414.69,266.23 L 423.93,260.90 L 433.17,255.57 L 442.40,250.23 L 451.64,244.90 L 460.88,239.57 L 470.12,234.23 L 479.36,228.90 L 488.59,223.57 L 497.83,218.23 L 507.07,212.90 L 508.55,211.93 L 509.79,210.85 L 510.78,209.69 L 511.51,208.46 L 511.94,207.19 L 512.09,205.90 Z" fill="url(#p0-rounded-side)" stroke="none"/><path data-face="top" d="M 219.55,26.90 L 235.52,36.12 L 251.49,45.34 L 267.47,54.57 L 283.44,63.79 L 299.41,73.01 L 315.39,82.23 L 331.36,91.46 L 347.33,100.68 L 363.31,109.90 L 379.28,119.12 L 395.25,128.34 L 411.23,137.57 L 427.20,146.79 L 443.17,156.01 L 459.15,165.23 L 475.12,174.46 L 491.09,183.68 L 507.07,192.90 L 508.55,193.87 L 509.79,194.95 L 510.78,196.11 L 511.51,197.34 L 511.94,198.61 L 512.09,199.90 L 511.94,201.19 L 511.51,202.46 L 510.78,203.69 L 509.79,204.85 L 508.55,205.93 L 507.07,206.90 L 497.83,212.23 L 488.59,217.57 L 479.36,222.90 L 470.12,228.23 L 460.88,233.57 L 451.64,238.90 L 442.40,244.23 L 433.17,249.57 L 423.93,254.90 L 414.69,260.23 L 405.45,265.57 L 396.22,270.90 L 386.98,276.23 L 377.74,281.57 L 368.50,286.90 L 359.27,292.23 L 350.03,297.57 L 340.79,302.90 L 339.10,303.75 L 337.24,304.47 L 335.23,305.05 L 333.10,305.46 L 330.90,305.71 L 328.67,305.80 L 326.43,305.71 L 324.23,305.46 L 322.11,305.05 L 320.09,304.47 L 318.23,303.75 L 316.54,302.90 L 300.57,293.68 L 284.60,284.46 L 268.62,275.23 L 252.65,266.01 L 236.68,256.79 L 220.70,247.57 L 204.73,238.34 L 188.76,229.12 L 172.78,219.90 L 156.81,210.68 L 140.84,201.46 L 124.86,192.23 L 108.89,183.01 L 92.92,173.79 L 76.94,164.57 L 60.97,155.34 L 45.00,146.12 L 29.02,136.90 L 27.54,135.93 L 26.30,134.85 L 25.31,133.69 L 24.58,132.46 L 24.15,131.19 L 24.00,129.90 L 24.15,128.61 L 24.58,127.34 L 25.31,126.11 L 26.30,124.95 L 27.54,123.87 L 29.02,122.90 L 38.26,117.57 L 47.50,112.23 L 56.73,106.90 L 65.97,101.57 L 75.21,96.23 L 84.45,90.90 L 93.69,85.57 L 102.92,80.23 L 112.16,74.90 L 121.40,69.57 L 130.64,64.23 L 139.87,58.90 L 149.11,53.57 L 158.35,48.23 L 167.59,42.90 L 176.82,37.57 L 186.06,32.23 L 195.30,26.90 L 196.99,26.05 L 198.85,25.33 L 200.86,24.75 L 202.99,24.34 L 205.19,24.08 L 207.42,24.00 L 209.66,24.08 L 211.86,24.34 L 213.98,24.75 L 216.00,25.33 L 217.86,26.05 L 219.55,26.90 Z" fill="#EEF1F8" stroke="#7C8DB5" stroke-width="1.00" stroke-linejoin="round"/><path data-face="silhouette" d="M 512.09,199.90 L 512.09,205.90 L 511.94,207.19 L 511.51,208.46 L 510.78,209.69 L 509.79,210.85 L 508.55,211.93 L 507.07,212.90 L 497.83,218.23 L 488.59,223.57 L 479.36,228.90 L 470.12,234.23 L 460.88,239.57 L 451.64,244.90 L 442.40,250.23 L 433.17,255.57 L 423.93,260.90 L 414.69,266.23 L 405.45,271.57 L 396.22,276.90 L 386.98,282.23 L 377.74,287.57 L 368.50,292.90 L 359.27,298.23 L 350.03,303.57 L 340.79,308.90 L 339.10,309.75 L 337.24,310.47 L 335.23,311.05 L 333.10,311.46 L 330.90,311.71 L 328.67,311.80 L 326.43,311.71 L 324.23,311.46 L 322.11,311.05 L 320.09,310.47 L 318.23,309.75 L 316.54,308.90 L 300.57,299.68 L 284.60,290.46 L 268.62,281.23 L 252.65,272.01 L 236.68,262.79 L 220.70,253.57 L 204.73,244.34 L 188.76,235.12 L 172.78,225.90 L 156.81,216.68 L 140.84,207.46 L 124.86,198.23 L 108.89,189.01 L 92.92,179.79 L 76.94,170.57 L 60.97,161.34 L 45.00,152.12 L 29.02,142.90 L 27.54,141.93 L 26.30,140.85 L 25.31,139.69 L 24.58,138.46 L 24.15,137.19 L 24.15,131.19" fill="none" stroke="#7C8DB5" stroke-width="1.00" stroke-linejoin="round" stroke-linecap="round"/></g></g><g data-part="1" data-part-id="api" transform="translate(100.58 -12.00)"><g data-face="wrap"><polygon data-face="left" points="24.00,99.00 24.00,69.00 119.26,124.00 119.26,154.00" fill="#3A6FBA" stroke="#1D3A66" stroke-width="1.50" stroke-linejoin="round" stroke-linecap="round"/><polygon data-face="right" points="197.21,109.00 197.21,79.00 119.26,124.00 119.26,154.00" fill="#5589D6" stroke="#1D3A66" stroke-width="1.50" stroke-linejoin="round" stroke-linecap="round"/><polygon data-face="top" points="101.94,24.00 197.21,79.00 119.26,124.00 24.00,69.00" fill="#7FB3FF" stroke="#1D3A66" stroke-width="1.50" stroke-linejoin="round" stroke-linecap="round"/><g data-face="top-content" transform="matrix(0.8660 0.5000 -0.8660 0.5000 101.94 24.00)"><text x="55.00" y="45.00" dy=".35em" font-family="Helvetica Neue, Arial, sans-serif" font-size="16.00" font-weight="600" fill="#0B1F3A" text-anchor="middle">API</text></g></g></g><g data-part="2" data-part-id="db" transform="translate(284.41 89.13)"><g data-face="wrap"><path data-face="side-left" d="M 24.00 52.87 L 24.00 92.87 A 50.00 28.87 0 0 0 74.00 121.74 L 74.00 81.74 A 50.00 28.87 0 0 0 24.00 52.87 Z" fill="#B8651F" stroke="none"/><path data-face="side-right" d="M 124.00 52.87 L 124.00 92.87 A 50.00 28.87 0 0 1 74.00 121.74 L 74.00 81.74 A 50.00 28.87 0 0 1 124.00 52.87 Z" fill="#E08A47" stroke="none"/><path data-face="outline" d="M 24.00 52.87 L 24.00 92.87 A 50.00 28.87 0 0 0 124.00 92.87 L 124.00 52.87" fill="none" stroke="#5C2A0A" stroke-width="1.50" stroke-linejoin="round" stroke-linecap="round"/><ellipse data-face="top" cx="74.00" cy="52.87" rx="50.00" ry="28.87" fill="#FFD27F" stroke="#5C2A0A" stroke-width="1.50"/><g data-face="top-content" transform="matrix(0.8660 0.5000 -0.8660 0.5000 74.00 24.00)"><text x="28.87" y="28.87" dy=".35em" font-family="Helvetica Neue, Arial, sans-serif" font-size="16.00" font-weight="600" fill="#3A1A06" text-anchor="middle">DB</text></g></g></g><g data-part="3" transform="translate(21.77 87.00)"><g data-face="iso-text" transform="matrix(0.8660 0.5000 -0.8660 0.5000 24.00 29.50)"><text x="0" y="0" font-family="Helvetica Neue, Arial, sans-serif" font-size="11.00" font-weight="600" fill="#7C8DB5">VPC</text></g></g></svg>