<svg xmlns="http://www.w3.org/2000/svg" xmlns:xlink="http://www.w3.org/1999/xlink" viewBox="0 0 251 196" width="251" height="196"><g data-face="wrap"><polygon data-face="side" points="226.97,102.64 226.58,107.36 225.43,111.89 223.51,116.20 220.85,120.26 217.46,124.03 213.38,127.48 208.62,130.59 203.23,133.34 197.25,135.70 190.73,137.65 183.70,139.19 176.24,140.29 168.38,140.96 160.21,141.18 151.76,140.96 143.12,140.29 134.34,139.18 125.50,137.65 116.65,135.69 107.87,133.33 99.23,130.58 90.79,127.47 82.61,124.02 74.75,120.25 67.29,116.19 60.26,111.88 53.73,107.35 47.75,102.62 42.36,97.75 37.60,92.76 33.51,87.69 30.13,82.58 27.46,77.48 25.54,72.41 24.39,67.42 24.00,62.54 24.00,92.54 24.39,97.42 25.54,102.41 27.46,107.48 30.13,112.58 33.51,117.69 37.60,122.76 42.36,127.75 47.75,132.62 53.73,137.35 60.26,141.88 67.29,146.19 74.75,150.25 82.61,154.02 90.79,157.47 99.23,160.58 107.87,163.33 116.65,165.69 125.50,167.65 134.34,169.18 143.12,170.29 151.76,170.96 160.21,171.18 168.38,170.96 176.24,170.29 183.70,169.19 190.73,167.65 197.25,165.70 203.23,163.34 208.62,160.59 213.38,157.48 217.46,154.03 220.85,150.26 223.51,146.20 225.43,141.89 226.58,137.36 226.97,132.64" fill="#3A6FBA" stroke="none"/><path data-face="outline" d="M 226.97 102.64 L 226.97 132.64 L 226.58 137.36 L 225.43 141.89 L 223.51 146.20 L 220.85 150.26 L 217.46 154.03 L 213.38 157.48 L 208.62 160.59 L 203.23 163.34 L 197.25 165.70 L 190.73 167.65 L 183.70 169.19 L 176.24 170.29 L 168.38 170.96 L 160.21 171.18 L 151.76 170.96 L 143.12 170.29 L 134.34 169.18 L 125.50 167.65 L 116.65 165.69 L 107.87 163.33 L 99.23 160.58 L 90.79 157.47 L 82.61 154.02 L 74.75 150.25 L 67.29 146.19 L 60.26 141.88 L 53.73 137.35 L 47.75 132.62 L 42.36 127.75 L 37.60 122.76 L 33.51 117.69 L 30.13 112.58 L 27.46 107.48 L 25.54 102.41 L 24.39 97.42 L 24.00 92.54 L 24.00 62.54" fill="none" stroke="#1D3A66" stroke-width="1.50" stroke-linejoin="round" stroke-linecap="round"/><path data-face="top" d="M 208.62 130.59 L 203.23 133.34 L 197.25 135.70 L 190.73 137.65 L 183.70 139.19 L 176.24 140.29 L 168.38 140.96 L 160.21 141.18 L 151.76 140.96 L 143.12 140.29 L 134.34 139.18 L 125.50 137.65 L 116.65 135.69 L 107.87 133.33 L 99.23 130.58 L 90.79 127.47 L 82.61 124.02 L 74.75 120.25 L 67.29 116.19 L 60.26 111.88 L 53.73 107.35 L 47.75 102.62 L 42.36 97.75 L 37.60 92.76 L 33.51 87.69 L 30.13 82.58 L 27.46 77.48 L 25.54 72.41 L 24.39 67.42 L 24.00 62.54 L 24.38 57.82 L 25.54 53.29 L 27.45 48.98 L 30.12 44.92 L 33.50 41.16 L 37.59 37.70 L 42.34 34.59 L 47.73 31.85 L 53.71 29.49 L 60.24 27.53 L 67.26 25.99 L 74.73 24.89 L 82.58 24.22 L 90.76 24.00 L 99.20 24.22 L 107.85 24.89 L 116.62 26.00 L 125.47 27.54 L 134.31 29.49 L 143.09 31.85 L 151.74 34.60 L 160.18 37.71 L 168.36 41.17 L 176.21 44.94 L 183.68 48.99 L 190.70 53.30 L 197.23 57.84 L 203.22 62.56 L 208.61 67.43 L 213.36 72.43 L 217.45 77.49 L 220.84 82.60 L 223.51 87.71 L 225.42 92.77 L 226.58 97.76 L 226.97 102.64 L 226.58 107.36 L 225.43 111.89 L 223.51 116.20 L 220.85 120.26 L 217.46 124.03 L 213.38 127.48 Z" fill="#7FB3FF" stroke="#1D3A66" stroke-width="1.50" stroke-linejoin="round"/><g data-face="top-content" transform="matrix(0.8660 0.5000 -0.8660 0.5000 99.50 -2.41)"><text x="62.00" y="70.00" dy=".35em" font-family="Helvetica Neue, Arial, sans-serif" font-size="16.00" font-weight="600" fill="#0B1F3A" text-anchor="middle">GCP</text></g></g></svg>