<svg xmlns="http://www.w3.org/2000/svg" xmlns:xlink="http://www.w3.org/1999/xlink" viewBox="0 0 213 159" width="213" height="159"><g data-face="wrap"><polygon data-face="side" points="24.00,47.94 24.08,49.70 24.55,51.42 25.40,53.06 26.63,54.59 28.20,56.01 30.09,57.27 30.09,87.27 28.20,86.01 26.63,84.59 25.40,83.06 24.55,81.42 24.08,79.70 24.00,77.94" fill="#3A6FBA" stroke="none"/><polygon data-face="side" points="30.09,57.27 105.26,100.67 105.26,130.67 30.09,87.27" fill="#3A6FBA" stroke="none"/><polygon data-face="side" points="105.26,100.67 108.58,102.22 112.42,103.34 116.64,104.01 121.10,104.19 125.64,103.88 130.11,103.09 134.34,101.85 138.19,100.21 141.53,98.21 144.24,95.93 146.21,93.44 147.39,90.85 147.74,88.23 147.74,118.23 147.39,120.85 146.21,123.44 144.24,125.93 141.53,128.21 138.19,130.21 134.34,131.85 130.11,133.09 125.64,133.88 121.10,134.19 116.64,134.01 112.42,133.34 108.58,132.22 105.26,130.67" fill="#3A6FBA" stroke="none"/><polygon data-face="side" points="143.77,81.13 140.94,79.29 137.50,77.83 133.56,76.80 129.27,76.25 124.78,76.17 120.24,76.59 115.81,77.48 115.81,77.48 123.45,79.35 131.73,80.33 140.36,80.37 149.06,79.49 157.51,77.71 165.44,75.09 172.57,71.72 178.65,67.73 183.47,63.23 186.87,58.40 188.74,53.40 189.00,48.39 189.00,78.39 188.74,83.40 186.87,88.40 183.47,93.23 178.65,97.73 172.57,101.72 165.44,105.09 157.51,107.71 149.06,109.49 140.36,110.37 131.73,110.33 123.45,109.35 115.81,107.48 115.81,107.48 120.24,106.59 124.78,106.17 129.27,106.25 133.56,106.80 137.50,107.83 140.94,109.29 143.77,111.13" fill="#3A6FBA" stroke="none"/><path data-face="outline" d="M 24.00 47.94 L 24.00 77.94 L 24.08 79.70 L 24.55 81.42 L 25.40 83.06 L 26.63 84.59 L 28.20 86.01 L 30.09 87.27 L 30.09 57.27" fill="none" stroke="#1D3A66" stroke-width="1.50" stroke-linejoin="round" stroke-linecap="round"/><path data-face="outline" d="M 30.09 57.27 L 30.09 87.27 L 105.26 130.67 L 105.26 100.67" fill="none" stroke="#1D3A66" stroke-width="1.50" stroke-linejoin="round" stroke-linecap="round"/><path data-face="outline" d="M 105.26 100.67 L 105.26 130.67 L 108.58 132.22 L 112.42 133.34 L 116.64 134.01 L 121.10 134.19 L 125.64 133.88 L 130.11 133.09 L 134.34 131.85 L 138.19 130.21 L 141.53 128.21 L 144.24 125.93 L 146.21 123.44 L 147.39 120.85 L 147.74 118.23 L 147.74 88.23" fill="none" stroke="#1D3A66" stroke-width="1.50" stroke-linejoin="round" stroke-linecap="round"/><path data-face="outline" d="M 143.77 81.13 L 143.77 111.13 L 140.94 109.29 L 137.50 107.83 L 133.56 106.80 L 129.27 106.25 L 124.78 106.17 L 120.24 106.59 L 115.81 107.48 L 115.81 107.48 L 123.45 109.35 L 131.73 110.33 L 140.36 110.37 L 149.06 109.49 L 157.51 107.71 L 165.44 105.09 L 172.57 101.72 L 178.65 97.73 L 183.47 93.23 L 186.87 88.40 L 188.74 83.40 L 189.00 78.39 L 189.00 48.39" fill="none" stroke="#1D3A66" stroke-width="1.50" stroke-linejoin="round" stroke-linecap="round"/><path data-face="top" d="M 115.81 77.48 L 123.45 79.35 L 131.73 80.33 L 140.36 80.37 L 149.06 79.49 L 157.51 77.71 L 165.44 75.09 L 172.57 71.72 L 178.65 67.73 L 183.47 63.23 L 186.87 58.40 L 188.74 53.40 L 189.00 48.39 L 187.65 43.55 L 184.73 39.05 L 180.35 35.04 L 174.65 31.66 L 167.84 29.03 L 160.14 27.23 L 151.82 26.33 L 143.17 26.36 L 134.48 27.32 L 126.06 29.17 L 118.19 31.86 L 118.19 31.86 L 116.68 30.53 L 114.96 29.30 L 113.04 28.18 L 110.92 27.18 L 108.63 26.30 L 106.19 25.56 L 103.62 24.95 L 100.94 24.49 L 98.16 24.18 L 95.31 24.01 L 92.42 24.00 L 89.51 24.14 L 86.60 24.43 L 83.71 24.86 L 80.88 25.44 L 78.11 26.16 L 75.44 27.02 L 72.88 28.00 L 70.46 29.10 L 68.20 30.31 L 66.11 31.62 L 64.21 33.02 L 62.52 34.49 L 62.52 34.49 L 59.91 33.73 L 57.11 33.18 L 54.17 32.85 L 51.14 32.74 L 48.06 32.86 L 44.98 33.20 L 41.96 33.76 L 39.04 34.54 L 36.27 35.50 L 33.69 36.65 L 31.34 37.96 L 29.27 39.42 L 27.51 40.99 L 26.08 42.66 L 25.01 44.39 L 24.31 46.16 L 24.00 47.94 L 24.08 49.70 L 24.55 51.42 L 25.40 53.06 L 26.63 54.59 L 28.20 56.01 L 30.09 57.27 L 30.09 57.27 L 105.26 100.67 L 105.26 100.67 L 108.58 102.22 L 112.42 103.34 L 116.64 104.01 L 121.10 104.19 L 125.64 103.88 L 130.11 103.09 L 134.34 101.85 L 138.19 100.21 L 141.53 98.21 L 144.24 95.93 L 146.21 93.44 L 147.39 90.85 L 147.74 88.23 L 147.23 85.67 L 145.90 83.28 L 143.77 81.13 L 140.94 79.29 L 137.50 77.83 L 133.56 76.80 L 129.27 76.25 L 124.78 76.17 L 120.24 76.59 L 115.81 77.48 Z" fill="#7FB3FF" stroke="#1D3A66" stroke-width="1.50" stroke-linejoin="round"/><g data-face="top-content" transform="matrix(0.8660 0.5000 -0.8660 0.5000 121.89 -14.33)"><text x="100.00" y="70.00" dy=".35em" font-family="Helvetica Neue, Arial, sans-serif" font-size="16.00" font-weight="600" fill="#0B1F3A" text-anchor="middle">GCP</text></g></g></svg>