<svg xmlns="http://www.w3.org/2000/svg" xmlns:xlink="http://www.w3.org/1999/xlink" viewBox="0 0 212 173" width="212" height="173"><g data-face="wrap"><polygon data-face="side" points="177.61,69.20 183.91,65.83 186.77,62.27 187.72,58.58 187.72,88.58 186.77,92.27 183.91,95.83 177.61,99.20" fill="#3A6FBA" stroke="none"/><polygon data-face="side" points="24.00,44.52 24.07,47.26 24.61,50.06 25.61,52.90 27.06,55.75 28.92,58.57 30.73,61.28 30.73,91.28 28.92,88.57 27.06,85.75 25.61,82.90 24.61,80.06 24.07,77.26 24.00,74.52" fill="#3A6FBA" stroke="none"/><polygon data-face="side" points="27.13,70.89 27.63,73.62 28.67,76.40 30.26,79.21 32.36,82.00 34.95,84.75 38.00,87.41 39.03,90.53 39.03,120.53 38.00,117.41 34.95,114.75 32.36,112.00 30.26,109.21 28.67,106.40 27.63,103.62 27.13,100.89" fill="#3A6FBA" stroke="none"/><polygon data-face="side" points="38.57,94.30 39.56,98.01 41.70,101.59 44.82,104.99 48.76,108.14 53.38,110.97 58.57,113.42 64.21,115.43 70.16,116.92 76.32,117.82 82.54,118.02 88.71,117.37 94.68,115.52 100.22,112.11 104.32,113.33 108.48,114.34 112.65,115.15 116.80,115.75 120.90,116.12 124.89,116.26 128.75,116.18 132.44,115.88 135.92,115.36 139.16,114.62 142.14,113.69 144.84,112.57 147.23,111.27 149.30,109.82 151.03,108.22 152.42,106.50 153.48,104.68 154.19,102.78 155.17,101.16 158.83,101.06 162.39,100.74 165.80,100.21 169.03,99.46 172.03,98.49 174.78,97.31 177.23,95.93 179.35,94.35 181.12,92.59 182.51,90.67 183.51,88.59 184.10,86.39 184.27,84.07 184.27,114.07 184.10,116.39 183.51,118.59 182.51,120.67 181.12,122.59 179.35,124.35 177.23,125.93 174.78,127.31 172.03,128.49 169.03,129.46 165.80,130.21 162.39,130.74 158.83,131.06 155.17,131.16 154.19,132.78 153.48,134.68 152.42,136.50 151.03,138.22 149.30,139.82 147.23,141.27 144.84,142.57 142.14,143.69 139.16,144.62 135.92,145.36 132.44,145.88 128.75,146.18 124.89,146.26 120.90,146.12 116.80,145.75 112.65,145.15 108.48,144.34 104.32,143.33 100.22,142.11 94.68,145.52 88.71,147.37 82.54,148.02 76.32,147.82 70.16,146.92 64.21,145.43 58.57,143.42 53.38,140.97 48.76,138.14 44.82,134.99 41.70,131.59 39.56,128.01 38.57,124.30" fill="#3A6FBA" stroke="none"/><path data-face="outline" d="M 177.61 69.20 L 177.61 99.20 L 183.91 95.83 L 186.77 92.27 L 187.72 88.58 L 187.72 58.58" fill="none" stroke="#1D3A66" stroke-width="1.50" stroke-linejoin="round" stroke-linecap="round"/><path data-face="outline" d="M 24.00 44.52 L 24.00 74.52 L 24.07 77.26 L 24.61 80.06 L 25.61 82.90 L 27.06 85.75 L 28.92 88.57 L 30.73 91.28 L 30.73 61.28" fill="none" stroke="#1D3A66" stroke-width="1.50" stroke-linejoin="round" stroke-linecap="round"/><path data-face="outline" d="M 27.13 70.89 L 27.13 100.89 L 27.63 103.62 L 28.67 106.40 L 30.26 109.21 L 32.36 112.00 L 34.95 114.75 L 38.00 117.41 L 39.03 120.53 L 39.03 90.53" fill="none" stroke="#1D3A66" stroke-width="1.50" stroke-linejoin="round" stroke-linecap="round"/><path data-face="outline" d="M 38.57 94.30 L 38.57 124.30 L 39.56 128.01 L 41.70 131.59 L 44.82 134.99 L 48.76 138.14 L 53.38 140.97 L 58.57 143.42 L 64.21 145.43 L 70.16 146.92 L 76.32 147.82 L 82.54 148.02 L 88.71 147.37 L 94.68 145.52 L 100.22 142.11 L 104.32 143.33 L 108.48 144.34 L 112.65 145.15 L 116.80 145.75 L 120.90 146.12 L 124.89 146.26 L 128.75 146.18 L 132.44 145.88 L 135.92 145.36 L 139.16 144.62 L 142.14 143.69 L 144.84 142.57 L 147.23 141.27 L 149.30 139.82 L 151.03 138.22 L 152.42 136.50 L 153.48 134.68 L 154.19 132.78 L 155.17 131.16 L 158.83 131.06 L 162.39 130.74 L 165.80 130.21 L 169.03 129.46 L 172.03 128.49 L 174.78 127.31 L 177.23 125.93 L 179.35 124.35 L 181.12 122.59 L 182.51 120.67 L 183.51 118.59 L 184.10 116.39 L 184.27 114.07 L 184.27 84.07" fill="none" stroke="#1D3A66" stroke-width="1.50" stroke-linejoin="round" stroke-linecap="round"/><path data-face="top" d="M 48.76 108.14 L 53.38 110.97 L 58.57 113.42 L 64.21 115.43 L 70.16 116.92 L 76.32 117.82 L 82.54 118.02 L 88.71 117.37 L 94.68 115.52 L 100.22 112.11 L 104.32 113.33 L 108.48 114.34 L 112.65 115.15 L 116.80 115.75 L 120.90 116.12 L 124.89 116.26 L 128.75 116.18 L 132.44 115.88 L 135.92 115.36 L 139.16 114.62 L 142.14 113.69 L 144.84 112.57 L 147.23 111.27 L 149.30 109.82 L 151.03 108.22 L 152.42 106.50 L 153.48 104.68 L 154.19 102.78 L 155.17 101.16 L 158.83 101.06 L 162.39 100.74 L 165.80 100.21 L 169.03 99.46 L 172.03 98.49 L 174.78 97.31 L 177.23 95.93 L 179.35 94.35 L 181.12 92.59 L 182.51 90.67 L 183.51 88.59 L 184.10 86.39 L 184.27 84.07 L 184.02 81.67 L 183.34 79.22 L 182.25 76.72 L 180.75 74.21 L 178.87 71.72 L 177.61 69.20 L 183.91 65.83 L 186.77 62.27 L 187.72 58.58 L 187.23 54.86 L 185.54 51.18 L 182.81 47.61 L 179.18 44.23 L 174.77 41.11 L 169.68 38.32 L 164.05 35.93 L 157.97 34.02 L 151.56 32.66 L 144.94 31.96 L 138.23 32.07 L 132.13 32.15 L 127.47 30.12 L 122.60 28.34 L 117.59 26.85 L 112.51 25.65 L 107.43 24.77 L 102.40 24.22 L 97.49 24.00 L 92.78 24.12 L 88.31 24.58 L 84.15 25.36 L 80.36 26.48 L 76.51 27.20 L 71.58 26.36 L 66.66 25.78 L 61.80 25.47 L 57.05 25.43 L 52.47 25.67 L 48.09 26.19 L 43.97 26.98 L 40.14 28.04 L 36.65 29.36 L 33.52 30.93 L 30.81 32.73 L 28.52 34.75 L 26.68 36.96 L 25.31 39.34 L 24.41 41.87 L 24.00 44.52 L 24.07 47.26 L 24.61 50.06 L 25.61 52.90 L 27.06 55.75 L 28.92 58.57 L 30.73 61.28 L 29.01 63.42 L 27.83 65.76 L 27.20 68.26 L 27.13 70.89 L 27.63 73.62 L 28.67 76.40 L 30.26 79.21 L 32.36 82.00 L 34.95 84.75 L 38.00 87.41 L 39.03 90.53 L 38.57 94.30 L 39.56 98.01 L 41.70 101.59 L 44.82 104.99 Z" fill="#7FB3FF" stroke="#1D3A66" stroke-width="1.50" stroke-linejoin="round"/><g data-face="top-content" transform="matrix(0.8660 0.5000 -0.8660 0.5000 79.25 -15.47)"><text x="100.00" y="70.00" dy=".35em" font-family="Helvetica Neue, Arial, sans-serif" font-size="16.00" font-weight="600" fill="#0B1F3A" text-anchor="middle">GCP</text></g></g></svg>