<svg xmlns="http://www.w3.org/2000/svg" xmlns:xlink="http://www.w3.org/1999/xlink" viewBox="0 0 263.27 197.73" width="263.27" height="197.73"><g data-face="wrap"><polygon data-face="side" points="239.27,101.67 238.23,105.60 235.83,109.72 232.14,113.89 227.31,117.93 221.52,121.69 215.66,125.07 209.80,128.45 203.94,131.84 198.08,135.22 192.22,138.60 186.36,141.99 184.23,142.93 181.75,143.53 179.09,143.73 176.42,143.53 173.94,142.93 171.81,141.99 162.76,136.76 153.71,131.54 144.66,126.31 135.61,121.09 126.56,115.86 117.51,110.64 108.46,105.41 99.41,100.19 90.36,94.96 81.31,89.74 72.26,84.51 63.21,79.29 54.16,74.06 45.11,68.84 36.06,63.61 27.01,58.39 25.38,57.16 24.35,55.73 24.00,54.19 24.00,84.19 24.35,85.73 25.38,87.16 27.01,88.39 36.06,93.61 45.11,98.84 54.16,104.06 63.21,109.29 72.26,114.51 81.31,119.74 90.36,124.96 99.41,130.19 108.46,135.41 117.51,140.64 126.56,145.86 135.61,151.09 144.66,156.31 153.71,161.54 162.76,166.76 171.81,171.99 173.94,172.93 176.42,173.53 179.09,173.73 181.75,173.53 184.23,172.93 186.36,171.99 192.22,168.60 198.08,165.22 203.94,161.84 209.80,158.45 215.66,155.07 221.52,151.69 227.31,147.93 232.14,143.89 235.83,139.72 238.23,135.60 239.27,131.67" fill="#3A6FBA" stroke="none"/><path data-face="outline" d="M 239.27 101.67 L 239.27 131.67 L 238.23 135.60 L 235.83 139.72 L 232.14 143.89 L 227.31 147.93 L 221.52 151.69 L 215.66 155.07 L 209.80 158.45 L 203.94 161.84 L 198.08 165.22 L 192.22 168.60 L 186.36 171.99 L 184.23 172.93 L 181.75 173.53 L 179.09 173.73 L 176.42 173.53 L 173.94 172.93 L 171.81 171.99 L 162.76 166.76 L 153.71 161.54 L 144.66 156.31 L 135.61 151.09 L 126.56 145.86 L 117.51 140.64 L 108.46 135.41 L 99.41 130.19 L 90.36 124.96 L 81.31 119.74 L 72.26 114.51 L 63.21 109.29 L 54.16 104.06 L 45.11 98.84 L 36.06 93.61 L 27.01 88.39 L 25.38 87.16 L 24.35 85.73 L 24.00 84.19 L 24.00 54.19" fill="none" stroke="#1D3A66" stroke-width="1.50" stroke-linejoin="round" stroke-linecap="round"/><path data-face="top" d="M 62.17 29.69 L 66.80 27.44 L 71.98 25.70 L 77.51 24.54 L 83.19 24.00 L 88.79 24.10 L 94.10 24.84 L 98.91 26.18 L 103.05 28.09 L 106.35 30.48 L 108.68 33.26 L 109.96 36.32 L 110.13 39.56 L 109.19 42.83 L 107.18 46.03 L 104.17 49.02 L 100.28 51.69 L 111.49 46.14 L 123.86 41.73 L 136.92 38.62 L 150.18 36.94 L 163.11 36.74 L 175.23 38.05 L 186.06 40.80 L 195.20 44.89 L 202.28 50.16 L 207.04 56.42 L 209.30 63.41 L 208.96 70.88 L 206.05 78.53 L 200.67 86.07 L 193.03 93.22 L 183.42 99.69 L 189.93 96.35 L 196.93 93.56 L 204.14 91.43 L 211.29 90.04 L 218.10 89.44 L 224.30 89.66 L 229.67 90.69 L 233.99 92.49 L 237.10 94.98 L 238.88 98.08 L 239.27 101.67 L 238.23 105.60 L 235.83 109.72 L 232.14 113.89 L 227.31 117.93 L 221.52 121.69 L 215.66 125.07 L 209.80 128.45 L 203.94 131.84 L 198.08 135.22 L 192.22 138.60 L 186.36 141.99 L 184.23 142.93 L 181.75 143.53 L 179.09 143.73 L 176.42 143.53 L 173.94 142.93 L 171.81 141.99 L 162.76 136.76 L 153.71 131.54 L 144.66 126.31 L 135.61 121.09 L 126.56 115.86 L 117.51 110.64 L 108.46 105.41 L 99.41 100.19 L 90.36 94.96 L 81.31 89.74 L 72.26 84.51 L 63.21 79.29 L 54.16 74.06 L 45.11 68.84 L 36.06 63.61 L 27.01 58.39 L 25.38 57.16 L 24.35 55.73 L 24.00 54.19 L 24.35 52.65 L 25.38 51.22 L 27.01 49.99 L 32.87 46.60 L 38.73 43.22 L 44.59 39.84 L 50.45 36.45 L 56.31 33.07 L 62.17 29.69 Z" fill="#7FB3FF" stroke="#1D3A66" stroke-width="1.50" stroke-linejoin="round"/><g data-face="top-content" transform="matrix(0.8660 0.5000 -0.8660 0.5000 115.87 -9.31)"><text x="100.00" y="70.00" dy=".35em" font-family="Helvetica Neue, Arial, sans-serif" font-size="16.00" font-weight="600" fill="#0B1F3A" text-anchor="middle">GCP</text></g></g></svg>