<svg xmlns="http://www.w3.org/2000/svg" xmlns:xlink="http://www.w3.org/1999/xlink" viewBox="0 0 244 199" width="244" height="199"><g data-face="wrap"><polygon data-face="side" points="84.40,57.25 79.85,51.85 76.81,46.54 75.40,41.46 75.40,71.46 76.81,76.54 79.85,81.85 84.40,87.25" fill="#3A6FBA" stroke="none"/><polygon data-face="side" points="180.09,68.86 179.18,73.33 176.63,77.18 176.63,77.18 176.63,107.18 176.63,107.18 179.18,103.33 180.09,98.86" fill="#3A6FBA" stroke="none"/><polygon data-face="side" points="208.76,104.42 208.57,106.16 208.04,107.79 207.17,109.29 205.96,110.64 204.45,111.84 202.62,112.88 200.52,113.74 198.14,114.41 198.14,144.41 200.52,143.74 202.62,142.88 204.45,141.84 205.96,140.64 207.17,139.29 208.04,137.79 208.57,136.16 208.76,134.42" fill="#3A6FBA" stroke="none"/><polygon data-face="side" points="198.14,114.41 202.28,116.37 206.14,118.55 206.14,148.55 202.28,146.37 198.14,144.41" fill="#3A6FBA" stroke="none"/><polygon data-face="side" points="219.47,135.71 218.93,137.80 217.74,139.64 215.94,141.21 213.57,142.46 210.67,143.37 207.31,143.91 203.56,144.09 199.51,143.89 195.23,143.31 190.82,142.38 186.39,141.11 182.01,139.52 177.79,137.66 173.82,135.56 173.82,165.56 177.79,167.66 182.01,169.52 186.39,171.11 190.82,172.38 195.23,173.31 199.51,173.89 203.56,174.09 207.31,173.91 210.67,173.37 213.57,172.46 215.94,171.21 217.74,169.64 218.93,167.80 219.47,165.71" fill="#3A6FBA" stroke="none"/><polygon data-face="side" points="173.82,135.56 38.72,57.56 38.72,87.56 173.82,165.56" fill="#3A6FBA" stroke="none"/><polygon data-face="side" points="38.72,57.56 34.26,54.69 30.47,51.62 27.46,48.45 25.34,45.29 24.17,42.24 24.00,39.40 24.00,69.40 24.17,72.24 25.34,75.29 27.46,78.45 30.47,81.62 34.26,84.69 38.72,87.56" fill="#3A6FBA" stroke="none"/><polygon data-face="side" points="68.55,39.10 73.13,41.91 77.09,44.94 80.29,48.09 82.62,51.27 84.01,54.35 84.40,57.25 84.40,87.25 84.01,84.35 82.62,81.27 80.29,78.09 77.09,74.94 73.13,71.91 68.55,69.10" fill="#3A6FBA" stroke="none"/><path data-face="outline" d="M 84.40 57.25 L 84.40 87.25 L 79.85 81.85 L 76.81 76.54 L 75.40 71.46 L 75.40 41.46" fill="none" stroke="#1D3A66" stroke-width="1.50" stroke-linejoin="round" stroke-linecap="round"/><path data-face="outline" d="M 180.09 68.86 L 180.09 98.86 L 179.18 103.33 L 176.63 107.18 L 176.63 107.18 L 176.63 77.18" fill="none" stroke="#1D3A66" stroke-width="1.50" stroke-linejoin="round" stroke-linecap="round"/><path data-face="outline" d="M 208.76 104.42 L 208.76 134.42 L 208.57 136.16 L 208.04 137.79 L 207.17 139.29 L 205.96 140.64 L 204.45 141.84 L 202.62 142.88 L 200.52 143.74 L 198.14 144.41 L 198.14 114.41" fill="none" stroke="#1D3A66" stroke-width="1.50" stroke-linejoin="round" stroke-linecap="round"/><path data-face="outline" d="M 198.14 114.41 L 198.14 144.41 L 202.28 146.37 L 206.14 148.55 L 206.14 118.55" fill="none" stroke="#1D3A66" stroke-width="1.50" stroke-linejoin="round" stroke-linecap="round"/><path data-face="outline" d="M 219.47 135.71 L 219.47 165.71 L 218.93 167.80 L 217.74 169.64 L 215.94 171.21 L 213.57 172.46 L 210.67 173.37 L 207.31 173.91 L 203.56 174.09 L 199.51 173.89 L 195.23 173.31 L 190.82 172.38 L 186.39 171.11 L 182.01 169.52 L 177.79 167.66 L 173.82 165.56 L 173.82 135.56" fill="none" stroke="#1D3A66" stroke-width="1.50" stroke-linejoin="round" stroke-linecap="round"/><path data-face="outline" d="M 173.82 135.56 L 173.82 165.56 L 38.72 87.56 L 38.72 57.56" fill="none" stroke="#1D3A66" stroke-width="1.50" stroke-linejoin="round" stroke-linecap="round"/><path data-face="outline" d="M 38.72 57.56 L 38.72 87.56 L 34.26 84.69 L 30.47 81.62 L 27.46 78.45 L 25.34 75.29 L 24.17 72.24 L 24.00 69.40 L 24.00 39.40" fill="none" stroke="#1D3A66" stroke-width="1.50" stroke-linejoin="round" stroke-linecap="round"/><path data-face="outline" d="M 68.55 39.10 L 68.55 69.10 L 73.13 71.91 L 77.09 74.94 L 80.29 78.09 L 82.62 81.27 L 84.01 84.35 L 84.40 87.25 L 84.40 57.25" fill="none" stroke="#1D3A66" stroke-width="1.50" stroke-linejoin="round" stroke-linecap="round"/><path data-face="top" d="M 84.40 57.25 L 79.85 51.85 L 76.81 46.54 L 75.40 41.46 L 75.64 36.79 L 77.54 32.67 L 81.04 29.24 L 86.01 26.59 L 92.31 24.83 L 99.74 24.00 L 108.06 24.13 L 117.00 25.21 L 126.28 27.22 L 135.60 30.08 L 144.67 33.71 L 153.21 37.99 L 160.93 42.79 L 167.60 47.95 L 172.99 53.30 L 176.95 58.69 L 179.34 63.93 L 180.09 68.86 L 179.18 73.33 L 176.63 77.18 L 176.63 77.18 L 180.11 78.43 L 183.53 79.84 L 186.84 81.38 L 190.01 83.04 L 193.02 84.81 L 195.83 86.67 L 198.42 88.60 L 200.77 90.59 L 202.85 92.62 L 204.63 94.66 L 206.12 96.69 L 207.28 98.71 L 208.11 100.68 L 208.61 102.59 L 208.76 104.42 L 208.57 106.16 L 208.04 107.79 L 207.17 109.29 L 205.96 110.64 L 204.45 111.84 L 202.62 112.88 L 200.52 113.74 L 198.14 114.41 L 198.14 114.41 L 202.28 116.37 L 206.14 118.55 L 209.63 120.90 L 212.68 123.37 L 215.23 125.92 L 217.22 128.48 L 218.61 131.00 L 219.37 133.43 L 219.47 135.71 L 218.93 137.80 L 217.74 139.64 L 215.94 141.21 L 213.57 142.46 L 210.67 143.37 L 207.31 143.91 L 203.56 144.09 L 199.51 143.89 L 195.23 143.31 L 190.82 142.38 L 186.39 141.11 L 182.01 139.52 L 177.79 137.66 L 173.82 135.56 L 173.82 135.56 L 38.72 57.56 L 38.72 57.56 L 34.26 54.69 L 30.47 51.62 L 27.46 48.45 L 25.34 45.29 L 24.17 42.24 L 24.00 39.40 L 24.83 36.87 L 26.63 34.72 L 29.35 33.04 L 32.89 31.88 L 37.14 31.27 L 41.95 31.24 L 47.16 31.78 L 52.61 32.88 L 58.12 34.51 L 63.49 36.60 L 68.55 39.10 L 73.13 41.91 L 77.09 44.94 L 80.29 48.09 L 82.62 51.27 L 84.01 54.35 L 84.40 57.25 Z" fill="#7FB3FF" stroke="#1D3A66" stroke-width="1.50" stroke-linejoin="round"/><g data-face="top-content" transform="matrix(0.8660 0.5000 -0.8660 0.5000 143.75 79.50)"><text x="0.00" y="0.00" dy=".35em" font-family="Helvetica Neue, Arial, sans-serif" font-size="16.00" font-weight="600" fill="#0B1F3A" text-anchor="middle">GCP</text></g></g></svg>