<svg xmlns="http://www.w3.org/2000/svg" xmlns:xlink="http://www.w3.org/1999/xlink" viewBox="0 0 231 179" width="231" height="179"><g data-face="wrap"><polygon data-face="side" points="156.34,82.00 165.38,83.73 174.22,84.47 182.54,84.20 190.02,82.93 196.37,80.70 201.37,77.60 204.82,73.75 206.58,69.29 206.60,64.39 206.60,94.39 206.58,99.29 204.82,103.75 201.37,107.60 196.37,110.70 190.02,112.93 182.54,114.20 174.22,114.47 165.38,113.73 156.34,112.00" fill="#3A6FBA" stroke="none"/><polygon data-face="side" points="26.78,48.03 27.38,52.09 28.85,56.25 31.15,60.45 34.25,64.64 38.11,68.75 38.11,68.75 38.11,98.75 38.11,98.75 34.25,94.64 31.15,90.45 28.85,86.25 27.38,82.09 26.78,78.03" fill="#3A6FBA" stroke="none"/><polygon data-face="side" points="24.00,84.55 24.72,89.81 27.18,95.25 31.30,100.69 36.93,105.93 43.88,110.80 51.90,115.11 60.71,118.73 70.02,121.52 79.48,123.39 88.79,124.27 97.60,124.13 105.62,122.99 112.56,120.87 118.18,117.85 122.30,114.03 124.75,109.56 125.47,104.58 125.47,134.58 124.75,139.56 122.30,144.03 118.18,147.85 112.56,150.87 105.62,152.99 97.60,154.13 88.79,154.27 79.48,153.39 70.02,151.52 60.71,148.73 51.90,145.11 43.88,140.80 36.93,135.93 31.30,130.69 27.18,125.25 24.72,119.81 24.00,114.55" fill="#3A6FBA" stroke="none"/><polygon data-face="side" points="121.64,93.81 122.03,94.04 147.45,79.36 147.45,109.36 122.03,124.04 121.64,123.81" fill="#3A6FBA" stroke="none"/><path data-face="outline" d="M 156.34 82.00 L 156.34 112.00 L 165.38 113.73 L 174.22 114.47 L 182.54 114.20 L 190.02 112.93 L 196.37 110.70 L 201.37 107.60 L 204.82 103.75 L 206.58 99.29 L 206.60 94.39 L 206.60 64.39" fill="none" stroke="#1D3A66" stroke-width="1.50" stroke-linejoin="round" stroke-linecap="round"/><path data-face="outline" d="M 26.78 48.03 L 26.78 78.03 L 27.38 82.09 L 28.85 86.25 L 31.15 90.45 L 34.25 94.64 L 38.11 98.75 L 38.11 98.75 L 38.11 68.75" fill="none" stroke="#1D3A66" stroke-width="1.50" stroke-linejoin="round" stroke-linecap="round"/><path data-face="outline" d="M 24.00 84.55 L 24.00 114.55 L 24.72 119.81 L 27.18 125.25 L 31.30 130.69 L 36.93 135.93 L 43.88 140.80 L 51.90 145.11 L 60.71 148.73 L 70.02 151.52 L 79.48 153.39 L 88.79 154.27 L 97.60 154.13 L 105.62 152.99 L 112.56 150.87 L 118.18 147.85 L 122.30 144.03 L 124.75 139.56 L 125.47 134.58 L 125.47 104.58" fill="none" stroke="#1D3A66" stroke-width="1.50" stroke-linejoin="round" stroke-linecap="round"/><path data-face="outline" d="M 121.64 93.81 L 121.64 123.81 L 122.03 124.04 L 147.45 109.36 L 147.45 79.36" fill="none" stroke="#1D3A66" stroke-width="1.50" stroke-linejoin="round" stroke-linecap="round"/><path data-face="top" d="M 147.45 79.36 L 156.34 82.00 L 165.38 83.73 L 174.22 84.47 L 182.54 84.20 L 190.02 82.93 L 196.37 80.70 L 201.37 77.60 L 204.82 73.75 L 206.58 69.29 L 206.60 64.39 L 204.87 59.24 L 201.46 54.03 L 196.50 48.95 L 190.16 44.20 L 182.71 39.96 L 174.40 36.39 L 165.57 33.61 L 156.53 31.75 L 147.64 30.86 L 139.22 30.98 L 131.60 32.11 L 125.07 34.21 L 119.86 37.18 L 119.86 37.18 L 113.42 34.07 L 106.62 31.30 L 99.55 28.94 L 92.33 27.00 L 85.05 25.52 L 77.81 24.52 L 70.71 24.01 L 63.86 24.00 L 57.35 24.49 L 51.27 25.47 L 45.71 26.92 L 40.76 28.84 L 36.47 31.18 L 32.90 33.93 L 30.12 37.03 L 28.15 40.45 L 27.03 44.13 L 26.78 48.03 L 27.38 52.09 L 28.85 56.25 L 31.15 60.45 L 34.25 64.64 L 38.11 68.75 L 38.11 68.75 L 32.23 71.61 L 27.82 75.29 L 25.04 79.65 L 24.00 84.55 L 24.72 89.81 L 27.18 95.25 L 31.30 100.69 L 36.93 105.93 L 43.88 110.80 L 51.90 115.11 L 60.71 118.73 L 70.02 121.52 L 79.48 123.39 L 88.79 124.27 L 97.60 124.13 L 105.62 122.99 L 112.56 120.87 L 118.18 117.85 L 122.30 114.03 L 124.75 109.56 L 125.47 104.58 L 124.42 99.27 L 121.64 93.81 L 122.03 94.04 L 147.45 79.36 Z" fill="#7FB3FF" stroke="#1D3A66" stroke-width="1.50" stroke-linejoin="round"/><g data-face="top-content" transform="matrix(0.8660 0.5000 -0.8660 0.5000 79.41 -15.66)"><text x="100.00" y="70.00" dy=".35em" font-family="Helvetica Neue, Arial, sans-serif" font-size="16.00" font-weight="600" fill="#0B1F3A" text-anchor="middle">GCP</text></g></g></svg>