<svg xmlns="http://www.w3.org/2000/svg" xmlns:xlink="http://www.w3.org/1999/xlink" viewBox="0 0 226 200" width="226" height="200"><g data-face="wrap"><polygon data-face="side" points="142.69,82.39 145.68,77.03 146.60,71.07 146.60,101.07 145.68,107.03 142.69,112.39" fill="#3A6FBA" stroke="none"/><polygon data-face="side" points="24.00,48.14 25.36,54.54 28.78,61.09 34.15,67.59 41.27,73.80 41.27,103.80 34.15,97.59 28.78,91.09 25.36,84.54 24.00,78.14" fill="#3A6FBA" stroke="none"/><polygon data-face="side" points="27.26,87.44 27.32,89.52 27.73,91.65 28.47,93.82 29.54,96.01 30.94,98.21 32.65,100.39 34.66,102.54 36.95,104.64 39.51,106.67 42.31,108.63 45.33,110.48 48.54,112.22 51.92,113.83 55.45,115.30 55.45,145.30 51.92,143.83 48.54,142.22 45.33,140.48 42.31,138.63 39.51,136.67 36.95,134.64 34.66,132.54 32.65,130.39 30.94,128.21 29.54,126.01 28.47,123.82 27.73,121.65 27.32,119.52 27.26,117.44" fill="#3A6FBA" stroke="none"/><polygon data-face="side" points="53.06,121.21 53.27,123.44 54.00,125.73 55.22,128.05 56.91,130.37 59.06,132.64 61.62,134.83 64.55,136.91 67.81,138.84 71.34,140.58 75.09,142.12 78.99,143.43 82.99,144.48 87.01,145.26 91.00,145.75 94.89,145.96 98.62,145.87 102.12,145.48 105.35,144.81 108.24,143.86 110.75,142.65 110.75,172.65 108.24,173.86 105.35,174.81 102.12,175.48 98.62,175.87 94.89,175.96 91.00,175.75 87.01,175.26 82.99,174.48 78.99,173.43 75.09,172.12 71.34,170.58 67.81,168.84 64.55,166.91 61.62,164.83 59.06,162.64 56.91,160.37 55.22,158.05 54.00,155.73 53.27,153.44 53.06,151.21" fill="#3A6FBA" stroke="none"/><polygon data-face="side" points="110.75,142.65 195.62,93.65 195.62,123.65 110.75,172.65" fill="#3A6FBA" stroke="none"/><polygon data-face="side" points="195.62,93.65 198.55,91.44 200.47,88.77 201.32,85.75 201.32,115.75 200.47,118.77 198.55,121.44 195.62,123.65" fill="#3A6FBA" stroke="none"/><polygon data-face="side" points="146.57,62.29 142.92,64.11 140.21,66.43 138.52,69.18 137.93,72.27 137.93,102.27 138.52,99.18 140.21,96.43 142.92,94.11 146.57,92.29" fill="#3A6FBA" stroke="none"/><path data-face="outline" d="M 142.69 82.39 L 142.69 112.39 L 145.68 107.03 L 146.60 101.07 L 146.60 71.07" fill="none" stroke="#1D3A66" stroke-width="1.50" stroke-linejoin="round" stroke-linecap="round"/><path data-face="outline" d="M 24.00 48.14 L 24.00 78.14 L 25.36 84.54 L 28.78 91.09 L 34.15 97.59 L 41.27 103.80 L 41.27 73.80" fill="none" stroke="#1D3A66" stroke-width="1.50" stroke-linejoin="round" stroke-linecap="round"/><path data-face="outline" d="M 27.26 87.44 L 27.26 117.44 L 27.32 119.52 L 27.73 121.65 L 28.47 123.82 L 29.54 126.01 L 30.94 128.21 L 32.65 130.39 L 34.66 132.54 L 36.95 134.64 L 39.51 136.67 L 42.31 138.63 L 45.33 140.48 L 48.54 142.22 L 51.92 143.83 L 55.45 145.30 L 55.45 115.30" fill="none" stroke="#1D3A66" stroke-width="1.50" stroke-linejoin="round" stroke-linecap="round"/><path data-face="outline" d="M 53.06 121.21 L 53.06 151.21 L 53.27 153.44 L 54.00 155.73 L 55.22 158.05 L 56.91 160.37 L 59.06 162.64 L 61.62 164.83 L 64.55 166.91 L 67.81 168.84 L 71.34 170.58 L 75.09 172.12 L 78.99 173.43 L 82.99 174.48 L 87.01 175.26 L 91.00 175.75 L 94.89 175.96 L 98.62 175.87 L 102.12 175.48 L 105.35 174.81 L 108.24 173.86 L 110.75 172.65 L 110.75 142.65" fill="none" stroke="#1D3A66" stroke-width="1.50" stroke-linejoin="round" stroke-linecap="round"/><path data-face="outline" d="M 110.75 142.65 L 110.75 172.65 L 195.62 123.65 L 195.62 93.65" fill="none" stroke="#1D3A66" stroke-width="1.50" stroke-linejoin="round" stroke-linecap="round"/><path data-face="outline" d="M 195.62 93.65 L 195.62 123.65 L 198.55 121.44 L 200.47 118.77 L 201.32 115.75 L 201.32 85.75" fill="none" stroke="#1D3A66" stroke-width="1.50" stroke-linejoin="round" stroke-linecap="round"/><path data-face="outline" d="M 146.57 62.29 L 146.57 92.29 L 142.92 94.11 L 140.21 96.43 L 138.52 99.18 L 137.93 102.27 L 137.93 72.27" fill="none" stroke="#1D3A66" stroke-width="1.50" stroke-linejoin="round" stroke-linecap="round"/><path data-face="top" d="M 142.69 82.39 L 145.68 77.03 L 146.60 71.07 L 145.41 64.70 L 142.15 58.15 L 136.94 51.64 L 129.95 45.39 L 121.43 39.62 L 111.66 34.54 L 100.99 30.30 L 89.78 27.07 L 78.41 24.94 L 67.28 24.00 L 56.77 24.27 L 47.24 25.75 L 39.02 28.39 L 32.39 32.09 L 27.57 36.72 L 24.75 42.14 L 24.00 48.14 L 25.36 54.54 L 28.78 61.09 L 34.15 67.59 L 41.27 73.80 L 41.27 73.80 L 38.56 74.72 L 36.09 75.80 L 33.90 77.06 L 32.00 78.47 L 30.40 80.02 L 29.12 81.71 L 28.16 83.52 L 27.54 85.44 L 27.26 87.44 L 27.32 89.52 L 27.73 91.65 L 28.47 93.82 L 29.54 96.01 L 30.94 98.21 L 32.65 100.39 L 34.66 102.54 L 36.95 104.64 L 39.51 106.67 L 42.31 108.63 L 45.33 110.48 L 48.54 112.22 L 51.92 113.83 L 55.45 115.30 L 55.45 115.30 L 54.16 117.11 L 53.35 119.09 L 53.06 121.21 L 53.27 123.44 L 54.00 125.73 L 55.22 128.05 L 56.91 130.37 L 59.06 132.64 L 61.62 134.83 L 64.55 136.91 L 67.81 138.84 L 71.34 140.58 L 75.09 142.12 L 78.99 143.43 L 82.99 144.48 L 87.01 145.26 L 91.00 145.75 L 94.89 145.96 L 98.62 145.87 L 102.12 145.48 L 105.35 144.81 L 108.24 143.86 L 110.75 142.65 L 110.75 142.65 L 195.62 93.65 L 195.62 93.65 L 198.55 91.44 L 200.47 88.77 L 201.32 85.75 L 201.05 82.49 L 199.69 79.09 L 197.27 75.67 L 193.89 72.36 L 189.66 69.27 L 184.74 66.51 L 179.28 64.17 L 173.49 62.34 L 167.56 61.07 L 161.70 60.43 L 156.12 60.42 L 151.02 61.05 L 146.57 62.29 L 142.92 64.11 L 140.21 66.43 L 138.52 69.18 L 137.93 72.27 L 138.44 75.57 L 140.05 78.99 L 142.69 82.39 Z" fill="#7FB3FF" stroke="#1D3A66" stroke-width="1.50" stroke-linejoin="round"/><g data-face="top-content" transform="matrix(0.8660 0.5000 -0.8660 0.5000 59.66 -5.85)"><text x="100.00" y="70.00" dy=".35em" font-family="Helvetica Neue, Arial, sans-serif" font-size="16.00" font-weight="600" fill="#0B1F3A" text-anchor="middle">GCP</text></g></g></svg>