<svg xmlns="http://www.w3.org/2000/svg" xmlns:xlink="http://www.w3.org/1999/xlink" viewBox="0 0 241 193" width="241" height="193"><g data-face="wrap"><polygon data-face="side" points="81.80,53.53 76.82,48.38 73.24,43.38 71.18,38.68 70.69,34.43 70.69,64.43 71.18,68.68 73.24,73.38 76.82,78.38 81.80,83.53" fill="#3A6FBA" stroke="none"/><polygon data-face="side" points="170.82,68.99 170.67,73.02 168.93,76.41 168.93,106.41 170.67,103.02 170.82,98.99" fill="#3A6FBA" stroke="none"/><polygon data-face="side" points="202.49,104.46 202.25,105.91 201.68,107.23 200.80,108.41 199.60,109.43 198.09,110.28 196.30,110.95 194.24,111.45 194.24,141.45 196.30,140.95 198.09,140.28 199.60,139.43 200.80,138.41 201.68,137.23 202.25,135.91 202.49,134.46" fill="#3A6FBA" stroke="none"/><polygon data-face="side" points="194.24,111.45 198.31,113.44 202.16,115.62 202.16,145.62 198.31,143.44 194.24,141.45" fill="#3A6FBA" stroke="none"/><polygon data-face="side" points="216.94,131.96 216.76,133.83 215.97,135.45 214.57,136.79 212.59,137.80 210.09,138.48 207.11,138.81 203.72,138.78 199.99,138.39 196.00,137.65 191.84,136.58 187.60,135.19 183.37,133.52 179.24,131.61 175.30,129.49 175.30,159.49 179.24,161.61 183.37,163.52 187.60,165.19 191.84,166.58 196.00,167.65 199.99,168.39 203.72,168.78 207.11,168.81 210.09,168.48 212.59,167.80 214.57,166.79 215.97,165.45 216.76,163.83 216.94,161.96" fill="#3A6FBA" stroke="none"/><polygon data-face="side" points="175.30,129.49 40.20,51.49 40.20,81.49 175.30,159.49" fill="#3A6FBA" stroke="none"/><polygon data-face="side" points="40.20,51.49 35.69,48.65 31.77,45.66 28.54,42.61 26.12,39.62 24.59,36.78 24.00,34.18 24.00,64.18 24.59,66.78 26.12,69.62 28.54,72.61 31.77,75.66 35.69,78.65 40.20,81.49" fill="#3A6FBA" stroke="none"/><polygon data-face="side" points="64.57,36.18 69.18,38.97 73.25,41.94 76.65,44.98 79.26,47.99 81.00,50.87 81.80,53.53 81.80,83.53 81.00,80.87 79.26,77.99 76.65,74.98 73.25,71.94 69.18,68.97 64.57,66.18" fill="#3A6FBA" stroke="none"/><path data-face="outline" d="M 81.80 53.53 L 81.80 83.53 L 76.82 78.38 L 73.24 73.38 L 71.18 68.68 L 70.69 64.43 L 70.69 34.43" fill="none" stroke="#1D3A66" stroke-width="1.50" stroke-linejoin="round" stroke-linecap="round"/><path data-face="outline" d="M 170.82 68.99 L 170.82 98.99 L 170.67 103.02 L 168.93 106.41 L 168.93 76.41" fill="none" stroke="#1D3A66" stroke-width="1.50" stroke-linejoin="round" stroke-linecap="round"/><path data-face="outline" d="M 202.49 104.46 L 202.49 134.46 L 202.25 135.91 L 201.68 137.23 L 200.80 138.41 L 199.60 139.43 L 198.09 140.28 L 196.30 140.95 L 194.24 141.45 L 194.24 111.45" fill="none" stroke="#1D3A66" stroke-width="1.50" stroke-linejoin="round" stroke-linecap="round"/><path data-face="outline" d="M 194.24 111.45 L 194.24 141.45 L 198.31 143.44 L 202.16 145.62 L 202.16 115.62" fill="none" stroke="#1D3A66" stroke-width="1.50" stroke-linejoin="round" stroke-linecap="round"/><path data-face="outline" d="M 216.94 131.96 L 216.94 161.96 L 216.76 163.83 L 215.97 165.45 L 214.57 166.79 L 212.59 167.80 L 210.09 168.48 L 207.11 168.81 L 203.72 168.78 L 199.99 168.39 L 196.00 167.65 L 191.84 166.58 L 187.60 165.19 L 183.37 163.52 L 179.24 161.61 L 175.30 159.49 L 175.30 129.49" fill="none" stroke="#1D3A66" stroke-width="1.50" stroke-linejoin="round" stroke-linecap="round"/><path data-face="outline" d="M 175.30 129.49 L 175.30 159.49 L 40.20 81.49 L 40.20 51.49" fill="none" stroke="#1D3A66" stroke-width="1.50" stroke-linejoin="round" stroke-linecap="round"/><path data-face="outline" d="M 40.20 51.49 L 40.20 81.49 L 35.69 78.65 L 31.77 75.66 L 28.54 72.61 L 26.12 69.62 L 24.59 66.78 L 24.00 64.18 L 24.00 34.18" fill="none" stroke="#1D3A66" stroke-width="1.50" stroke-linejoin="round" stroke-linecap="round"/><path data-face="outline" d="M 64.57 36.18 L 64.57 66.18 L 69.18 68.97 L 73.25 71.94 L 76.65 74.98 L 79.26 77.99 L 81.00 80.87 L 81.80 83.53 L 81.80 53.53" fill="none" stroke="#1D3A66" stroke-width="1.50" stroke-linejoin="round" stroke-linecap="round"/><path data-face="top" d="M 81.80 53.53 L 76.82 48.38 L 73.24 43.38 L 71.18 38.68 L 70.69 34.43 L 71.79 30.77 L 74.45 27.82 L 78.58 25.67 L 84.06 24.38 L 90.70 24.00 L 98.31 24.54 L 106.62 25.99 L 115.39 28.29 L 124.33 31.37 L 133.16 35.14 L 141.59 39.48 L 149.37 44.25 L 156.23 49.29 L 161.97 54.45 L 166.40 59.56 L 169.39 64.46 L 170.82 68.99 L 170.67 73.02 L 168.93 76.41 L 168.93 76.41 L 172.30 77.73 L 175.63 79.18 L 178.89 80.75 L 182.03 82.43 L 185.05 84.20 L 187.90 86.04 L 190.55 87.93 L 193.00 89.86 L 195.20 91.81 L 197.14 93.76 L 198.80 95.70 L 200.17 97.59 L 201.23 99.43 L 201.98 101.20 L 202.40 102.88 L 202.49 104.46 L 202.25 105.91 L 201.68 107.23 L 200.80 108.41 L 199.60 109.43 L 198.09 110.28 L 196.30 110.95 L 194.24 111.45 L 194.24 111.45 L 198.31 113.44 L 202.16 115.62 L 205.71 117.95 L 208.87 120.36 L 211.58 122.81 L 213.79 125.25 L 215.44 127.62 L 216.50 129.87 L 216.94 131.96 L 216.76 133.83 L 215.97 135.45 L 214.57 136.79 L 212.59 137.80 L 210.09 138.48 L 207.11 138.81 L 203.72 138.78 L 199.99 138.39 L 196.00 137.65 L 191.84 136.58 L 187.60 135.19 L 183.37 133.52 L 179.24 131.61 L 175.30 129.49 L 175.30 129.49 L 40.20 51.49 L 40.20 51.49 L 35.69 48.65 L 31.77 45.66 L 28.54 42.61 L 26.12 39.62 L 24.59 36.78 L 24.00 34.18 L 24.37 31.92 L 25.69 30.05 L 27.91 28.66 L 30.96 27.78 L 34.73 27.44 L 39.12 27.65 L 43.96 28.42 L 49.09 29.70 L 54.36 31.46 L 59.58 33.65 L 64.57 36.18 L 69.18 38.97 L 73.25 41.94 L 76.65 44.98 L 79.26 47.99 L 81.00 50.87 L 81.80 53.53 Z" fill="#7FB3FF" stroke="#1D3A66" stroke-width="1.50" stroke-linejoin="round"/><g data-face="top-content" transform="matrix(0.8660 0.5000 -0.8660 0.5000 139.31 76.85)"><text x="0.00" y="0.00" dy=".35em" font-family="Helvetica Neue, Arial, sans-serif" font-size="16.00" font-weight="600" fill="#0B1F3A" text-anchor="middle">GCP</text></g></g></svg>