<svg xmlns="http://www.w3.org/2000/svg" xmlns:xlink="http://www.w3.org/1999/xlink" viewBox="0 0 247 204" width="247" height="204"><g data-face="wrap"><polygon data-face="side" points="87.25,61.25 83.12,55.61 80.63,49.97 79.86,44.52 79.86,74.52 80.63,79.97 83.12,85.61 87.25,91.25" fill="#3A6FBA" stroke="none"/><polygon data-face="side" points="189.61,69.01 187.93,73.91 184.57,78.24 184.57,108.24 187.93,103.91 189.61,99.01" fill="#3A6FBA" stroke="none"/><polygon data-face="side" points="215.49,104.26 215.38,106.25 214.90,108.15 214.07,109.95 212.89,111.62 211.38,113.16 209.54,114.54 207.40,115.76 204.98,116.80 202.29,117.66 202.29,147.66 204.98,146.80 207.40,145.76 209.54,144.54 211.38,143.16 212.89,141.62 214.07,139.95 214.90,138.15 215.38,136.25 215.49,134.26" fill="#3A6FBA" stroke="none"/><polygon data-face="side" points="202.29,117.66 206.50,119.58 210.36,121.75 210.36,151.75 206.50,149.58 202.29,147.66" fill="#3A6FBA" stroke="none"/><polygon data-face="side" points="222.48,137.28 222.25,139.75 221.34,142.05 219.76,144.12 217.57,145.91 214.79,147.39 211.50,148.53 207.76,149.30 203.66,149.68 199.27,149.67 194.71,149.26 190.05,148.47 185.42,147.31 180.90,145.81 176.59,144.00 172.59,141.91 172.59,171.91 176.59,174.00 180.90,175.81 185.42,177.31 190.05,178.47 194.71,179.26 199.27,179.67 203.66,179.68 207.76,179.30 211.50,178.53 214.79,177.39 217.57,175.91 219.76,174.12 221.34,172.05 222.25,169.75 222.48,167.28" fill="#3A6FBA" stroke="none"/><polygon data-face="side" points="172.59,141.91 37.49,63.91 37.49,93.91 172.59,171.91" fill="#3A6FBA" stroke="none"/><polygon data-face="side" points="37.49,63.91 33.08,61.02 29.42,57.87 26.63,54.58 24.80,51.24 24.00,47.98 24.00,77.98 24.80,81.24 26.63,84.58 29.42,87.87 33.08,91.02 37.49,93.91" fill="#3A6FBA" stroke="none"/><polygon data-face="side" points="72.77,42.30 77.33,45.13 81.18,48.22 84.17,51.49 86.22,54.83 87.26,58.12 87.26,88.12 86.22,84.83 84.17,81.49 81.18,78.22 77.33,75.13 72.77,72.30" fill="#3A6FBA" stroke="none"/><path data-face="outline" d="M 87.25 61.25 L 87.25 91.25 L 83.12 85.61 L 80.63 79.97 L 79.86 74.52 L 79.86 44.52" fill="none" stroke="#1D3A66" stroke-width="1.50" stroke-linejoin="round" stroke-linecap="round"/><path data-face="outline" d="M 189.61 69.01 L 189.61 99.01 L 187.93 103.91 L 184.57 108.24 L 184.57 78.24" fill="none" stroke="#1D3A66" stroke-width="1.50" stroke-linejoin="round" stroke-linecap="round"/><path data-face="outline" d="M 215.49 104.26 L 215.49 134.26 L 215.38 136.25 L 214.90 138.15 L 214.07 139.95 L 212.89 141.62 L 211.38 143.16 L 209.54 144.54 L 207.40 145.76 L 204.98 146.80 L 202.29 147.66 L 202.29 117.66" fill="none" stroke="#1D3A66" stroke-width="1.50" stroke-linejoin="round" stroke-linecap="round"/><path data-face="outline" d="M 202.29 117.66 L 202.29 147.66 L 206.50 149.58 L 210.36 151.75 L 210.36 121.75" fill="none" stroke="#1D3A66" stroke-width="1.50" stroke-linejoin="round" stroke-linecap="round"/><path data-face="outline" d="M 222.48 137.28 L 222.48 167.28 L 222.25 169.75 L 221.34 172.05 L 219.76 174.12 L 217.57 175.91 L 214.79 177.39 L 211.50 178.53 L 207.76 179.30 L 203.66 179.68 L 199.27 179.67 L 194.71 179.26 L 190.05 178.47 L 185.42 177.31 L 180.90 175.81 L 176.59 174.00 L 172.59 171.91 L 172.59 141.91" fill="none" stroke="#1D3A66" stroke-width="1.50" stroke-linejoin="round" stroke-linecap="round"/><path data-face="outline" d="M 172.59 141.91 L 172.59 171.91 L 37.49 93.91 L 37.49 63.91" fill="none" stroke="#1D3A66" stroke-width="1.50" stroke-linejoin="round" stroke-linecap="round"/><path data-face="outline" d="M 37.49 63.91 L 37.49 93.91 L 33.08 91.02 L 29.42 87.87 L 26.63 84.58 L 24.80 81.24 L 24.00 77.98 L 24.00 47.98" fill="none" stroke="#1D3A66" stroke-width="1.50" stroke-linejoin="round" stroke-linecap="round"/><path data-face="outline" d="M 72.77 42.30 L 72.77 72.30 L 77.33 75.13 L 81.18 78.22 L 84.17 81.49 L 86.22 84.83 L 87.26 88.12 L 87.26 58.12" fill="none" stroke="#1D3A66" stroke-width="1.50" stroke-linejoin="round" stroke-linecap="round"/><path data-face="top" d="M 87.25 61.25 L 83.12 55.61 L 80.63 49.97 L 79.86 44.52 L 80.85 39.43 L 83.54 34.85 L 87.87 30.93 L 93.69 27.81 L 100.82 25.57 L 109.03 24.28 L 118.06 24.00 L 127.62 24.73 L 137.41 26.44 L 147.12 29.08 L 156.44 32.56 L 165.07 36.79 L 172.74 41.61 L 179.21 46.88 L 184.26 52.44 L 187.75 58.10 L 189.55 63.68 L 189.61 69.01 L 187.93 73.91 L 184.57 78.24 L 184.57 78.24 L 188.17 79.43 L 191.67 80.78 L 195.04 82.29 L 198.24 83.93 L 201.24 85.71 L 204.02 87.59 L 206.54 89.56 L 208.79 91.60 L 210.74 93.70 L 212.38 95.83 L 213.68 97.97 L 214.64 100.10 L 215.24 102.21 L 215.49 104.26 L 215.38 106.25 L 214.90 108.15 L 214.07 109.95 L 212.89 111.62 L 211.38 113.16 L 209.54 114.54 L 207.40 115.76 L 204.98 116.80 L 202.29 117.66 L 202.29 117.66 L 206.50 119.58 L 210.36 121.75 L 213.80 124.13 L 216.75 126.67 L 219.13 129.31 L 220.91 132.00 L 222.03 134.67 L 222.48 137.28 L 222.25 139.75 L 221.34 142.05 L 219.76 144.12 L 217.57 145.91 L 214.79 147.39 L 211.50 148.53 L 207.76 149.30 L 203.66 149.68 L 199.27 149.67 L 194.71 149.26 L 190.05 148.47 L 185.42 147.31 L 180.90 145.81 L 176.59 144.00 L 172.59 141.91 L 172.59 141.91 L 37.49 63.91 L 37.49 63.91 L 33.08 61.02 L 29.42 57.87 L 26.63 54.58 L 24.80 51.24 L 24.00 47.98 L 24.25 44.90 L 25.54 42.10 L 27.83 39.68 L 31.04 37.71 L 35.07 36.26 L 39.79 35.38 L 45.03 35.10 L 50.62 35.43 L 56.38 36.35 L 62.12 37.84 L 67.65 39.85 L 72.77 42.30 L 77.33 45.13 L 81.18 48.22 L 84.17 51.49 L 86.22 54.83 L 87.26 58.12 L 87.25 61.25 Z" fill="#7FB3FF" stroke="#1D3A66" stroke-width="1.50" stroke-linejoin="round"/><g data-face="top-content" transform="matrix(0.8660 0.5000 -0.8660 0.5000 148.44 82.44)"><text x="0.00" y="0.00" dy=".35em" font-family="Helvetica Neue, Arial, sans-serif" font-size="18.00" font-weight="600" fill="#0B1F3A" text-anchor="middle">GCP</text></g></g></svg>