<svg xmlns="http://www.w3.org/2000/svg" xmlns:xlink="http://www.w3.org/1999/xlink" viewBox="0 0 211.72 172.02" width="212" height="173"><g data-face="wrap"><polygon data-face="side" points="184.27,84.07 184.02,81.67 183.34,79.22 182.25,76.72 180.75,74.21 178.87,71.72 177.61,69.20 177.61,99.20 178.87,101.72 180.75,104.21 182.25,106.72 183.34,109.22 184.02,111.67 184.27,114.07" fill="#3A6FBA" stroke="none"/><polygon data-face="side" points="187.72,58.58 187.23,54.86 185.54,51.18 182.81,47.61 179.18,44.23 174.77,41.11 169.68,38.32 164.05,35.93 157.97,34.02 151.56,32.66 144.94,31.96 138.23,32.07 132.13,32.15 127.47,30.12 122.60,28.34 117.59,26.85 112.51,25.65 107.43,24.77 102.40,24.22 97.49,24.00 92.78,24.12 88.31,24.58 84.15,25.36 80.36,26.48 76.51,27.20 71.58,26.36 66.66,25.78 61.80,25.47 57.05,25.43 52.47,25.67 48.09,26.19 43.97,26.98 40.14,28.04 36.65,29.36 33.52,30.93 30.81,32.73 28.52,34.75 26.68,36.96 25.31,39.34 24.41,41.87 24.00,44.52 24.00,74.52 24.41,71.87 25.31,69.34 26.68,66.96 28.52,64.75 30.81,62.73 33.52,60.93 36.65,59.36 40.14,58.04 43.97,56.98 48.09,56.19 52.47,55.67 57.05,55.43 61.80,55.47 66.66,55.78 71.58,56.36 76.51,57.20 80.36,56.48 84.15,55.36 88.31,54.58 92.78,54.12 97.49,54.00 102.40,54.22 107.43,54.77 112.51,55.65 117.59,56.85 122.60,58.34 127.47,60.12 132.13,62.15 138.23,62.07 144.94,61.96 151.56,62.66 157.97,64.02 164.05,65.93 169.68,68.32 174.77,71.11 179.18,74.23 182.81,77.61 185.54,81.18 187.23,84.86 187.72,88.58" fill="#3A6FBA" stroke="none"/><path data-face="outline" d="M 184.27 84.07 L 184.27 114.07 L 184.02 111.67 L 183.34 109.22 L 182.25 106.72 L 180.75 104.21 L 178.87 101.72 L 177.61 99.20 L 177.61 69.20" fill="none" stroke="#1D3A66" stroke-width="1.50" stroke-linejoin="round" stroke-linecap="round"/><path data-face="outline" d="M 187.72 58.58 L 187.72 88.58 L 187.23 84.86 L 185.54 81.18 L 182.81 77.61 L 179.18 74.23 L 174.77 71.11 L 169.68 68.32 L 164.05 65.93 L 157.97 64.02 L 151.56 62.66 L 144.94 61.96 L 138.23 62.07 L 132.13 62.15 L 127.47 60.12 L 122.60 58.34 L 117.59 56.85 L 112.51 55.65 L 107.43 54.77 L 102.40 54.22 L 97.49 54.00 L 92.78 54.12 L 88.31 54.58 L 84.15 55.36 L 80.36 56.48 L 76.51 57.20 L 71.58 56.36 L 66.66 55.78 L 61.80 55.47 L 57.05 55.43 L 52.47 55.67 L 48.09 56.19 L 43.97 56.98 L 40.14 58.04 L 36.65 59.36 L 33.52 60.93 L 30.81 62.73 L 28.52 64.75 L 26.68 66.96 L 25.31 69.34 L 24.41 71.87 L 24.00 74.52 L 24.00 44.52" fill="none" stroke="#1D3A66" stroke-width="1.50" stroke-linejoin="round" stroke-linecap="round"/><path data-face="top" d="M 48.76 108.14 L 53.38 110.97 L 58.57 113.42 L 64.21 115.43 L 70.16 116.92 L 76.32 117.82 L 82.54 118.02 L 88.71 117.37 L 94.68 115.52 L 100.22 112.11 L 104.32 113.33 L 108.48 114.34 L 112.65 115.15 L 116.80 115.75 L 120.90 116.12 L 124.89 116.26 L 128.75 116.18 L 132.44 115.88 L 135.92 115.36 L 139.16 114.62 L 142.14 113.69 L 144.84 112.57 L 147.23 111.27 L 149.30 109.82 L 151.03 108.22 L 152.42 106.50 L 153.48 104.68 L 154.19 102.78 L 155.17 101.16 L 158.83 101.06 L 162.39 100.74 L 165.80 100.21 L 169.03 99.46 L 172.03 98.49 L 174.78 97.31 L 177.23 95.93 L 179.35 94.35 L 181.12 92.59 L 182.51 90.67 L 183.51 88.59 L 184.10 86.39 L 184.27 84.07 L 184.02 81.67 L 183.34 79.22 L 182.25 76.72 L 180.75 74.21 L 178.87 71.72 L 177.61 69.20 L 183.91 65.83 L 186.77 62.27 L 187.72 58.58 L 187.23 54.86 L 185.54 51.18 L 182.81 47.61 L 179.18 44.23 L 174.77 41.11 L 169.68 38.32 L 164.05 35.93 L 157.97 34.02 L 151.56 32.66 L 144.94 31.96 L 138.23 32.07 L 132.13 32.15 L 127.47 30.12 L 122.60 28.34 L 117.59 26.85 L 112.51 25.65 L 107.43 24.77 L 102.40 24.22 L 97.49 24.00 L 92.78 24.12 L 88.31 24.58 L 84.15 25.36 L 80.36 26.48 L 76.51 27.20 L 71.58 26.36 L 66.66 25.78 L 61.80 25.47 L 57.05 25.43 L 52.47 25.67 L 48.09 26.19 L 43.97 26.98 L 40.14 28.04 L 36.65 29.36 L 33.52 30.93 L 30.81 32.73 L 28.52 34.75 L 26.68 36.96 L 25.31 39.34 L 24.41 41.87 L 24.00 44.52 L 24.07 47.26 L 24.61 50.06 L 25.61 52.90 L 27.06 55.75 L 28.92 58.57 L 30.73 61.28 L 29.01 63.42 L 27.83 65.76 L 27.20 68.26 L 27.13 70.89 L 27.63 73.62 L 28.67 76.40 L 30.26 79.21 L 32.36 82.00 L 34.95 84.75 L 38.00 87.41 L 39.03 90.53 L 38.57 94.30 L 39.56 98.01 L 41.70 101.59 L 44.82 104.99 Z" fill="#7FB3FF" stroke="#1D3A66" stroke-width="1.50" stroke-linejoin="round"/><g data-face="top-content" transform="matrix(0.8660 0.5000 -0.8660 0.5000 79.25 -15.47)"><text x="100.00" y="70.00" dy=".35em" font-family="Helvetica Neue, Arial, sans-serif" font-size="16.00" font-weight="600" fill="#0B1F3A" text-anchor="middle">GCP</text></g></g></svg>