<svg xmlns="http://www.w3.org/2000/svg" xmlns:xlink="http://www.w3.org/1999/xlink" viewBox="0 0 192 175" width="192" height="175"><g data-face="wrap"><polygon data-face="side" points="120.28,63.48 124.47,58.81 127.17,53.88 128.30,48.85 128.30,78.85 127.17,83.88 124.47,88.81 120.28,93.48" fill="#3A6FBA" stroke="none"/><polygon data-face="side" points="34.41,53.79 35.02,58.73 37.23,63.40 40.95,67.65 40.95,97.65 37.23,93.40 35.02,88.73 34.41,83.79" fill="#3A6FBA" stroke="none"/><polygon data-face="side" points="24.00,85.27 24.15,86.93 24.56,88.55 25.23,90.13 26.15,91.65 27.31,93.10 28.71,94.47 30.34,95.74 32.17,96.91 34.20,97.97 36.41,98.90 38.79,99.71 38.79,129.71 36.41,128.90 34.20,127.97 32.17,126.91 30.34,125.74 28.71,124.47 27.31,123.10 26.15,121.65 25.23,120.13 24.56,118.55 24.15,116.93 24.00,115.27" fill="#3A6FBA" stroke="none"/><polygon data-face="side" points="34.18,108.32 34.40,110.06 35.01,111.75 36.00,113.36 37.35,114.85 39.04,116.21 41.05,117.42 43.33,118.44 45.86,119.28 48.60,119.91 51.49,120.32 54.49,120.51 57.56,120.47 60.65,120.21 63.69,119.73 66.66,119.04 69.49,118.14 72.14,117.05 74.58,115.80 74.58,145.80 72.14,147.05 69.49,148.14 66.66,149.04 63.69,149.73 60.65,150.21 57.56,150.47 54.49,150.51 51.49,150.32 48.60,149.91 45.86,149.28 43.33,148.44 41.05,147.42 39.04,146.21 37.35,144.85 36.00,143.36 35.01,141.75 34.40,140.06 34.18,138.32" fill="#3A6FBA" stroke="none"/><polygon data-face="side" points="74.58,115.80 159.45,66.80 159.45,96.80 74.58,145.80" fill="#3A6FBA" stroke="none"/><polygon data-face="side" points="159.45,66.80 162.55,64.68 164.99,62.31 166.66,59.77 167.52,57.16 167.54,54.55 167.54,84.55 167.52,87.16 166.66,89.77 164.99,92.31 162.55,94.68 159.45,96.80" fill="#3A6FBA" stroke="none"/><polygon data-face="side" points="130.03,46.78 126.48,48.65 123.52,50.83 121.25,53.24 119.75,55.80 119.08,58.43 119.08,88.43 119.75,85.80 121.25,83.24 123.52,80.83 126.48,78.65 130.03,76.78" fill="#3A6FBA" stroke="none"/><path data-face="outline" d="M 120.28 63.48 L 120.28 93.48 L 124.47 88.81 L 127.17 83.88 L 128.30 78.85 L 128.30 48.85" fill="none" stroke="#1D3A66" stroke-width="1.50" stroke-linejoin="round" stroke-linecap="round"/><path data-face="outline" d="M 34.41 53.79 L 34.41 83.79 L 35.02 88.73 L 37.23 93.40 L 40.95 97.65 L 40.95 67.65" fill="none" stroke="#1D3A66" stroke-width="1.50" stroke-linejoin="round" stroke-linecap="round"/><path data-face="outline" d="M 24.00 85.27 L 24.00 115.27 L 24.15 116.93 L 24.56 118.55 L 25.23 120.13 L 26.15 121.65 L 27.31 123.10 L 28.71 124.47 L 30.34 125.74 L 32.17 126.91 L 34.20 127.97 L 36.41 128.90 L 38.79 129.71 L 38.79 99.71" fill="none" stroke="#1D3A66" stroke-width="1.50" stroke-linejoin="round" stroke-linecap="round"/><path data-face="outline" d="M 34.18 108.32 L 34.18 138.32 L 34.40 140.06 L 35.01 141.75 L 36.00 143.36 L 37.35 144.85 L 39.04 146.21 L 41.05 147.42 L 43.33 148.44 L 45.86 149.28 L 48.60 149.91 L 51.49 150.32 L 54.49 150.51 L 57.56 150.47 L 60.65 150.21 L 63.69 149.73 L 66.66 149.04 L 69.49 148.14 L 72.14 147.05 L 74.58 145.80 L 74.58 115.80" fill="none" stroke="#1D3A66" stroke-width="1.50" stroke-linejoin="round" stroke-linecap="round"/><path data-face="outline" d="M 74.58 115.80 L 74.58 145.80 L 159.45 96.80 L 159.45 66.80" fill="none" stroke="#1D3A66" stroke-width="1.50" stroke-linejoin="round" stroke-linecap="round"/><path data-face="outline" d="M 159.45 66.80 L 159.45 96.80 L 162.55 94.68 L 164.99 92.31 L 166.66 89.77 L 167.52 87.16 L 167.54 84.55 L 167.54 54.55" fill="none" stroke="#1D3A66" stroke-width="1.50" stroke-linejoin="round" stroke-linecap="round"/><path data-face="outline" d="M 130.03 46.78 L 130.03 76.78 L 126.48 78.65 L 123.52 80.83 L 121.25 83.24 L 119.75 85.80 L 119.08 88.43 L 119.08 58.43" fill="none" stroke="#1D3A66" stroke-width="1.50" stroke-linejoin="round" stroke-linecap="round"/><path data-face="top" d="M 120.28 63.48 L 124.47 58.81 L 127.17 53.88 L 128.30 48.85 L 127.82 43.90 L 125.74 39.20 L 122.14 34.91 L 117.13 31.17 L 110.90 28.12 L 103.64 25.87 L 95.63 24.47 L 87.12 24.00 L 78.41 24.46 L 69.81 25.83 L 61.60 28.08 L 54.08 31.11 L 47.49 34.83 L 42.07 39.12 L 37.99 43.81 L 35.41 48.76 L 34.41 53.79 L 35.02 58.73 L 37.23 63.40 L 40.95 67.65 L 40.95 67.65 L 38.46 68.69 L 36.11 69.84 L 33.92 71.10 L 31.91 72.45 L 30.10 73.88 L 28.51 75.39 L 27.14 76.96 L 26.01 78.58 L 25.12 80.23 L 24.49 81.91 L 24.11 83.59 L 24.00 85.27 L 24.15 86.93 L 24.56 88.55 L 25.23 90.13 L 26.15 91.65 L 27.31 93.10 L 28.71 94.47 L 30.34 95.74 L 32.17 96.91 L 34.20 97.97 L 36.41 98.90 L 38.79 99.71 L 38.79 99.71 L 37.14 101.32 L 35.84 103.01 L 34.90 104.76 L 34.35 106.54 L 34.18 108.32 L 34.40 110.06 L 35.01 111.75 L 36.00 113.36 L 37.35 114.85 L 39.04 116.21 L 41.05 117.42 L 43.33 118.44 L 45.86 119.28 L 48.60 119.91 L 51.49 120.32 L 54.49 120.51 L 57.56 120.47 L 60.65 120.21 L 63.69 119.73 L 66.66 119.04 L 69.49 118.14 L 72.14 117.05 L 74.58 115.80 L 74.58 115.80 L 159.45 66.80 L 159.45 66.80 L 162.55 64.68 L 164.99 62.31 L 166.66 59.77 L 167.52 57.16 L 167.54 54.55 L 166.70 52.05 L 165.06 49.74 L 162.65 47.70 L 159.57 46.00 L 155.91 44.71 L 151.82 43.86 L 147.44 43.49 L 142.91 43.61 L 138.39 44.21 L 134.05 45.28 L 130.03 46.78 L 126.48 48.65 L 123.52 50.83 L 121.25 53.24 L 119.75 55.80 L 119.08 58.43 L 119.26 61.02 L 120.28 63.48 Z" fill="#7FB3FF" stroke="#1D3A66" stroke-width="1.50" stroke-linejoin="round"/><text x="95.77" y="91.56" font-family="Helvetica Neue, Arial, sans-serif" font-size="16.00" font-weight="600" fill="#0B1F3A" text-anchor="middle" dominant-baseline="middle">GCP</text></g></svg>