<svg xmlns="http://www.w3.org/2000/svg" xmlns:xlink="http://www.w3.org/1999/xlink" viewBox="0 0 168 212" width="168" height="212"><g data-face="wrap"><defs><radialGradient id="person-head-grad" cx="35%" cy="30%" r="75%"><stop offset="0%" stop-color="#FFD9B0"/><stop offset="100%" stop-color="#A35F25"/></radialGradient></defs><path data-face="body-left" d="M 84.00 82.32 A 60.00 50.00 0 0 0 24.00 132.32 A 60.00 34.64 0 0 0 84.00 166.96 Z" fill="#3A6FBA" stroke="none"/><path data-face="body-right" d="M 84.00 82.32 A 60.00 50.00 0 0 1 144.00 132.32 A 60.00 34.64 0 0 1 84.00 166.96 Z" fill="#5589D6" stroke="none"/><line data-face="body-ridge" x1="84.00" y1="82.32" x2="84.00" y2="166.96" stroke="#1D3A66" stroke-width="1.05" stroke-linecap="round" opacity="0.35"/><path data-face="body-outline" d="M 84.00 82.32 A 60.00 50.00 0 0 1 144.00 132.32 A 60.00 34.64 0 0 1 24.00 132.32 A 60.00 50.00 0 0 1 84.00 82.32 Z" fill="none" stroke="#1D3A66" stroke-width="1.50" stroke-linejoin="round" stroke-linecap="round"/><circle data-face="head" cx="84.00" cy="56.40" r="32.40" fill="url(#person-head-grad)" stroke="#1D3A66" stroke-width="1.50"/><text data-face="label" x="84.00" y="185.71" font-family="Helvetica Neue, Arial, sans-serif" font-size="15.00" font-weight="600" fill="#0B1F3A" text-anchor="middle">User</text></g></svg>