<svg xmlns="http://www.w3.org/2000/svg" xmlns:xlink="http://www.w3.org/1999/xlink" viewBox="0 0 292.47 209.00" width="292.47" height="209.00"><rect data-layer="canvas-bg" x="0.00" y="0.00" width="292.47" height="209.00" fill="#FAFBFC"/><g data-part="0" transform="translate(-12.00 -12.00)"><g data-face="wrap"><polygon data-face="left" points="24.00,79.00 24.00,59.00 84.62,94.00 84.62,114.00" fill="#6D28D9" stroke="#1D3A66" stroke-width="1.50" stroke-linejoin="round" stroke-linecap="round"/><polygon data-face="right" points="145.24,79.00 145.24,59.00 84.62,94.00 84.62,114.00" fill="#7C3AED" stroke="#1D3A66" stroke-width="1.50" stroke-linejoin="round" stroke-linecap="round"/><polygon data-face="top" points="84.62,24.00 145.24,59.00 84.62,94.00 24.00,59.00" fill="#A78BFA" stroke="#1D3A66" stroke-width="1.50" stroke-linejoin="round" stroke-linecap="round"/><g data-face="top-content" transform="matrix(0.8660 0.5000 -0.8660 0.5000 84.62 24.00)"><text x="35.00" y="35.00" dy=".35em" font-family="Helvetica Neue, Arial, sans-serif" font-size="16.00" font-weight="600" fill="#FFFFFF" text-anchor="middle">VITE</text></g></g></g><g data-part="1" transform="translate(135.22 50.00)"><g data-face="iso-text" transform="matrix(0.8660 0.5000 -0.8660 0.5000 24.00 32.00)"><text x="0" y="0" font-family="Helvetica Neue, Arial, sans-serif" font-size="16.00" font-weight="600" fill="#0B1F3A">121m+</text></g></g><g data-part="2" transform="translate(91.92 75.00)"><g data-face="iso-text" transform="matrix(0.8660 0.5000 -0.8660 0.5000 24.00 32.00)"><text x="0" y="0" font-family="Helvetica Neue, Arial, sans-serif" font-size="16.00" font-weight="600" fill="#0B1F3A">weekly npm</text></g></g></svg>