<svg xmlns="http://www.w3.org/2000/svg" xmlns:xlink="http://www.w3.org/1999/xlink" viewBox="-37 -12 355 221" width="355" height="221" data-scene-tx="73.0000" data-scene-ty="32.0000"><rect data-layer="canvas-bg" x="-37.00" y="-12.00" width="355.00" height="221.00" fill="#FAFBFC"/><g data-part="0" data-part-id="icon" transform="translate(-12.00 -12.00)"><g data-face="wrap"><polygon data-face="left" points="24.00,79.00 24.00,59.00 84.62,94.00 84.62,114.00" fill="#4C1D95" stroke="#1D3A66" stroke-width="1.50" stroke-linejoin="round" stroke-linecap="round"/><polygon data-face="right" points="145.24,79.00 145.24,59.00 84.62,94.00 84.62,114.00" fill="#6D28D9" stroke="#1D3A66" stroke-width="1.50" stroke-linejoin="round" stroke-linecap="round"/><polygon data-face="top" points="84.62,24.00 145.24,59.00 84.62,94.00 24.00,59.00" fill="#7C3AED" stroke="#1D3A66" stroke-width="1.50" stroke-linejoin="round" stroke-linecap="round"/><g data-face="top-content" transform="matrix(0.8660 0.5000 -0.8660 0.5000 84.62 24.00)"><text x="35.00" y="35.00" dy=".35em" font-family="Helvetica Neue, Arial, sans-serif" font-size="18.00" font-weight="600" fill="#FFFFFF" text-anchor="middle">VITE</text></g></g></g><g data-part="1" data-part-id="value" transform="translate(135.22 50.00)"><g data-face="iso-text" transform="matrix(0.8660 0.5000 -0.8660 0.5000 24.00 33.00)"><rect x="0" y="-18.00" width="58.50" height="18.00" fill="transparent" pointer-events="all"/><text x="0" y="0" font-family="Helvetica Neue, Arial, sans-serif" font-size="18.00" font-weight="600" fill="#0B1F3A">121m+</text></g></g><g data-part="2" data-part-id="caption" transform="translate(91.92 75.00)"><g data-face="iso-text" transform="matrix(0.8660 0.5000 -0.8660 0.5000 24.00 33.00)"><rect x="0" y="-18.00" width="108.00" height="18.00" fill="transparent" pointer-events="all"/><text x="0" y="0" font-family="Helvetica Neue, Arial, sans-serif" font-size="18.00" font-weight="600" fill="#0B1F3A">weekly npm</text></g></g></svg>