<svg xmlns="http://www.w3.org/2000/svg" xmlns:xlink="http://www.w3.org/1999/xlink" viewBox="0 0 158.00 141.51" width="158.00" height="141.51"><g data-face="wrap"><path data-face="side-left" d="M 24.00 55.75 L 24.00 85.75 A 55.00 31.75 0 0 0 79.00 117.51 L 79.00 87.51 A 55.00 31.75 0 0 0 24.00 55.75 Z" fill="#B8651F" stroke="none"/><path data-face="side-right" d="M 134.00 55.75 L 134.00 85.75 A 55.00 31.75 0 0 1 79.00 117.51 L 79.00 87.51 A 55.00 31.75 0 0 1 134.00 55.75 Z" fill="#E08A47" stroke="none"/><path data-face="outline" d="M 24.00 55.75 L 24.00 85.75 A 55.00 31.75 0 0 0 134.00 85.75 L 134.00 55.75" fill="none" stroke="#0D32B2" stroke-width="2.00" stroke-linejoin="round" stroke-linecap="round"/><ellipse data-face="top" cx="79.00" cy="55.75" rx="55.00" ry="31.75" fill="#EDF0FD" stroke="#0D32B2" stroke-width="2.00"/><g data-face="top-content" transform="matrix(0.8660 0.5000 -0.8660 0.5000 79.00 24.00)"><text x="31.75" y="31.75" dy=".35em" font-family="Helvetica Neue, Arial, sans-serif" font-size="16.00" font-weight="600" fill="#3A1A06" text-anchor="middle">Database</text></g></g></svg>