<svg xmlns="http://www.w3.org/2000/svg" xmlns:xlink="http://www.w3.org/1999/xlink" viewBox="0 0 96.00 141.63" width="96.00" height="141.63"><g data-face="wrap"><defs><radialGradient id="person-head-grad" cx="35%" cy="30%" r="75%"><stop offset="0%" stop-color="#E3E9FD"/><stop offset="100%" stop-color="#A35F25"/></radialGradient></defs><path data-face="body-left" d="M 24.00 67.78 L 24.00 103.78 A 24.00 13.86 0 0 0 48.00 117.63 L 48.00 81.63 A 24.00 13.86 0 0 0 24.00 67.78 Z" fill="#3A6FBA" stroke="none"/><path data-face="body-right" d="M 72.00 67.78 L 72.00 103.78 A 24.00 13.86 0 0 1 48.00 117.63 L 48.00 81.63 A 24.00 13.86 0 0 1 72.00 67.78 Z" fill="#5589D6" stroke="none"/><path data-face="body-outline" d="M 24.00 67.78 L 24.00 103.78 A 24.00 13.86 0 0 0 72.00 103.78 L 72.00 67.78" fill="none" stroke="#0D32B2" stroke-width="2.00" stroke-linejoin="round" stroke-linecap="round"/><ellipse data-face="body-top" cx="48.00" cy="67.78" rx="24.00" ry="13.86" fill="#E3E9FD" stroke="#0D32B2" stroke-width="2.00"/><circle data-face="head" cx="48.00" cy="36.96" r="12.96" fill="url(#person-head-grad)" stroke="#0D32B2" stroke-width="2.00"/><g data-face="top-content" transform="matrix(0.8660 0.5000 -0.8660 0.5000 48.00 53.92)"><text x="13.86" y="13.86" dy=".35em" font-family="Helvetica Neue, Arial, sans-serif" font-size="15.00" font-weight="600" fill="#0B1F3A" text-anchor="middle">User</text></g></g></svg>