<svg xmlns="http://www.w3.org/2000/svg" xmlns:xlink="http://www.w3.org/1999/xlink" viewBox="0 0 154.00 139.20" width="154.00" height="139.20"><g data-face="wrap"><path data-face="side-left" d="M 24.00 54.60 L 24.00 84.60 A 53.00 30.60 0 0 0 77.00 115.20 L 77.00 85.20 A 53.00 30.60 0 0 0 24.00 54.60 Z" fill="#B8651F" stroke="none"/><path data-face="side-right" d="M 130.00 54.60 L 130.00 84.60 A 53.00 30.60 0 0 1 77.00 115.20 L 77.00 85.20 A 53.00 30.60 0 0 1 130.00 54.60 Z" fill="#E08A47" stroke="none"/><path data-face="outline" d="M 24.00 54.60 L 24.00 84.60 A 53.00 30.60 0 0 0 130.00 84.60 L 130.00 54.60" fill="none" stroke="#0D32B2" stroke-width="2.00" stroke-linejoin="round" stroke-linecap="round"/><ellipse data-face="top" cx="77.00" cy="54.60" rx="53.00" ry="30.60" fill="#EDF0FD" stroke="#0D32B2" stroke-width="2.00"/><g data-face="top-content" transform="matrix(0.8660 0.5000 -0.8660 0.5000 77.00 24.00)"><text x="30.60" y="30.60" dy=".35em" font-family="Helvetica Neue, Arial, sans-serif" font-size="16.00" font-weight="600" fill="#3A1A06" text-anchor="middle">Cylinder</text></g></g></svg>