<svg xmlns="http://www.w3.org/2000/svg" xmlns:xlink="http://www.w3.org/1999/xlink" viewBox="0 0 112.00 159.51" width="112.00" height="159.51"><g data-face="wrap"><defs><radialGradient id="person-head-grad" cx="35%" cy="30%" r="75%"><stop offset="0%" stop-color="#E3E9FD"/><stop offset="100%" stop-color="#A35F25"/></radialGradient></defs><path data-face="body-left" d="M 24.00 81.04 L 24.00 117.04 A 32.00 18.48 0 0 0 56.00 135.51 L 56.00 99.51 A 32.00 18.48 0 0 0 24.00 81.04 Z" fill="#3A6FBA" stroke="none"/><path data-face="body-right" d="M 88.00 81.04 L 88.00 117.04 A 32.00 18.48 0 0 1 56.00 135.51 L 56.00 99.51 A 32.00 18.48 0 0 1 88.00 81.04 Z" fill="#5589D6" stroke="none"/><path data-face="body-outline" d="M 24.00 81.04 L 24.00 117.04 A 32.00 18.48 0 0 0 88.00 117.04 L 88.00 81.04" fill="none" stroke="#0D32B2" stroke-width="2.00" stroke-linejoin="round" stroke-linecap="round"/><ellipse data-face="body-top" cx="56.00" cy="81.04" rx="32.00" ry="18.48" fill="#E3E9FD" stroke="#0D32B2" stroke-width="2.00"/><circle data-face="head" cx="56.00" cy="41.28" r="17.28" fill="url(#person-head-grad)" stroke="#0D32B2" stroke-width="2.00"/><g data-face="top-content" transform="matrix(0.8660 0.5000 -0.8660 0.5000 56.00 62.56)"><text x="18.48" y="18.48" dy=".35em" font-family="Helvetica Neue, Arial, sans-serif" font-size="15.00" font-weight="600" fill="#0B1F3A" text-anchor="middle">Person</text></g></g></svg>