<svg xmlns="http://www.w3.org/2000/svg" xmlns:xlink="http://www.w3.org/1999/xlink" viewBox="0 0 144.00 195.27" width="144.00" height="195.27"><g data-face="wrap"><defs><radialGradient id="person-head-grad" cx="35%" cy="30%" r="75%"><stop offset="0%" stop-color="#E3E9FD"/><stop offset="100%" stop-color="#A35F25"/></radialGradient></defs><path data-face="body-left" d="M 24.00 107.55 L 24.00 143.55 A 48.00 27.71 0 0 0 72.00 171.27 L 72.00 135.27 A 48.00 27.71 0 0 0 24.00 107.55 Z" fill="#3A6FBA" stroke="none"/><path data-face="body-right" d="M 120.00 107.55 L 120.00 143.55 A 48.00 27.71 0 0 1 72.00 171.27 L 72.00 135.27 A 48.00 27.71 0 0 1 120.00 107.55 Z" fill="#5589D6" stroke="none"/><path data-face="body-outline" d="M 24.00 107.55 L 24.00 143.55 A 48.00 27.71 0 0 0 120.00 143.55 L 120.00 107.55" fill="none" stroke="#0D32B2" stroke-width="2.00" stroke-linejoin="round" stroke-linecap="round"/><ellipse data-face="body-top" cx="72.00" cy="107.55" rx="48.00" ry="27.71" fill="#E3E9FD" stroke="#0D32B2" stroke-width="2.00"/><circle data-face="head" cx="72.00" cy="49.92" r="25.92" fill="url(#person-head-grad)" stroke="#0D32B2" stroke-width="2.00"/><g data-face="top-content" transform="matrix(0.8660 0.5000 -0.8660 0.5000 72.00 79.84)"><text x="27.71" y="27.71" dy=".35em" font-family="Helvetica Neue, Arial, sans-serif" font-size="15.00" font-weight="600" fill="#0B1F3A" text-anchor="middle">C4 Person</text></g></g></svg>