<svg xmlns="http://www.w3.org/2000/svg" xmlns:xlink="http://www.w3.org/1999/xlink" viewBox="0 0 191.00 160.56" width="191.00" height="160.56"><g data-face="wrap"><path data-face="side-left" d="M 24.00 65.28 L 24.00 95.28 A 71.50 41.28 0 0 0 95.50 136.56 L 95.50 106.56 A 71.50 41.28 0 0 0 24.00 65.28 Z" fill="#B8651F" stroke="none"/><path data-face="side-right" d="M 167.00 65.28 L 167.00 95.28 A 71.50 41.28 0 0 1 95.50 136.56 L 95.50 106.56 A 71.50 41.28 0 0 1 167.00 65.28 Z" fill="#E08A47" stroke="none"/><path data-face="outline" d="M 24.00 65.28 L 24.00 95.28 A 71.50 41.28 0 0 0 167.00 95.28 L 167.00 65.28" fill="none" stroke="#0D32B2" stroke-width="2.00" stroke-linejoin="round" stroke-linecap="round"/><ellipse data-face="top" cx="95.50" cy="65.28" rx="71.50" ry="41.28" fill="#DEE1EB" stroke="#0D32B2" stroke-width="2.00"/><g data-face="top-content" transform="matrix(0.8660 0.5000 -0.8660 0.5000 95.50 24.00)"><text x="41.28" y="41.28" dy=".35em" font-family="Helvetica Neue, Arial, sans-serif" font-size="16.00" font-weight="600" fill="#3A1A06" text-anchor="middle">Queue</text></g></g></svg>