<svg xmlns="http://www.w3.org/2000/svg" xmlns:xlink="http://www.w3.org/1999/xlink" viewBox="0 0 194.00 162.29" width="194.00" height="162.29"><g data-face="wrap"><path data-face="side-left" d="M 24.00 66.15 L 24.00 96.15 A 73.00 42.15 0 0 0 97.00 138.29 L 97.00 108.29 A 73.00 42.15 0 0 0 24.00 66.15 Z" fill="#B8651F" stroke="none"/><path data-face="side-right" d="M 170.00 66.15 L 170.00 96.15 A 73.00 42.15 0 0 1 97.00 138.29 L 97.00 108.29 A 73.00 42.15 0 0 1 170.00 66.15 Z" fill="#E08A47" stroke="none"/><path data-face="outline" d="M 24.00 66.15 L 24.00 96.15 A 73.00 42.15 0 0 0 170.00 96.15 L 170.00 66.15" fill="none" stroke="#0D32B2" stroke-width="2.00" stroke-linejoin="round" stroke-linecap="round"/><ellipse data-face="top" cx="97.00" cy="66.15" rx="73.00" ry="42.15" fill="#EDF0FD" stroke="#0D32B2" stroke-width="2.00"/><g data-face="top-content" transform="matrix(0.8660 0.5000 -0.8660 0.5000 97.00 24.00)"><text x="42.15" y="42.15" dy=".35em" font-family="Helvetica Neue, Arial, sans-serif" font-size="16.00" font-weight="600" fill="#3A1A06" text-anchor="middle">StoredData</text></g></g></svg>