<svg xmlns="http://www.w3.org/2000/svg" xmlns:xlink="http://www.w3.org/1999/xlink" viewBox="0 0 102.00 148.34" width="102.00" height="148.34"><g data-face="wrap"><defs><radialGradient id="person-head-grad" cx="35%" cy="30%" r="75%"><stop offset="0%" stop-color="#E3E9FD"/><stop offset="100%" stop-color="#A35F25"/></radialGradient></defs><path data-face="body-left" d="M 24.00 72.75 L 24.00 108.75 A 27.00 15.59 0 0 0 51.00 124.34 L 51.00 88.34 A 27.00 15.59 0 0 0 24.00 72.75 Z" fill="#3A6FBA" stroke="none"/><path data-face="body-right" d="M 78.00 72.75 L 78.00 108.75 A 27.00 15.59 0 0 1 51.00 124.34 L 51.00 88.34 A 27.00 15.59 0 0 1 78.00 72.75 Z" fill="#5589D6" stroke="none"/><path data-face="body-outline" d="M 24.00 72.75 L 24.00 108.75 A 27.00 15.59 0 0 0 78.00 108.75 L 78.00 72.75" fill="none" stroke="#0D32B2" stroke-width="2.00" stroke-linejoin="round" stroke-linecap="round"/><ellipse data-face="body-top" cx="51.00" cy="72.75" rx="27.00" ry="15.59" fill="#E3E9FD" stroke="#0D32B2" stroke-width="2.00"/><circle data-face="head" cx="51.00" cy="38.58" r="14.58" fill="url(#person-head-grad)" stroke="#0D32B2" stroke-width="2.00"/><g data-face="top-content" transform="matrix(0.8660 0.5000 -0.8660 0.5000 51.00 57.16)"><text x="15.59" y="15.59" dy=".35em" font-family="Helvetica Neue, Arial, sans-serif" font-size="15.00" font-weight="600" fill="#0B1F3A" text-anchor="middle">Users</text></g></g></svg>