<svg xmlns="http://www.w3.org/2000/svg" viewBox="0 0 1020 500" width="1020" height="500" font-family="Inter,system-ui,sans-serif"><rect x="0" y="0" width="1020.00" height="500.00" fill="#0E1116"/><defs><marker id="planarrow" viewBox="0 0 10 10" refX="8.5" refY="5" markerWidth="9" markerHeight="9" orient="auto-start-reverse"><path d="M0,0 L10,5 L0,10 z" fill="#27364b"/></marker></defs><path d="M180.00 110.00 L250.00 110.00 L250.00 110.00 L320.00 110.00" fill="none" stroke="#eef2f8" stroke-width="5.40" stroke-linecap="round" stroke-linejoin="round"/><path d="M180.00 110.00 L250.00 110.00 L250.00 110.00 L320.00 110.00" fill="none" stroke="#27364b" stroke-width="2.40" stroke-linecap="round" stroke-linejoin="round" marker-end="url(#planarrow)"/><path d="M460.00 110.00 L560.00 110.00 L560.00 310.00 L560.00 310.00" fill="none" stroke="#eef2f8" stroke-width="5.40" stroke-linecap="round" stroke-linejoin="round"/><path d="M460.00 110.00 L560.00 110.00 L560.00 310.00 L560.00 310.00" fill="none" stroke="#27364b" stroke-width="2.40" stroke-linecap="round" stroke-linejoin="round" marker-end="url(#planarrow)"/><path d="M460.00 110.00 L510.00 110.00 L510.00 110.00 L560.00 110.00" fill="none" stroke="#eef2f8" stroke-width="5.40" stroke-linecap="round" stroke-linejoin="round"/><path d="M460.00 110.00 L510.00 110.00 L510.00 110.00 L560.00 110.00" fill="none" stroke="#27364b" stroke-width="2.40" stroke-linecap="round" stroke-linejoin="round" marker-end="url(#planarrow)"/><path d="M700.00 310.00 L840.00 310.00 L840.00 190.00 L840.00 190.00" fill="none" stroke="#eef2f8" stroke-width="5.40" stroke-linecap="round" stroke-linejoin="round"/><path d="M700.00 310.00 L840.00 310.00 L840.00 190.00 L840.00 190.00" fill="none" stroke="#27364b" stroke-width="2.40" stroke-linecap="round" stroke-linejoin="round" marker-end="url(#planarrow)"/><path d="M700.00 110.00 L840.00 110.00 L840.00 190.00 L840.00 190.00" fill="none" stroke="#eef2f8" stroke-width="5.40" stroke-linecap="round" stroke-linejoin="round"/><path d="M700.00 110.00 L840.00 110.00 L840.00 190.00 L840.00 190.00" fill="none" stroke="#27364b" stroke-width="2.40" stroke-linecap="round" stroke-linejoin="round" marker-end="url(#planarrow)"/><path d="M700.00 310.00 L840.00 310.00 L840.00 390.00 L840.00 390.00" fill="none" stroke="#eef2f8" stroke-width="5.40" stroke-linecap="round" stroke-linejoin="round"/><path d="M700.00 310.00 L840.00 310.00 L840.00 390.00 L840.00 390.00" fill="none" stroke="#27364b" stroke-width="2.40" stroke-linecap="round" stroke-linejoin="round" marker-end="url(#planarrow)"/><rect x="40.00" y="40.00" width="140.00" height="140.00" rx="6.0" ry="6.0" fill="#16233A" stroke="#3B6FD4" stroke-width="1.2"/><text x="110.00" y="110.00" font-size="11.0" text-anchor="middle" dominant-baseline="central" fill="#f1f5f9">Client</text><rect x="320.00" y="40.00" width="140.00" height="140.00" rx="6.0" ry="6.0" fill="#16233A" stroke="#3B6FD4" stroke-width="1.2"/><text x="390.00" y="110.00" font-size="11.0" text-anchor="middle" dominant-baseline="central" fill="#f1f5f9">API Gateway</text><rect x="560.00" y="240.00" width="140.00" height="140.00" rx="6.0" ry="6.0" fill="#16233A" stroke="#3B6FD4" stroke-width="1.2"/><text x="630.00" y="310.00" font-size="11.0" text-anchor="middle" dominant-baseline="central" fill="#f1f5f9">Orders svc</text><rect x="560.00" y="40.00" width="140.00" height="140.00" rx="6.0" ry="6.0" fill="#16233A" stroke="#3B6FD4" stroke-width="1.2"/><text x="630.00" y="110.00" font-size="11.0" text-anchor="middle" dominant-baseline="central" fill="#f1f5f9">Users svc</text><rect x="840.00" y="120.00" width="140.00" height="140.00" rx="6.0" ry="6.0" fill="#123027" stroke="#2FB79A" stroke-width="1.2"/><text x="910.00" y="190.00" font-size="11.0" text-anchor="middle" dominant-baseline="central" fill="#f1f5f9">Postgres</text><rect x="840.00" y="320.00" width="140.00" height="140.00" rx="6.0" ry="6.0" fill="#123027" stroke="#2FB79A" stroke-width="1.2"/><text x="910.00" y="390.00" font-size="11.0" text-anchor="middle" dominant-baseline="central" fill="#f1f5f9">Redis</text></svg>