<svg xmlns="http://www.w3.org/2000/svg" xmlns:xlink="http://www.w3.org/1999/xlink" viewBox="0 0 168 162" width="168" height="162"><g data-face="wrap"><path data-face="side-left" d="M 24.00 58.64 L 24.00 102.64 A 60.00 34.64 0 0 0 84.00 137.28 L 84.00 93.28 A 60.00 34.64 0 0 0 24.00 58.64 Z" fill="#B8651F" stroke="none"/><path data-face="side-right" d="M 144.00 58.64 L 144.00 102.64 A 60.00 34.64 0 0 1 84.00 137.28 L 84.00 93.28 A 60.00 34.64 0 0 1 144.00 58.64 Z" fill="#E08A47" stroke="none"/><path data-face="outline" d="M 24.00 58.64 L 24.00 102.64 A 60.00 34.64 0 0 0 144.00 102.64 L 144.00 58.64" fill="none" stroke="#5C2A0A" stroke-width="1.50" stroke-linejoin="round" stroke-linecap="round"/><ellipse data-face="top" cx="84.00" cy="58.64" rx="60.00" ry="34.64" fill="#FFD27F" stroke="#5C2A0A" stroke-width="1.50"/><defs><pattern id="cyl-pattern" patternUnits="userSpaceOnUse" width="8.00" height="8.00" patternTransform="rotate(30.0)"><line x1="0" y1="0" x2="0" y2="8.00" stroke="#1D3A66" stroke-width="1" stroke-opacity="0.55"/></pattern></defs><ellipse data-face="top-pattern" cx="84.00" cy="58.64" rx="60.00" ry="34.64" fill="url(#cyl-pattern)" stroke="none"/><g data-face="top-content" transform="matrix(0.8660 0.5000 -0.8660 0.5000 84.00 24.00)"><text x="34.64" y="34.64" dy=".35em" font-family="Helvetica Neue, Arial, sans-serif" font-size="12.33" font-weight="600" fill="#3A1A06" text-anchor="middle">Database</text></g></g></svg>