<svg xmlns="http://www.w3.org/2000/svg" xmlns:xlink="http://www.w3.org/1999/xlink" viewBox="0 0 395 408" width="395" height="408"><g data-face="wrap"><polygon data-face="cell-0-0-0-left" points="142.93,215.33 142.93,166.00 197.21,197.33 197.21,246.67" fill="#15803D" stroke="#14532D" stroke-width="0.56" stroke-linejoin="round" stroke-linecap="round"/><polygon data-face="cell-0-0-0-right" points="251.48,215.33 251.48,166.00 197.21,197.33 197.21,246.67" fill="#16A34A" stroke="#14532D" stroke-width="0.56" stroke-linejoin="round" stroke-linecap="round"/><polygon data-face="cell-0-0-0-top" points="197.21,134.67 251.48,166.00 197.21,197.33 142.93,166.00" fill="#F0FDF4" stroke="#14532D" stroke-width="0.56" stroke-linejoin="round" stroke-linecap="round"/><polygon data-face="cell-1-0-0-left" points="202.40,249.67 202.40,200.33 256.67,231.67 256.67,281.00" fill="#15803D" stroke="#14532D" stroke-width="0.56" stroke-linejoin="round" stroke-linecap="round"/><polygon data-face="cell-1-0-0-right" points="310.94,249.67 310.94,200.33 256.67,231.67 256.67,281.00" fill="#16A34A" stroke="#14532D" stroke-width="0.56" stroke-linejoin="round" stroke-linecap="round"/><polygon data-face="cell-1-0-0-top" points="256.67,169.00 310.94,200.33 256.67,231.67 202.40,200.33" fill="#F0FDF4" stroke="#14532D" stroke-width="0.56" stroke-linejoin="round" stroke-linecap="round"/><polygon data-face="cell-0-1-0-left" points="83.47,249.67 83.47,200.33 137.74,231.67 137.74,281.00" fill="#15803D" stroke="#14532D" stroke-width="0.56" stroke-linejoin="round" stroke-linecap="round"/><polygon data-face="cell-0-1-0-right" points="192.01,249.67 192.01,200.33 137.74,231.67 137.74,281.00" fill="#16A34A" stroke="#14532D" stroke-width="0.56" stroke-linejoin="round" stroke-linecap="round"/><polygon data-face="cell-0-1-0-top" points="137.74,169.00 192.01,200.33 137.74,231.67 83.47,200.33" fill="#F0FDF4" stroke="#14532D" stroke-width="0.56" stroke-linejoin="round" stroke-linecap="round"/><polygon data-face="cell-0-0-1-left" points="142.93,160.00 142.93,110.67 197.21,142.00 197.21,191.33" fill="#15803D" stroke="#14532D" stroke-width="0.56" stroke-linejoin="round" stroke-linecap="round"/><polygon data-face="cell-0-0-1-right" points="251.48,160.00 251.48,110.67 197.21,142.00 197.21,191.33" fill="#16A34A" stroke="#14532D" stroke-width="0.56" stroke-linejoin="round" stroke-linecap="round"/><polygon data-face="cell-0-0-1-top" points="197.21,79.33 251.48,110.67 197.21,142.00 142.93,110.67" fill="#F0FDF4" stroke="#14532D" stroke-width="0.56" stroke-linejoin="round" stroke-linecap="round"/><polygon data-face="cell-2-0-0-left" points="261.87,284.00 261.87,234.67 316.14,266.00 316.14,315.33" fill="#15803D" stroke="#14532D" stroke-width="0.56" stroke-linejoin="round" stroke-linecap="round"/><polygon data-face="cell-2-0-0-right" points="370.41,284.00 370.41,234.67 316.14,266.00 316.14,315.33" fill="#16A34A" stroke="#14532D" stroke-width="0.56" stroke-linejoin="round" stroke-linecap="round"/><polygon data-face="cell-2-0-0-top" points="316.14,203.33 370.41,234.67 316.14,266.00 261.87,234.67" fill="#F0FDF4" stroke="#14532D" stroke-width="0.56" stroke-linejoin="round" stroke-linecap="round"/><polygon data-face="cell-1-1-0-left" points="142.93,284.00 142.93,234.67 197.21,266.00 197.21,315.33" fill="#15803D" stroke="#14532D" stroke-width="0.56" stroke-linejoin="round" stroke-linecap="round"/><polygon data-face="cell-1-1-0-right" points="251.48,284.00 251.48,234.67 197.21,266.00 197.21,315.33" fill="#16A34A" stroke="#14532D" stroke-width="0.56" stroke-linejoin="round" stroke-linecap="round"/><polygon data-face="cell-1-1-0-top" points="197.21,203.33 251.48,234.67 197.21,266.00 142.93,234.67" fill="#F0FDF4" stroke="#14532D" stroke-width="0.56" stroke-linejoin="round" stroke-linecap="round"/><polygon data-face="cell-0-2-0-left" points="24.00,284.00 24.00,234.67 78.27,266.00 78.27,315.33" fill="#15803D" stroke="#14532D" stroke-width="0.56" stroke-linejoin="round" stroke-linecap="round"/><polygon data-face="cell-0-2-0-right" points="132.54,284.00 132.54,234.67 78.27,266.00 78.27,315.33" fill="#16A34A" stroke="#14532D" stroke-width="0.56" stroke-linejoin="round" stroke-linecap="round"/><polygon data-face="cell-0-2-0-top" points="78.27,203.33 132.54,234.67 78.27,266.00 24.00,234.67" fill="#F0FDF4" stroke="#14532D" stroke-width="0.56" stroke-linejoin="round" stroke-linecap="round"/><polygon data-face="cell-1-0-1-left" points="202.40,194.33 202.40,145.00 256.67,176.33 256.67,225.67" fill="#15803D" stroke="#14532D" stroke-width="0.56" stroke-linejoin="round" stroke-linecap="round"/><polygon data-face="cell-1-0-1-right" points="310.94,194.33 310.94,145.00 256.67,176.33 256.67,225.67" fill="#16A34A" stroke="#14532D" stroke-width="0.56" stroke-linejoin="round" stroke-linecap="round"/><polygon data-face="cell-1-0-1-top" points="256.67,113.67 310.94,145.00 256.67,176.33 202.40,145.00" fill="#F0FDF4" stroke="#14532D" stroke-width="0.56" stroke-linejoin="round" stroke-linecap="round"/><polygon data-face="cell-0-1-1-left" points="83.47,194.33 83.47,145.00 137.74,176.33 137.74,225.67" fill="#15803D" stroke="#14532D" stroke-width="0.56" stroke-linejoin="round" stroke-linecap="round"/><polygon data-face="cell-0-1-1-right" points="192.01,194.33 192.01,145.00 137.74,176.33 137.74,225.67" fill="#16A34A" stroke="#14532D" stroke-width="0.56" stroke-linejoin="round" stroke-linecap="round"/><polygon data-face="cell-0-1-1-top" points="137.74,113.67 192.01,145.00 137.74,176.33 83.47,145.00" fill="#F0FDF4" stroke="#14532D" stroke-width="0.56" stroke-linejoin="round" stroke-linecap="round"/><polygon data-face="cell-0-0-2-left" points="142.93,104.67 142.93,55.33 197.21,86.67 197.21,136.00" fill="#15803D" stroke="#14532D" stroke-width="0.56" stroke-linejoin="round" stroke-linecap="round"/><polygon data-face="cell-0-0-2-right" points="251.48,104.67 251.48,55.33 197.21,86.67 197.21,136.00" fill="#16A34A" stroke="#14532D" stroke-width="0.56" stroke-linejoin="round" stroke-linecap="round"/><polygon data-face="cell-0-0-2-top" points="197.21,24.00 251.48,55.33 197.21,86.67 142.93,55.33" fill="#F0FDF4" stroke="#14532D" stroke-width="0.56" stroke-linejoin="round" stroke-linecap="round"/><polygon data-face="cell-2-1-0-left" points="202.40,318.33 202.40,269.00 256.67,300.33 256.67,349.67" fill="#15803D" stroke="#14532D" stroke-width="0.56" stroke-linejoin="round" stroke-linecap="round"/><polygon data-face="cell-2-1-0-right" points="310.94,318.33 310.94,269.00 256.67,300.33 256.67,349.67" fill="#16A34A" stroke="#14532D" stroke-width="0.56" stroke-linejoin="round" stroke-linecap="round"/><polygon data-face="cell-2-1-0-top" points="256.67,237.67 310.94,269.00 256.67,300.33 202.40,269.00" fill="#F0FDF4" stroke="#14532D" stroke-width="0.56" stroke-linejoin="round" stroke-linecap="round"/><polygon data-face="cell-1-2-0-left" points="83.47,318.33 83.47,269.00 137.74,300.33 137.74,349.67" fill="#15803D" stroke="#14532D" stroke-width="0.56" stroke-linejoin="round" stroke-linecap="round"/><polygon data-face="cell-1-2-0-right" points="192.01,318.33 192.01,269.00 137.74,300.33 137.74,349.67" fill="#16A34A" stroke="#14532D" stroke-width="0.56" stroke-linejoin="round" stroke-linecap="round"/><polygon data-face="cell-1-2-0-top" points="137.74,237.67 192.01,269.00 137.74,300.33 83.47,269.00" fill="#F0FDF4" stroke="#14532D" stroke-width="0.56" stroke-linejoin="round" stroke-linecap="round"/><polygon data-face="cell-2-0-1-left" points="261.87,228.67 261.87,179.33 316.14,210.67 316.14,260.00" fill="#15803D" stroke="#14532D" stroke-width="0.56" stroke-linejoin="round" stroke-linecap="round"/><polygon data-face="cell-2-0-1-right" points="370.41,228.67 370.41,179.33 316.14,210.67 316.14,260.00" fill="#16A34A" stroke="#14532D" stroke-width="0.56" stroke-linejoin="round" stroke-linecap="round"/><polygon data-face="cell-2-0-1-top" points="316.14,148.00 370.41,179.33 316.14,210.67 261.87,179.33" fill="#F0FDF4" stroke="#14532D" stroke-width="0.56" stroke-linejoin="round" stroke-linecap="round"/><polygon data-face="cell-1-1-1-left" points="142.93,228.67 142.93,179.33 197.21,210.67 197.21,260.00" fill="#15803D" stroke="#14532D" stroke-width="0.56" stroke-linejoin="round" stroke-linecap="round"/><polygon data-face="cell-1-1-1-right" points="251.48,228.67 251.48,179.33 197.21,210.67 197.21,260.00" fill="#16A34A" stroke="#14532D" stroke-width="0.56" stroke-linejoin="round" stroke-linecap="round"/><polygon data-face="cell-1-1-1-top" points="197.21,148.00 251.48,179.33 197.21,210.67 142.93,179.33" fill="#F0FDF4" stroke="#14532D" stroke-width="0.56" stroke-linejoin="round" stroke-linecap="round"/><polygon data-face="cell-0-2-1-left" points="24.00,228.67 24.00,179.33 78.27,210.67 78.27,260.00" fill="#15803D" stroke="#14532D" stroke-width="0.56" stroke-linejoin="round" stroke-linecap="round"/><polygon data-face="cell-0-2-1-right" points="132.54,228.67 132.54,179.33 78.27,210.67 78.27,260.00" fill="#16A34A" stroke="#14532D" stroke-width="0.56" stroke-linejoin="round" stroke-linecap="round"/><polygon data-face="cell-0-2-1-top" points="78.27,148.00 132.54,179.33 78.27,210.67 24.00,179.33" fill="#F0FDF4" stroke="#14532D" stroke-width="0.56" stroke-linejoin="round" stroke-linecap="round"/><polygon data-face="cell-1-0-2-left" points="202.40,139.00 202.40,89.67 256.67,121.00 256.67,170.33" fill="#15803D" stroke="#14532D" stroke-width="0.56" stroke-linejoin="round" stroke-linecap="round"/><polygon data-face="cell-1-0-2-right" points="310.94,139.00 310.94,89.67 256.67,121.00 256.67,170.33" fill="#16A34A" stroke="#14532D" stroke-width="0.56" stroke-linejoin="round" stroke-linecap="round"/><polygon data-face="cell-1-0-2-top" points="256.67,58.33 310.94,89.67 256.67,121.00 202.40,89.67" fill="#F0FDF4" stroke="#14532D" stroke-width="0.56" stroke-linejoin="round" stroke-linecap="round"/><polygon data-face="cell-0-1-2-left" points="83.47,139.00 83.47,89.67 137.74,121.00 137.74,170.33" fill="#15803D" stroke="#14532D" stroke-width="0.56" stroke-linejoin="round" stroke-linecap="round"/><polygon data-face="cell-0-1-2-right" points="192.01,139.00 192.01,89.67 137.74,121.00 137.74,170.33" fill="#16A34A" stroke="#14532D" stroke-width="0.56" stroke-linejoin="round" stroke-linecap="round"/><polygon data-face="cell-0-1-2-top" points="137.74,58.33 192.01,89.67 137.74,121.00 83.47,89.67" fill="#F0FDF4" stroke="#14532D" stroke-width="0.56" stroke-linejoin="round" stroke-linecap="round"/><polygon data-face="cell-2-2-0-left" points="142.93,352.67 142.93,303.33 197.21,334.67 197.21,384.00" fill="#15803D" stroke="#14532D" stroke-width="0.56" stroke-linejoin="round" stroke-linecap="round"/><polygon data-face="cell-2-2-0-right" points="251.48,352.67 251.48,303.33 197.21,334.67 197.21,384.00" fill="#16A34A" stroke="#14532D" stroke-width="0.56" stroke-linejoin="round" stroke-linecap="round"/><polygon data-face="cell-2-2-0-top" points="197.21,272.00 251.48,303.33 197.21,334.67 142.93,303.33" fill="#F0FDF4" stroke="#14532D" stroke-width="0.56" stroke-linejoin="round" stroke-linecap="round"/><polygon data-face="cell-2-1-1-left" points="202.40,263.00 202.40,213.67 256.67,245.00 256.67,294.33" fill="#15803D" stroke="#14532D" stroke-width="0.56" stroke-linejoin="round" stroke-linecap="round"/><polygon data-face="cell-2-1-1-right" points="310.94,263.00 310.94,213.67 256.67,245.00 256.67,294.33" fill="#16A34A" stroke="#14532D" stroke-width="0.56" stroke-linejoin="round" stroke-linecap="round"/><polygon data-face="cell-2-1-1-top" points="256.67,182.33 310.94,213.67 256.67,245.00 202.40,213.67" fill="#F0FDF4" stroke="#14532D" stroke-width="0.56" stroke-linejoin="round" stroke-linecap="round"/><polygon data-face="cell-1-2-1-left" points="83.47,263.00 83.47,213.67 137.74,245.00 137.74,294.33" fill="#15803D" stroke="#14532D" stroke-width="0.56" stroke-linejoin="round" stroke-linecap="round"/><polygon data-face="cell-1-2-1-right" points="192.01,263.00 192.01,213.67 137.74,245.00 137.74,294.33" fill="#16A34A" stroke="#14532D" stroke-width="0.56" stroke-linejoin="round" stroke-linecap="round"/><polygon data-face="cell-1-2-1-top" points="137.74,182.33 192.01,213.67 137.74,245.00 83.47,213.67" fill="#F0FDF4" stroke="#14532D" stroke-width="0.56" stroke-linejoin="round" stroke-linecap="round"/><polygon data-face="cell-2-0-2-left" points="261.87,173.33 261.87,124.00 316.14,155.33 316.14,204.67" fill="#15803D" stroke="#14532D" stroke-width="0.56" stroke-linejoin="round" stroke-linecap="round"/><polygon data-face="cell-2-0-2-right" points="370.41,173.33 370.41,124.00 316.14,155.33 316.14,204.67" fill="#16A34A" stroke="#14532D" stroke-width="0.56" stroke-linejoin="round" stroke-linecap="round"/><polygon data-face="cell-2-0-2-top" points="316.14,92.67 370.41,124.00 316.14,155.33 261.87,124.00" fill="#F0FDF4" stroke="#14532D" stroke-width="0.56" stroke-linejoin="round" stroke-linecap="round"/><polygon data-face="cell-1-1-2-left" points="142.93,173.33 142.93,124.00 197.21,155.33 197.21,204.67" fill="#15803D" stroke="#14532D" stroke-width="0.56" stroke-linejoin="round" stroke-linecap="round"/><polygon data-face="cell-1-1-2-right" points="251.48,173.33 251.48,124.00 197.21,155.33 197.21,204.67" fill="#16A34A" stroke="#14532D" stroke-width="0.56" stroke-linejoin="round" stroke-linecap="round"/><polygon data-face="cell-1-1-2-top" points="197.21,92.67 251.48,124.00 197.21,155.33 142.93,124.00" fill="#F0FDF4" stroke="#14532D" stroke-width="0.56" stroke-linejoin="round" stroke-linecap="round"/><polygon data-face="cell-0-2-2-left" points="24.00,173.33 24.00,124.00 78.27,155.33 78.27,204.67" fill="#15803D" stroke="#14532D" stroke-width="0.56" stroke-linejoin="round" stroke-linecap="round"/><polygon data-face="cell-0-2-2-right" points="132.54,173.33 132.54,124.00 78.27,155.33 78.27,204.67" fill="#16A34A" stroke="#14532D" stroke-width="0.56" stroke-linejoin="round" stroke-linecap="round"/><polygon data-face="cell-0-2-2-top" points="78.27,92.67 132.54,124.00 78.27,155.33 24.00,124.00" fill="#F0FDF4" stroke="#14532D" stroke-width="0.56" stroke-linejoin="round" stroke-linecap="round"/><polygon data-face="cell-2-2-1-left" points="142.93,297.33 142.93,248.00 197.21,279.33 197.21,328.67" fill="#15803D" stroke="#14532D" stroke-width="0.56" stroke-linejoin="round" stroke-linecap="round"/><polygon data-face="cell-2-2-1-right" points="251.48,297.33 251.48,248.00 197.21,279.33 197.21,328.67" fill="#16A34A" stroke="#14532D" stroke-width="0.56" stroke-linejoin="round" stroke-linecap="round"/><polygon data-face="cell-2-2-1-top" points="197.21,216.67 251.48,248.00 197.21,279.33 142.93,248.00" fill="#F0FDF4" stroke="#14532D" stroke-width="0.56" stroke-linejoin="round" stroke-linecap="round"/><polygon data-face="cell-2-1-2-left" points="202.40,207.67 202.40,158.33 256.67,189.67 256.67,239.00" fill="#15803D" stroke="#14532D" stroke-width="0.56" stroke-linejoin="round" stroke-linecap="round"/><polygon data-face="cell-2-1-2-right" points="310.94,207.67 310.94,158.33 256.67,189.67 256.67,239.00" fill="#16A34A" stroke="#14532D" stroke-width="0.56" stroke-linejoin="round" stroke-linecap="round"/><polygon data-face="cell-2-1-2-top" points="256.67,127.00 310.94,158.33 256.67,189.67 202.40,158.33" fill="#F0FDF4" stroke="#14532D" stroke-width="0.56" stroke-linejoin="round" stroke-linecap="round"/><polygon data-face="cell-1-2-2-left" points="83.47,207.67 83.47,158.33 137.74,189.67 137.74,239.00" fill="#15803D" stroke="#14532D" stroke-width="0.56" stroke-linejoin="round" stroke-linecap="round"/><polygon data-face="cell-1-2-2-right" points="192.01,207.67 192.01,158.33 137.74,189.67 137.74,239.00" fill="#16A34A" stroke="#14532D" stroke-width="0.56" stroke-linejoin="round" stroke-linecap="round"/><polygon data-face="cell-1-2-2-top" points="137.74,127.00 192.01,158.33 137.74,189.67 83.47,158.33" fill="#F0FDF4" stroke="#14532D" stroke-width="0.56" stroke-linejoin="round" stroke-linecap="round"/><polygon data-face="cell-2-2-2-left" points="142.93,242.00 142.93,192.67 197.21,224.00 197.21,273.33" fill="#15803D" stroke="#14532D" stroke-width="0.56" stroke-linejoin="round" stroke-linecap="round"/><polygon data-face="cell-2-2-2-right" points="251.48,242.00 251.48,192.67 197.21,224.00 197.21,273.33" fill="#16A34A" stroke="#14532D" stroke-width="0.56" stroke-linejoin="round" stroke-linecap="round"/><polygon data-face="cell-2-2-2-top" points="197.21,161.33 251.48,192.67 197.21,224.00 142.93,192.67" fill="#F0FDF4" stroke="#14532D" stroke-width="0.56" stroke-linejoin="round" stroke-linecap="round"/><g data-face="top-content" transform="matrix(0.8660 0.5000 -0.8660 0.5000 197.21 24.00)"><text x="100.00" y="100.00" dy=".35em" font-family="Helvetica Neue, Arial, sans-serif" font-size="16.00" font-weight="600" fill="#0B1F3A" text-anchor="middle">GPU Cluster</text></g></g></svg>