<svg xmlns="http://www.w3.org/2000/svg" xmlns:xlink="http://www.w3.org/1999/xlink" viewBox="0 0 1028.59 611.50" width="1028.59" height="611.50"><defs><pattern id="bg-grid" patternUnits="userSpaceOnUse" width="69.28" height="40.00"><rect width="69.28" height="40.00" fill="#FAFBFC"/><path d="M 34.64,0 L 69.28,20.00 L 34.64,40.00 L 0,20.00 Z" fill="none" stroke="#E2E6EE" stroke-width="1"/></pattern></defs><rect data-layer="canvas-bg" x="0.00" y="0.00" width="1028.59" height="611.50" fill="url(#bg-grid)"/><g data-layer="connectors"><path data-connector="" d="M 967.23,61.50 L 988.01,73.50 L 994.94,77.50 L 775.83,204.00 L 755.05,192.00" fill="none" stroke="#0D32B2" stroke-width="2.00" stroke-linecap="round" stroke-linejoin="round"/><polygon points="755.05,192.00 763.98,192.54 759.98,199.46" fill="#0D32B2"/><rect x="830.64" y="116.75" width="61.00" height="20" rx="4" ry="4" fill="#FFFFFFEE"/><text x="861.14" y="126.75" dy=".35em" font-family="Inter, sans-serif" font-size="11" font-weight="600" fill="#1F2433" text-anchor="middle">request</text><path data-connector="" d="M 754.18,184.50 L 774.97,196.50 L 726.47,168.50 L 515.16,290.50 L 494.38,278.50" fill="none" stroke="#0D32B2" stroke-width="2.00" stroke-linecap="round" stroke-linejoin="round"/><polygon points="494.38,278.50 503.30,279.04 499.30,285.96" fill="#0D32B2"/><rect x="593.78" y="221.50" width="61.00" height="20" rx="4" ry="4" fill="#FFFFFFEE"/><text x="624.28" y="231.50" dy=".35em" font-family="Inter, sans-serif" font-size="11" font-weight="600" fill="#1F2433" text-anchor="middle">enqueue</text><path data-connector="" d="M 742.06,191.50 L 762.84,203.50 L 807.88,229.50 L 260.55,545.50 L 239.76,533.50" fill="none" stroke="#0D32B2" stroke-width="2.00" stroke-linecap="round" stroke-linejoin="round"/><polygon points="239.76,533.50 248.69,534.04 244.69,540.96" fill="#0D32B2"/><rect x="463.91" y="352.50" width="54.00" height="20" rx="4" ry="4" fill="#FFFFFFEE"/><text x="490.91" y="362.50" dy=".35em" font-family="Inter, sans-serif" font-size="11" font-weight="600" fill="#1F2433" text-anchor="middle">lookup</text><path data-connector="" d="M 487.45,274.50 L 508.23,286.50 L 515.16,290.50 L 397.38,358.50 L 376.60,346.50" fill="none" stroke="#0D32B2" stroke-width="2.00" stroke-linecap="round" stroke-linejoin="round"/><polygon points="376.60,346.50 385.52,347.04 381.52,353.96" fill="#0D32B2"/><path data-connector="" d="M 375.73,339.00 L 396.52,351.00 L 380.93,342.00 L 138.44,482.00 L 117.66,470.00" fill="none" stroke="#0D32B2" stroke-width="2.00" stroke-linecap="round" stroke-linejoin="round"/><polygon points="117.66,470.00 126.58,470.54 122.58,477.46" fill="#0D32B2"/><rect x="223.19" y="394.50" width="47.00" height="20" rx="4" ry="4" fill="#FFFFFFEE"/><text x="246.69" y="404.50" dy=".35em" font-family="Inter, sans-serif" font-size="11" font-weight="600" fill="#1F2433" text-anchor="middle">write</text><path data-connector="" d="M 363.61,346.00 L 384.39,358.00 L 484.85,416.00 L 248.42,552.50 L 227.64,540.50" fill="none" stroke="#0D32B2" stroke-width="2.00" stroke-linecap="round" stroke-linejoin="round"/><polygon points="227.64,540.50 236.57,541.04 232.57,547.96" fill="#0D32B2"/><rect x="268.62" y="433.25" width="54.00" height="20" rx="4" ry="4" fill="#FFFFFFEE"/><text x="295.62" y="443.25" dy=".35em" font-family="Inter, sans-serif" font-size="11" font-weight="600" fill="#1F2433" text-anchor="middle">update</text></g><g data-part="0" transform="translate(919.23 -31.78)"><g data-face="wrap"><defs><radialGradient id="person-head-grad" cx="35%" cy="30%" r="75%"><stop offset="0%" stop-color="#E3E9FD"/><stop offset="100%" stop-color="#A35F25"/></radialGradient></defs><path data-face="body-left" d="M 24.00 67.78 L 24.00 103.78 A 24.00 13.86 0 0 0 48.00 117.63 L 48.00 81.63 A 24.00 13.86 0 0 0 24.00 67.78 Z" fill="#3A6FBA" stroke="none"/><path data-face="body-right" d="M 72.00 67.78 L 72.00 103.78 A 24.00 13.86 0 0 1 48.00 117.63 L 48.00 81.63 A 24.00 13.86 0 0 1 72.00 67.78 Z" fill="#5589D6" stroke="none"/><path data-face="body-outline" d="M 24.00 67.78 L 24.00 103.78 A 24.00 13.86 0 0 0 72.00 103.78 L 72.00 67.78" fill="none" stroke="#0D32B2" stroke-width="2.00" stroke-linejoin="round" stroke-linecap="round"/><ellipse data-face="body-top" cx="48.00" cy="67.78" rx="24.00" ry="13.86" fill="#E3E9FD" stroke="#0D32B2" stroke-width="2.00"/><circle data-face="head" cx="48.00" cy="36.96" r="12.96" fill="url(#person-head-grad)" stroke="#0D32B2" stroke-width="2.00"/><g data-face="top-content" transform="matrix(0.8660 0.5000 -0.8660 0.5000 48.00 53.92)"><text x="13.86" y="13.86" dy=".35em" font-family="Helvetica Neue, Arial, sans-serif" font-size="15.00" font-weight="600" fill="#0B1F3A" text-anchor="middle">User</text></g></g></g><g data-part="1" transform="translate(636.65 98.50)"><g data-face="wrap"><polygon data-face="left" points="24.00,87.00 24.00,57.00 141.78,125.00 141.78,155.00" fill="#3A6FBA" stroke="#0D32B2" stroke-width="2.00" stroke-linejoin="round" stroke-linecap="round"/><polygon data-face="right" points="198.94,122.00 198.94,92.00 141.78,125.00 141.78,155.00" fill="#5589D6" stroke="#0D32B2" stroke-width="2.00" stroke-linejoin="round" stroke-linecap="round"/><polygon data-face="top" points="81.16,24.00 198.94,92.00 141.78,125.00 24.00,57.00" fill="#F7F8FE" stroke="#0D32B2" stroke-width="2.00" stroke-linejoin="round" stroke-linecap="round"/><g data-face="top-content" transform="matrix(0.8660 0.5000 -0.8660 0.5000 81.16 24.00)"><text x="68.00" y="33.00" dy=".35em" font-family="Helvetica Neue, Arial, sans-serif" font-size="16.00" font-weight="600" fill="#0B1F3A" text-anchor="middle">API Gateway</text></g></g></g><g data-part="2" transform="translate(377.45 185.85)"><g data-face="wrap"><path data-face="side-left" d="M 24.00 73.65 L 24.00 103.65 A 86.00 49.65 0 0 0 110.00 153.30 L 110.00 123.30 A 86.00 49.65 0 0 0 24.00 73.65 Z" fill="#B8651F" stroke="none"/><path data-face="side-right" d="M 196.00 73.65 L 196.00 103.65 A 86.00 49.65 0 0 1 110.00 153.30 L 110.00 123.30 A 86.00 49.65 0 0 1 196.00 73.65 Z" fill="#E08A47" stroke="none"/><path data-face="outline" d="M 24.00 73.65 L 24.00 103.65 A 86.00 49.65 0 0 0 196.00 103.65 L 196.00 73.65" fill="none" stroke="#0D32B2" stroke-width="2.00" stroke-linejoin="round" stroke-linecap="round"/><ellipse data-face="top" cx="110.00" cy="73.65" rx="86.00" ry="49.65" fill="#DEE1EB" stroke="#0D32B2" stroke-width="2.00"/><g data-face="top-content" transform="matrix(0.8660 0.5000 -0.8660 0.5000 110.00 24.00)"><text x="49.65" y="49.65" dy=".35em" font-family="Helvetica Neue, Arial, sans-serif" font-size="16.00" font-weight="600" fill="#3A1A06" text-anchor="middle">Job Queue</text></g></g></g><g data-part="3" transform="translate(274.65 262.50)"><g data-face="wrap"><polygon data-face="left" points="24.00,87.00 24.00,57.00 108.87,106.00 108.87,136.00" fill="#3A6FBA" stroke="#0D32B2" stroke-width="2.00" stroke-linejoin="round" stroke-linecap="round"/><polygon data-face="right" points="166.03,103.00 166.03,73.00 108.87,106.00 108.87,136.00" fill="#5589D6" stroke="#0D32B2" stroke-width="2.00" stroke-linejoin="round" stroke-linecap="round"/><polygon data-face="top" points="81.16,24.00 166.03,73.00 108.87,106.00 24.00,57.00" fill="#F7F8FE" stroke="#0D32B2" stroke-width="2.00" stroke-linejoin="round" stroke-linecap="round"/><g data-face="top-content" transform="matrix(0.8660 0.5000 -0.8660 0.5000 81.16 24.00)"><text x="49.00" y="33.00" dy=".35em" font-family="Helvetica Neue, Arial, sans-serif" font-size="16.00" font-weight="600" fill="#0B1F3A" text-anchor="middle">Worker</text></g></g></g><g data-part="4" transform="translate(31.73 395.25)"><g data-face="wrap"><path data-face="side-left" d="M 24.00 55.75 L 24.00 85.75 A 55.00 31.75 0 0 0 79.00 117.51 L 79.00 87.51 A 55.00 31.75 0 0 0 24.00 55.75 Z" fill="#B8651F" stroke="none"/><path data-face="side-right" d="M 134.00 55.75 L 134.00 85.75 A 55.00 31.75 0 0 1 79.00 117.51 L 79.00 87.51 A 55.00 31.75 0 0 1 134.00 55.75 Z" fill="#E08A47" stroke="none"/><path data-face="outline" d="M 24.00 55.75 L 24.00 85.75 A 55.00 31.75 0 0 0 134.00 85.75 L 134.00 55.75" fill="none" stroke="#0D32B2" stroke-width="2.00" stroke-linejoin="round" stroke-linecap="round"/><ellipse data-face="top" cx="79.00" cy="55.75" rx="55.00" ry="31.75" fill="#EDF0FD" stroke="#0D32B2" stroke-width="2.00"/><g data-face="top-content" transform="matrix(0.8660 0.5000 -0.8660 0.5000 79.00 24.00)"><text x="31.75" y="31.75" dy=".35em" font-family="Helvetica Neue, Arial, sans-serif" font-size="16.00" font-weight="600" fill="#3A1A06" text-anchor="middle">Database</text></g></g></g><g data-part="5" transform="translate(158.77 468.60)"><g data-face="wrap"><path data-face="side-left" d="M 24.00 49.40 L 24.00 79.40 A 44.00 25.40 0 0 0 68.00 104.81 L 68.00 74.81 A 44.00 25.40 0 0 0 24.00 49.40 Z" fill="#B8651F" stroke="none"/><path data-face="side-right" d="M 112.00 49.40 L 112.00 79.40 A 44.00 25.40 0 0 1 68.00 104.81 L 68.00 74.81 A 44.00 25.40 0 0 1 112.00 49.40 Z" fill="#E08A47" stroke="none"/><path data-face="outline" d="M 24.00 49.40 L 24.00 79.40 A 44.00 25.40 0 0 0 112.00 79.40 L 112.00 49.40" fill="none" stroke="#0D32B2" stroke-width="2.00" stroke-linejoin="round" stroke-linecap="round"/><ellipse data-face="top" cx="68.00" cy="49.40" rx="44.00" ry="25.40" fill="#EDF0FD" stroke="#0D32B2" stroke-width="2.00"/><g data-face="top-content" transform="matrix(0.8660 0.5000 -0.8660 0.5000 68.00 24.00)"><text x="25.40" y="25.40" dy=".35em" font-family="Helvetica Neue, Arial, sans-serif" font-size="16.00" font-weight="600" fill="#3A1A06" text-anchor="middle">Cache</text></g></g></g></svg>