<svg xmlns="http://www.w3.org/2000/svg" xmlns:xlink="http://www.w3.org/1999/xlink" viewBox="0 0 144.00 141.43" width="144.00" height="141.43"><g data-face="wrap"><path data-face="side-left" d="M 24.00 51.71 L 24.00 89.71 A 48.00 27.71 0 0 0 72.00 117.43 L 72.00 79.43 A 48.00 27.71 0 0 0 24.00 51.71 Z" fill="#B45309" stroke="none"/><path data-face="side-right" d="M 120.00 51.71 L 120.00 89.71 A 48.00 27.71 0 0 1 72.00 117.43 L 72.00 79.43 A 48.00 27.71 0 0 1 120.00 51.71 Z" fill="#D97706" stroke="none"/><path data-face="outline" d="M 24.00 51.71 L 24.00 89.71 A 48.00 27.71 0 0 0 120.00 89.71 L 120.00 51.71" fill="none" stroke="#1F2937" stroke-width="1.30" stroke-linejoin="round" stroke-linecap="round"/><ellipse data-face="top" cx="72.00" cy="51.71" rx="48.00" ry="27.71" fill="#FCD34D" stroke="#1F2937" stroke-width="1.30"/><g data-face="top-content" transform="matrix(0.8660 0.5000 -0.8660 0.5000 72.00 24.00)"><text x="27.71" y="27.71" dy=".35em" font-family="Inter, sans-serif" font-size="12.00" font-weight="600" fill="#1F2937" text-anchor="middle">Cache</text></g></g></svg>