<svg xmlns="http://www.w3.org/2000/svg" xmlns:xlink="http://www.w3.org/1999/xlink" viewBox="0 0 983.30 716.00" width="983.30" height="716.00"><defs><pattern id="bg-grid" patternUnits="userSpaceOnUse" width="69.28" height="40.00"><rect width="69.28" height="40.00" fill="#F6F7FA"/><path d="M 34.64,0 L 69.28,20.00 L 34.64,40.00 L 0,20.00 Z" fill="none" stroke="#E3E7EF" stroke-width="1"/></pattern></defs><rect data-layer="canvas-bg" x="0.00" y="0.00" width="983.30" height="716.00" fill="url(#bg-grid)"/><g data-layer="connectors"><path data-connector="" d="M 618.22,246.00 L 680.57,282.00" fill="none" stroke="#5B7FFF" stroke-width="2.00" stroke-linecap="round" stroke-linejoin="round"/><polygon points="680.57,282.00 671.64,281.46 675.64,274.54" fill="#5B7FFF"/><path data-connector="" d="M 774.10,315.00 L 836.46,351.00" fill="none" stroke="#5B7FFF" stroke-width="2.00" stroke-linecap="round" stroke-linejoin="round"/><polygon points="836.46,351.00 827.53,350.46 831.53,343.54" fill="#5B7FFF"/><path data-connector="" d="M 358.41,316.00 L 379.19,304.00 L 399.98,292.00 L 348.02,262.00 L 368.80,250.00" fill="none" stroke="#9AA4B8" stroke-width="1.50" stroke-linecap="round" stroke-linejoin="round" stroke-dasharray="4 3"/><polygon points="368.80,250.00 364.18,257.00 360.43,250.50" fill="#9AA4B8"/></g><g data-part="0" transform="translate(230.49 8.00)"><defs><linearGradient id="p0-rounded-side" x1="50%" y1="0%" x2="50%" y2="100%"><stop offset="0%" stop-color="#D9DFF0"/><stop offset="100%" stop-color="#C9D1E5"/></linearGradient></defs><g data-face="wrap"><path data-face="side" d="M 494.77,159.90 L 494.62,161.19 L 494.19,162.46 L 493.46,163.69 L 492.47,164.85 L 491.23,165.93 L 489.75,166.90 L 477.62,173.90 L 465.50,180.90 L 453.37,187.90 L 441.25,194.90 L 429.13,201.90 L 417.00,208.90 L 404.88,215.90 L 392.75,222.90 L 380.63,229.90 L 368.50,236.90 L 356.38,243.90 L 344.26,250.90 L 332.13,257.90 L 320.01,264.90 L 307.88,271.90 L 295.76,278.90 L 283.63,285.90 L 271.51,292.90 L 269.82,293.75 L 267.96,294.47 L 265.95,295.05 L 263.82,295.46 L 261.62,295.71 L 259.38,295.80 L 257.15,295.71 L 254.95,295.46 L 252.82,295.05 L 250.81,294.47 L 248.95,293.75 L 247.26,292.90 L 235.14,285.90 L 223.01,278.90 L 210.89,271.90 L 198.76,264.90 L 186.64,257.90 L 174.51,250.90 L 162.39,243.90 L 150.27,236.90 L 138.14,229.90 L 126.02,222.90 L 113.89,215.90 L 101.77,208.90 L 89.64,201.90 L 77.52,194.90 L 65.40,187.90 L 53.27,180.90 L 41.15,173.90 L 29.02,166.90 L 27.54,165.93 L 26.30,164.85 L 25.31,163.69 L 24.58,162.46 L 24.15,161.19 L 24.15,169.19 L 24.58,170.46 L 25.31,171.69 L 26.30,172.85 L 27.54,173.93 L 29.02,174.90 L 41.15,181.90 L 53.27,188.90 L 65.40,195.90 L 77.52,202.90 L 89.64,209.90 L 101.77,216.90 L 113.89,223.90 L 126.02,230.90 L 138.14,237.90 L 150.27,244.90 L 162.39,251.90 L 174.51,258.90 L 186.64,265.90 L 198.76,272.90 L 210.89,279.90 L 223.01,286.90 L 235.14,293.90 L 247.26,300.90 L 248.95,301.75 L 250.81,302.47 L 252.82,303.05 L 254.95,303.46 L 257.15,303.71 L 259.38,303.80 L 261.62,303.71 L 263.82,303.46 L 265.95,303.05 L 267.96,302.47 L 269.82,301.75 L 271.51,300.90 L 283.63,293.90 L 295.76,286.90 L 307.88,279.90 L 320.01,272.90 L 332.13,265.90 L 344.26,258.90 L 356.38,251.90 L 368.50,244.90 L 380.63,237.90 L 392.75,230.90 L 404.88,223.90 L 417.00,216.90 L 429.13,209.90 L 441.25,202.90 L 453.37,195.90 L 465.50,188.90 L 477.62,181.90 L 489.75,174.90 L 491.23,173.93 L 492.47,172.85 L 493.46,171.69 L 494.19,170.46 L 494.62,169.19 L 494.77,167.90 Z" fill="url(#p0-rounded-side)" stroke="none"/><path data-face="top" d="M 271.51,26.90 L 283.63,33.90 L 295.76,40.90 L 307.88,47.90 L 320.01,54.90 L 332.13,61.90 L 344.26,68.90 L 356.38,75.90 L 368.50,82.90 L 380.63,89.90 L 392.75,96.90 L 404.88,103.90 L 417.00,110.90 L 429.13,117.90 L 441.25,124.90 L 453.37,131.90 L 465.50,138.90 L 477.62,145.90 L 489.75,152.90 L 491.23,153.87 L 492.47,154.95 L 493.46,156.11 L 494.19,157.34 L 494.62,158.61 L 494.77,159.90 L 494.62,161.19 L 494.19,162.46 L 493.46,163.69 L 492.47,164.85 L 491.23,165.93 L 489.75,166.90 L 477.62,173.90 L 465.50,180.90 L 453.37,187.90 L 441.25,194.90 L 429.13,201.90 L 417.00,208.90 L 404.88,215.90 L 392.75,222.90 L 380.63,229.90 L 368.50,236.90 L 356.38,243.90 L 344.26,250.90 L 332.13,257.90 L 320.01,264.90 L 307.88,271.90 L 295.76,278.90 L 283.63,285.90 L 271.51,292.90 L 269.82,293.75 L 267.96,294.47 L 265.95,295.05 L 263.82,295.46 L 261.62,295.71 L 259.38,295.80 L 257.15,295.71 L 254.95,295.46 L 252.82,295.05 L 250.81,294.47 L 248.95,293.75 L 247.26,292.90 L 235.14,285.90 L 223.01,278.90 L 210.89,271.90 L 198.76,264.90 L 186.64,257.90 L 174.51,250.90 L 162.39,243.90 L 150.27,236.90 L 138.14,229.90 L 126.02,222.90 L 113.89,215.90 L 101.77,208.90 L 89.64,201.90 L 77.52,194.90 L 65.40,187.90 L 53.27,180.90 L 41.15,173.90 L 29.02,166.90 L 27.54,165.93 L 26.30,164.85 L 25.31,163.69 L 24.58,162.46 L 24.15,161.19 L 24.00,159.90 L 24.15,158.61 L 24.58,157.34 L 25.31,156.11 L 26.30,154.95 L 27.54,153.87 L 29.02,152.90 L 41.15,145.90 L 53.27,138.90 L 65.40,131.90 L 77.52,124.90 L 89.64,117.90 L 101.77,110.90 L 113.89,103.90 L 126.02,96.90 L 138.14,89.90 L 150.27,82.90 L 162.39,75.90 L 174.51,68.90 L 186.64,61.90 L 198.76,54.90 L 210.89,47.90 L 223.01,40.90 L 235.14,33.90 L 247.26,26.90 L 248.95,26.05 L 250.81,25.33 L 252.82,24.75 L 254.95,24.34 L 257.15,24.08 L 259.38,24.00 L 261.62,24.08 L 263.82,24.34 L 265.95,24.75 L 267.96,25.33 L 269.82,26.05 L 271.51,26.90 Z" fill="#EEF1F8" stroke="#7C8DB5" stroke-width="1.00" stroke-linejoin="round"/><path data-face="silhouette" d="M 494.77,159.90 L 494.77,167.90 L 494.62,169.19 L 494.19,170.46 L 493.46,171.69 L 492.47,172.85 L 491.23,173.93 L 489.75,174.90 L 477.62,181.90 L 465.50,188.90 L 453.37,195.90 L 441.25,202.90 L 429.13,209.90 L 417.00,216.90 L 404.88,223.90 L 392.75,230.90 L 380.63,237.90 L 368.50,244.90 L 356.38,251.90 L 344.26,258.90 L 332.13,265.90 L 320.01,272.90 L 307.88,279.90 L 295.76,286.90 L 283.63,293.90 L 271.51,300.90 L 269.82,301.75 L 267.96,302.47 L 265.95,303.05 L 263.82,303.46 L 261.62,303.71 L 259.38,303.80 L 257.15,303.71 L 254.95,303.46 L 252.82,303.05 L 250.81,302.47 L 248.95,301.75 L 247.26,300.90 L 235.14,293.90 L 223.01,286.90 L 210.89,279.90 L 198.76,272.90 L 186.64,265.90 L 174.51,258.90 L 162.39,251.90 L 150.27,244.90 L 138.14,237.90 L 126.02,230.90 L 113.89,223.90 L 101.77,216.90 L 89.64,209.90 L 77.52,202.90 L 65.40,195.90 L 53.27,188.90 L 41.15,181.90 L 29.02,174.90 L 27.54,173.93 L 26.30,172.85 L 25.31,171.69 L 24.58,170.46 L 24.15,169.19 L 24.15,161.19" fill="none" stroke="#7C8DB5" stroke-width="1.00" stroke-linejoin="round" stroke-linecap="round"/><g data-face="top-content" transform="matrix(0.8660 0.5000 -0.8660 0.5000 259.38 19.90)"><text x="140.00" y="140.00" dy=".35em" font-family="Inter, system-ui, sans-serif" font-size="11.00" font-weight="600" fill="#1F2433" text-anchor="middle">Workers</text></g></g></g><g data-part="1" transform="translate(403.69 -12.00)"><g data-face="wrap"><polygon data-face="left" points="24.00,124.00 24.00,64.00 93.28,104.00 93.28,164.00" fill="#3A6FBA" stroke="#1D3A66" stroke-width="1.50" stroke-linejoin="round" stroke-linecap="round"/><polygon data-face="right" points="162.56,124.00 162.56,64.00 93.28,104.00 93.28,164.00" fill="#5589D6" stroke="#1D3A66" stroke-width="1.50" stroke-linejoin="round" stroke-linecap="round"/><polygon data-face="top" points="93.28,24.00 162.56,64.00 93.28,104.00 24.00,64.00" fill="#7FB3FF" stroke="#1D3A66" stroke-width="1.50" stroke-linejoin="round" stroke-linecap="round"/><g data-face="top-content" transform="matrix(0.8660 0.5000 -0.8660 0.5000 93.28 24.00)"><text x="40.00" y="40.00" dy=".35em" font-family="Inter, system-ui, sans-serif" font-size="11.00" font-weight="600" fill="#1F2433" text-anchor="middle">w1</text></g></g></g><g data-part="2" transform="translate(507.62 48.00)"><g data-face="wrap"><polygon data-face="left" points="24.00,124.00 24.00,64.00 93.28,104.00 93.28,164.00" fill="#3A6FBA" stroke="#1D3A66" stroke-width="1.50" stroke-linejoin="round" stroke-linecap="round"/><polygon data-face="right" points="162.56,124.00 162.56,64.00 93.28,104.00 93.28,164.00" fill="#5589D6" stroke="#1D3A66" stroke-width="1.50" stroke-linejoin="round" stroke-linecap="round"/><polygon data-face="top" points="93.28,24.00 162.56,64.00 93.28,104.00 24.00,64.00" fill="#7FB3FF" stroke="#1D3A66" stroke-width="1.50" stroke-linejoin="round" stroke-linecap="round"/><g data-face="top-content" transform="matrix(0.8660 0.5000 -0.8660 0.5000 93.28 24.00)"><text x="40.00" y="40.00" dy=".35em" font-family="Inter, system-ui, sans-serif" font-size="11.00" font-weight="600" fill="#1F2433" text-anchor="middle">w2</text></g></g></g><g data-part="3" transform="translate(299.77 48.00)"><g data-face="wrap"><polygon data-face="left" points="24.00,124.00 24.00,64.00 93.28,104.00 93.28,164.00" fill="#3A6FBA" stroke="#1D3A66" stroke-width="1.50" stroke-linejoin="round" stroke-linecap="round"/><polygon data-face="right" points="162.56,124.00 162.56,64.00 93.28,104.00 93.28,164.00" fill="#5589D6" stroke="#1D3A66" stroke-width="1.50" stroke-linejoin="round" stroke-linecap="round"/><polygon data-face="top" points="93.28,24.00 162.56,64.00 93.28,104.00 24.00,64.00" fill="#7FB3FF" stroke="#1D3A66" stroke-width="1.50" stroke-linejoin="round" stroke-linecap="round"/><g data-face="top-content" transform="matrix(0.8660 0.5000 -0.8660 0.5000 93.28 24.00)"><text x="40.00" y="40.00" dy=".35em" font-family="Inter, system-ui, sans-serif" font-size="11.00" font-weight="600" fill="#1F2433" text-anchor="middle">w3</text></g></g></g><g data-part="4" transform="translate(403.69 108.00)"><g data-face="wrap"><polygon data-face="left" points="24.00,124.00 24.00,64.00 93.28,104.00 93.28,164.00" fill="#3A6FBA" stroke="#1D3A66" stroke-width="1.50" stroke-linejoin="round" stroke-linecap="round"/><polygon data-face="right" points="162.56,124.00 162.56,64.00 93.28,104.00 93.28,164.00" fill="#5589D6" stroke="#1D3A66" stroke-width="1.50" stroke-linejoin="round" stroke-linecap="round"/><polygon data-face="top" points="93.28,24.00 162.56,64.00 93.28,104.00 24.00,64.00" fill="#7FB3FF" stroke="#1D3A66" stroke-width="1.50" stroke-linejoin="round" stroke-linecap="round"/><g data-face="top-content" transform="matrix(0.8660 0.5000 -0.8660 0.5000 93.28 24.00)"><text x="40.00" y="40.00" dy=".35em" font-family="Inter, system-ui, sans-serif" font-size="11.00" font-weight="600" fill="#1F2433" text-anchor="middle">w4</text></g></g></g><g data-part="5" transform="translate(-12.00 188.00)"><defs><linearGradient id="p5-rounded-side" x1="50%" y1="0%" x2="50%" y2="100%"><stop offset="0%" stop-color="#D9DFF0"/><stop offset="100%" stop-color="#C9D1E5"/></linearGradient></defs><g data-face="wrap"><path data-face="side" d="M 529.41,219.90 L 529.26,221.19 L 528.83,222.46 L 528.11,223.69 L 527.11,224.85 L 525.87,225.93 L 524.39,226.90 L 516.11,231.68 L 507.84,236.46 L 499.56,241.23 L 491.29,246.01 L 483.01,250.79 L 474.74,255.57 L 466.46,260.34 L 458.19,265.12 L 449.91,269.90 L 441.64,274.68 L 433.36,279.46 L 425.08,284.23 L 416.81,289.01 L 408.53,293.79 L 400.26,298.57 L 391.98,303.34 L 383.71,308.12 L 375.43,312.90 L 373.75,313.75 L 371.88,314.47 L 369.87,315.05 L 367.75,315.46 L 365.55,315.71 L 363.31,315.80 L 361.07,315.71 L 358.87,315.46 L 356.75,315.05 L 354.73,314.47 L 352.87,313.75 L 351.18,312.90 L 333.29,302.57 L 315.39,292.23 L 297.49,281.90 L 279.59,271.57 L 261.69,261.23 L 243.80,250.90 L 225.90,240.57 L 208.00,230.23 L 190.10,219.90 L 172.20,209.57 L 154.31,199.23 L 136.41,188.90 L 118.51,178.57 L 100.61,168.23 L 82.72,157.90 L 64.82,147.57 L 46.92,137.23 L 29.02,126.90 L 27.54,125.93 L 26.30,124.85 L 25.31,123.69 L 24.58,122.46 L 24.15,121.19 L 24.15,129.19 L 24.58,130.46 L 25.31,131.69 L 26.30,132.85 L 27.54,133.93 L 29.02,134.90 L 46.92,145.23 L 64.82,155.57 L 82.72,165.90 L 100.61,176.23 L 118.51,186.57 L 136.41,196.90 L 154.31,207.23 L 172.20,217.57 L 190.10,227.90 L 208.00,238.23 L 225.90,248.57 L 243.80,258.90 L 261.69,269.23 L 279.59,279.57 L 297.49,289.90 L 315.39,300.23 L 333.29,310.57 L 351.18,320.90 L 352.87,321.75 L 354.73,322.47 L 356.75,323.05 L 358.87,323.46 L 361.07,323.71 L 363.31,323.80 L 365.55,323.71 L 367.75,323.46 L 369.87,323.05 L 371.88,322.47 L 373.75,321.75 L 375.43,320.90 L 383.71,316.12 L 391.98,311.34 L 400.26,306.57 L 408.53,301.79 L 416.81,297.01 L 425.08,292.23 L 433.36,287.46 L 441.64,282.68 L 449.91,277.90 L 458.19,273.12 L 466.46,268.34 L 474.74,263.57 L 483.01,258.79 L 491.29,254.01 L 499.56,249.23 L 507.84,244.46 L 516.11,239.68 L 524.39,234.90 L 525.87,233.93 L 527.11,232.85 L 528.11,231.69 L 528.83,230.46 L 529.26,229.19 L 529.41,227.90 Z" fill="url(#p5-rounded-side)" stroke="none"/><path data-face="top" d="M 202.23,26.90 L 220.13,37.23 L 238.02,47.57 L 255.92,57.90 L 273.82,68.23 L 291.72,78.57 L 309.61,88.90 L 327.51,99.23 L 345.41,109.57 L 363.31,119.90 L 381.21,130.23 L 399.10,140.57 L 417.00,150.90 L 434.90,161.23 L 452.80,171.57 L 470.70,181.90 L 488.59,192.23 L 506.49,202.57 L 524.39,212.90 L 525.87,213.87 L 527.11,214.95 L 528.11,216.11 L 528.83,217.34 L 529.26,218.61 L 529.41,219.90 L 529.26,221.19 L 528.83,222.46 L 528.11,223.69 L 527.11,224.85 L 525.87,225.93 L 524.39,226.90 L 516.11,231.68 L 507.84,236.46 L 499.56,241.23 L 491.29,246.01 L 483.01,250.79 L 474.74,255.57 L 466.46,260.34 L 458.19,265.12 L 449.91,269.90 L 441.64,274.68 L 433.36,279.46 L 425.08,284.23 L 416.81,289.01 L 408.53,293.79 L 400.26,298.57 L 391.98,303.34 L 383.71,308.12 L 375.43,312.90 L 373.75,313.75 L 371.88,314.47 L 369.87,315.05 L 367.75,315.46 L 365.55,315.71 L 363.31,315.80 L 361.07,315.71 L 358.87,315.46 L 356.75,315.05 L 354.73,314.47 L 352.87,313.75 L 351.18,312.90 L 333.29,302.57 L 315.39,292.23 L 297.49,281.90 L 279.59,271.57 L 261.69,261.23 L 243.80,250.90 L 225.90,240.57 L 208.00,230.23 L 190.10,219.90 L 172.20,209.57 L 154.31,199.23 L 136.41,188.90 L 118.51,178.57 L 100.61,168.23 L 82.72,157.90 L 64.82,147.57 L 46.92,137.23 L 29.02,126.90 L 27.54,125.93 L 26.30,124.85 L 25.31,123.69 L 24.58,122.46 L 24.15,121.19 L 24.00,119.90 L 24.15,118.61 L 24.58,117.34 L 25.31,116.11 L 26.30,114.95 L 27.54,113.87 L 29.02,112.90 L 37.30,108.12 L 45.57,103.34 L 53.85,98.57 L 62.12,93.79 L 70.40,89.01 L 78.67,84.23 L 86.95,79.46 L 95.22,74.68 L 103.50,69.90 L 111.78,65.12 L 120.05,60.34 L 128.33,55.57 L 136.60,50.79 L 144.88,46.01 L 153.15,41.23 L 161.43,36.46 L 169.70,31.68 L 177.98,26.90 L 179.66,26.05 L 181.53,25.33 L 183.54,24.75 L 185.66,24.34 L 187.86,24.08 L 190.10,24.00 L 192.34,24.08 L 194.54,24.34 L 196.66,24.75 L 198.68,25.33 L 200.54,26.05 L 202.23,26.90 Z" fill="#EEF1F8" stroke="#7C8DB5" stroke-width="1.00" stroke-linejoin="round"/><path data-face="silhouette" d="M 529.41,219.90 L 529.41,227.90 L 529.26,229.19 L 528.83,230.46 L 528.11,231.69 L 527.11,232.85 L 525.87,233.93 L 524.39,234.90 L 516.11,239.68 L 507.84,244.46 L 499.56,249.23 L 491.29,254.01 L 483.01,258.79 L 474.74,263.57 L 466.46,268.34 L 458.19,273.12 L 449.91,277.90 L 441.64,282.68 L 433.36,287.46 L 425.08,292.23 L 416.81,297.01 L 408.53,301.79 L 400.26,306.57 L 391.98,311.34 L 383.71,316.12 L 375.43,320.90 L 373.75,321.75 L 371.88,322.47 L 369.87,323.05 L 367.75,323.46 L 365.55,323.71 L 363.31,323.80 L 361.07,323.71 L 358.87,323.46 L 356.75,323.05 L 354.73,322.47 L 352.87,321.75 L 351.18,320.90 L 333.29,310.57 L 315.39,300.23 L 297.49,289.90 L 279.59,279.57 L 261.69,269.23 L 243.80,258.90 L 225.90,248.57 L 208.00,238.23 L 190.10,227.90 L 172.20,217.57 L 154.31,207.23 L 136.41,196.90 L 118.51,186.57 L 100.61,176.23 L 82.72,165.90 L 64.82,155.57 L 46.92,145.23 L 29.02,134.90 L 27.54,133.93 L 26.30,132.85 L 25.31,131.69 L 24.58,130.46 L 24.15,129.19 L 24.15,121.19" fill="none" stroke="#7C8DB5" stroke-width="1.00" stroke-linejoin="round" stroke-linecap="round"/><g data-face="top-content" transform="matrix(0.8660 0.5000 -0.8660 0.5000 190.10 19.90)"><text x="200.00" y="100.00" dy=".35em" font-family="Inter, system-ui, sans-serif" font-size="11.00" font-weight="600" fill="#1F2433" text-anchor="middle">Pipeline</text></g></g></g><g data-part="6" transform="translate(74.60 188.00)"><g data-face="wrap"><polygon data-face="left" points="24.00,114.00 24.00,64.00 93.28,104.00 93.28,154.00" fill="#3A6FBA" stroke="#1D3A66" stroke-width="1.50" stroke-linejoin="round" stroke-linecap="round"/><polygon data-face="right" points="162.56,114.00 162.56,64.00 93.28,104.00 93.28,154.00" fill="#5589D6" stroke="#1D3A66" stroke-width="1.50" stroke-linejoin="round" stroke-linecap="round"/><polygon data-face="top" points="93.28,24.00 162.56,64.00 93.28,104.00 24.00,64.00" fill="#7FB3FF" stroke="#1D3A66" stroke-width="1.50" stroke-linejoin="round" stroke-linecap="round"/><g data-face="top-content" transform="matrix(0.8660 0.5000 -0.8660 0.5000 93.28 24.00)"><text x="40.00" y="40.00" dy=".35em" font-family="Inter, system-ui, sans-serif" font-size="11.00" font-weight="600" fill="#1F2433" text-anchor="middle">ingest</text></g></g></g><g data-part="7" transform="translate(161.21 238.00)"><g data-face="wrap"><polygon data-face="left" points="24.00,134.00 24.00,84.00 93.28,124.00 93.28,174.00" fill="#3A6FBA" stroke="#1D3A66" stroke-width="1.50" stroke-linejoin="round" stroke-linecap="round"/><polygon data-face="right" points="197.21,114.00 197.21,64.00 93.28,124.00 93.28,174.00" fill="#5589D6" stroke="#1D3A66" stroke-width="1.50" stroke-linejoin="round" stroke-linecap="round"/><polygon data-face="top" points="127.92,24.00 197.21,64.00 93.28,124.00 24.00,84.00" fill="#7FB3FF" stroke="#1D3A66" stroke-width="1.50" stroke-linejoin="round" stroke-linecap="round"/><g data-face="top-content" transform="matrix(0.8660 0.5000 -0.8660 0.5000 127.92 24.00)"><text x="40.00" y="60.00" dy=".35em" font-family="Inter, system-ui, sans-serif" font-size="11.00" font-weight="600" fill="#1F2433" text-anchor="middle">transform</text></g></g></g><g data-part="8" transform="translate(311.73 324.91)"><g data-face="wrap"><path data-face="side-left" d="M 24.00 47.09 L 24.00 97.09 A 40.00 23.09 0 0 0 64.00 120.19 L 64.00 70.19 A 40.00 23.09 0 0 0 24.00 47.09 Z" fill="#B8651F" stroke="none"/><path data-face="side-right" d="M 104.00 47.09 L 104.00 97.09 A 40.00 23.09 0 0 1 64.00 120.19 L 64.00 70.19 A 40.00 23.09 0 0 1 104.00 47.09 Z" fill="#E08A47" stroke="none"/><path data-face="outline" d="M 24.00 47.09 L 24.00 97.09 A 40.00 23.09 0 0 0 104.00 97.09 L 104.00 47.09" fill="none" stroke="#5C2A0A" stroke-width="1.50" stroke-linejoin="round" stroke-linecap="round"/><ellipse data-face="top" cx="64.00" cy="47.09" rx="40.00" ry="23.09" fill="#FFD27F" stroke="#5C2A0A" stroke-width="1.50"/><g data-face="top-content" transform="matrix(0.8660 0.5000 -0.8660 0.5000 64.00 24.00)"><text x="23.09" y="23.09" dy=".35em" font-family="Inter, system-ui, sans-serif" font-size="11.00" font-weight="600" fill="#1F2433" text-anchor="middle">sink</text></g></g></g><g data-part="9" transform="translate(620.20 151.00)"><g data-face="wrap"><polygon data-face="left" points="24.00,164.00 24.00,74.00 110.60,124.00 110.60,214.00" fill="#3A6FBA" stroke="#1D3A66" stroke-width="1.50" stroke-linejoin="round" stroke-linecap="round"/><polygon data-face="right" points="197.21,164.00 197.21,74.00 110.60,124.00 110.60,214.00" fill="#5589D6" stroke="#1D3A66" stroke-width="1.50" stroke-linejoin="round" stroke-linecap="round"/><polygon data-face="top" points="110.60,24.00 197.21,74.00 110.60,124.00 24.00,74.00" fill="#7FB3FF" stroke="#1D3A66" stroke-width="1.50" stroke-linejoin="round" stroke-linecap="round"/><g data-face="top-content" transform="matrix(0.8660 0.5000 -0.8660 0.5000 110.60 24.00)"><text x="50.00" y="50.00" dy=".35em" font-family="Inter, system-ui, sans-serif" font-size="11.00" font-weight="600" fill="#1F2433" text-anchor="middle">gateway</text></g></g></g><g data-part="10" transform="translate(784.74 286.00)"><g data-face="wrap"><polygon data-face="left" points="24.00,114.00 24.00,64.00 93.28,104.00 93.28,154.00" fill="#3A6FBA" stroke="#1D3A66" stroke-width="1.50" stroke-linejoin="round" stroke-linecap="round"/><polygon data-face="right" points="162.56,114.00 162.56,64.00 93.28,104.00 93.28,154.00" fill="#5589D6" stroke="#1D3A66" stroke-width="1.50" stroke-linejoin="round" stroke-linecap="round"/><polygon data-face="top" points="93.28,24.00 162.56,64.00 93.28,104.00 24.00,64.00" fill="#7FB3FF" stroke="#1D3A66" stroke-width="1.50" stroke-linejoin="round" stroke-linecap="round"/><g data-face="top-content" transform="matrix(0.8660 0.5000 -0.8660 0.5000 93.28 24.00)"><text x="40.00" y="40.00" dy=".35em" font-family="Inter, system-ui, sans-serif" font-size="11.00" font-weight="600" fill="#1F2433" text-anchor="middle">s1</text></g></g></g><g data-part="11" transform="translate(784.74 406.00)"><g data-face="wrap"><polygon data-face="left" points="24.00,114.00 24.00,64.00 93.28,104.00 93.28,154.00" fill="#3A6FBA" stroke="#1D3A66" stroke-width="1.50" stroke-linejoin="round" stroke-linecap="round"/><polygon data-face="right" points="162.56,114.00 162.56,64.00 93.28,104.00 93.28,154.00" fill="#5589D6" stroke="#1D3A66" stroke-width="1.50" stroke-linejoin="round" stroke-linecap="round"/><polygon data-face="top" points="93.28,24.00 162.56,64.00 93.28,104.00 24.00,64.00" fill="#7FB3FF" stroke="#1D3A66" stroke-width="1.50" stroke-linejoin="round" stroke-linecap="round"/><g data-face="top-content" transform="matrix(0.8660 0.5000 -0.8660 0.5000 93.28 24.00)"><text x="40.00" y="40.00" dy=".35em" font-family="Inter, system-ui, sans-serif" font-size="11.00" font-weight="600" fill="#1F2433" text-anchor="middle">s2</text></g></g></g><g data-part="12" transform="translate(784.74 526.00)"><g data-face="wrap"><polygon data-face="left" points="24.00,114.00 24.00,64.00 93.28,104.00 93.28,154.00" fill="#3A6FBA" stroke="#1D3A66" stroke-width="1.50" stroke-linejoin="round" stroke-linecap="round"/><polygon data-face="right" points="162.56,114.00 162.56,64.00 93.28,104.00 93.28,154.00" fill="#5589D6" stroke="#1D3A66" stroke-width="1.50" stroke-linejoin="round" stroke-linecap="round"/><polygon data-face="top" points="93.28,24.00 162.56,64.00 93.28,104.00 24.00,64.00" fill="#7FB3FF" stroke="#1D3A66" stroke-width="1.50" stroke-linejoin="round" stroke-linecap="round"/><g data-face="top-content" transform="matrix(0.8660 0.5000 -0.8660 0.5000 93.28 24.00)"><text x="40.00" y="40.00" dy=".35em" font-family="Inter, system-ui, sans-serif" font-size="11.00" font-weight="600" fill="#1F2433" text-anchor="middle">s3</text></g></g></g></svg>