<svg xmlns="http://www.w3.org/2000/svg" xmlns:xlink="http://www.w3.org/1999/xlink" viewBox="0 0 1203.50 662.00" width="1203.50" height="662.00"><defs><pattern id="bg-grid" patternUnits="userSpaceOnUse" width="69.28" height="40.00"><rect width="69.28" height="40.00" fill="#FAFBFC"/><path d="M 34.64,0 L 69.28,20.00 L 34.64,40.00 L 0,20.00 Z" fill="none" stroke="#E2E6EE" stroke-width="1"/></pattern></defs><rect data-layer="canvas-bg" x="0.00" y="0.00" width="1203.50" height="662.00" fill="url(#bg-grid)"/><g data-layer="connectors"><path data-connector="" d="M 920.46,93.00 L 941.25,105.00 L 1012.26,146.00 L 677.97,339.00 L 657.19,327.00" fill="none" stroke="#0D32B2" stroke-width="2.00" stroke-linecap="round" stroke-linejoin="round"/><polygon points="657.19,327.00 666.12,327.54 662.12,334.46" fill="#0D32B2"/><rect x="758.32" y="200.00" width="61.00" height="20" rx="4" ry="4" fill="#FFFFFFEE"/><text x="788.82" y="210.00" dy=".35em" font-family="Inter, sans-serif" font-size="11" font-weight="600" fill="#1F2433" text-anchor="middle">request</text><path data-connector="" d="M 656.32,319.50 L 677.11,331.50 L 684.04,335.50 L 677.97,339.00 L 657.19,327.00" fill="none" stroke="#0D32B2" stroke-width="2.00" stroke-linecap="round" stroke-linejoin="round"/><polygon points="657.19,327.00 666.12,327.54 662.12,334.46" fill="#0D32B2"/><path data-connector="" d="M 644.20,326.50 L 664.98,338.50 L 671.91,342.50 L 677.97,339.00 L 657.19,327.00" fill="none" stroke="#0D32B2" stroke-width="2.00" stroke-linecap="round" stroke-linejoin="round"/><polygon points="657.19,327.00 666.12,327.54 662.12,334.46" fill="#0D32B2"/><path data-connector="" d="M 650.26,323.00 L 671.05,335.00 L 443.28,203.50 L 109.86,396.00 L 89.08,384.00" fill="none" stroke="#0D32B2" stroke-width="2.00" stroke-linecap="round" stroke-linejoin="round"/><polygon points="89.08,384.00 98.00,384.54 94.00,391.46" fill="#0D32B2"/><path data-connector="" d="M 650.26,323.00 L 671.05,335.00 L 784.93,400.75 L 451.51,593.25 L 430.72,581.25" fill="none" stroke="#0D32B2" stroke-width="2.00" stroke-linecap="round" stroke-linejoin="round"/><polygon points="430.72,581.25 439.65,581.79 435.65,588.71" fill="#0D32B2"/></g><g data-part="0" transform="translate(320.55 480.50)"><g data-face="wrap"><polygon data-face="left" points="24.00,87.00 24.00,57.00 125.32,115.50 125.32,145.50" fill="#3A6FBA" stroke="#0D32B2" stroke-width="2.00" stroke-linejoin="round" stroke-linecap="round"/><polygon data-face="right" points="182.48,112.50 182.48,82.50 125.32,115.50 125.32,145.50" fill="#5589D6" stroke="#0D32B2" stroke-width="2.00" stroke-linejoin="round" stroke-linecap="round"/><polygon data-face="top" points="81.16,24.00 182.48,82.50 125.32,115.50 24.00,57.00" fill="#F7F8FE" stroke="#0D32B2" stroke-width="2.00" stroke-linejoin="round" stroke-linecap="round"/><g data-face="top-content" transform="matrix(0.8660 0.5000 -0.8660 0.5000 81.16 24.00)"><text x="58.50" y="33.00" dy=".35em" font-family="Helvetica Neue, Arial, sans-serif" font-size="16.00" font-weight="600" fill="#0B1F3A" text-anchor="middle">Anthropic</text></g></g></g><g data-part="1" transform="translate(92.79 -12.00)"><defs><linearGradient id="rounded-side" x1="50%" y1="0%" x2="50%" y2="100%"><stop offset="0%" stop-color="#D9DFF0"/><stop offset="100%" stop-color="#C9D1E5"/></linearGradient></defs><g data-face="wrap"><path data-face="side" d="M 1074.71,423.31 L 1074.54,424.79 L 1074.04,426.24 L 1073.22,427.64 L 1072.08,428.97 L 1070.66,430.20 L 1068.97,431.31 L 1050.11,442.20 L 1031.25,453.09 L 1012.39,463.98 L 993.53,474.87 L 974.67,485.76 L 955.81,496.65 L 936.95,507.54 L 918.09,518.42 L 899.23,529.31 L 880.37,540.20 L 861.51,551.09 L 842.65,561.98 L 823.79,572.87 L 804.93,583.76 L 786.07,594.65 L 767.21,605.54 L 748.35,616.42 L 729.49,627.31 L 727.56,628.29 L 725.43,629.11 L 723.13,629.77 L 720.70,630.24 L 718.19,630.53 L 715.63,630.63 L 713.07,630.53 L 710.56,630.24 L 708.13,629.77 L 705.83,629.11 L 703.70,628.29 L 701.78,627.31 L 664.44,605.76 L 627.10,584.20 L 589.77,562.65 L 552.43,541.09 L 515.10,519.54 L 477.76,497.98 L 440.43,476.42 L 403.09,454.87 L 365.76,433.31 L 328.42,411.76 L 291.09,390.20 L 253.75,368.65 L 216.42,347.09 L 179.08,325.54 L 141.75,303.98 L 104.41,282.42 L 67.07,260.87 L 29.74,239.31 L 28.05,238.20 L 26.63,236.97 L 25.49,235.64 L 24.67,234.24 L 24.17,232.79 L 24.17,238.79 L 24.67,240.24 L 25.49,241.64 L 26.63,242.97 L 28.05,244.20 L 29.74,245.31 L 67.07,266.87 L 104.41,288.42 L 141.75,309.98 L 179.08,331.54 L 216.42,353.09 L 253.75,374.65 L 291.09,396.20 L 328.42,417.76 L 365.76,439.31 L 403.09,460.87 L 440.43,482.42 L 477.76,503.98 L 515.10,525.54 L 552.43,547.09 L 589.77,568.65 L 627.10,590.20 L 664.44,611.76 L 701.78,633.31 L 703.70,634.29 L 705.83,635.11 L 708.13,635.77 L 710.56,636.24 L 713.07,636.53 L 715.63,636.63 L 718.19,636.53 L 720.70,636.24 L 723.13,635.77 L 725.43,635.11 L 727.56,634.29 L 729.49,633.31 L 748.35,622.42 L 767.21,611.54 L 786.07,600.65 L 804.93,589.76 L 823.79,578.87 L 842.65,567.98 L 861.51,557.09 L 880.37,546.20 L 899.23,535.31 L 918.09,524.42 L 936.95,513.54 L 955.81,502.65 L 974.67,491.76 L 993.53,480.87 L 1012.39,469.98 L 1031.25,459.09 L 1050.11,448.20 L 1068.97,437.31 L 1070.66,436.20 L 1072.08,434.97 L 1073.22,433.64 L 1074.04,432.24 L 1074.54,430.79 L 1074.71,429.31 Z" fill="url(#rounded-side)" stroke="none"/><path data-face="top" d="M 396.93,27.31 L 434.27,48.87 L 471.60,70.42 L 508.94,91.98 L 546.28,113.54 L 583.61,135.09 L 620.95,156.65 L 658.28,178.20 L 695.62,199.76 L 732.95,221.31 L 770.29,242.87 L 807.62,264.42 L 844.96,285.98 L 882.29,307.54 L 919.63,329.09 L 956.96,350.65 L 994.30,372.20 L 1031.63,393.76 L 1068.97,415.31 L 1070.66,416.43 L 1072.08,417.66 L 1073.22,418.98 L 1074.04,420.39 L 1074.54,421.84 L 1074.71,423.31 L 1074.54,424.79 L 1074.04,426.24 L 1073.22,427.64 L 1072.08,428.97 L 1070.66,430.20 L 1068.97,431.31 L 1050.11,442.20 L 1031.25,453.09 L 1012.39,463.98 L 993.53,474.87 L 974.67,485.76 L 955.81,496.65 L 936.95,507.54 L 918.09,518.42 L 899.23,529.31 L 880.37,540.20 L 861.51,551.09 L 842.65,561.98 L 823.79,572.87 L 804.93,583.76 L 786.07,594.65 L 767.21,605.54 L 748.35,616.42 L 729.49,627.31 L 727.56,628.29 L 725.43,629.11 L 723.13,629.77 L 720.70,630.24 L 718.19,630.53 L 715.63,630.63 L 713.07,630.53 L 710.56,630.24 L 708.13,629.77 L 705.83,629.11 L 703.70,628.29 L 701.78,627.31 L 664.44,605.76 L 627.10,584.20 L 589.77,562.65 L 552.43,541.09 L 515.10,519.54 L 477.76,497.98 L 440.43,476.42 L 403.09,454.87 L 365.76,433.31 L 328.42,411.76 L 291.09,390.20 L 253.75,368.65 L 216.42,347.09 L 179.08,325.54 L 141.75,303.98 L 104.41,282.42 L 67.07,260.87 L 29.74,239.31 L 28.05,238.20 L 26.63,236.97 L 25.49,235.64 L 24.67,234.24 L 24.17,232.79 L 24.00,231.31 L 24.17,229.84 L 24.67,228.39 L 25.49,226.98 L 26.63,225.66 L 28.05,224.43 L 29.74,223.31 L 48.60,212.42 L 67.46,201.54 L 86.32,190.65 L 105.18,179.76 L 124.04,168.87 L 142.90,157.98 L 161.76,147.09 L 180.62,136.20 L 199.48,125.31 L 218.34,114.42 L 237.20,103.54 L 256.06,92.65 L 274.92,81.76 L 293.78,70.87 L 312.64,59.98 L 331.50,49.09 L 350.36,38.20 L 369.22,27.31 L 371.15,26.34 L 373.28,25.52 L 375.58,24.86 L 378.01,24.39 L 380.52,24.10 L 383.08,24.00 L 385.64,24.10 L 388.15,24.39 L 390.58,24.86 L 392.88,25.52 L 395.01,26.34 L 396.93,27.31 Z" fill="#E3E9FD" stroke="#0D32B2" stroke-width="1.00" stroke-linejoin="round"/><path data-face="silhouette" d="M 1074.71,423.31 L 1074.71,429.31 L 1074.54,430.79 L 1074.04,432.24 L 1073.22,433.64 L 1072.08,434.97 L 1070.66,436.20 L 1068.97,437.31 L 1050.11,448.20 L 1031.25,459.09 L 1012.39,469.98 L 993.53,480.87 L 974.67,491.76 L 955.81,502.65 L 936.95,513.54 L 918.09,524.42 L 899.23,535.31 L 880.37,546.20 L 861.51,557.09 L 842.65,567.98 L 823.79,578.87 L 804.93,589.76 L 786.07,600.65 L 767.21,611.54 L 748.35,622.42 L 729.49,633.31 L 727.56,634.29 L 725.43,635.11 L 723.13,635.77 L 720.70,636.24 L 718.19,636.53 L 715.63,636.63 L 713.07,636.53 L 710.56,636.24 L 708.13,635.77 L 705.83,635.11 L 703.70,634.29 L 701.78,633.31 L 664.44,611.76 L 627.10,590.20 L 589.77,568.65 L 552.43,547.09 L 515.10,525.54 L 477.76,503.98 L 440.43,482.42 L 403.09,460.87 L 365.76,439.31 L 328.42,417.76 L 291.09,396.20 L 253.75,374.65 L 216.42,353.09 L 179.08,331.54 L 141.75,309.98 L 104.41,288.42 L 67.07,266.87 L 29.74,245.31 L 28.05,244.20 L 26.63,242.97 L 25.49,241.64 L 24.67,240.24 L 24.17,238.79 L 24.17,232.79" fill="none" stroke="#0D32B2" stroke-width="1.00" stroke-linejoin="round" stroke-linecap="round"/><g data-face="top-content" transform="matrix(0.8660 0.5000 -0.8660 0.5000 383.08 19.31)"><text x="404.00" y="212.00" dy=".35em" font-family="Helvetica Neue, Arial, sans-serif" font-size="16.00" font-weight="600" fill="#0B1F3A" text-anchor="middle">Kubernetes Cluster</text></g></g></g><g data-part="2" transform="translate(588.16 95.00)"><g data-face="wrap"><polygon data-face="left" points="24.00,87.00 24.00,57.00 172.96,143.00 172.96,173.00" fill="#3A6FBA" stroke="#0D32B2" stroke-width="2.00" stroke-linejoin="round" stroke-linecap="round"/><polygon data-face="right" points="230.11,140.00 230.11,110.00 172.96,143.00 172.96,173.00" fill="#5589D6" stroke="#0D32B2" stroke-width="2.00" stroke-linejoin="round" stroke-linecap="round"/><polygon data-face="top" points="81.16,24.00 230.11,110.00 172.96,143.00 24.00,57.00" fill="#EDF0FD" stroke="#0D32B2" stroke-width="2.00" stroke-linejoin="round" stroke-linecap="round"/><g data-face="top-content" transform="matrix(0.8660 0.5000 -0.8660 0.5000 81.16 24.00)"><text x="86.00" y="33.00" dy=".35em" font-family="Helvetica Neue, Arial, sans-serif" font-size="16.00" font-weight="600" fill="#0B1F3A" text-anchor="middle">Ingress Controller</text></g></g></g><g data-part="3" transform="translate(144.75 105.00)"><defs><linearGradient id="rounded-side" x1="50%" y1="0%" x2="50%" y2="100%"><stop offset="0%" stop-color="#D9DFF0"/><stop offset="100%" stop-color="#C9D1E5"/></linearGradient></defs><g data-face="wrap"><path data-face="side" d="M 468.49,196.31 L 468.32,197.79 L 467.82,199.24 L 467.00,200.64 L 465.87,201.97 L 464.44,203.20 L 462.75,204.31 L 455.73,208.37 L 448.70,212.42 L 441.68,216.48 L 434.65,220.54 L 427.63,224.59 L 420.61,228.65 L 413.58,232.70 L 406.56,236.76 L 399.53,240.81 L 392.51,244.87 L 385.48,248.92 L 378.46,252.98 L 371.43,257.04 L 364.41,261.09 L 357.39,265.15 L 350.36,269.20 L 343.34,273.26 L 336.31,277.31 L 334.39,278.29 L 332.25,279.11 L 329.96,279.77 L 327.53,280.24 L 325.01,280.53 L 322.46,280.63 L 319.90,280.53 L 317.38,280.24 L 314.96,279.77 L 312.66,279.11 L 310.53,278.29 L 308.60,277.31 L 293.11,268.37 L 277.62,259.42 L 262.12,250.48 L 246.63,241.54 L 231.14,232.59 L 215.65,223.65 L 200.15,214.70 L 184.66,205.76 L 169.17,196.81 L 153.68,187.87 L 138.19,178.92 L 122.69,169.98 L 107.20,161.04 L 91.71,152.09 L 76.22,143.15 L 60.72,134.20 L 45.23,125.26 L 29.74,116.31 L 28.05,115.20 L 26.63,113.97 L 25.49,112.64 L 24.67,111.24 L 24.17,109.79 L 24.17,115.79 L 24.67,117.24 L 25.49,118.64 L 26.63,119.97 L 28.05,121.20 L 29.74,122.31 L 45.23,131.26 L 60.72,140.20 L 76.22,149.15 L 91.71,158.09 L 107.20,167.04 L 122.69,175.98 L 138.19,184.92 L 153.68,193.87 L 169.17,202.81 L 184.66,211.76 L 200.15,220.70 L 215.65,229.65 L 231.14,238.59 L 246.63,247.54 L 262.12,256.48 L 277.62,265.42 L 293.11,274.37 L 308.60,283.31 L 310.53,284.29 L 312.66,285.11 L 314.96,285.77 L 317.38,286.24 L 319.90,286.53 L 322.46,286.63 L 325.01,286.53 L 327.53,286.24 L 329.96,285.77 L 332.25,285.11 L 334.39,284.29 L 336.31,283.31 L 343.34,279.26 L 350.36,275.20 L 357.39,271.15 L 364.41,267.09 L 371.43,263.04 L 378.46,258.98 L 385.48,254.92 L 392.51,250.87 L 399.53,246.81 L 406.56,242.76 L 413.58,238.70 L 420.61,234.65 L 427.63,230.59 L 434.65,226.54 L 441.68,222.48 L 448.70,218.42 L 455.73,214.37 L 462.75,210.31 L 464.44,209.20 L 465.87,207.97 L 467.00,206.64 L 467.82,205.24 L 468.32,203.79 L 468.49,202.31 Z" fill="url(#rounded-side)" stroke="none"/><path data-face="top" d="M 183.89,27.31 L 199.38,36.26 L 214.88,45.20 L 230.37,54.15 L 245.86,63.09 L 261.35,72.04 L 276.85,80.98 L 292.34,89.92 L 307.83,98.87 L 323.32,107.81 L 338.81,116.76 L 354.31,125.70 L 369.80,134.65 L 385.29,143.59 L 400.78,152.54 L 416.28,161.48 L 431.77,170.42 L 447.26,179.37 L 462.75,188.31 L 464.44,189.43 L 465.87,190.66 L 467.00,191.98 L 467.82,193.39 L 468.32,194.84 L 468.49,196.31 L 468.32,197.79 L 467.82,199.24 L 467.00,200.64 L 465.87,201.97 L 464.44,203.20 L 462.75,204.31 L 455.73,208.37 L 448.70,212.42 L 441.68,216.48 L 434.65,220.54 L 427.63,224.59 L 420.61,228.65 L 413.58,232.70 L 406.56,236.76 L 399.53,240.81 L 392.51,244.87 L 385.48,248.92 L 378.46,252.98 L 371.43,257.04 L 364.41,261.09 L 357.39,265.15 L 350.36,269.20 L 343.34,273.26 L 336.31,277.31 L 334.39,278.29 L 332.25,279.11 L 329.96,279.77 L 327.53,280.24 L 325.01,280.53 L 322.46,280.63 L 319.90,280.53 L 317.38,280.24 L 314.96,279.77 L 312.66,279.11 L 310.53,278.29 L 308.60,277.31 L 293.11,268.37 L 277.62,259.42 L 262.12,250.48 L 246.63,241.54 L 231.14,232.59 L 215.65,223.65 L 200.15,214.70 L 184.66,205.76 L 169.17,196.81 L 153.68,187.87 L 138.19,178.92 L 122.69,169.98 L 107.20,161.04 L 91.71,152.09 L 76.22,143.15 L 60.72,134.20 L 45.23,125.26 L 29.74,116.31 L 28.05,115.20 L 26.63,113.97 L 25.49,112.64 L 24.67,111.24 L 24.17,109.79 L 24.00,108.31 L 24.17,106.84 L 24.67,105.39 L 25.49,103.98 L 26.63,102.66 L 28.05,101.43 L 29.74,100.31 L 36.76,96.26 L 43.79,92.20 L 50.81,88.15 L 57.84,84.09 L 64.86,80.04 L 71.89,75.98 L 78.91,71.92 L 85.93,67.87 L 92.96,63.81 L 99.98,59.76 L 107.01,55.70 L 114.03,51.65 L 121.06,47.59 L 128.08,43.54 L 135.11,39.48 L 142.13,35.42 L 149.15,31.37 L 156.18,27.31 L 158.11,26.34 L 160.24,25.52 L 162.54,24.86 L 164.96,24.39 L 167.48,24.10 L 170.04,24.00 L 172.59,24.10 L 175.11,24.39 L 177.53,24.86 L 179.83,25.52 L 181.96,26.34 L 183.89,27.31 Z" fill="#EDF0FD" stroke="#0D32B2" stroke-width="1.00" stroke-linejoin="round"/><path data-face="silhouette" d="M 468.49,196.31 L 468.49,202.31 L 468.32,203.79 L 467.82,205.24 L 467.00,206.64 L 465.87,207.97 L 464.44,209.20 L 462.75,210.31 L 455.73,214.37 L 448.70,218.42 L 441.68,222.48 L 434.65,226.54 L 427.63,230.59 L 420.61,234.65 L 413.58,238.70 L 406.56,242.76 L 399.53,246.81 L 392.51,250.87 L 385.48,254.92 L 378.46,258.98 L 371.43,263.04 L 364.41,267.09 L 357.39,271.15 L 350.36,275.20 L 343.34,279.26 L 336.31,283.31 L 334.39,284.29 L 332.25,285.11 L 329.96,285.77 L 327.53,286.24 L 325.01,286.53 L 322.46,286.63 L 319.90,286.53 L 317.38,286.24 L 314.96,285.77 L 312.66,285.11 L 310.53,284.29 L 308.60,283.31 L 293.11,274.37 L 277.62,265.42 L 262.12,256.48 L 246.63,247.54 L 231.14,238.59 L 215.65,229.65 L 200.15,220.70 L 184.66,211.76 L 169.17,202.81 L 153.68,193.87 L 138.19,184.92 L 122.69,175.98 L 107.20,167.04 L 91.71,158.09 L 76.22,149.15 L 60.72,140.20 L 45.23,131.26 L 29.74,122.31 L 28.05,121.20 L 26.63,119.97 L 25.49,118.64 L 24.67,117.24 L 24.17,115.79 L 24.17,109.79" fill="none" stroke="#0D32B2" stroke-width="1.00" stroke-linejoin="round" stroke-linecap="round"/><g data-face="top-content" transform="matrix(0.8660 0.5000 -0.8660 0.5000 170.04 19.31)"><text x="177.00" y="89.00" dy=".35em" font-family="Helvetica Neue, Arial, sans-serif" font-size="16.00" font-weight="600" fill="#0B1F3A" text-anchor="middle">Worker Node 1</text></g></g></g><g data-part="4" transform="translate(420.31 234.10)"><g data-face="wrap"><path data-face="side-left" d="M 24.00 49.40 L 24.00 79.40 A 44.00 25.40 0 0 0 68.00 104.81 L 68.00 74.81 A 44.00 25.40 0 0 0 24.00 49.40 Z" fill="#B8651F" stroke="none"/><path data-face="side-right" d="M 112.00 49.40 L 112.00 79.40 A 44.00 25.40 0 0 1 68.00 104.81 L 68.00 74.81 A 44.00 25.40 0 0 1 112.00 49.40 Z" fill="#E08A47" stroke="none"/><path data-face="outline" d="M 24.00 49.40 L 24.00 79.40 A 44.00 25.40 0 0 0 112.00 79.40 L 112.00 49.40" fill="none" stroke="#0D32B2" stroke-width="2.00" stroke-linejoin="round" stroke-linecap="round"/><ellipse data-face="top" cx="68.00" cy="49.40" rx="44.00" ry="25.40" fill="#F7F8FE" stroke="#0D32B2" stroke-width="2.00"/><g data-face="top-content" transform="matrix(0.8660 0.5000 -0.8660 0.5000 68.00 24.00)"><text x="25.40" y="25.40" dy=".35em" font-family="Helvetica Neue, Arial, sans-serif" font-size="16.00" font-weight="600" fill="#3A1A06" text-anchor="middle">Cache</text></g></g></g><g data-part="5" transform="translate(219.23 118.00)"><g data-face="wrap"><polygon data-face="left" points="24.00,87.00 24.00,57.00 150.44,130.00 150.44,160.00" fill="#3A6FBA" stroke="#0D32B2" stroke-width="2.00" stroke-linejoin="round" stroke-linecap="round"/><polygon data-face="right" points="207.60,127.00 207.60,97.00 150.44,130.00 150.44,160.00" fill="#5589D6" stroke="#0D32B2" stroke-width="2.00" stroke-linejoin="round" stroke-linecap="round"/><polygon data-face="top" points="81.16,24.00 207.60,97.00 150.44,130.00 24.00,57.00" fill="#F7F8FE" stroke="#0D32B2" stroke-width="2.00" stroke-linejoin="round" stroke-linecap="round"/><g data-face="top-content" transform="matrix(0.8660 0.5000 -0.8660 0.5000 81.16 24.00)"><text x="73.00" y="33.00" dy=".35em" font-family="Helvetica Neue, Arial, sans-serif" font-size="16.00" font-weight="600" fill="#0B1F3A" text-anchor="middle">LiteLLM Proxy</text></g></g></g><g data-part="6" transform="translate(485.96 302.00)"><defs><linearGradient id="rounded-side" x1="50%" y1="0%" x2="50%" y2="100%"><stop offset="0%" stop-color="#D9DFF0"/><stop offset="100%" stop-color="#C9D1E5"/></linearGradient></defs><g data-face="wrap"><path data-face="side" d="M 468.49,196.31 L 468.32,197.79 L 467.82,199.24 L 467.00,200.64 L 465.87,201.97 L 464.44,203.20 L 462.75,204.31 L 455.73,208.37 L 448.70,212.42 L 441.68,216.48 L 434.65,220.54 L 427.63,224.59 L 420.61,228.65 L 413.58,232.70 L 406.56,236.76 L 399.53,240.81 L 392.51,244.87 L 385.48,248.92 L 378.46,252.98 L 371.43,257.04 L 364.41,261.09 L 357.39,265.15 L 350.36,269.20 L 343.34,273.26 L 336.31,277.31 L 334.39,278.29 L 332.25,279.11 L 329.96,279.77 L 327.53,280.24 L 325.01,280.53 L 322.46,280.63 L 319.90,280.53 L 317.38,280.24 L 314.96,279.77 L 312.66,279.11 L 310.53,278.29 L 308.60,277.31 L 293.11,268.37 L 277.62,259.42 L 262.12,250.48 L 246.63,241.54 L 231.14,232.59 L 215.65,223.65 L 200.15,214.70 L 184.66,205.76 L 169.17,196.81 L 153.68,187.87 L 138.19,178.92 L 122.69,169.98 L 107.20,161.04 L 91.71,152.09 L 76.22,143.15 L 60.72,134.20 L 45.23,125.26 L 29.74,116.31 L 28.05,115.20 L 26.63,113.97 L 25.49,112.64 L 24.67,111.24 L 24.17,109.79 L 24.17,115.79 L 24.67,117.24 L 25.49,118.64 L 26.63,119.97 L 28.05,121.20 L 29.74,122.31 L 45.23,131.26 L 60.72,140.20 L 76.22,149.15 L 91.71,158.09 L 107.20,167.04 L 122.69,175.98 L 138.19,184.92 L 153.68,193.87 L 169.17,202.81 L 184.66,211.76 L 200.15,220.70 L 215.65,229.65 L 231.14,238.59 L 246.63,247.54 L 262.12,256.48 L 277.62,265.42 L 293.11,274.37 L 308.60,283.31 L 310.53,284.29 L 312.66,285.11 L 314.96,285.77 L 317.38,286.24 L 319.90,286.53 L 322.46,286.63 L 325.01,286.53 L 327.53,286.24 L 329.96,285.77 L 332.25,285.11 L 334.39,284.29 L 336.31,283.31 L 343.34,279.26 L 350.36,275.20 L 357.39,271.15 L 364.41,267.09 L 371.43,263.04 L 378.46,258.98 L 385.48,254.92 L 392.51,250.87 L 399.53,246.81 L 406.56,242.76 L 413.58,238.70 L 420.61,234.65 L 427.63,230.59 L 434.65,226.54 L 441.68,222.48 L 448.70,218.42 L 455.73,214.37 L 462.75,210.31 L 464.44,209.20 L 465.87,207.97 L 467.00,206.64 L 467.82,205.24 L 468.32,203.79 L 468.49,202.31 Z" fill="url(#rounded-side)" stroke="none"/><path data-face="top" d="M 183.89,27.31 L 199.38,36.26 L 214.88,45.20 L 230.37,54.15 L 245.86,63.09 L 261.35,72.04 L 276.85,80.98 L 292.34,89.92 L 307.83,98.87 L 323.32,107.81 L 338.81,116.76 L 354.31,125.70 L 369.80,134.65 L 385.29,143.59 L 400.78,152.54 L 416.28,161.48 L 431.77,170.42 L 447.26,179.37 L 462.75,188.31 L 464.44,189.43 L 465.87,190.66 L 467.00,191.98 L 467.82,193.39 L 468.32,194.84 L 468.49,196.31 L 468.32,197.79 L 467.82,199.24 L 467.00,200.64 L 465.87,201.97 L 464.44,203.20 L 462.75,204.31 L 455.73,208.37 L 448.70,212.42 L 441.68,216.48 L 434.65,220.54 L 427.63,224.59 L 420.61,228.65 L 413.58,232.70 L 406.56,236.76 L 399.53,240.81 L 392.51,244.87 L 385.48,248.92 L 378.46,252.98 L 371.43,257.04 L 364.41,261.09 L 357.39,265.15 L 350.36,269.20 L 343.34,273.26 L 336.31,277.31 L 334.39,278.29 L 332.25,279.11 L 329.96,279.77 L 327.53,280.24 L 325.01,280.53 L 322.46,280.63 L 319.90,280.53 L 317.38,280.24 L 314.96,279.77 L 312.66,279.11 L 310.53,278.29 L 308.60,277.31 L 293.11,268.37 L 277.62,259.42 L 262.12,250.48 L 246.63,241.54 L 231.14,232.59 L 215.65,223.65 L 200.15,214.70 L 184.66,205.76 L 169.17,196.81 L 153.68,187.87 L 138.19,178.92 L 122.69,169.98 L 107.20,161.04 L 91.71,152.09 L 76.22,143.15 L 60.72,134.20 L 45.23,125.26 L 29.74,116.31 L 28.05,115.20 L 26.63,113.97 L 25.49,112.64 L 24.67,111.24 L 24.17,109.79 L 24.00,108.31 L 24.17,106.84 L 24.67,105.39 L 25.49,103.98 L 26.63,102.66 L 28.05,101.43 L 29.74,100.31 L 36.76,96.26 L 43.79,92.20 L 50.81,88.15 L 57.84,84.09 L 64.86,80.04 L 71.89,75.98 L 78.91,71.92 L 85.93,67.87 L 92.96,63.81 L 99.98,59.76 L 107.01,55.70 L 114.03,51.65 L 121.06,47.59 L 128.08,43.54 L 135.11,39.48 L 142.13,35.42 L 149.15,31.37 L 156.18,27.31 L 158.11,26.34 L 160.24,25.52 L 162.54,24.86 L 164.96,24.39 L 167.48,24.10 L 170.04,24.00 L 172.59,24.10 L 175.11,24.39 L 177.53,24.86 L 179.83,25.52 L 181.96,26.34 L 183.89,27.31 Z" fill="#EDF0FD" stroke="#0D32B2" stroke-width="1.00" stroke-linejoin="round"/><path data-face="silhouette" d="M 468.49,196.31 L 468.49,202.31 L 468.32,203.79 L 467.82,205.24 L 467.00,206.64 L 465.87,207.97 L 464.44,209.20 L 462.75,210.31 L 455.73,214.37 L 448.70,218.42 L 441.68,222.48 L 434.65,226.54 L 427.63,230.59 L 420.61,234.65 L 413.58,238.70 L 406.56,242.76 L 399.53,246.81 L 392.51,250.87 L 385.48,254.92 L 378.46,258.98 L 371.43,263.04 L 364.41,267.09 L 357.39,271.15 L 350.36,275.20 L 343.34,279.26 L 336.31,283.31 L 334.39,284.29 L 332.25,285.11 L 329.96,285.77 L 327.53,286.24 L 325.01,286.53 L 322.46,286.63 L 319.90,286.53 L 317.38,286.24 L 314.96,285.77 L 312.66,285.11 L 310.53,284.29 L 308.60,283.31 L 293.11,274.37 L 277.62,265.42 L 262.12,256.48 L 246.63,247.54 L 231.14,238.59 L 215.65,229.65 L 200.15,220.70 L 184.66,211.76 L 169.17,202.81 L 153.68,193.87 L 138.19,184.92 L 122.69,175.98 L 107.20,167.04 L 91.71,158.09 L 76.22,149.15 L 60.72,140.20 L 45.23,131.26 L 29.74,122.31 L 28.05,121.20 L 26.63,119.97 L 25.49,118.64 L 24.67,117.24 L 24.17,115.79 L 24.17,109.79" fill="none" stroke="#0D32B2" stroke-width="1.00" stroke-linejoin="round" stroke-linecap="round"/><g data-face="top-content" transform="matrix(0.8660 0.5000 -0.8660 0.5000 170.04 19.31)"><text x="177.00" y="89.00" dy=".35em" font-family="Helvetica Neue, Arial, sans-serif" font-size="16.00" font-weight="600" fill="#0B1F3A" text-anchor="middle">Worker Node 2</text></g></g></g><g data-part="7" transform="translate(761.53 431.10)"><g data-face="wrap"><path data-face="side-left" d="M 24.00 49.40 L 24.00 79.40 A 44.00 25.40 0 0 0 68.00 104.81 L 68.00 74.81 A 44.00 25.40 0 0 0 24.00 49.40 Z" fill="#B8651F" stroke="none"/><path data-face="side-right" d="M 112.00 49.40 L 112.00 79.40 A 44.00 25.40 0 0 1 68.00 104.81 L 68.00 74.81 A 44.00 25.40 0 0 1 112.00 49.40 Z" fill="#E08A47" stroke="none"/><path data-face="outline" d="M 24.00 49.40 L 24.00 79.40 A 44.00 25.40 0 0 0 112.00 79.40 L 112.00 49.40" fill="none" stroke="#0D32B2" stroke-width="2.00" stroke-linejoin="round" stroke-linecap="round"/><ellipse data-face="top" cx="68.00" cy="49.40" rx="44.00" ry="25.40" fill="#F7F8FE" stroke="#0D32B2" stroke-width="2.00"/><g data-face="top-content" transform="matrix(0.8660 0.5000 -0.8660 0.5000 68.00 24.00)"><text x="25.40" y="25.40" dy=".35em" font-family="Helvetica Neue, Arial, sans-serif" font-size="16.00" font-weight="600" fill="#3A1A06" text-anchor="middle">Cache</text></g></g></g><g data-part="8" transform="translate(560.44 315.00)"><g data-face="wrap"><polygon data-face="left" points="24.00,87.00 24.00,57.00 150.44,130.00 150.44,160.00" fill="#3A6FBA" stroke="#0D32B2" stroke-width="2.00" stroke-linejoin="round" stroke-linecap="round"/><polygon data-face="right" points="207.60,127.00 207.60,97.00 150.44,130.00 150.44,160.00" fill="#5589D6" stroke="#0D32B2" stroke-width="2.00" stroke-linejoin="round" stroke-linecap="round"/><polygon data-face="top" points="81.16,24.00 207.60,97.00 150.44,130.00 24.00,57.00" fill="#F7F8FE" stroke="#0D32B2" stroke-width="2.00" stroke-linejoin="round" stroke-linecap="round"/><g data-face="top-content" transform="matrix(0.8660 0.5000 -0.8660 0.5000 81.16 24.00)"><text x="73.00" y="33.00" dy=".35em" font-family="Helvetica Neue, Arial, sans-serif" font-size="16.00" font-weight="600" fill="#0B1F3A" text-anchor="middle">LiteLLM Proxy</text></g></g></g><g data-part="9" transform="translate(-12.00 288.50)"><g data-face="wrap"><polygon data-face="left" points="24.00,87.00 24.00,57.00 107.14,105.00 107.14,135.00" fill="#3A6FBA" stroke="#0D32B2" stroke-width="2.00" stroke-linejoin="round" stroke-linecap="round"/><polygon data-face="right" points="164.30,102.00 164.30,72.00 107.14,105.00 107.14,135.00" fill="#5589D6" stroke="#0D32B2" stroke-width="2.00" stroke-linejoin="round" stroke-linecap="round"/><polygon data-face="top" points="81.16,24.00 164.30,72.00 107.14,105.00 24.00,57.00" fill="#F7F8FE" stroke="#0D32B2" stroke-width="2.00" stroke-linejoin="round" stroke-linecap="round"/><g data-face="top-content" transform="matrix(0.8660 0.5000 -0.8660 0.5000 81.16 24.00)"><text x="48.00" y="33.00" dy=".35em" font-family="Helvetica Neue, Arial, sans-serif" font-size="16.00" font-weight="600" fill="#0B1F3A" text-anchor="middle">OpenAI</text></g></g></g><g data-part="10" transform="translate(869.46 -15.75)"><g data-face="wrap"><defs><radialGradient id="person-head-grad" cx="35%" cy="30%" r="75%"><stop offset="0%" stop-color="#E3E9FD"/><stop offset="100%" stop-color="#A35F25"/></radialGradient></defs><path data-face="body-left" d="M 51.00 50.24 A 27.00 36.00 0 0 0 24.00 86.24 A 27.00 15.59 0 0 0 51.00 101.83 Z" fill="#3A6FBA" stroke="none"/><path data-face="body-right" d="M 51.00 50.24 A 27.00 36.00 0 0 1 78.00 86.24 A 27.00 15.59 0 0 1 51.00 101.83 Z" fill="#5589D6" stroke="none"/><line data-face="body-ridge" x1="51.00" y1="50.24" x2="51.00" y2="101.83" stroke="#0D32B2" stroke-width="1.40" stroke-linecap="round" opacity="0.35"/><path data-face="body-outline" d="M 51.00 50.24 A 27.00 36.00 0 0 1 78.00 86.24 A 27.00 15.59 0 0 1 24.00 86.24 A 27.00 36.00 0 0 1 51.00 50.24 Z" fill="none" stroke="#0D32B2" stroke-width="2.00" stroke-linejoin="round" stroke-linecap="round"/><circle data-face="head" cx="51.00" cy="38.58" r="14.58" fill="url(#person-head-grad)" stroke="#0D32B2" stroke-width="2.00"/><text data-face="label" x="51.00" y="120.58" font-family="Helvetica Neue, Arial, sans-serif" font-size="15.00" font-weight="600" fill="#0B1F3A" text-anchor="middle">Users</text></g></g></svg>