<svg xmlns="http://www.w3.org/2000/svg" xmlns:xlink="http://www.w3.org/1999/xlink" viewBox="0 0 169.24 338.00" width="170" height="338"><g data-face="wrap"><polygon data-face="left" points="24.00,274.00 93.28,314.00 93.28,94.00 24.00,54.00" fill="#0F172A" stroke="#64748B" stroke-width="1.20" stroke-linejoin="round" stroke-linecap="round"/><polygon data-face="right" points="145.24,284.00 93.28,314.00 93.28,94.00 145.24,64.00" fill="#1E293B" stroke="#64748B" stroke-width="1.20" stroke-linejoin="round" stroke-linecap="round"/><polygon data-face="slot-left-0" points="24.00,236.40 93.28,276.40 93.28,268.40 24.00,228.40" fill="#000000" stroke="none" opacity="0.160"/><polygon data-face="slot-right-0" points="145.24,246.40 93.28,276.40 93.28,268.40 145.24,238.40" fill="#000000" stroke="none" opacity="0.100"/><polygon data-face="slot-left-1" points="24.00,190.80 93.28,230.80 93.28,222.80 24.00,182.80" fill="#000000" stroke="none" opacity="0.160"/><polygon data-face="slot-right-1" points="145.24,200.80 93.28,230.80 93.28,222.80 145.24,192.80" fill="#000000" stroke="none" opacity="0.100"/><polygon data-face="slot-left-2" points="24.00,145.20 93.28,185.20 93.28,177.20 24.00,137.20" fill="#000000" stroke="none" opacity="0.160"/><polygon data-face="slot-right-2" points="145.24,155.20 93.28,185.20 93.28,177.20 145.24,147.20" fill="#000000" stroke="none" opacity="0.100"/><polygon data-face="slot-left-3" points="24.00,99.60 93.28,139.60 93.28,131.60 24.00,91.60" fill="#000000" stroke="none" opacity="0.160"/><polygon data-face="slot-right-3" points="145.24,109.60 93.28,139.60 93.28,131.60 145.24,101.60" fill="#000000" stroke="none" opacity="0.100"/><polygon data-face="top" points="75.96,24.00 145.24,64.00 93.28,94.00 24.00,54.00" fill="#334155" stroke="#64748B" stroke-width="1.20" stroke-linejoin="round" stroke-linecap="round"/><g data-face="top-content" transform="matrix(0.8660 0.5000 -0.8660 0.5000 75.96 24.00)"><text x="40.00" y="20.40" dy=".35em" font-family="Helvetica Neue, Arial, sans-serif" font-size="16.00" font-weight="600" fill="#0B1F3A" text-anchor="middle">Server</text><text x="40.00" y="39.60" dy=".35em" font-family="Helvetica Neue, Arial, sans-serif" font-size="16.00" font-weight="600" fill="#0B1F3A" text-anchor="middle">Rack</text></g></g></svg>