<svg xmlns="http://www.w3.org/2000/svg" xmlns:xlink="http://www.w3.org/1999/xlink" viewBox="0 0 255.85 288.00" width="256" height="288"><g data-face="wrap"><polygon data-face="band23" points="125.01,82.73 127.19,83.18 129.39,83.85 131.54,84.72 133.55,85.75 135.34,86.91 136.85,88.15 138.01,89.42 138.79,90.68 139.15,91.87 139.07,92.95 138.57,93.88 137.66,94.62 136.38,95.15 134.77,95.44 132.90,95.48 130.83,95.27 127.92,84.00 127.92,84.00 127.92,84.00 127.92,84.00 127.92,84.00 127.92,84.00 127.92,84.00 127.92,84.00 127.92,84.00 127.92,84.00 127.92,84.00 127.92,84.00 127.92,84.00 127.92,84.00 127.92,84.00 127.92,84.00 127.92,84.00" fill="#15803D" stroke="#14532D" stroke-width="1.50" stroke-linejoin="round" stroke-linecap="round"/><polygon data-face="band22" points="122.24,81.75 126.49,82.63 130.79,83.94 134.98,85.64 138.90,87.66 142.40,89.92 145.34,92.35 147.62,94.83 149.13,97.28 149.84,99.61 149.70,101.72 148.72,103.53 146.94,104.98 144.43,106.01 141.29,106.57 137.64,106.65 133.61,106.25 130.83,95.27 132.90,95.48 134.77,95.44 136.38,95.15 137.66,94.62 138.57,93.88 139.07,92.95 139.15,91.87 138.79,90.68 138.01,89.42 136.85,88.15 135.34,86.91 133.55,85.75 131.54,84.72 129.39,83.85 127.19,83.18 125.01,82.73" fill="#15803D" stroke="#14532D" stroke-width="1.50" stroke-linejoin="round" stroke-linecap="round"/><polygon data-face="band21" points="119.74,81.36 125.85,82.62 132.05,84.51 138.09,86.96 143.74,89.87 148.78,93.13 153.02,96.62 156.29,100.19 158.48,103.73 159.49,107.08 159.28,110.12 157.88,112.73 155.32,114.82 151.71,116.29 147.18,117.11 141.91,117.22 136.11,116.64 133.61,106.25 137.64,106.65 141.29,106.57 144.43,106.01 146.94,104.98 148.72,103.53 149.70,101.72 149.84,99.61 149.13,97.28 147.62,94.83 145.34,92.35 142.40,89.92 138.90,87.66 134.98,85.64 130.79,83.94 126.49,82.63 122.24,81.75" fill="#15803D" stroke="#14532D" stroke-width="1.50" stroke-linejoin="round" stroke-linecap="round"/><polygon data-face="band20" points="117.62,81.80 125.32,83.39 133.12,85.77 140.72,88.85 147.83,92.51 154.17,96.61 159.50,101.00 163.62,105.50 166.37,109.95 167.64,114.16 167.39,117.99 165.62,121.28 162.40,123.90 157.85,125.76 152.15,126.78 145.53,126.93 138.23,126.20 136.11,116.64 141.91,117.22 147.18,117.11 151.71,116.29 155.32,114.82 157.88,112.73 159.28,110.12 159.49,107.08 158.48,103.73 156.29,100.19 153.02,96.62 148.78,93.13 143.74,89.87 138.09,86.96 132.05,84.51 125.85,82.62 119.74,81.36" fill="#15803D" stroke="#14532D" stroke-width="1.50" stroke-linejoin="round" stroke-linecap="round"/><polygon data-face="band19" points="115.99,83.30 124.91,85.13 133.94,87.89 142.74,91.45 150.97,95.69 158.31,100.45 164.49,105.53 169.26,110.74 172.44,115.89 173.91,120.77 173.62,125.20 171.57,129.01 167.84,132.05 162.58,134.20 155.98,135.38 148.31,135.55 139.85,134.70 138.23,126.20 145.53,126.93 152.15,126.78 157.85,125.76 162.40,123.90 165.62,121.28 167.39,117.99 167.64,114.16 166.37,109.95 163.62,105.50 159.50,101.00 154.17,96.61 147.83,92.51 140.72,88.85 133.12,85.77 125.32,83.39 117.62,81.80" fill="#15803D" stroke="#14532D" stroke-width="1.50" stroke-linejoin="round" stroke-linecap="round"/><polygon data-face="band18" points="114.93,86.01 124.64,88.01 134.47,91.01 144.06,94.89 153.02,99.51 161.02,104.69 167.74,110.22 172.94,115.90 176.40,121.50 178.01,126.82 177.68,131.64 175.45,135.79 171.39,139.10 165.66,141.44 158.48,142.73 150.12,142.92 140.91,141.99 139.85,134.70 148.31,135.55 155.98,135.38 162.58,134.20 167.84,132.05 171.57,129.01 173.62,125.20 173.91,120.77 172.44,115.89 169.26,110.74 164.49,105.53 158.31,100.45 150.97,95.69 142.74,91.45 133.94,87.89 124.91,85.13 115.99,83.30" fill="#15803D" stroke="#14532D" stroke-width="1.50" stroke-linejoin="round" stroke-linecap="round"/><polygon data-face="band17" points="114.49,90.05 124.53,92.12 134.70,95.22 144.61,99.24 153.88,104.01 162.15,109.37 169.11,115.09 174.48,120.96 178.07,126.76 179.72,132.26 179.39,137.25 177.08,141.53 172.88,144.96 166.95,147.38 159.53,148.72 150.88,148.91 141.36,147.95 140.91,141.99 150.12,142.92 158.48,142.73 165.66,141.44 171.39,139.10 175.45,135.79 177.68,131.64 178.01,126.82 176.40,121.50 172.94,115.90 167.74,110.22 161.02,104.69 153.02,99.51 144.06,94.89 134.47,91.01 124.64,88.01 114.93,86.01" fill="#15803D" stroke="#14532D" stroke-width="1.50" stroke-linejoin="round" stroke-linecap="round"/><polygon data-face="band16" points="114.47,95.02 124.52,97.09 134.71,100.20 144.63,104.22 153.90,109.00 162.18,114.36 169.15,120.08 174.53,125.96 178.11,131.76 179.77,137.27 179.44,142.26 177.13,146.56 172.92,149.98 166.99,152.41 159.56,153.74 150.91,153.94 141.37,152.98 141.36,147.95 150.88,148.91 159.53,148.72 166.95,147.38 172.88,144.96 177.08,141.53 179.39,137.25 179.72,132.26 178.07,126.76 174.48,120.96 169.11,115.09 162.15,109.37 153.88,104.01 144.61,99.24 134.70,95.22 124.53,92.12 114.49,90.05" fill="#15803D" stroke="#14532D" stroke-width="1.50" stroke-linejoin="round" stroke-linecap="round"/><polygon data-face="band15" points="114.47,100.02 124.52,102.09 134.71,105.20 144.63,109.22 153.90,114.00 162.18,119.36 169.15,125.08 174.53,130.96 178.11,136.76 179.77,142.27 179.44,147.26 177.13,151.56 172.92,154.98 166.99,157.41 159.56,158.74 150.91,158.94 141.37,157.98 141.37,152.98 150.91,153.94 159.56,153.74 166.99,152.41 172.92,149.98 177.13,146.56 179.44,142.26 179.77,137.27 178.11,131.76 174.53,125.96 169.15,120.08 162.18,114.36 153.90,109.00 144.63,104.22 134.71,100.20 124.52,97.09 114.47,95.02" fill="#15803D" stroke="#14532D" stroke-width="1.50" stroke-linejoin="round" stroke-linecap="round"/><polygon data-face="band14" points="114.47,105.02 124.52,107.09 134.71,110.20 144.63,114.22 153.90,119.00 162.18,124.36 169.15,130.08 174.53,135.96 178.11,141.76 179.77,147.27 179.44,152.26 177.13,156.56 172.92,159.98 166.99,162.41 159.56,163.74 150.91,163.94 141.37,162.98 141.37,157.98 150.91,158.94 159.56,158.74 166.99,157.41 172.92,154.98 177.13,151.56 179.44,147.26 179.77,142.27 178.11,136.76 174.53,130.96 169.15,125.08 162.18,119.36 153.90,114.00 144.63,109.22 134.71,105.20 124.52,102.09 114.47,100.02" fill="#15803D" stroke="#14532D" stroke-width="1.50" stroke-linejoin="round" stroke-linecap="round"/><polygon data-face="band13" points="114.47,110.02 124.52,112.09 134.71,115.20 144.63,119.22 153.90,124.00 162.18,129.36 169.15,135.08 174.53,140.96 178.11,146.76 179.77,152.27 179.44,157.26 177.13,161.56 172.92,164.98 166.99,167.41 159.56,168.74 150.91,168.94 141.37,167.98 141.37,162.98 150.91,163.94 159.56,163.74 166.99,162.41 172.92,159.98 177.13,156.56 179.44,152.26 179.77,147.27 178.11,141.76 174.53,135.96 169.15,130.08 162.18,124.36 153.90,119.00 144.63,114.22 134.71,110.20 124.52,107.09 114.47,105.02" fill="#15803D" stroke="#14532D" stroke-width="1.50" stroke-linejoin="round" stroke-linecap="round"/><polygon data-face="band12" points="114.47,115.02 124.52,117.09 134.71,120.20 144.63,124.22 153.90,129.00 162.18,134.36 169.15,140.08 174.53,145.96 178.11,151.76 179.77,157.27 179.44,162.26 177.13,166.56 172.92,169.98 166.99,172.41 159.56,173.74 150.91,173.94 141.37,172.98 141.37,167.98 150.91,168.94 159.56,168.74 166.99,167.41 172.92,164.98 177.13,161.56 179.44,157.26 179.77,152.27 178.11,146.76 174.53,140.96 169.15,135.08 162.18,129.36 153.90,124.00 144.63,119.22 134.71,115.20 124.52,112.09 114.47,110.02" fill="#15803D" stroke="#14532D" stroke-width="1.50" stroke-linejoin="round" stroke-linecap="round"/><polygon data-face="band11" points="114.47,120.02 124.52,122.09 134.71,125.20 144.63,129.22 153.90,134.00 162.18,139.36 169.15,145.08 174.53,150.96 178.11,156.76 179.77,162.27 179.44,167.26 177.13,171.56 172.92,174.98 166.99,177.41 159.56,178.74 150.91,178.94 141.37,177.98 141.37,172.98 150.91,173.94 159.56,173.74 166.99,172.41 172.92,169.98 177.13,166.56 179.44,162.26 179.77,157.27 178.11,151.76 174.53,145.96 169.15,140.08 162.18,134.36 153.90,129.00 144.63,124.22 134.71,120.20 124.52,117.09 114.47,115.02" fill="#15803D" stroke="#14532D" stroke-width="1.50" stroke-linejoin="round" stroke-linecap="round"/><polygon data-face="band10" points="114.47,125.02 124.52,127.09 134.71,130.20 144.63,134.22 153.90,139.00 162.18,144.36 169.15,150.08 174.53,155.96 178.11,161.76 179.77,167.27 179.44,172.26 177.13,176.56 172.92,179.98 166.99,182.41 159.56,183.74 150.91,183.94 141.37,182.98 141.37,177.98 150.91,178.94 159.56,178.74 166.99,177.41 172.92,174.98 177.13,171.56 179.44,167.26 179.77,162.27 178.11,156.76 174.53,150.96 169.15,145.08 162.18,139.36 153.90,134.00 144.63,129.22 134.71,125.20 124.52,122.09 114.47,120.02" fill="#15803D" stroke="#14532D" stroke-width="1.50" stroke-linejoin="round" stroke-linecap="round"/><polygon data-face="band9" points="114.47,130.02 124.52,132.09 134.71,135.20 144.63,139.22 153.90,144.00 162.18,149.36 169.15,155.08 174.53,160.96 178.11,166.76 179.77,172.27 179.44,177.26 177.13,181.56 172.92,184.98 166.99,187.41 159.56,188.74 150.91,188.94 141.37,187.98 141.37,182.98 150.91,183.94 159.56,183.74 166.99,182.41 172.92,179.98 177.13,176.56 179.44,172.26 179.77,167.27 178.11,161.76 174.53,155.96 169.15,150.08 162.18,144.36 153.90,139.00 144.63,134.22 134.71,130.20 124.52,127.09 114.47,125.02" fill="#15803D" stroke="#14532D" stroke-width="1.50" stroke-linejoin="round" stroke-linecap="round"/><polygon data-face="band8" points="114.47,135.02 124.52,137.09 134.71,140.20 144.63,144.22 153.90,149.00 162.18,154.36 169.15,160.08 174.53,165.96 178.11,171.76 179.77,177.27 179.44,182.26 177.13,186.56 172.92,189.98 166.99,192.41 159.56,193.74 150.91,193.94 141.37,192.98 141.37,187.98 150.91,188.94 159.56,188.74 166.99,187.41 172.92,184.98 177.13,181.56 179.44,177.26 179.77,172.27 178.11,166.76 174.53,160.96 169.15,155.08 162.18,149.36 153.90,144.00 144.63,139.22 134.71,135.20 124.52,132.09 114.47,130.02" fill="#15803D" stroke="#14532D" stroke-width="1.50" stroke-linejoin="round" stroke-linecap="round"/><polygon data-face="band7" points="114.49,140.05 124.53,142.12 134.70,145.22 144.61,149.24 153.88,154.01 162.15,159.37 169.11,165.09 174.48,170.96 178.07,176.76 179.72,182.26 179.39,187.25 177.08,191.53 172.88,194.96 166.95,197.38 159.53,198.72 150.88,198.91 141.36,197.95 141.37,192.98 150.91,193.94 159.56,193.74 166.99,192.41 172.92,189.98 177.13,186.56 179.44,182.26 179.77,177.27 178.11,171.76 174.53,165.96 169.15,160.08 162.18,154.36 153.90,149.00 144.63,144.22 134.71,140.20 124.52,137.09 114.47,135.02" fill="#15803D" stroke="#14532D" stroke-width="1.50" stroke-linejoin="round" stroke-linecap="round"/><polygon data-face="band0" points="127.92,204.00 127.92,204.00 127.92,204.00 127.92,204.00 127.92,204.00 127.92,204.00 127.92,204.00 127.92,204.00 127.92,204.00 127.92,204.00 127.92,204.00 127.92,204.00 127.92,204.00 127.92,204.00 127.92,204.00 127.92,204.00 127.92,204.00 130.83,205.27 132.90,205.48 134.77,205.44 136.38,205.15 137.66,204.62 138.57,203.88 139.07,202.95 139.15,201.87 138.79,200.68 138.01,199.42 136.85,198.15 135.34,196.91 133.55,195.75 131.54,194.72 129.39,193.85 127.19,193.18 125.01,192.73" fill="#15803D" stroke="#14532D" stroke-width="1.50" stroke-linejoin="round" stroke-linecap="round"/><polygon data-face="band6" points="114.93,146.01 124.64,148.01 134.47,151.01 144.06,154.89 153.02,159.51 161.02,164.69 167.74,170.22 172.94,175.90 176.40,181.50 178.01,186.82 177.68,191.64 175.45,195.79 171.39,199.10 165.66,201.44 158.48,202.73 150.12,202.92 140.91,201.99 141.36,197.95 150.88,198.91 159.53,198.72 166.95,197.38 172.88,194.96 177.08,191.53 179.39,187.25 179.72,182.26 178.07,176.76 174.48,170.96 169.11,165.09 162.15,159.37 153.88,154.01 144.61,149.24 134.70,145.22 124.53,142.12 114.49,140.05" fill="#15803D" stroke="#14532D" stroke-width="1.50" stroke-linejoin="round" stroke-linecap="round"/><polygon data-face="band1" points="125.01,192.73 127.19,193.18 129.39,193.85 131.54,194.72 133.55,195.75 135.34,196.91 136.85,198.15 138.01,199.42 138.79,200.68 139.15,201.87 139.07,202.95 138.57,203.88 137.66,204.62 136.38,205.15 134.77,205.44 132.90,205.48 130.83,205.27 133.61,206.25 137.64,206.65 141.29,206.57 144.43,206.01 146.94,204.98 148.72,203.53 149.70,201.72 149.84,199.61 149.13,197.28 147.62,194.83 145.34,192.35 142.40,189.92 138.90,187.66 134.98,185.64 130.79,183.94 126.49,182.63 122.24,181.75" fill="#15803D" stroke="#14532D" stroke-width="1.50" stroke-linejoin="round" stroke-linecap="round"/><polygon data-face="band5" points="115.99,153.30 124.91,155.13 133.94,157.89 142.74,161.45 150.97,165.69 158.31,170.45 164.49,175.53 169.26,180.74 172.44,185.89 173.91,190.77 173.62,195.20 171.57,199.01 167.84,202.05 162.58,204.20 155.98,205.38 148.31,205.55 139.85,204.70 140.91,201.99 150.12,202.92 158.48,202.73 165.66,201.44 171.39,199.10 175.45,195.79 177.68,191.64 178.01,186.82 176.40,181.50 172.94,175.90 167.74,170.22 161.02,164.69 153.02,159.51 144.06,154.89 134.47,151.01 124.64,148.01 114.93,146.01" fill="#15803D" stroke="#14532D" stroke-width="1.50" stroke-linejoin="round" stroke-linecap="round"/><polygon data-face="band2" points="122.24,181.75 126.49,182.63 130.79,183.94 134.98,185.64 138.90,187.66 142.40,189.92 145.34,192.35 147.62,194.83 149.13,197.28 149.84,199.61 149.70,201.72 148.72,203.53 146.94,204.98 144.43,206.01 141.29,206.57 137.64,206.65 133.61,206.25 136.11,206.64 141.91,207.22 147.18,207.11 151.71,206.29 155.32,204.82 157.88,202.73 159.28,200.12 159.49,197.08 158.48,193.73 156.29,190.19 153.02,186.62 148.78,183.13 143.74,179.87 138.09,176.96 132.05,174.51 125.85,172.62 119.74,171.36" fill="#15803D" stroke="#14532D" stroke-width="1.50" stroke-linejoin="round" stroke-linecap="round"/><polygon data-face="band4" points="117.62,161.80 125.32,163.39 133.12,165.77 140.72,168.85 147.83,172.51 154.17,176.61 159.50,181.00 163.62,185.50 166.37,189.95 167.64,194.16 167.39,197.99 165.62,201.28 162.40,203.90 157.85,205.76 152.15,206.78 145.53,206.93 138.23,206.20 139.85,204.70 148.31,205.55 155.98,205.38 162.58,204.20 167.84,202.05 171.57,199.01 173.62,195.20 173.91,190.77 172.44,185.89 169.26,180.74 164.49,175.53 158.31,170.45 150.97,165.69 142.74,161.45 133.94,157.89 124.91,155.13 115.99,153.30" fill="#15803D" stroke="#14532D" stroke-width="1.50" stroke-linejoin="round" stroke-linecap="round"/><polygon data-face="band3" points="119.74,171.36 125.85,172.62 132.05,174.51 138.09,176.96 143.74,179.87 148.78,183.13 153.02,186.62 156.29,190.19 158.48,193.73 159.49,197.08 159.28,200.12 157.88,202.73 155.32,204.82 151.71,206.29 147.18,207.11 141.91,207.22 136.11,206.64 138.23,206.20 145.53,206.93 152.15,206.78 157.85,205.76 162.40,203.90 165.62,201.28 167.39,197.99 167.64,194.16 166.37,189.95 163.62,185.50 159.50,181.00 154.17,176.61 147.83,172.51 140.72,168.85 133.12,165.77 125.32,163.39 117.62,161.80" fill="#15803D" stroke="#14532D" stroke-width="1.50" stroke-linejoin="round" stroke-linecap="round"/><g data-face="top-content" transform="matrix(0.8660 0.5000 -0.8660 0.5000 127.92 66.00)"><image href="iso://glyph/box" xlink:href="iso://glyph/box" x="11.00" y="6.00" width="14.00" height="14.00" preserveAspectRatio="xMidYMid meet"/><text x="18.00" y="27.00" dy=".35em" font-family="Helvetica Neue, Arial, sans-serif" font-size="5.00" font-weight="600" fill="#0B1F3A" text-anchor="middle">Pod</text></g></g></svg>