<svg xmlns="http://www.w3.org/2000/svg" xmlns:xlink="http://www.w3.org/1999/xlink" viewBox="0 0 290.49 288.00" width="291" height="288"><g data-face="wrap"><polygon data-face="side19" points="61.16,203.66 59.51,194.00 145.24,94.00" fill="#D97706" stroke="#92400E" stroke-width="1.50" stroke-linejoin="round" stroke-linecap="round"/><polygon data-face="side18" points="66.04,212.94 61.16,203.66 145.24,94.00" fill="#D97706" stroke="#92400E" stroke-width="1.50" stroke-linejoin="round" stroke-linecap="round"/><polygon data-face="side17" points="73.96,221.50 66.04,212.94 145.24,94.00" fill="#D97706" stroke="#92400E" stroke-width="1.50" stroke-linejoin="round" stroke-linecap="round"/><polygon data-face="side16" points="84.62,229.00 73.96,221.50 145.24,94.00" fill="#D97706" stroke="#92400E" stroke-width="1.50" stroke-linejoin="round" stroke-linecap="round"/><polygon data-face="side15" points="97.61,235.16 84.62,229.00 145.24,94.00" fill="#D97706" stroke="#92400E" stroke-width="1.50" stroke-linejoin="round" stroke-linecap="round"/><polygon data-face="side14" points="112.44,239.73 97.61,235.16 145.24,94.00" fill="#D97706" stroke="#92400E" stroke-width="1.50" stroke-linejoin="round" stroke-linecap="round"/><polygon data-face="side13" points="128.52,242.55 112.44,239.73 145.24,94.00" fill="#D97706" stroke="#92400E" stroke-width="1.50" stroke-linejoin="round" stroke-linecap="round"/><polygon data-face="side12" points="145.24,243.50 128.52,242.55 145.24,94.00" fill="#D97706" stroke="#92400E" stroke-width="1.50" stroke-linejoin="round" stroke-linecap="round"/><polygon data-face="side11" points="161.97,242.55 145.24,243.50 145.24,94.00" fill="#F59E0B" stroke="#92400E" stroke-width="1.50" stroke-linejoin="round" stroke-linecap="round"/><polygon data-face="side10" points="178.05,239.73 161.97,242.55 145.24,94.00" fill="#F59E0B" stroke="#92400E" stroke-width="1.50" stroke-linejoin="round" stroke-linecap="round"/><polygon data-face="side4" points="230.98,194.00 229.33,203.66 145.24,94.00" fill="#F59E0B" stroke="#92400E" stroke-width="1.50" stroke-linejoin="round" stroke-linecap="round"/><polygon data-face="side9" points="192.87,235.16 178.05,239.73 145.24,94.00" fill="#F59E0B" stroke="#92400E" stroke-width="1.50" stroke-linejoin="round" stroke-linecap="round"/><polygon data-face="side5" points="229.33,203.66 224.45,212.94 145.24,94.00" fill="#F59E0B" stroke="#92400E" stroke-width="1.50" stroke-linejoin="round" stroke-linecap="round"/><polygon data-face="side8" points="205.87,229.00 192.87,235.16 145.24,94.00" fill="#F59E0B" stroke="#92400E" stroke-width="1.50" stroke-linejoin="round" stroke-linecap="round"/><polygon data-face="side6" points="224.45,212.94 216.53,221.50 145.24,94.00" fill="#F59E0B" stroke="#92400E" stroke-width="1.50" stroke-linejoin="round" stroke-linecap="round"/><polygon data-face="side7" points="216.53,221.50 205.87,229.00 145.24,94.00" fill="#F59E0B" stroke="#92400E" stroke-width="1.50" stroke-linejoin="round" stroke-linecap="round"/><g data-face="top-content" transform="matrix(0.8660 0.5000 -0.8660 0.5000 127.06 183.50)"><text x="21.00" y="17.12" dy=".35em" font-family="Helvetica Neue, Arial, sans-serif" font-size="6.46" font-weight="600" fill="#0B1F3A" text-anchor="middle">Load</text><text x="21.00" y="24.88" dy=".35em" font-family="Helvetica Neue, Arial, sans-serif" font-size="6.46" font-weight="600" fill="#0B1F3A" text-anchor="middle">Balancer</text></g></g></svg>