<svg xmlns="http://www.w3.org/2000/svg" xmlns:xlink="http://www.w3.org/1999/xlink" viewBox="0 0 290.49 278.00" width="291" height="278"><g data-face="wrap"><polygon data-face="side19" points="61.16,193.66 59.51,184.00 102.38,94.00 103.20,98.83" fill="#065F46" stroke="#064E3B" stroke-width="1.50" stroke-linejoin="round" stroke-linecap="round"/><polygon data-face="side18" points="66.04,202.94 61.16,193.66 103.20,98.83 105.64,103.47" fill="#065F46" stroke="#064E3B" stroke-width="1.50" stroke-linejoin="round" stroke-linecap="round"/><polygon data-face="side17" points="73.96,211.50 66.04,202.94 105.64,103.47 109.60,107.75" fill="#065F46" stroke="#064E3B" stroke-width="1.50" stroke-linejoin="round" stroke-linecap="round"/><polygon data-face="side16" points="84.62,219.00 73.96,211.50 109.60,107.75 114.93,111.50" fill="#065F46" stroke="#064E3B" stroke-width="1.50" stroke-linejoin="round" stroke-linecap="round"/><polygon data-face="side15" points="97.61,225.16 84.62,219.00 114.93,111.50 121.43,114.58" fill="#065F46" stroke="#064E3B" stroke-width="1.50" stroke-linejoin="round" stroke-linecap="round"/><polygon data-face="side14" points="112.44,229.73 97.61,225.16 121.43,114.58 128.84,116.86" fill="#065F46" stroke="#064E3B" stroke-width="1.50" stroke-linejoin="round" stroke-linecap="round"/><polygon data-face="side13" points="128.52,232.55 112.44,229.73 128.84,116.86 136.88,118.27" fill="#065F46" stroke="#064E3B" stroke-width="1.50" stroke-linejoin="round" stroke-linecap="round"/><polygon data-face="side12" points="145.24,233.50 128.52,232.55 136.88,118.27 145.24,118.75" fill="#065F46" stroke="#064E3B" stroke-width="1.50" stroke-linejoin="round" stroke-linecap="round"/><polygon data-face="side11" points="161.97,232.55 145.24,233.50 145.24,118.75 153.61,118.27" fill="#059669" stroke="#064E3B" stroke-width="1.50" stroke-linejoin="round" stroke-linecap="round"/><polygon data-face="side10" points="178.05,229.73 161.97,232.55 153.61,118.27 161.65,116.86" fill="#059669" stroke="#064E3B" stroke-width="1.50" stroke-linejoin="round" stroke-linecap="round"/><polygon data-face="side4" points="230.98,184.00 229.33,193.66 187.29,98.83 188.11,94.00" fill="#059669" stroke="#064E3B" stroke-width="1.50" stroke-linejoin="round" stroke-linecap="round"/><polygon data-face="side9" points="192.87,225.16 178.05,229.73 161.65,116.86 169.06,114.58" fill="#059669" stroke="#064E3B" stroke-width="1.50" stroke-linejoin="round" stroke-linecap="round"/><polygon data-face="side5" points="229.33,193.66 224.45,202.94 184.85,103.47 187.29,98.83" fill="#059669" stroke="#064E3B" stroke-width="1.50" stroke-linejoin="round" stroke-linecap="round"/><polygon data-face="side8" points="205.87,219.00 192.87,225.16 169.06,114.58 175.55,111.50" fill="#059669" stroke="#064E3B" stroke-width="1.50" stroke-linejoin="round" stroke-linecap="round"/><polygon data-face="side6" points="224.45,202.94 216.53,211.50 180.89,107.75 184.85,103.47" fill="#059669" stroke="#064E3B" stroke-width="1.50" stroke-linejoin="round" stroke-linecap="round"/><polygon data-face="side7" points="216.53,211.50 205.87,219.00 175.55,111.50 180.89,107.75" fill="#059669" stroke="#064E3B" stroke-width="1.50" stroke-linejoin="round" stroke-linecap="round"/><polygon data-face="top" points="175.55,76.50 180.89,80.25 184.85,84.53 187.29,89.17 188.11,94.00 187.29,98.83 184.85,103.47 180.89,107.75 175.55,111.50 169.06,114.58 161.65,116.86 153.61,118.27 145.24,118.75 136.88,118.27 128.84,116.86 121.43,114.58 114.93,111.50 109.60,107.75 105.64,103.47 103.20,98.83 102.38,94.00 103.20,89.17 105.64,84.53 109.60,80.25 114.93,76.50 121.43,73.42 128.84,71.14 136.88,69.73 145.24,69.25 153.61,69.73 161.65,71.14 169.06,73.42" fill="#D1FAE5" stroke="#064E3B" stroke-width="1.50" stroke-linejoin="round" stroke-linecap="round"/><g data-face="top-content" transform="matrix(0.8660 0.5000 -0.8660 0.5000 145.24 70.67)"><text x="23.33" y="18.22" dy=".35em" font-family="Helvetica Neue, Arial, sans-serif" font-size="8.53" font-weight="600" fill="#0B1F3A" text-anchor="middle">Object</text><text x="23.33" y="28.45" dy=".35em" font-family="Helvetica Neue, Arial, sans-serif" font-size="8.53" font-weight="600" fill="#0B1F3A" text-anchor="middle">Storage</text></g></g></svg>