<svg xmlns="http://www.w3.org/2000/svg" xmlns:xlink="http://www.w3.org/1999/xlink" viewBox="0.00 -56.00 968.50 799.98" width="968.50" height="799.98"><defs><pattern id="bg-grid" patternUnits="userSpaceOnUse" width="69.28" height="40.00"><rect width="69.28" height="40.00" fill="#0A0A0B"/><path d="M 34.64,0 L 69.28,20.00 L 34.64,40.00 L 0,20.00 Z" fill="none" stroke="#1A1A1D" stroke-width="1"/></pattern></defs><rect data-layer="canvas-bg" x="0.00" y="-56.00" width="968.50" height="799.98" fill="url(#bg-grid)"/><g data-layer="connectors"><path data-connector="" d="M 96.00,193.50 L 116.79,205.50 L 162.69,232.00 L 325.50,138.00 L 304.72,126.00" fill="none" stroke="#A8D45F" stroke-width="1.80" stroke-linecap="round" stroke-linejoin="round"/><polygon points="304.72,126.00 313.42,126.52 309.52,133.28" fill="#A8D45F"/><path data-connector="" d="M 297.79,155.00 L 318.57,167.00 L 585.31,321.00 L 524.69,356.00 L 503.90,344.00" fill="none" stroke="#A8D45F" stroke-width="1.80" stroke-linecap="round" stroke-linejoin="round"/><polygon points="503.90,344.00 512.61,344.52 508.71,351.28" fill="#A8D45F"/><path data-connector="" d="M 83.88,233.50 L 104.66,245.50 L 479.65,462.00 L 412.10,501.00 L 391.32,489.00" fill="none" stroke="#A8D45F" stroke-width="1.80" stroke-linecap="round" stroke-linejoin="round"/><polygon points="391.32,489.00 400.02,489.52 396.12,496.28" fill="#A8D45F"/><path data-connector="" d="M 496.97,333.00 Q 673.51,423.77 852.04,337.00" fill="none" stroke="#FFFFFF" stroke-width="1.20" stroke-linecap="round" stroke-linejoin="round" stroke-dasharray="3 4"/><polygon points="852.04,337.00 847.14,343.39 844.00,336.91" fill="#FFFFFF"/><path data-connector="" d="M 852.04,337.00 Q 800.30,408.00 826.06,492.00" fill="none" stroke="#FFFFFF" stroke-width="1.20" stroke-linecap="round" stroke-linejoin="round" stroke-dasharray="3 4"/><polygon points="826.06,492.00 820.51,486.17 827.39,484.06" fill="#FFFFFF"/><path data-connector="" d="M 826.06,492.00 Q 719.28,532.36 687.50,642.00" fill="none" stroke="#FFFFFF" stroke-width="1.20" stroke-linecap="round" stroke-linejoin="round" stroke-dasharray="3 4"/><polygon points="687.50,642.00 686.05,634.08 692.96,636.09" fill="#FFFFFF"/><path data-connector="" d="M 384.39,478.00 Q 494.95,635.78 687.50,642.00" fill="none" stroke="#FFFFFF" stroke-width="1.20" stroke-linecap="round" stroke-linejoin="round" stroke-dasharray="3 4"/><polygon points="687.50,642.00 680.19,645.37 680.42,638.17" fill="#FFFFFF"/></g><g data-part="0" transform="translate(-12.00 88.00)"><defs><filter id="p0-rounded-shadow" x="-50%" y="-50%" width="200%" height="200%"><feGaussianBlur in="SourceAlpha" stdDeviation="12.00"/><feOffset dx="0.00" dy="8.00" result="offsetblur"/><feFlood flood-color="rgba(168,212,95,0.25)"/><feComposite in2="offsetblur" operator="in"/><feMerge><feMergeNode/><feMergeNode in="SourceGraphic"/></feMerge></filter><linearGradient id="p0-rounded-side" x1="50%" y1="0%" x2="50%" y2="100%"><stop offset="0%" stop-color="#7AAE3F"/><stop offset="100%" stop-color="#5C8F2B"/></linearGradient></defs><g data-face="wrap" filter="url(#p0-rounded-shadow)"><path data-face="side" d="M 175.83,67.83 L 175.78,68.20 L 175.66,68.56 L 175.45,68.91 L 175.17,69.24 L 174.81,69.55 L 174.39,69.83 L 170.45,72.11 L 166.50,74.38 L 162.56,76.66 L 158.61,78.94 L 154.67,81.22 L 150.72,83.50 L 146.77,85.77 L 142.83,88.05 L 138.88,90.33 L 134.94,92.61 L 130.99,94.88 L 127.05,97.16 L 123.10,99.44 L 119.16,101.72 L 115.21,104.00 L 111.27,106.27 L 107.32,108.55 L 103.38,110.83 L 102.90,111.07 L 102.36,111.28 L 101.79,111.44 L 101.18,111.56 L 100.55,111.63 L 99.91,111.66 L 99.27,111.63 L 98.65,111.56 L 98.04,111.44 L 97.46,111.28 L 96.93,111.07 L 96.45,110.83 L 92.50,108.55 L 88.56,106.27 L 84.61,104.00 L 80.67,101.72 L 76.72,99.44 L 72.78,97.16 L 68.83,94.88 L 64.89,92.61 L 60.94,90.33 L 57.00,88.05 L 53.05,85.77 L 49.11,83.50 L 45.16,81.22 L 41.22,78.94 L 37.27,76.66 L 33.33,74.38 L 29.38,72.11 L 25.43,69.83 L 25.01,69.55 L 24.66,69.24 L 24.37,68.91 L 24.17,68.56 L 24.04,68.20 L 24.04,148.20 L 24.17,148.56 L 24.37,148.91 L 24.66,149.24 L 25.01,149.55 L 25.43,149.83 L 29.38,152.11 L 33.33,154.38 L 37.27,156.66 L 41.22,158.94 L 45.16,161.22 L 49.11,163.50 L 53.05,165.77 L 57.00,168.05 L 60.94,170.33 L 64.89,172.61 L 68.83,174.88 L 72.78,177.16 L 76.72,179.44 L 80.67,181.72 L 84.61,184.00 L 88.56,186.27 L 92.50,188.55 L 96.45,190.83 L 96.93,191.07 L 97.46,191.28 L 98.04,191.44 L 98.65,191.56 L 99.27,191.63 L 99.91,191.66 L 100.55,191.63 L 101.18,191.56 L 101.79,191.44 L 102.36,191.28 L 102.90,191.07 L 103.38,190.83 L 107.32,188.55 L 111.27,186.27 L 115.21,184.00 L 119.16,181.72 L 123.10,179.44 L 127.05,177.16 L 130.99,174.88 L 134.94,172.61 L 138.88,170.33 L 142.83,168.05 L 146.77,165.77 L 150.72,163.50 L 154.67,161.22 L 158.61,158.94 L 162.56,156.66 L 166.50,154.38 L 170.45,152.11 L 174.39,149.83 L 174.81,149.55 L 175.17,149.24 L 175.45,148.91 L 175.66,148.56 L 175.78,148.20 L 175.83,147.83 Z" fill="url(#p0-rounded-side)" stroke="none"/><path data-face="top" d="M 103.38,24.83 L 107.32,27.11 L 111.27,29.38 L 115.21,31.66 L 119.16,33.94 L 123.10,36.22 L 127.05,38.50 L 130.99,40.77 L 134.94,43.05 L 138.88,45.33 L 142.83,47.61 L 146.77,49.88 L 150.72,52.16 L 154.67,54.44 L 158.61,56.72 L 162.56,59.00 L 166.50,61.27 L 170.45,63.55 L 174.39,65.83 L 174.81,66.11 L 175.17,66.41 L 175.45,66.75 L 175.66,67.10 L 175.78,67.46 L 175.83,67.83 L 175.78,68.20 L 175.66,68.56 L 175.45,68.91 L 175.17,69.24 L 174.81,69.55 L 174.39,69.83 L 170.45,72.11 L 166.50,74.38 L 162.56,76.66 L 158.61,78.94 L 154.67,81.22 L 150.72,83.50 L 146.77,85.77 L 142.83,88.05 L 138.88,90.33 L 134.94,92.61 L 130.99,94.88 L 127.05,97.16 L 123.10,99.44 L 119.16,101.72 L 115.21,104.00 L 111.27,106.27 L 107.32,108.55 L 103.38,110.83 L 102.90,111.07 L 102.36,111.28 L 101.79,111.44 L 101.18,111.56 L 100.55,111.63 L 99.91,111.66 L 99.27,111.63 L 98.65,111.56 L 98.04,111.44 L 97.46,111.28 L 96.93,111.07 L 96.45,110.83 L 92.50,108.55 L 88.56,106.27 L 84.61,104.00 L 80.67,101.72 L 76.72,99.44 L 72.78,97.16 L 68.83,94.88 L 64.89,92.61 L 60.94,90.33 L 57.00,88.05 L 53.05,85.77 L 49.11,83.50 L 45.16,81.22 L 41.22,78.94 L 37.27,76.66 L 33.33,74.38 L 29.38,72.11 L 25.43,69.83 L 25.01,69.55 L 24.66,69.24 L 24.37,68.91 L 24.17,68.56 L 24.04,68.20 L 24.00,67.83 L 24.04,67.46 L 24.17,67.10 L 24.37,66.75 L 24.66,66.41 L 25.01,66.11 L 25.43,65.83 L 29.38,63.55 L 33.33,61.27 L 37.27,59.00 L 41.22,56.72 L 45.16,54.44 L 49.11,52.16 L 53.05,49.88 L 57.00,47.61 L 60.94,45.33 L 64.89,43.05 L 68.83,40.77 L 72.78,38.50 L 76.72,36.22 L 80.67,33.94 L 84.61,31.66 L 88.56,29.38 L 92.50,27.11 L 96.45,24.83 L 96.93,24.58 L 97.46,24.38 L 98.04,24.22 L 98.65,24.10 L 99.27,24.02 L 99.91,24.00 L 100.55,24.02 L 101.18,24.10 L 101.79,24.22 L 102.36,24.38 L 102.90,24.58 L 103.38,24.83 Z" fill="#FFFFFF" stroke="#0A0A0B" stroke-width="1.30" stroke-linejoin="round"/><path data-face="silhouette" d="M 175.83,67.83 L 175.83,147.83 L 175.78,148.20 L 175.66,148.56 L 175.45,148.91 L 175.17,149.24 L 174.81,149.55 L 174.39,149.83 L 170.45,152.11 L 166.50,154.38 L 162.56,156.66 L 158.61,158.94 L 154.67,161.22 L 150.72,163.50 L 146.77,165.77 L 142.83,168.05 L 138.88,170.33 L 134.94,172.61 L 130.99,174.88 L 127.05,177.16 L 123.10,179.44 L 119.16,181.72 L 115.21,184.00 L 111.27,186.27 L 107.32,188.55 L 103.38,190.83 L 102.90,191.07 L 102.36,191.28 L 101.79,191.44 L 101.18,191.56 L 100.55,191.63 L 99.91,191.66 L 99.27,191.63 L 98.65,191.56 L 98.04,191.44 L 97.46,191.28 L 96.93,191.07 L 96.45,190.83 L 92.50,188.55 L 88.56,186.27 L 84.61,184.00 L 80.67,181.72 L 76.72,179.44 L 72.78,177.16 L 68.83,174.88 L 64.89,172.61 L 60.94,170.33 L 57.00,168.05 L 53.05,165.77 L 49.11,163.50 L 45.16,161.22 L 41.22,158.94 L 37.27,156.66 L 33.33,154.38 L 29.38,152.11 L 25.43,149.83 L 25.01,149.55 L 24.66,149.24 L 24.37,148.91 L 24.17,148.56 L 24.04,148.20 L 24.04,68.20" fill="none" stroke="#0A0A0B" stroke-width="1.30" stroke-linejoin="round" stroke-linecap="round"/><g data-face="top-content" transform="matrix(0.8660 0.5000 -0.8660 0.5000 99.91 22.83)"><text x="45.00" y="45.00" dy=".35em" font-family="Inter, system-ui, sans-serif" font-size="11.00" font-weight="700" fill="#1F1F2A" text-anchor="middle">Your App</text></g></g></g><g data-part="1" transform="translate(223.79 38.00)"><g data-face="wrap"><defs><radialGradient id="p1-sphere-grad" cx="35%" cy="30%" r="75%"><stop offset="0%" stop-color="#A8D45F"/><stop offset="100%" stop-color="#5C8F2B"/></radialGradient></defs><circle data-face="sphere" cx="74.00" cy="74.00" r="50.00" fill="url(#p1-sphere-grad)" stroke="#0A0A0B" stroke-width="1.20"/><text x="74.00" y="74.00" font-family="Inter, system-ui, sans-serif" font-size="11.00" font-weight="700" fill="#FFFFFF" text-anchor="middle" dy=".35em">CDN</text></g></g><g data-part="2" transform="translate(239.15 174.00)"><defs><linearGradient id="p2-rounded-side" x1="50%" y1="0%" x2="50%" y2="100%"><stop offset="0%" stop-color="#17171B"/><stop offset="100%" stop-color="#0F0F12"/></linearGradient></defs><g data-face="wrap"><path data-face="side" d="M 477.45,209.90 L 477.30,211.19 L 476.86,212.46 L 476.14,213.69 L 475.15,214.85 L 473.91,215.93 L 472.43,216.90 L 466.08,220.57 L 459.73,224.23 L 453.37,227.90 L 447.02,231.57 L 440.67,235.23 L 434.32,238.90 L 427.97,242.57 L 421.62,246.23 L 415.27,249.90 L 408.92,253.57 L 402.57,257.23 L 396.22,260.90 L 389.87,264.57 L 383.52,268.23 L 377.16,271.90 L 370.81,275.57 L 364.46,279.23 L 358.11,282.90 L 356.43,283.75 L 354.56,284.47 L 352.55,285.05 L 350.43,285.46 L 348.23,285.71 L 345.99,285.80 L 343.75,285.71 L 341.55,285.46 L 339.43,285.05 L 337.41,284.47 L 335.55,283.75 L 333.86,282.90 L 316.93,273.12 L 299.99,263.34 L 283.06,253.57 L 266.12,243.79 L 249.18,234.01 L 232.25,224.23 L 215.31,214.46 L 198.38,204.68 L 181.44,194.90 L 164.51,185.12 L 147.57,175.34 L 130.64,165.57 L 113.70,155.79 L 96.76,146.01 L 79.83,136.23 L 62.89,126.46 L 45.96,116.68 L 29.02,106.90 L 27.54,105.93 L 26.30,104.85 L 25.31,103.69 L 24.58,102.46 L 24.15,101.19 L 24.15,115.19 L 24.58,116.46 L 25.31,117.69 L 26.30,118.85 L 27.54,119.93 L 29.02,120.90 L 45.96,130.68 L 62.89,140.46 L 79.83,150.23 L 96.76,160.01 L 113.70,169.79 L 130.64,179.57 L 147.57,189.34 L 164.51,199.12 L 181.44,208.90 L 198.38,218.68 L 215.31,228.46 L 232.25,238.23 L 249.18,248.01 L 266.12,257.79 L 283.06,267.57 L 299.99,277.34 L 316.93,287.12 L 333.86,296.90 L 335.55,297.75 L 337.41,298.47 L 339.43,299.05 L 341.55,299.46 L 343.75,299.71 L 345.99,299.80 L 348.23,299.71 L 350.43,299.46 L 352.55,299.05 L 354.56,298.47 L 356.43,297.75 L 358.11,296.90 L 364.46,293.23 L 370.81,289.57 L 377.16,285.90 L 383.52,282.23 L 389.87,278.57 L 396.22,274.90 L 402.57,271.23 L 408.92,267.57 L 415.27,263.90 L 421.62,260.23 L 427.97,256.57 L 434.32,252.90 L 440.67,249.23 L 447.02,245.57 L 453.37,241.90 L 459.73,238.23 L 466.08,234.57 L 472.43,230.90 L 473.91,229.93 L 475.15,228.85 L 476.14,227.69 L 476.86,226.46 L 477.30,225.19 L 477.45,223.90 Z" fill="url(#p2-rounded-side)" stroke="none"/><path data-face="top" d="M 167.59,26.90 L 184.52,36.68 L 201.46,46.46 L 218.39,56.23 L 235.33,66.01 L 252.26,75.79 L 269.20,85.57 L 286.14,95.34 L 303.07,105.12 L 320.01,114.90 L 336.94,124.68 L 353.88,134.46 L 370.81,144.23 L 387.75,154.01 L 404.68,163.79 L 421.62,173.57 L 438.56,183.34 L 455.49,193.12 L 472.43,202.90 L 473.91,203.87 L 475.15,204.95 L 476.14,206.11 L 476.86,207.34 L 477.30,208.61 L 477.45,209.90 L 477.30,211.19 L 476.86,212.46 L 476.14,213.69 L 475.15,214.85 L 473.91,215.93 L 472.43,216.90 L 466.08,220.57 L 459.73,224.23 L 453.37,227.90 L 447.02,231.57 L 440.67,235.23 L 434.32,238.90 L 427.97,242.57 L 421.62,246.23 L 415.27,249.90 L 408.92,253.57 L 402.57,257.23 L 396.22,260.90 L 389.87,264.57 L 383.52,268.23 L 377.16,271.90 L 370.81,275.57 L 364.46,279.23 L 358.11,282.90 L 356.43,283.75 L 354.56,284.47 L 352.55,285.05 L 350.43,285.46 L 348.23,285.71 L 345.99,285.80 L 343.75,285.71 L 341.55,285.46 L 339.43,285.05 L 337.41,284.47 L 335.55,283.75 L 333.86,282.90 L 316.93,273.12 L 299.99,263.34 L 283.06,253.57 L 266.12,243.79 L 249.18,234.01 L 232.25,224.23 L 215.31,214.46 L 198.38,204.68 L 181.44,194.90 L 164.51,185.12 L 147.57,175.34 L 130.64,165.57 L 113.70,155.79 L 96.76,146.01 L 79.83,136.23 L 62.89,126.46 L 45.96,116.68 L 29.02,106.90 L 27.54,105.93 L 26.30,104.85 L 25.31,103.69 L 24.58,102.46 L 24.15,101.19 L 24.00,99.90 L 24.15,98.61 L 24.58,97.34 L 25.31,96.11 L 26.30,94.95 L 27.54,93.87 L 29.02,92.90 L 35.37,89.23 L 41.72,85.57 L 48.07,81.90 L 54.43,78.23 L 60.78,74.57 L 67.13,70.90 L 73.48,67.23 L 79.83,63.57 L 86.18,59.90 L 92.53,56.23 L 98.88,52.57 L 105.23,48.90 L 111.58,45.23 L 117.93,41.57 L 124.28,37.90 L 130.64,34.23 L 136.99,30.57 L 143.34,26.90 L 145.02,26.05 L 146.89,25.33 L 148.90,24.75 L 151.02,24.34 L 153.22,24.08 L 155.46,24.00 L 157.70,24.08 L 159.90,24.34 L 162.02,24.75 L 164.03,25.33 L 165.90,26.05 L 167.59,26.90 Z" fill="#1F1F23" stroke="#27272A" stroke-width="1.00" stroke-linejoin="round"/><path data-face="silhouette" d="M 477.45,209.90 L 477.45,223.90 L 477.30,225.19 L 476.86,226.46 L 476.14,227.69 L 475.15,228.85 L 473.91,229.93 L 472.43,230.90 L 466.08,234.57 L 459.73,238.23 L 453.37,241.90 L 447.02,245.57 L 440.67,249.23 L 434.32,252.90 L 427.97,256.57 L 421.62,260.23 L 415.27,263.90 L 408.92,267.57 L 402.57,271.23 L 396.22,274.90 L 389.87,278.57 L 383.52,282.23 L 377.16,285.90 L 370.81,289.57 L 364.46,293.23 L 358.11,296.90 L 356.43,297.75 L 354.56,298.47 L 352.55,299.05 L 350.43,299.46 L 348.23,299.71 L 345.99,299.80 L 343.75,299.71 L 341.55,299.46 L 339.43,299.05 L 337.41,298.47 L 335.55,297.75 L 333.86,296.90 L 316.93,287.12 L 299.99,277.34 L 283.06,267.57 L 266.12,257.79 L 249.18,248.01 L 232.25,238.23 L 215.31,228.46 L 198.38,218.68 L 181.44,208.90 L 164.51,199.12 L 147.57,189.34 L 130.64,179.57 L 113.70,169.79 L 96.76,160.01 L 79.83,150.23 L 62.89,140.46 L 45.96,130.68 L 29.02,120.90 L 27.54,119.93 L 26.30,118.85 L 25.31,117.69 L 24.58,116.46 L 24.15,115.19 L 24.15,101.19" fill="none" stroke="#27272A" stroke-width="1.00" stroke-linejoin="round" stroke-linecap="round"/><g data-face="top-content" transform="matrix(0.8660 0.5000 -0.8660 0.5000 155.46 19.90)"><text x="190.00" y="80.00" dy=".35em" font-family="Inter, system-ui, sans-serif" font-size="10.00" font-weight="500" fill="#A1A1AA" text-anchor="middle">Region A</text></g></g></g><g data-part="3" transform="translate(321.33 214.60)"><g data-face="wrap"><polygon data-face="side" points="239.27,101.67 238.23,105.60 235.83,109.72 232.14,113.89 227.31,117.93 221.52,121.69 215.66,125.07 209.80,128.45 203.94,131.84 198.08,135.22 192.22,138.60 186.36,141.99 184.23,142.93 181.75,143.53 179.09,143.73 176.42,143.53 173.94,142.93 171.81,141.99 162.76,136.76 153.71,131.54 144.66,126.31 135.61,121.09 126.56,115.86 117.51,110.64 108.46,105.41 99.41,100.19 90.36,94.96 81.31,89.74 72.26,84.51 63.21,79.29 54.16,74.06 45.11,68.84 36.06,63.61 27.01,58.39 25.38,57.16 24.35,55.73 24.00,54.19 24.00,78.19 24.35,79.73 25.38,81.16 27.01,82.39 36.06,87.61 45.11,92.84 54.16,98.06 63.21,103.29 72.26,108.51 81.31,113.74 90.36,118.96 99.41,124.19 108.46,129.41 117.51,134.64 126.56,139.86 135.61,145.09 144.66,150.31 153.71,155.54 162.76,160.76 171.81,165.99 173.94,166.93 176.42,167.53 179.09,167.73 181.75,167.53 184.23,166.93 186.36,165.99 192.22,162.60 198.08,159.22 203.94,155.84 209.80,152.45 215.66,149.07 221.52,145.69 227.31,141.93 232.14,137.89 235.83,133.72 238.23,129.60 239.27,125.67" fill="#5C8F2B" stroke="none"/><path data-face="outline" d="M 239.27 101.67 L 239.27 125.67 L 238.23 129.60 L 235.83 133.72 L 232.14 137.89 L 227.31 141.93 L 221.52 145.69 L 215.66 149.07 L 209.80 152.45 L 203.94 155.84 L 198.08 159.22 L 192.22 162.60 L 186.36 165.99 L 184.23 166.93 L 181.75 167.53 L 179.09 167.73 L 176.42 167.53 L 173.94 166.93 L 171.81 165.99 L 162.76 160.76 L 153.71 155.54 L 144.66 150.31 L 135.61 145.09 L 126.56 139.86 L 117.51 134.64 L 108.46 129.41 L 99.41 124.19 L 90.36 118.96 L 81.31 113.74 L 72.26 108.51 L 63.21 103.29 L 54.16 98.06 L 45.11 92.84 L 36.06 87.61 L 27.01 82.39 L 25.38 81.16 L 24.35 79.73 L 24.00 78.19 L 24.00 54.19" fill="none" stroke="#0A0A0B" stroke-width="1.20" stroke-linejoin="round" stroke-linecap="round"/><path data-face="top" d="M 62.17 29.69 L 66.80 27.44 L 71.98 25.70 L 77.51 24.54 L 83.19 24.00 L 88.79 24.10 L 94.10 24.84 L 98.91 26.18 L 103.05 28.09 L 106.35 30.48 L 108.68 33.26 L 109.96 36.32 L 110.13 39.56 L 109.19 42.83 L 107.18 46.03 L 104.17 49.02 L 100.28 51.69 L 111.49 46.14 L 123.86 41.73 L 136.92 38.62 L 150.18 36.94 L 163.11 36.74 L 175.23 38.05 L 186.06 40.80 L 195.20 44.89 L 202.28 50.16 L 207.04 56.42 L 209.30 63.41 L 208.96 70.88 L 206.05 78.53 L 200.67 86.07 L 193.03 93.22 L 183.42 99.69 L 189.93 96.35 L 196.93 93.56 L 204.14 91.43 L 211.29 90.04 L 218.10 89.44 L 224.30 89.66 L 229.67 90.69 L 233.99 92.49 L 237.10 94.98 L 238.88 98.08 L 239.27 101.67 L 238.23 105.60 L 235.83 109.72 L 232.14 113.89 L 227.31 117.93 L 221.52 121.69 L 215.66 125.07 L 209.80 128.45 L 203.94 131.84 L 198.08 135.22 L 192.22 138.60 L 186.36 141.99 L 184.23 142.93 L 181.75 143.53 L 179.09 143.73 L 176.42 143.53 L 173.94 142.93 L 171.81 141.99 L 162.76 136.76 L 153.71 131.54 L 144.66 126.31 L 135.61 121.09 L 126.56 115.86 L 117.51 110.64 L 108.46 105.41 L 99.41 100.19 L 90.36 94.96 L 81.31 89.74 L 72.26 84.51 L 63.21 79.29 L 54.16 74.06 L 45.11 68.84 L 36.06 63.61 L 27.01 58.39 L 25.38 57.16 L 24.35 55.73 L 24.00 54.19 L 24.35 52.65 L 25.38 51.22 L 27.01 49.99 L 32.87 46.60 L 38.73 43.22 L 44.59 39.84 L 50.45 36.45 L 56.31 33.07 L 62.17 29.69 Z" fill="#FFFFFF" stroke="#0A0A0B" stroke-width="1.20" stroke-linejoin="round"/><g data-face="top-content" transform="matrix(0.8660 0.5000 -0.8660 0.5000 115.87 -9.31)"><text x="100.00" y="70.00" dy=".35em" font-family="Inter, system-ui, sans-serif" font-size="10.00" font-weight="700" fill="#1F1F2A" text-anchor="middle">API</text></g></g></g><g data-part="4" transform="translate(479.94 272.02)"><g data-face="wrap"><path data-face="side-left" d="M 24.00 49.98 L 24.00 85.98 A 45.00 25.98 0 0 0 69.00 111.96 L 69.00 75.96 A 45.00 25.98 0 0 0 24.00 49.98 Z" fill="#5C8F2B" stroke="none"/><path data-face="side-right" d="M 114.00 49.98 L 114.00 85.98 A 45.00 25.98 0 0 1 69.00 111.96 L 69.00 75.96 A 45.00 25.98 0 0 1 114.00 49.98 Z" fill="#7AAE3F" stroke="none"/><path data-face="outline" d="M 24.00 49.98 L 24.00 85.98 A 45.00 25.98 0 0 0 114.00 85.98 L 114.00 49.98" fill="none" stroke="#0A0A0B" stroke-width="1.20" stroke-linejoin="round" stroke-linecap="round"/><ellipse data-face="top" cx="69.00" cy="49.98" rx="45.00" ry="25.98" fill="#FFFFFF" stroke="#0A0A0B" stroke-width="1.20"/><g data-face="top-content" transform="matrix(0.8660 0.5000 -0.8660 0.5000 69.00 24.00)"><text x="25.98" y="25.98" dy=".35em" font-family="Inter, system-ui, sans-serif" font-size="12.00" font-weight="700" fill="#1F1F2A" text-anchor="middle">{ }</text></g></g></g><g data-part="5" transform="translate(479.94 266.02)"><g data-face="wrap"><path data-face="side-left" d="M 24.00 49.98 L 24.00 85.98 A 45.00 25.98 0 0 0 69.00 111.96 L 69.00 75.96 A 45.00 25.98 0 0 0 24.00 49.98 Z" fill="#5C8F2B" stroke="none"/><path data-face="side-right" d="M 114.00 49.98 L 114.00 85.98 A 45.00 25.98 0 0 1 69.00 111.96 L 69.00 75.96 A 45.00 25.98 0 0 1 114.00 49.98 Z" fill="#7AAE3F" stroke="none"/><path data-face="outline" d="M 24.00 49.98 L 24.00 85.98 A 45.00 25.98 0 0 0 114.00 85.98 L 114.00 49.98" fill="none" stroke="#0A0A0B" stroke-width="1.20" stroke-linejoin="round" stroke-linecap="round"/><ellipse data-face="top" cx="69.00" cy="49.98" rx="45.00" ry="25.98" fill="#FFFFFF" stroke="#0A0A0B" stroke-width="1.20"/><g data-face="top-content" transform="matrix(0.8660 0.5000 -0.8660 0.5000 69.00 24.00)"><text x="25.98" y="25.98" dy=".35em" font-family="Inter, system-ui, sans-serif" font-size="12.00" font-weight="700" fill="#1F1F2A" text-anchor="middle">{ }</text></g></g></g><g data-part="6" transform="translate(479.94 260.02)"><g data-face="wrap"><path data-face="side-left" d="M 24.00 49.98 L 24.00 85.98 A 45.00 25.98 0 0 0 69.00 111.96 L 69.00 75.96 A 45.00 25.98 0 0 0 24.00 49.98 Z" fill="#5C8F2B" stroke="none"/><path data-face="side-right" d="M 114.00 49.98 L 114.00 85.98 A 45.00 25.98 0 0 1 69.00 111.96 L 69.00 75.96 A 45.00 25.98 0 0 1 114.00 49.98 Z" fill="#7AAE3F" stroke="none"/><path data-face="outline" d="M 24.00 49.98 L 24.00 85.98 A 45.00 25.98 0 0 0 114.00 85.98 L 114.00 49.98" fill="none" stroke="#0A0A0B" stroke-width="1.20" stroke-linejoin="round" stroke-linecap="round"/><ellipse data-face="top" cx="69.00" cy="49.98" rx="45.00" ry="25.98" fill="#FFFFFF" stroke="#0A0A0B" stroke-width="1.20"/><g data-face="top-content" transform="matrix(0.8660 0.5000 -0.8660 0.5000 69.00 24.00)"><text x="25.98" y="25.98" dy=".35em" font-family="Inter, system-ui, sans-serif" font-size="12.00" font-weight="700" fill="#1F1F2A" text-anchor="middle">{ }</text></g></g></g><g data-part="7" transform="translate(126.56 319.00)"><defs><linearGradient id="p7-rounded-side" x1="50%" y1="0%" x2="50%" y2="100%"><stop offset="0%" stop-color="#17171B"/><stop offset="100%" stop-color="#0F0F12"/></linearGradient></defs><g data-face="wrap"><path data-face="side" d="M 477.45,209.90 L 477.30,211.19 L 476.86,212.46 L 476.14,213.69 L 475.15,214.85 L 473.91,215.93 L 472.43,216.90 L 466.08,220.57 L 459.73,224.23 L 453.37,227.90 L 447.02,231.57 L 440.67,235.23 L 434.32,238.90 L 427.97,242.57 L 421.62,246.23 L 415.27,249.90 L 408.92,253.57 L 402.57,257.23 L 396.22,260.90 L 389.87,264.57 L 383.52,268.23 L 377.16,271.90 L 370.81,275.57 L 364.46,279.23 L 358.11,282.90 L 356.43,283.75 L 354.56,284.47 L 352.55,285.05 L 350.43,285.46 L 348.23,285.71 L 345.99,285.80 L 343.75,285.71 L 341.55,285.46 L 339.43,285.05 L 337.41,284.47 L 335.55,283.75 L 333.86,282.90 L 316.93,273.12 L 299.99,263.34 L 283.06,253.57 L 266.12,243.79 L 249.18,234.01 L 232.25,224.23 L 215.31,214.46 L 198.38,204.68 L 181.44,194.90 L 164.51,185.12 L 147.57,175.34 L 130.64,165.57 L 113.70,155.79 L 96.76,146.01 L 79.83,136.23 L 62.89,126.46 L 45.96,116.68 L 29.02,106.90 L 27.54,105.93 L 26.30,104.85 L 25.31,103.69 L 24.58,102.46 L 24.15,101.19 L 24.15,115.19 L 24.58,116.46 L 25.31,117.69 L 26.30,118.85 L 27.54,119.93 L 29.02,120.90 L 45.96,130.68 L 62.89,140.46 L 79.83,150.23 L 96.76,160.01 L 113.70,169.79 L 130.64,179.57 L 147.57,189.34 L 164.51,199.12 L 181.44,208.90 L 198.38,218.68 L 215.31,228.46 L 232.25,238.23 L 249.18,248.01 L 266.12,257.79 L 283.06,267.57 L 299.99,277.34 L 316.93,287.12 L 333.86,296.90 L 335.55,297.75 L 337.41,298.47 L 339.43,299.05 L 341.55,299.46 L 343.75,299.71 L 345.99,299.80 L 348.23,299.71 L 350.43,299.46 L 352.55,299.05 L 354.56,298.47 L 356.43,297.75 L 358.11,296.90 L 364.46,293.23 L 370.81,289.57 L 377.16,285.90 L 383.52,282.23 L 389.87,278.57 L 396.22,274.90 L 402.57,271.23 L 408.92,267.57 L 415.27,263.90 L 421.62,260.23 L 427.97,256.57 L 434.32,252.90 L 440.67,249.23 L 447.02,245.57 L 453.37,241.90 L 459.73,238.23 L 466.08,234.57 L 472.43,230.90 L 473.91,229.93 L 475.15,228.85 L 476.14,227.69 L 476.86,226.46 L 477.30,225.19 L 477.45,223.90 Z" fill="url(#p7-rounded-side)" stroke="none"/><path data-face="top" d="M 167.59,26.90 L 184.52,36.68 L 201.46,46.46 L 218.39,56.23 L 235.33,66.01 L 252.26,75.79 L 269.20,85.57 L 286.14,95.34 L 303.07,105.12 L 320.01,114.90 L 336.94,124.68 L 353.88,134.46 L 370.81,144.23 L 387.75,154.01 L 404.68,163.79 L 421.62,173.57 L 438.56,183.34 L 455.49,193.12 L 472.43,202.90 L 473.91,203.87 L 475.15,204.95 L 476.14,206.11 L 476.86,207.34 L 477.30,208.61 L 477.45,209.90 L 477.30,211.19 L 476.86,212.46 L 476.14,213.69 L 475.15,214.85 L 473.91,215.93 L 472.43,216.90 L 466.08,220.57 L 459.73,224.23 L 453.37,227.90 L 447.02,231.57 L 440.67,235.23 L 434.32,238.90 L 427.97,242.57 L 421.62,246.23 L 415.27,249.90 L 408.92,253.57 L 402.57,257.23 L 396.22,260.90 L 389.87,264.57 L 383.52,268.23 L 377.16,271.90 L 370.81,275.57 L 364.46,279.23 L 358.11,282.90 L 356.43,283.75 L 354.56,284.47 L 352.55,285.05 L 350.43,285.46 L 348.23,285.71 L 345.99,285.80 L 343.75,285.71 L 341.55,285.46 L 339.43,285.05 L 337.41,284.47 L 335.55,283.75 L 333.86,282.90 L 316.93,273.12 L 299.99,263.34 L 283.06,253.57 L 266.12,243.79 L 249.18,234.01 L 232.25,224.23 L 215.31,214.46 L 198.38,204.68 L 181.44,194.90 L 164.51,185.12 L 147.57,175.34 L 130.64,165.57 L 113.70,155.79 L 96.76,146.01 L 79.83,136.23 L 62.89,126.46 L 45.96,116.68 L 29.02,106.90 L 27.54,105.93 L 26.30,104.85 L 25.31,103.69 L 24.58,102.46 L 24.15,101.19 L 24.00,99.90 L 24.15,98.61 L 24.58,97.34 L 25.31,96.11 L 26.30,94.95 L 27.54,93.87 L 29.02,92.90 L 35.37,89.23 L 41.72,85.57 L 48.07,81.90 L 54.43,78.23 L 60.78,74.57 L 67.13,70.90 L 73.48,67.23 L 79.83,63.57 L 86.18,59.90 L 92.53,56.23 L 98.88,52.57 L 105.23,48.90 L 111.58,45.23 L 117.93,41.57 L 124.28,37.90 L 130.64,34.23 L 136.99,30.57 L 143.34,26.90 L 145.02,26.05 L 146.89,25.33 L 148.90,24.75 L 151.02,24.34 L 153.22,24.08 L 155.46,24.00 L 157.70,24.08 L 159.90,24.34 L 162.02,24.75 L 164.03,25.33 L 165.90,26.05 L 167.59,26.90 Z" fill="#1F1F23" stroke="#27272A" stroke-width="1.00" stroke-linejoin="round"/><path data-face="silhouette" d="M 477.45,209.90 L 477.45,223.90 L 477.30,225.19 L 476.86,226.46 L 476.14,227.69 L 475.15,228.85 L 473.91,229.93 L 472.43,230.90 L 466.08,234.57 L 459.73,238.23 L 453.37,241.90 L 447.02,245.57 L 440.67,249.23 L 434.32,252.90 L 427.97,256.57 L 421.62,260.23 L 415.27,263.90 L 408.92,267.57 L 402.57,271.23 L 396.22,274.90 L 389.87,278.57 L 383.52,282.23 L 377.16,285.90 L 370.81,289.57 L 364.46,293.23 L 358.11,296.90 L 356.43,297.75 L 354.56,298.47 L 352.55,299.05 L 350.43,299.46 L 348.23,299.71 L 345.99,299.80 L 343.75,299.71 L 341.55,299.46 L 339.43,299.05 L 337.41,298.47 L 335.55,297.75 L 333.86,296.90 L 316.93,287.12 L 299.99,277.34 L 283.06,267.57 L 266.12,257.79 L 249.18,248.01 L 232.25,238.23 L 215.31,228.46 L 198.38,218.68 L 181.44,208.90 L 164.51,199.12 L 147.57,189.34 L 130.64,179.57 L 113.70,169.79 L 96.76,160.01 L 79.83,150.23 L 62.89,140.46 L 45.96,130.68 L 29.02,120.90 L 27.54,119.93 L 26.30,118.85 L 25.31,117.69 L 24.58,116.46 L 24.15,115.19 L 24.15,101.19" fill="none" stroke="#27272A" stroke-width="1.00" stroke-linejoin="round" stroke-linecap="round"/><g data-face="top-content" transform="matrix(0.8660 0.5000 -0.8660 0.5000 155.46 19.90)"><text x="190.00" y="80.00" dy=".35em" font-family="Inter, system-ui, sans-serif" font-size="10.00" font-weight="500" fill="#A1A1AA" text-anchor="middle">Region B</text></g></g></g><g data-part="8" transform="translate(208.75 359.60)"><g data-face="wrap"><polygon data-face="side" points="239.27,101.67 238.23,105.60 235.83,109.72 232.14,113.89 227.31,117.93 221.52,121.69 215.66,125.07 209.80,128.45 203.94,131.84 198.08,135.22 192.22,138.60 186.36,141.99 184.23,142.93 181.75,143.53 179.09,143.73 176.42,143.53 173.94,142.93 171.81,141.99 162.76,136.76 153.71,131.54 144.66,126.31 135.61,121.09 126.56,115.86 117.51,110.64 108.46,105.41 99.41,100.19 90.36,94.96 81.31,89.74 72.26,84.51 63.21,79.29 54.16,74.06 45.11,68.84 36.06,63.61 27.01,58.39 25.38,57.16 24.35,55.73 24.00,54.19 24.00,78.19 24.35,79.73 25.38,81.16 27.01,82.39 36.06,87.61 45.11,92.84 54.16,98.06 63.21,103.29 72.26,108.51 81.31,113.74 90.36,118.96 99.41,124.19 108.46,129.41 117.51,134.64 126.56,139.86 135.61,145.09 144.66,150.31 153.71,155.54 162.76,160.76 171.81,165.99 173.94,166.93 176.42,167.53 179.09,167.73 181.75,167.53 184.23,166.93 186.36,165.99 192.22,162.60 198.08,159.22 203.94,155.84 209.80,152.45 215.66,149.07 221.52,145.69 227.31,141.93 232.14,137.89 235.83,133.72 238.23,129.60 239.27,125.67" fill="#5C8F2B" stroke="none"/><path data-face="outline" d="M 239.27 101.67 L 239.27 125.67 L 238.23 129.60 L 235.83 133.72 L 232.14 137.89 L 227.31 141.93 L 221.52 145.69 L 215.66 149.07 L 209.80 152.45 L 203.94 155.84 L 198.08 159.22 L 192.22 162.60 L 186.36 165.99 L 184.23 166.93 L 181.75 167.53 L 179.09 167.73 L 176.42 167.53 L 173.94 166.93 L 171.81 165.99 L 162.76 160.76 L 153.71 155.54 L 144.66 150.31 L 135.61 145.09 L 126.56 139.86 L 117.51 134.64 L 108.46 129.41 L 99.41 124.19 L 90.36 118.96 L 81.31 113.74 L 72.26 108.51 L 63.21 103.29 L 54.16 98.06 L 45.11 92.84 L 36.06 87.61 L 27.01 82.39 L 25.38 81.16 L 24.35 79.73 L 24.00 78.19 L 24.00 54.19" fill="none" stroke="#0A0A0B" stroke-width="1.20" stroke-linejoin="round" stroke-linecap="round"/><path data-face="top" d="M 62.17 29.69 L 66.80 27.44 L 71.98 25.70 L 77.51 24.54 L 83.19 24.00 L 88.79 24.10 L 94.10 24.84 L 98.91 26.18 L 103.05 28.09 L 106.35 30.48 L 108.68 33.26 L 109.96 36.32 L 110.13 39.56 L 109.19 42.83 L 107.18 46.03 L 104.17 49.02 L 100.28 51.69 L 111.49 46.14 L 123.86 41.73 L 136.92 38.62 L 150.18 36.94 L 163.11 36.74 L 175.23 38.05 L 186.06 40.80 L 195.20 44.89 L 202.28 50.16 L 207.04 56.42 L 209.30 63.41 L 208.96 70.88 L 206.05 78.53 L 200.67 86.07 L 193.03 93.22 L 183.42 99.69 L 189.93 96.35 L 196.93 93.56 L 204.14 91.43 L 211.29 90.04 L 218.10 89.44 L 224.30 89.66 L 229.67 90.69 L 233.99 92.49 L 237.10 94.98 L 238.88 98.08 L 239.27 101.67 L 238.23 105.60 L 235.83 109.72 L 232.14 113.89 L 227.31 117.93 L 221.52 121.69 L 215.66 125.07 L 209.80 128.45 L 203.94 131.84 L 198.08 135.22 L 192.22 138.60 L 186.36 141.99 L 184.23 142.93 L 181.75 143.53 L 179.09 143.73 L 176.42 143.53 L 173.94 142.93 L 171.81 141.99 L 162.76 136.76 L 153.71 131.54 L 144.66 126.31 L 135.61 121.09 L 126.56 115.86 L 117.51 110.64 L 108.46 105.41 L 99.41 100.19 L 90.36 94.96 L 81.31 89.74 L 72.26 84.51 L 63.21 79.29 L 54.16 74.06 L 45.11 68.84 L 36.06 63.61 L 27.01 58.39 L 25.38 57.16 L 24.35 55.73 L 24.00 54.19 L 24.35 52.65 L 25.38 51.22 L 27.01 49.99 L 32.87 46.60 L 38.73 43.22 L 44.59 39.84 L 50.45 36.45 L 56.31 33.07 L 62.17 29.69 Z" fill="#FFFFFF" stroke="#0A0A0B" stroke-width="1.20" stroke-linejoin="round"/><g data-face="top-content" transform="matrix(0.8660 0.5000 -0.8660 0.5000 115.87 -9.31)"><text x="100.00" y="70.00" dy=".35em" font-family="Inter, system-ui, sans-serif" font-size="10.00" font-weight="700" fill="#1F1F2A" text-anchor="middle">API</text></g></g></g><g data-part="9" transform="translate(367.35 417.02)"><g data-face="wrap"><path data-face="side-left" d="M 24.00 49.98 L 24.00 85.98 A 45.00 25.98 0 0 0 69.00 111.96 L 69.00 75.96 A 45.00 25.98 0 0 0 24.00 49.98 Z" fill="#5C8F2B" stroke="none"/><path data-face="side-right" d="M 114.00 49.98 L 114.00 85.98 A 45.00 25.98 0 0 1 69.00 111.96 L 69.00 75.96 A 45.00 25.98 0 0 1 114.00 49.98 Z" fill="#7AAE3F" stroke="none"/><path data-face="outline" d="M 24.00 49.98 L 24.00 85.98 A 45.00 25.98 0 0 0 114.00 85.98 L 114.00 49.98" fill="none" stroke="#0A0A0B" stroke-width="1.20" stroke-linejoin="round" stroke-linecap="round"/><ellipse data-face="top" cx="69.00" cy="49.98" rx="45.00" ry="25.98" fill="#FFFFFF" stroke="#0A0A0B" stroke-width="1.20"/><g data-face="top-content" transform="matrix(0.8660 0.5000 -0.8660 0.5000 69.00 24.00)"><text x="25.98" y="25.98" dy=".35em" font-family="Inter, system-ui, sans-serif" font-size="12.00" font-weight="700" fill="#1F1F2A" text-anchor="middle">{ }</text></g></g></g><g data-part="10" transform="translate(367.35 411.02)"><g data-face="wrap"><path data-face="side-left" d="M 24.00 49.98 L 24.00 85.98 A 45.00 25.98 0 0 0 69.00 111.96 L 69.00 75.96 A 45.00 25.98 0 0 0 24.00 49.98 Z" fill="#5C8F2B" stroke="none"/><path data-face="side-right" d="M 114.00 49.98 L 114.00 85.98 A 45.00 25.98 0 0 1 69.00 111.96 L 69.00 75.96 A 45.00 25.98 0 0 1 114.00 49.98 Z" fill="#7AAE3F" stroke="none"/><path data-face="outline" d="M 24.00 49.98 L 24.00 85.98 A 45.00 25.98 0 0 0 114.00 85.98 L 114.00 49.98" fill="none" stroke="#0A0A0B" stroke-width="1.20" stroke-linejoin="round" stroke-linecap="round"/><ellipse data-face="top" cx="69.00" cy="49.98" rx="45.00" ry="25.98" fill="#FFFFFF" stroke="#0A0A0B" stroke-width="1.20"/><g data-face="top-content" transform="matrix(0.8660 0.5000 -0.8660 0.5000 69.00 24.00)"><text x="25.98" y="25.98" dy=".35em" font-family="Inter, system-ui, sans-serif" font-size="12.00" font-weight="700" fill="#1F1F2A" text-anchor="middle">{ }</text></g></g></g><g data-part="11" transform="translate(367.35 405.02)"><g data-face="wrap"><path data-face="side-left" d="M 24.00 49.98 L 24.00 85.98 A 45.00 25.98 0 0 0 69.00 111.96 L 69.00 75.96 A 45.00 25.98 0 0 0 24.00 49.98 Z" fill="#5C8F2B" stroke="none"/><path data-face="side-right" d="M 114.00 49.98 L 114.00 85.98 A 45.00 25.98 0 0 1 69.00 111.96 L 69.00 75.96 A 45.00 25.98 0 0 1 114.00 49.98 Z" fill="#7AAE3F" stroke="none"/><path data-face="outline" d="M 24.00 49.98 L 24.00 85.98 A 45.00 25.98 0 0 0 114.00 85.98 L 114.00 49.98" fill="none" stroke="#0A0A0B" stroke-width="1.20" stroke-linejoin="round" stroke-linecap="round"/><ellipse data-face="top" cx="69.00" cy="49.98" rx="45.00" ry="25.98" fill="#FFFFFF" stroke="#0A0A0B" stroke-width="1.20"/><g data-face="top-content" transform="matrix(0.8660 0.5000 -0.8660 0.5000 69.00 24.00)"><text x="25.98" y="25.98" dy=".35em" font-family="Inter, system-ui, sans-serif" font-size="12.00" font-weight="700" fill="#1F1F2A" text-anchor="middle">{ }</text></g></g></g><g data-part="12" transform="translate(783.04 287.02)"><g data-face="wrap"><path data-face="side-left" d="M 24.00 49.98 L 24.00 89.98 A 45.00 25.98 0 0 0 69.00 115.96 L 69.00 75.96 A 45.00 25.98 0 0 0 24.00 49.98 Z" fill="#5C8F2B" stroke="none"/><path data-face="side-right" d="M 114.00 49.98 L 114.00 89.98 A 45.00 25.98 0 0 1 69.00 115.96 L 69.00 75.96 A 45.00 25.98 0 0 1 114.00 49.98 Z" fill="#7AAE3F" stroke="none"/><path data-face="outline" d="M 24.00 49.98 L 24.00 89.98 A 45.00 25.98 0 0 0 114.00 89.98 L 114.00 49.98" fill="none" stroke="#0A0A0B" stroke-width="1.20" stroke-linejoin="round" stroke-linecap="round"/><ellipse data-face="top" cx="69.00" cy="49.98" rx="45.00" ry="25.98" fill="#FFFFFF" stroke="#0A0A0B" stroke-width="1.20"/><g data-face="top-content" transform="matrix(0.8660 0.5000 -0.8660 0.5000 69.00 24.00)"><text x="25.98" y="25.98" dy=".35em" font-family="Inter, system-ui, sans-serif" font-size="12.00" font-weight="700" fill="#1F1F2A" text-anchor="middle">{ }</text></g></g></g><g data-part="13" transform="translate(783.04 281.02)"><g data-face="wrap"><path data-face="side-left" d="M 24.00 49.98 L 24.00 89.98 A 45.00 25.98 0 0 0 69.00 115.96 L 69.00 75.96 A 45.00 25.98 0 0 0 24.00 49.98 Z" fill="#5C8F2B" stroke="none"/><path data-face="side-right" d="M 114.00 49.98 L 114.00 89.98 A 45.00 25.98 0 0 1 69.00 115.96 L 69.00 75.96 A 45.00 25.98 0 0 1 114.00 49.98 Z" fill="#7AAE3F" stroke="none"/><path data-face="outline" d="M 24.00 49.98 L 24.00 89.98 A 45.00 25.98 0 0 0 114.00 89.98 L 114.00 49.98" fill="none" stroke="#0A0A0B" stroke-width="1.20" stroke-linejoin="round" stroke-linecap="round"/><ellipse data-face="top" cx="69.00" cy="49.98" rx="45.00" ry="25.98" fill="#FFFFFF" stroke="#0A0A0B" stroke-width="1.20"/><g data-face="top-content" transform="matrix(0.8660 0.5000 -0.8660 0.5000 69.00 24.00)"><text x="25.98" y="25.98" dy=".35em" font-family="Inter, system-ui, sans-serif" font-size="12.00" font-weight="700" fill="#1F1F2A" text-anchor="middle">{ }</text></g></g></g><g data-part="14" transform="translate(783.04 275.02)"><g data-face="wrap"><path data-face="side-left" d="M 24.00 49.98 L 24.00 89.98 A 45.00 25.98 0 0 0 69.00 115.96 L 69.00 75.96 A 45.00 25.98 0 0 0 24.00 49.98 Z" fill="#5C8F2B" stroke="none"/><path data-face="side-right" d="M 114.00 49.98 L 114.00 89.98 A 45.00 25.98 0 0 1 69.00 115.96 L 69.00 75.96 A 45.00 25.98 0 0 1 114.00 49.98 Z" fill="#7AAE3F" stroke="none"/><path data-face="outline" d="M 24.00 49.98 L 24.00 89.98 A 45.00 25.98 0 0 0 114.00 89.98 L 114.00 49.98" fill="none" stroke="#0A0A0B" stroke-width="1.20" stroke-linejoin="round" stroke-linecap="round"/><ellipse data-face="top" cx="69.00" cy="49.98" rx="45.00" ry="25.98" fill="#FFFFFF" stroke="#0A0A0B" stroke-width="1.20"/><g data-face="top-content" transform="matrix(0.8660 0.5000 -0.8660 0.5000 69.00 24.00)"><text x="25.98" y="25.98" dy=".35em" font-family="Inter, system-ui, sans-serif" font-size="12.00" font-weight="700" fill="#1F1F2A" text-anchor="middle">{ }</text></g></g></g><g data-part="15" transform="translate(757.06 442.02)"><g data-face="wrap"><path data-face="side-left" d="M 24.00 49.98 L 24.00 89.98 A 45.00 25.98 0 0 0 69.00 115.96 L 69.00 75.96 A 45.00 25.98 0 0 0 24.00 49.98 Z" fill="#5C8F2B" stroke="none"/><path data-face="side-right" d="M 114.00 49.98 L 114.00 89.98 A 45.00 25.98 0 0 1 69.00 115.96 L 69.00 75.96 A 45.00 25.98 0 0 1 114.00 49.98 Z" fill="#7AAE3F" stroke="none"/><path data-face="outline" d="M 24.00 49.98 L 24.00 89.98 A 45.00 25.98 0 0 0 114.00 89.98 L 114.00 49.98" fill="none" stroke="#0A0A0B" stroke-width="1.20" stroke-linejoin="round" stroke-linecap="round"/><ellipse data-face="top" cx="69.00" cy="49.98" rx="45.00" ry="25.98" fill="#FFFFFF" stroke="#0A0A0B" stroke-width="1.20"/><g data-face="top-content" transform="matrix(0.8660 0.5000 -0.8660 0.5000 69.00 24.00)"><text x="25.98" y="25.98" dy=".35em" font-family="Inter, system-ui, sans-serif" font-size="12.00" font-weight="700" fill="#1F1F2A" text-anchor="middle">{ }</text></g></g></g><g data-part="16" transform="translate(757.06 436.02)"><g data-face="wrap"><path data-face="side-left" d="M 24.00 49.98 L 24.00 89.98 A 45.00 25.98 0 0 0 69.00 115.96 L 69.00 75.96 A 45.00 25.98 0 0 0 24.00 49.98 Z" fill="#5C8F2B" stroke="none"/><path data-face="side-right" d="M 114.00 49.98 L 114.00 89.98 A 45.00 25.98 0 0 1 69.00 115.96 L 69.00 75.96 A 45.00 25.98 0 0 1 114.00 49.98 Z" fill="#7AAE3F" stroke="none"/><path data-face="outline" d="M 24.00 49.98 L 24.00 89.98 A 45.00 25.98 0 0 0 114.00 89.98 L 114.00 49.98" fill="none" stroke="#0A0A0B" stroke-width="1.20" stroke-linejoin="round" stroke-linecap="round"/><ellipse data-face="top" cx="69.00" cy="49.98" rx="45.00" ry="25.98" fill="#FFFFFF" stroke="#0A0A0B" stroke-width="1.20"/><g data-face="top-content" transform="matrix(0.8660 0.5000 -0.8660 0.5000 69.00 24.00)"><text x="25.98" y="25.98" dy=".35em" font-family="Inter, system-ui, sans-serif" font-size="12.00" font-weight="700" fill="#1F1F2A" text-anchor="middle">{ }</text></g></g></g><g data-part="17" transform="translate(757.06 430.02)"><g data-face="wrap"><path data-face="side-left" d="M 24.00 49.98 L 24.00 89.98 A 45.00 25.98 0 0 0 69.00 115.96 L 69.00 75.96 A 45.00 25.98 0 0 0 24.00 49.98 Z" fill="#5C8F2B" stroke="none"/><path data-face="side-right" d="M 114.00 49.98 L 114.00 89.98 A 45.00 25.98 0 0 1 69.00 115.96 L 69.00 75.96 A 45.00 25.98 0 0 1 114.00 49.98 Z" fill="#7AAE3F" stroke="none"/><path data-face="outline" d="M 24.00 49.98 L 24.00 89.98 A 45.00 25.98 0 0 0 114.00 89.98 L 114.00 49.98" fill="none" stroke="#0A0A0B" stroke-width="1.20" stroke-linejoin="round" stroke-linecap="round"/><ellipse data-face="top" cx="69.00" cy="49.98" rx="45.00" ry="25.98" fill="#FFFFFF" stroke="#0A0A0B" stroke-width="1.20"/><g data-face="top-content" transform="matrix(0.8660 0.5000 -0.8660 0.5000 69.00 24.00)"><text x="25.98" y="25.98" dy=".35em" font-family="Inter, system-ui, sans-serif" font-size="12.00" font-weight="700" fill="#1F1F2A" text-anchor="middle">{ }</text></g></g></g><g data-part="18" transform="translate(618.50 592.02)"><g data-face="wrap"><path data-face="side-left" d="M 24.00 49.98 L 24.00 89.98 A 45.00 25.98 0 0 0 69.00 115.96 L 69.00 75.96 A 45.00 25.98 0 0 0 24.00 49.98 Z" fill="#5C8F2B" stroke="none"/><path data-face="side-right" d="M 114.00 49.98 L 114.00 89.98 A 45.00 25.98 0 0 1 69.00 115.96 L 69.00 75.96 A 45.00 25.98 0 0 1 114.00 49.98 Z" fill="#7AAE3F" stroke="none"/><path data-face="outline" d="M 24.00 49.98 L 24.00 89.98 A 45.00 25.98 0 0 0 114.00 89.98 L 114.00 49.98" fill="none" stroke="#0A0A0B" stroke-width="1.20" stroke-linejoin="round" stroke-linecap="round"/><ellipse data-face="top" cx="69.00" cy="49.98" rx="45.00" ry="25.98" fill="#FFFFFF" stroke="#0A0A0B" stroke-width="1.20"/><g data-face="top-content" transform="matrix(0.8660 0.5000 -0.8660 0.5000 69.00 24.00)"><text x="25.98" y="25.98" dy=".35em" font-family="Inter, system-ui, sans-serif" font-size="12.00" font-weight="700" fill="#1F1F2A" text-anchor="middle">{ }</text></g></g></g><g data-part="19" transform="translate(618.50 586.02)"><g data-face="wrap"><path data-face="side-left" d="M 24.00 49.98 L 24.00 89.98 A 45.00 25.98 0 0 0 69.00 115.96 L 69.00 75.96 A 45.00 25.98 0 0 0 24.00 49.98 Z" fill="#5C8F2B" stroke="none"/><path data-face="side-right" d="M 114.00 49.98 L 114.00 89.98 A 45.00 25.98 0 0 1 69.00 115.96 L 69.00 75.96 A 45.00 25.98 0 0 1 114.00 49.98 Z" fill="#7AAE3F" stroke="none"/><path data-face="outline" d="M 24.00 49.98 L 24.00 89.98 A 45.00 25.98 0 0 0 114.00 89.98 L 114.00 49.98" fill="none" stroke="#0A0A0B" stroke-width="1.20" stroke-linejoin="round" stroke-linecap="round"/><ellipse data-face="top" cx="69.00" cy="49.98" rx="45.00" ry="25.98" fill="#FFFFFF" stroke="#0A0A0B" stroke-width="1.20"/><g data-face="top-content" transform="matrix(0.8660 0.5000 -0.8660 0.5000 69.00 24.00)"><text x="25.98" y="25.98" dy=".35em" font-family="Inter, system-ui, sans-serif" font-size="12.00" font-weight="700" fill="#1F1F2A" text-anchor="middle">{ }</text></g></g></g><g data-part="20" transform="translate(618.50 580.02)"><g data-face="wrap"><path data-face="side-left" d="M 24.00 49.98 L 24.00 89.98 A 45.00 25.98 0 0 0 69.00 115.96 L 69.00 75.96 A 45.00 25.98 0 0 0 24.00 49.98 Z" fill="#5C8F2B" stroke="none"/><path data-face="side-right" d="M 114.00 49.98 L 114.00 89.98 A 45.00 25.98 0 0 1 69.00 115.96 L 69.00 75.96 A 45.00 25.98 0 0 1 114.00 49.98 Z" fill="#7AAE3F" stroke="none"/><path data-face="outline" d="M 24.00 49.98 L 24.00 89.98 A 45.00 25.98 0 0 0 114.00 89.98 L 114.00 49.98" fill="none" stroke="#0A0A0B" stroke-width="1.20" stroke-linejoin="round" stroke-linecap="round"/><ellipse data-face="top" cx="69.00" cy="49.98" rx="45.00" ry="25.98" fill="#FFFFFF" stroke="#0A0A0B" stroke-width="1.20"/><g data-face="top-content" transform="matrix(0.8660 0.5000 -0.8660 0.5000 69.00 24.00)"><text x="25.98" y="25.98" dy=".35em" font-family="Inter, system-ui, sans-serif" font-size="12.00" font-weight="700" fill="#1F1F2A" text-anchor="middle">{ }</text></g></g></g><g data-layer="annotations" font-family="Inter, sans-serif"><line x1="297.79" y1="62.00" x2="297.79" y2="2.00" stroke="#3F3F46" stroke-width="1" stroke-dasharray="3 3"/><rect x="214.71" y="-48.00" width="166.16" height="50.00" rx="6" ry="6" fill="#1F1F23" stroke="#3F3F46" stroke-width="1"/><text x="297.79" y="-25.00" font-size="14.00" fill="#E4E4E7" text-anchor="middle">Region edge cache</text><text x="297.79" y="-10.00" font-size="14.00" fill="#E4E4E7" text-anchor="middle">p95 latency &lt;100ms</text><line x1="852.04" y1="337.00" x2="852.04" y2="287.00" stroke="#3F3F46" stroke-width="1" stroke-dasharray="3 3"/><rect x="744.60" y="237.00" width="214.88" height="50.00" rx="6" ry="6" fill="#1F1F23" stroke="#3F3F46" stroke-width="1"/><text x="852.04" y="260.00" font-size="14.00" fill="#E4E4E7" text-anchor="middle">Asynchronous replication</text><text x="852.04" y="275.00" font-size="14.00" fill="#E4E4E7" text-anchor="middle">across regions</text><line x1="687.50" y1="642.00" x2="737.50" y2="642.00" stroke="#3F3F46" stroke-width="1" stroke-dasharray="3 3"/><rect x="737.50" y="617.00" width="223.00" height="50.00" rx="6" ry="6" fill="#1F1F23" stroke="#3F3F46" stroke-width="1"/><text x="849.00" y="640.00" font-size="14.00" fill="#E4E4E7" text-anchor="middle">Multi-region architecture</text><text x="849.00" y="655.00" font-size="14.00" fill="#E4E4E7" text-anchor="middle">99.99% uptime SLA</text></g></svg>