<svg xmlns="http://www.w3.org/2000/svg" xmlns:xlink="http://www.w3.org/1999/xlink" viewBox="0.00 -56.00 1120.05 769.98" width="1120.05" height="769.98"><defs><pattern id="bg-grid" patternUnits="userSpaceOnUse" width="69.28" height="40.00"><rect width="69.28" height="40.00" fill="#0A0A0B"/><path d="M 34.64,0 L 69.28,20.00 L 34.64,40.00 L 0,20.00 Z" fill="none" stroke="#1A1A1D" stroke-width="1"/></pattern></defs><rect data-layer="canvas-bg" x="0.00" y="-56.00" width="1120.05" height="769.98" fill="url(#bg-grid)"/><g data-layer="connectors"><path data-connector="" d="M 96.00,216.00 L 116.79,228.00 L 123.72,232.00 L 286.53,138.00 L 265.75,126.00" fill="none" stroke="#A8D45F" stroke-width="1.80" stroke-linecap="round" stroke-linejoin="round"/><polygon points="265.75,126.00 274.45,126.52 270.55,133.28" fill="#A8D45F"/><path data-connector="" d="M 258.82,155.00 L 279.60,167.00 L 529.02,311.00 L 498.71,328.50 L 477.92,316.50" fill="none" stroke="#A8D45F" stroke-width="1.80" stroke-linecap="round" stroke-linejoin="round"/><polygon points="477.92,316.50 486.63,317.02 482.73,323.78" fill="#A8D45F"/><path data-connector="" d="M 83.88,256.00 L 104.66,268.00 L 354.08,412.00 L 308.18,438.50 L 287.40,426.50" fill="none" stroke="#A8D45F" stroke-width="1.80" stroke-linecap="round" stroke-linejoin="round"/><polygon points="287.40,426.50 296.10,427.02 292.20,433.78" fill="#A8D45F"/><path data-connector="" d="M 470.99,305.50 Q 650.90,405.77 839.05,322.00" fill="none" stroke="#FFFFFF" stroke-width="1.20" stroke-linecap="round" stroke-linejoin="round" stroke-dasharray="3 4"/><polygon points="839.05,322.00 833.94,328.22 831.01,321.64" fill="#FFFFFF"/><path data-connector="" d="M 839.05,322.00 Q 804.05,392.00 839.05,462.00" fill="none" stroke="#FFFFFF" stroke-width="1.20" stroke-linecap="round" stroke-linejoin="round" stroke-dasharray="3 4"/><polygon points="839.05,462.00 832.61,457.17 839.05,453.95" fill="#FFFFFF"/><path data-connector="" d="M 839.05,462.00 Q 801.55,537.00 839.05,612.00" fill="none" stroke="#FFFFFF" stroke-width="1.20" stroke-linecap="round" stroke-linejoin="round" stroke-dasharray="3 4"/><polygon points="839.05,612.00 832.61,607.17 839.05,603.95" fill="#FFFFFF"/><path data-connector="" d="M 280.47,415.50 Q 510.64,653.40 839.05,612.00" fill="none" stroke="#FFFFFF" stroke-width="1.20" stroke-linecap="round" stroke-linejoin="round" stroke-dasharray="3 4"/><polygon points="839.05,612.00 832.36,616.47 831.46,609.33" fill="#FFFFFF"/></g><g data-part="0" transform="translate(-12.00 110.50)"><defs><filter id="p0-rounded-shadow" x="-50%" y="-50%" width="200%" height="200%"><feGaussianBlur in="SourceAlpha" stdDeviation="12.00"/><feOffset dx="0.00" dy="8.00" result="offsetblur"/><feFlood flood-color="rgba(168,212,95,0.25)"/><feComposite in2="offsetblur" operator="in"/><feMerge><feMergeNode/><feMergeNode in="SourceGraphic"/></feMerge></filter><linearGradient id="p0-rounded-side" x1="50%" y1="0%" x2="50%" y2="100%"><stop offset="0%" stop-color="#7AAE3F"/><stop offset="100%" stop-color="#5C8F2B"/></linearGradient></defs><g data-face="wrap" filter="url(#p0-rounded-shadow)"><path data-face="side" d="M 175.83,67.83 L 175.78,68.20 L 175.66,68.56 L 175.45,68.91 L 175.17,69.24 L 174.81,69.55 L 174.39,69.83 L 170.45,72.11 L 166.50,74.38 L 162.56,76.66 L 158.61,78.94 L 154.67,81.22 L 150.72,83.50 L 146.77,85.77 L 142.83,88.05 L 138.88,90.33 L 134.94,92.61 L 130.99,94.88 L 127.05,97.16 L 123.10,99.44 L 119.16,101.72 L 115.21,104.00 L 111.27,106.27 L 107.32,108.55 L 103.38,110.83 L 102.90,111.07 L 102.36,111.28 L 101.79,111.44 L 101.18,111.56 L 100.55,111.63 L 99.91,111.66 L 99.27,111.63 L 98.65,111.56 L 98.04,111.44 L 97.46,111.28 L 96.93,111.07 L 96.45,110.83 L 92.50,108.55 L 88.56,106.27 L 84.61,104.00 L 80.67,101.72 L 76.72,99.44 L 72.78,97.16 L 68.83,94.88 L 64.89,92.61 L 60.94,90.33 L 57.00,88.05 L 53.05,85.77 L 49.11,83.50 L 45.16,81.22 L 41.22,78.94 L 37.27,76.66 L 33.33,74.38 L 29.38,72.11 L 25.43,69.83 L 25.01,69.55 L 24.66,69.24 L 24.37,68.91 L 24.17,68.56 L 24.04,68.20 L 24.04,148.20 L 24.17,148.56 L 24.37,148.91 L 24.66,149.24 L 25.01,149.55 L 25.43,149.83 L 29.38,152.11 L 33.33,154.38 L 37.27,156.66 L 41.22,158.94 L 45.16,161.22 L 49.11,163.50 L 53.05,165.77 L 57.00,168.05 L 60.94,170.33 L 64.89,172.61 L 68.83,174.88 L 72.78,177.16 L 76.72,179.44 L 80.67,181.72 L 84.61,184.00 L 88.56,186.27 L 92.50,188.55 L 96.45,190.83 L 96.93,191.07 L 97.46,191.28 L 98.04,191.44 L 98.65,191.56 L 99.27,191.63 L 99.91,191.66 L 100.55,191.63 L 101.18,191.56 L 101.79,191.44 L 102.36,191.28 L 102.90,191.07 L 103.38,190.83 L 107.32,188.55 L 111.27,186.27 L 115.21,184.00 L 119.16,181.72 L 123.10,179.44 L 127.05,177.16 L 130.99,174.88 L 134.94,172.61 L 138.88,170.33 L 142.83,168.05 L 146.77,165.77 L 150.72,163.50 L 154.67,161.22 L 158.61,158.94 L 162.56,156.66 L 166.50,154.38 L 170.45,152.11 L 174.39,149.83 L 174.81,149.55 L 175.17,149.24 L 175.45,148.91 L 175.66,148.56 L 175.78,148.20 L 175.83,147.83 Z" fill="url(#p0-rounded-side)" stroke="none"/><path data-face="top" d="M 103.38,24.83 L 107.32,27.11 L 111.27,29.38 L 115.21,31.66 L 119.16,33.94 L 123.10,36.22 L 127.05,38.50 L 130.99,40.77 L 134.94,43.05 L 138.88,45.33 L 142.83,47.61 L 146.77,49.88 L 150.72,52.16 L 154.67,54.44 L 158.61,56.72 L 162.56,59.00 L 166.50,61.27 L 170.45,63.55 L 174.39,65.83 L 174.81,66.11 L 175.17,66.41 L 175.45,66.75 L 175.66,67.10 L 175.78,67.46 L 175.83,67.83 L 175.78,68.20 L 175.66,68.56 L 175.45,68.91 L 175.17,69.24 L 174.81,69.55 L 174.39,69.83 L 170.45,72.11 L 166.50,74.38 L 162.56,76.66 L 158.61,78.94 L 154.67,81.22 L 150.72,83.50 L 146.77,85.77 L 142.83,88.05 L 138.88,90.33 L 134.94,92.61 L 130.99,94.88 L 127.05,97.16 L 123.10,99.44 L 119.16,101.72 L 115.21,104.00 L 111.27,106.27 L 107.32,108.55 L 103.38,110.83 L 102.90,111.07 L 102.36,111.28 L 101.79,111.44 L 101.18,111.56 L 100.55,111.63 L 99.91,111.66 L 99.27,111.63 L 98.65,111.56 L 98.04,111.44 L 97.46,111.28 L 96.93,111.07 L 96.45,110.83 L 92.50,108.55 L 88.56,106.27 L 84.61,104.00 L 80.67,101.72 L 76.72,99.44 L 72.78,97.16 L 68.83,94.88 L 64.89,92.61 L 60.94,90.33 L 57.00,88.05 L 53.05,85.77 L 49.11,83.50 L 45.16,81.22 L 41.22,78.94 L 37.27,76.66 L 33.33,74.38 L 29.38,72.11 L 25.43,69.83 L 25.01,69.55 L 24.66,69.24 L 24.37,68.91 L 24.17,68.56 L 24.04,68.20 L 24.00,67.83 L 24.04,67.46 L 24.17,67.10 L 24.37,66.75 L 24.66,66.41 L 25.01,66.11 L 25.43,65.83 L 29.38,63.55 L 33.33,61.27 L 37.27,59.00 L 41.22,56.72 L 45.16,54.44 L 49.11,52.16 L 53.05,49.88 L 57.00,47.61 L 60.94,45.33 L 64.89,43.05 L 68.83,40.77 L 72.78,38.50 L 76.72,36.22 L 80.67,33.94 L 84.61,31.66 L 88.56,29.38 L 92.50,27.11 L 96.45,24.83 L 96.93,24.58 L 97.46,24.38 L 98.04,24.22 L 98.65,24.10 L 99.27,24.02 L 99.91,24.00 L 100.55,24.02 L 101.18,24.10 L 101.79,24.22 L 102.36,24.38 L 102.90,24.58 L 103.38,24.83 Z" fill="#FFFFFF" stroke="#0A0A0B" stroke-width="1.30" stroke-linejoin="round"/><path data-face="silhouette" d="M 175.83,67.83 L 175.83,147.83 L 175.78,148.20 L 175.66,148.56 L 175.45,148.91 L 175.17,149.24 L 174.81,149.55 L 174.39,149.83 L 170.45,152.11 L 166.50,154.38 L 162.56,156.66 L 158.61,158.94 L 154.67,161.22 L 150.72,163.50 L 146.77,165.77 L 142.83,168.05 L 138.88,170.33 L 134.94,172.61 L 130.99,174.88 L 127.05,177.16 L 123.10,179.44 L 119.16,181.72 L 115.21,184.00 L 111.27,186.27 L 107.32,188.55 L 103.38,190.83 L 102.90,191.07 L 102.36,191.28 L 101.79,191.44 L 101.18,191.56 L 100.55,191.63 L 99.91,191.66 L 99.27,191.63 L 98.65,191.56 L 98.04,191.44 L 97.46,191.28 L 96.93,191.07 L 96.45,190.83 L 92.50,188.55 L 88.56,186.27 L 84.61,184.00 L 80.67,181.72 L 76.72,179.44 L 72.78,177.16 L 68.83,174.88 L 64.89,172.61 L 60.94,170.33 L 57.00,168.05 L 53.05,165.77 L 49.11,163.50 L 45.16,161.22 L 41.22,158.94 L 37.27,156.66 L 33.33,154.38 L 29.38,152.11 L 25.43,149.83 L 25.01,149.55 L 24.66,149.24 L 24.37,148.91 L 24.17,148.56 L 24.04,148.20 L 24.04,68.20" fill="none" stroke="#0A0A0B" stroke-width="1.30" stroke-linejoin="round" stroke-linecap="round"/><g data-face="top-content" transform="matrix(0.8660 0.5000 -0.8660 0.5000 99.91 22.83)"><text x="45.00" y="45.00" dy=".35em" font-family="Inter, system-ui, sans-serif" font-size="11.00" font-weight="700" fill="#1F1F2A" text-anchor="middle">Your App</text></g></g></g><g data-part="1" transform="translate(184.82 38.00)"><g data-face="wrap"><defs><radialGradient id="p1-sphere-grad" cx="35%" cy="30%" r="75%"><stop offset="0%" stop-color="#A8D45F"/><stop offset="100%" stop-color="#5C8F2B"/></radialGradient></defs><circle data-face="sphere" cx="74.00" cy="74.00" r="50.00" fill="url(#p1-sphere-grad)" stroke="#0A0A0B" stroke-width="1.20"/><text x="74.00" y="74.00" font-family="Inter, system-ui, sans-serif" font-size="11.00" font-weight="700" fill="#FFFFFF" text-anchor="middle" dy=".35em">CDN</text></g></g><g data-part="2" transform="translate(226.16 154.00)"><defs><linearGradient id="p2-rounded-side" x1="50%" y1="0%" x2="50%" y2="100%"><stop offset="0%" stop-color="#17171B"/><stop offset="100%" stop-color="#0F0F12"/></linearGradient></defs><g data-face="wrap"><path data-face="side" d="M 451.47,189.90 L 451.32,191.19 L 450.88,192.46 L 450.16,193.69 L 449.17,194.85 L 447.93,195.93 L 446.45,196.90 L 439.61,200.84 L 432.78,204.79 L 425.95,208.73 L 419.12,212.68 L 412.29,216.62 L 405.45,220.57 L 398.62,224.51 L 391.79,228.46 L 384.96,232.40 L 378.13,236.34 L 371.29,240.29 L 364.46,244.23 L 357.63,248.18 L 350.80,252.12 L 343.97,256.07 L 337.13,260.01 L 330.30,263.96 L 323.47,267.90 L 321.78,268.75 L 319.92,269.47 L 317.91,270.05 L 315.78,270.46 L 313.58,270.71 L 311.35,270.80 L 309.11,270.71 L 306.91,270.46 L 304.78,270.05 L 302.77,269.47 L 300.91,268.75 L 299.22,267.90 L 284.21,259.23 L 269.20,250.57 L 254.19,241.90 L 239.18,233.23 L 224.17,224.57 L 209.16,215.90 L 194.14,207.23 L 179.13,198.57 L 164.12,189.90 L 149.11,181.23 L 134.10,172.57 L 119.09,163.90 L 104.08,155.23 L 89.07,146.57 L 74.06,137.90 L 59.04,129.23 L 44.03,120.57 L 29.02,111.90 L 27.54,110.93 L 26.30,109.85 L 25.31,108.69 L 24.58,107.46 L 24.15,106.19 L 24.15,120.19 L 24.58,121.46 L 25.31,122.69 L 26.30,123.85 L 27.54,124.93 L 29.02,125.90 L 44.03,134.57 L 59.04,143.23 L 74.06,151.90 L 89.07,160.57 L 104.08,169.23 L 119.09,177.90 L 134.10,186.57 L 149.11,195.23 L 164.12,203.90 L 179.13,212.57 L 194.14,221.23 L 209.16,229.90 L 224.17,238.57 L 239.18,247.23 L 254.19,255.90 L 269.20,264.57 L 284.21,273.23 L 299.22,281.90 L 300.91,282.75 L 302.77,283.47 L 304.78,284.05 L 306.91,284.46 L 309.11,284.71 L 311.35,284.80 L 313.58,284.71 L 315.78,284.46 L 317.91,284.05 L 319.92,283.47 L 321.78,282.75 L 323.47,281.90 L 330.30,277.96 L 337.13,274.01 L 343.97,270.07 L 350.80,266.12 L 357.63,262.18 L 364.46,258.23 L 371.29,254.29 L 378.13,250.34 L 384.96,246.40 L 391.79,242.46 L 398.62,238.51 L 405.45,234.57 L 412.29,230.62 L 419.12,226.68 L 425.95,222.73 L 432.78,218.79 L 439.61,214.84 L 446.45,210.90 L 447.93,209.93 L 449.17,208.85 L 450.16,207.69 L 450.88,206.46 L 451.32,205.19 L 451.47,203.90 Z" fill="url(#p2-rounded-side)" stroke="none"/><path data-face="top" d="M 176.25,26.90 L 191.26,35.57 L 206.27,44.23 L 221.28,52.90 L 236.29,61.57 L 251.30,70.23 L 266.31,78.90 L 281.32,87.57 L 296.34,96.23 L 311.35,104.90 L 326.36,113.57 L 341.37,122.23 L 356.38,130.90 L 371.39,139.57 L 386.40,148.23 L 401.41,156.90 L 416.42,165.57 L 431.44,174.23 L 446.45,182.90 L 447.93,183.87 L 449.17,184.95 L 450.16,186.11 L 450.88,187.34 L 451.32,188.61 L 451.47,189.90 L 451.32,191.19 L 450.88,192.46 L 450.16,193.69 L 449.17,194.85 L 447.93,195.93 L 446.45,196.90 L 439.61,200.84 L 432.78,204.79 L 425.95,208.73 L 419.12,212.68 L 412.29,216.62 L 405.45,220.57 L 398.62,224.51 L 391.79,228.46 L 384.96,232.40 L 378.13,236.34 L 371.29,240.29 L 364.46,244.23 L 357.63,248.18 L 350.80,252.12 L 343.97,256.07 L 337.13,260.01 L 330.30,263.96 L 323.47,267.90 L 321.78,268.75 L 319.92,269.47 L 317.91,270.05 L 315.78,270.46 L 313.58,270.71 L 311.35,270.80 L 309.11,270.71 L 306.91,270.46 L 304.78,270.05 L 302.77,269.47 L 300.91,268.75 L 299.22,267.90 L 284.21,259.23 L 269.20,250.57 L 254.19,241.90 L 239.18,233.23 L 224.17,224.57 L 209.16,215.90 L 194.14,207.23 L 179.13,198.57 L 164.12,189.90 L 149.11,181.23 L 134.10,172.57 L 119.09,163.90 L 104.08,155.23 L 89.07,146.57 L 74.06,137.90 L 59.04,129.23 L 44.03,120.57 L 29.02,111.90 L 27.54,110.93 L 26.30,109.85 L 25.31,108.69 L 24.58,107.46 L 24.15,106.19 L 24.00,104.90 L 24.15,103.61 L 24.58,102.34 L 25.31,101.11 L 26.30,99.95 L 27.54,98.87 L 29.02,97.90 L 35.85,93.96 L 42.69,90.01 L 49.52,86.07 L 56.35,82.12 L 63.18,78.18 L 70.01,74.23 L 76.85,70.29 L 83.68,66.34 L 90.51,62.40 L 97.34,58.46 L 104.17,54.51 L 111.01,50.57 L 117.84,46.62 L 124.67,42.68 L 131.50,38.73 L 138.33,34.79 L 145.17,30.84 L 152.00,26.90 L 153.68,26.05 L 155.55,25.33 L 157.56,24.75 L 159.68,24.34 L 161.88,24.08 L 164.12,24.00 L 166.36,24.08 L 168.56,24.34 L 170.68,24.75 L 172.70,25.33 L 174.56,26.05 L 176.25,26.90 Z" fill="#1F1F23" stroke="#27272A" stroke-width="1.00" stroke-linejoin="round"/><path data-face="silhouette" d="M 451.47,189.90 L 451.47,203.90 L 451.32,205.19 L 450.88,206.46 L 450.16,207.69 L 449.17,208.85 L 447.93,209.93 L 446.45,210.90 L 439.61,214.84 L 432.78,218.79 L 425.95,222.73 L 419.12,226.68 L 412.29,230.62 L 405.45,234.57 L 398.62,238.51 L 391.79,242.46 L 384.96,246.40 L 378.13,250.34 L 371.29,254.29 L 364.46,258.23 L 357.63,262.18 L 350.80,266.12 L 343.97,270.07 L 337.13,274.01 L 330.30,277.96 L 323.47,281.90 L 321.78,282.75 L 319.92,283.47 L 317.91,284.05 L 315.78,284.46 L 313.58,284.71 L 311.35,284.80 L 309.11,284.71 L 306.91,284.46 L 304.78,284.05 L 302.77,283.47 L 300.91,282.75 L 299.22,281.90 L 284.21,273.23 L 269.20,264.57 L 254.19,255.90 L 239.18,247.23 L 224.17,238.57 L 209.16,229.90 L 194.14,221.23 L 179.13,212.57 L 164.12,203.90 L 149.11,195.23 L 134.10,186.57 L 119.09,177.90 L 104.08,169.23 L 89.07,160.57 L 74.06,151.90 L 59.04,143.23 L 44.03,134.57 L 29.02,125.90 L 27.54,124.93 L 26.30,123.85 L 25.31,122.69 L 24.58,121.46 L 24.15,120.19 L 24.15,106.19" fill="none" stroke="#27272A" stroke-width="1.00" stroke-linejoin="round" stroke-linecap="round"/><g data-face="top-content" transform="matrix(0.8660 0.5000 -0.8660 0.5000 164.12 19.90)"><text x="170.00" y="85.00" dy=".35em" font-family="Inter, system-ui, sans-serif" font-size="10.00" font-weight="500" fill="#A1A1AA" text-anchor="middle">Region A</text></g></g></g><g data-part="3" transform="translate(325.66 199.60)"><g data-face="wrap"><polygon data-face="side" points="239.27,101.67 238.23,105.60 235.83,109.72 232.14,113.89 227.31,117.93 221.52,121.69 215.66,125.07 209.80,128.45 203.94,131.84 198.08,135.22 192.22,138.60 186.36,141.99 184.23,142.93 181.75,143.53 179.09,143.73 176.42,143.53 173.94,142.93 171.81,141.99 162.76,136.76 153.71,131.54 144.66,126.31 135.61,121.09 126.56,115.86 117.51,110.64 108.46,105.41 99.41,100.19 90.36,94.96 81.31,89.74 72.26,84.51 63.21,79.29 54.16,74.06 45.11,68.84 36.06,63.61 27.01,58.39 25.38,57.16 24.35,55.73 24.00,54.19 24.00,78.19 24.35,79.73 25.38,81.16 27.01,82.39 36.06,87.61 45.11,92.84 54.16,98.06 63.21,103.29 72.26,108.51 81.31,113.74 90.36,118.96 99.41,124.19 108.46,129.41 117.51,134.64 126.56,139.86 135.61,145.09 144.66,150.31 153.71,155.54 162.76,160.76 171.81,165.99 173.94,166.93 176.42,167.53 179.09,167.73 181.75,167.53 184.23,166.93 186.36,165.99 192.22,162.60 198.08,159.22 203.94,155.84 209.80,152.45 215.66,149.07 221.52,145.69 227.31,141.93 232.14,137.89 235.83,133.72 238.23,129.60 239.27,125.67" fill="#5C8F2B" stroke="none"/><path data-face="outline" d="M 239.27 101.67 L 239.27 125.67 L 238.23 129.60 L 235.83 133.72 L 232.14 137.89 L 227.31 141.93 L 221.52 145.69 L 215.66 149.07 L 209.80 152.45 L 203.94 155.84 L 198.08 159.22 L 192.22 162.60 L 186.36 165.99 L 184.23 166.93 L 181.75 167.53 L 179.09 167.73 L 176.42 167.53 L 173.94 166.93 L 171.81 165.99 L 162.76 160.76 L 153.71 155.54 L 144.66 150.31 L 135.61 145.09 L 126.56 139.86 L 117.51 134.64 L 108.46 129.41 L 99.41 124.19 L 90.36 118.96 L 81.31 113.74 L 72.26 108.51 L 63.21 103.29 L 54.16 98.06 L 45.11 92.84 L 36.06 87.61 L 27.01 82.39 L 25.38 81.16 L 24.35 79.73 L 24.00 78.19 L 24.00 54.19" fill="none" stroke="#0A0A0B" stroke-width="1.20" stroke-linejoin="round" stroke-linecap="round"/><path data-face="top" d="M 62.17 29.69 L 66.80 27.44 L 71.98 25.70 L 77.51 24.54 L 83.19 24.00 L 88.79 24.10 L 94.10 24.84 L 98.91 26.18 L 103.05 28.09 L 106.35 30.48 L 108.68 33.26 L 109.96 36.32 L 110.13 39.56 L 109.19 42.83 L 107.18 46.03 L 104.17 49.02 L 100.28 51.69 L 111.49 46.14 L 123.86 41.73 L 136.92 38.62 L 150.18 36.94 L 163.11 36.74 L 175.23 38.05 L 186.06 40.80 L 195.20 44.89 L 202.28 50.16 L 207.04 56.42 L 209.30 63.41 L 208.96 70.88 L 206.05 78.53 L 200.67 86.07 L 193.03 93.22 L 183.42 99.69 L 189.93 96.35 L 196.93 93.56 L 204.14 91.43 L 211.29 90.04 L 218.10 89.44 L 224.30 89.66 L 229.67 90.69 L 233.99 92.49 L 237.10 94.98 L 238.88 98.08 L 239.27 101.67 L 238.23 105.60 L 235.83 109.72 L 232.14 113.89 L 227.31 117.93 L 221.52 121.69 L 215.66 125.07 L 209.80 128.45 L 203.94 131.84 L 198.08 135.22 L 192.22 138.60 L 186.36 141.99 L 184.23 142.93 L 181.75 143.53 L 179.09 143.73 L 176.42 143.53 L 173.94 142.93 L 171.81 141.99 L 162.76 136.76 L 153.71 131.54 L 144.66 126.31 L 135.61 121.09 L 126.56 115.86 L 117.51 110.64 L 108.46 105.41 L 99.41 100.19 L 90.36 94.96 L 81.31 89.74 L 72.26 84.51 L 63.21 79.29 L 54.16 74.06 L 45.11 68.84 L 36.06 63.61 L 27.01 58.39 L 25.38 57.16 L 24.35 55.73 L 24.00 54.19 L 24.35 52.65 L 25.38 51.22 L 27.01 49.99 L 32.87 46.60 L 38.73 43.22 L 44.59 39.84 L 50.45 36.45 L 56.31 33.07 L 62.17 29.69 Z" fill="#FFFFFF" stroke="#0A0A0B" stroke-width="1.20" stroke-linejoin="round"/><g data-face="top-content" transform="matrix(0.8660 0.5000 -0.8660 0.5000 115.87 -9.31)"><text x="100.00" y="70.00" dy=".35em" font-family="Inter, system-ui, sans-serif" font-size="10.00" font-weight="700" fill="#1F1F2A" text-anchor="middle">API</text></g></g></g><g data-part="4" transform="translate(475.61 262.02)"><g data-face="wrap"><path data-face="side-left" d="M 24.00 49.98 L 24.00 85.98 A 45.00 25.98 0 0 0 69.00 111.96 L 69.00 75.96 A 45.00 25.98 0 0 0 24.00 49.98 Z" fill="#5C8F2B" stroke="none"/><path data-face="side-right" d="M 114.00 49.98 L 114.00 85.98 A 45.00 25.98 0 0 1 69.00 111.96 L 69.00 75.96 A 45.00 25.98 0 0 1 114.00 49.98 Z" fill="#7AAE3F" stroke="none"/><path data-face="outline" d="M 24.00 49.98 L 24.00 85.98 A 45.00 25.98 0 0 0 114.00 85.98 L 114.00 49.98" fill="none" stroke="#0A0A0B" stroke-width="1.20" stroke-linejoin="round" stroke-linecap="round"/><ellipse data-face="top" cx="69.00" cy="49.98" rx="45.00" ry="25.98" fill="#FFFFFF" stroke="#0A0A0B" stroke-width="1.20"/><g data-face="top-content" transform="matrix(0.8660 0.5000 -0.8660 0.5000 69.00 24.00)"><text x="25.98" y="25.98" dy=".35em" font-family="Inter, system-ui, sans-serif" font-size="12.00" font-weight="700" fill="#1F1F2A" text-anchor="middle">{ }</text></g></g></g><g data-part="5" transform="translate(475.61 256.02)"><g data-face="wrap"><path data-face="side-left" d="M 24.00 49.98 L 24.00 85.98 A 45.00 25.98 0 0 0 69.00 111.96 L 69.00 75.96 A 45.00 25.98 0 0 0 24.00 49.98 Z" fill="#5C8F2B" stroke="none"/><path data-face="side-right" d="M 114.00 49.98 L 114.00 85.98 A 45.00 25.98 0 0 1 69.00 111.96 L 69.00 75.96 A 45.00 25.98 0 0 1 114.00 49.98 Z" fill="#7AAE3F" stroke="none"/><path data-face="outline" d="M 24.00 49.98 L 24.00 85.98 A 45.00 25.98 0 0 0 114.00 85.98 L 114.00 49.98" fill="none" stroke="#0A0A0B" stroke-width="1.20" stroke-linejoin="round" stroke-linecap="round"/><ellipse data-face="top" cx="69.00" cy="49.98" rx="45.00" ry="25.98" fill="#FFFFFF" stroke="#0A0A0B" stroke-width="1.20"/><g data-face="top-content" transform="matrix(0.8660 0.5000 -0.8660 0.5000 69.00 24.00)"><text x="25.98" y="25.98" dy=".35em" font-family="Inter, system-ui, sans-serif" font-size="12.00" font-weight="700" fill="#1F1F2A" text-anchor="middle">{ }</text></g></g></g><g data-part="6" transform="translate(475.61 250.02)"><g data-face="wrap"><path data-face="side-left" d="M 24.00 49.98 L 24.00 85.98 A 45.00 25.98 0 0 0 69.00 111.96 L 69.00 75.96 A 45.00 25.98 0 0 0 24.00 49.98 Z" fill="#5C8F2B" stroke="none"/><path data-face="side-right" d="M 114.00 49.98 L 114.00 85.98 A 45.00 25.98 0 0 1 69.00 111.96 L 69.00 75.96 A 45.00 25.98 0 0 1 114.00 49.98 Z" fill="#7AAE3F" stroke="none"/><path data-face="outline" d="M 24.00 49.98 L 24.00 85.98 A 45.00 25.98 0 0 0 114.00 85.98 L 114.00 49.98" fill="none" stroke="#0A0A0B" stroke-width="1.20" stroke-linejoin="round" stroke-linecap="round"/><ellipse data-face="top" cx="69.00" cy="49.98" rx="45.00" ry="25.98" fill="#FFFFFF" stroke="#0A0A0B" stroke-width="1.20"/><g data-face="top-content" transform="matrix(0.8660 0.5000 -0.8660 0.5000 69.00 24.00)"><text x="25.98" y="25.98" dy=".35em" font-family="Inter, system-ui, sans-serif" font-size="12.00" font-weight="700" fill="#1F1F2A" text-anchor="middle">{ }</text></g></g></g><g data-part="7" transform="translate(35.63 264.00)"><defs><linearGradient id="p7-rounded-side" x1="50%" y1="0%" x2="50%" y2="100%"><stop offset="0%" stop-color="#17171B"/><stop offset="100%" stop-color="#0F0F12"/></linearGradient></defs><g data-face="wrap"><path data-face="side" d="M 451.47,189.90 L 451.32,191.19 L 450.88,192.46 L 450.16,193.69 L 449.17,194.85 L 447.93,195.93 L 446.45,196.90 L 439.61,200.84 L 432.78,204.79 L 425.95,208.73 L 419.12,212.68 L 412.29,216.62 L 405.45,220.57 L 398.62,224.51 L 391.79,228.46 L 384.96,232.40 L 378.13,236.34 L 371.29,240.29 L 364.46,244.23 L 357.63,248.18 L 350.80,252.12 L 343.97,256.07 L 337.13,260.01 L 330.30,263.96 L 323.47,267.90 L 321.78,268.75 L 319.92,269.47 L 317.91,270.05 L 315.78,270.46 L 313.58,270.71 L 311.35,270.80 L 309.11,270.71 L 306.91,270.46 L 304.78,270.05 L 302.77,269.47 L 300.91,268.75 L 299.22,267.90 L 284.21,259.23 L 269.20,250.57 L 254.19,241.90 L 239.18,233.23 L 224.17,224.57 L 209.16,215.90 L 194.14,207.23 L 179.13,198.57 L 164.12,189.90 L 149.11,181.23 L 134.10,172.57 L 119.09,163.90 L 104.08,155.23 L 89.07,146.57 L 74.06,137.90 L 59.04,129.23 L 44.03,120.57 L 29.02,111.90 L 27.54,110.93 L 26.30,109.85 L 25.31,108.69 L 24.58,107.46 L 24.15,106.19 L 24.15,120.19 L 24.58,121.46 L 25.31,122.69 L 26.30,123.85 L 27.54,124.93 L 29.02,125.90 L 44.03,134.57 L 59.04,143.23 L 74.06,151.90 L 89.07,160.57 L 104.08,169.23 L 119.09,177.90 L 134.10,186.57 L 149.11,195.23 L 164.12,203.90 L 179.13,212.57 L 194.14,221.23 L 209.16,229.90 L 224.17,238.57 L 239.18,247.23 L 254.19,255.90 L 269.20,264.57 L 284.21,273.23 L 299.22,281.90 L 300.91,282.75 L 302.77,283.47 L 304.78,284.05 L 306.91,284.46 L 309.11,284.71 L 311.35,284.80 L 313.58,284.71 L 315.78,284.46 L 317.91,284.05 L 319.92,283.47 L 321.78,282.75 L 323.47,281.90 L 330.30,277.96 L 337.13,274.01 L 343.97,270.07 L 350.80,266.12 L 357.63,262.18 L 364.46,258.23 L 371.29,254.29 L 378.13,250.34 L 384.96,246.40 L 391.79,242.46 L 398.62,238.51 L 405.45,234.57 L 412.29,230.62 L 419.12,226.68 L 425.95,222.73 L 432.78,218.79 L 439.61,214.84 L 446.45,210.90 L 447.93,209.93 L 449.17,208.85 L 450.16,207.69 L 450.88,206.46 L 451.32,205.19 L 451.47,203.90 Z" fill="url(#p7-rounded-side)" stroke="none"/><path data-face="top" d="M 176.25,26.90 L 191.26,35.57 L 206.27,44.23 L 221.28,52.90 L 236.29,61.57 L 251.30,70.23 L 266.31,78.90 L 281.32,87.57 L 296.34,96.23 L 311.35,104.90 L 326.36,113.57 L 341.37,122.23 L 356.38,130.90 L 371.39,139.57 L 386.40,148.23 L 401.41,156.90 L 416.42,165.57 L 431.44,174.23 L 446.45,182.90 L 447.93,183.87 L 449.17,184.95 L 450.16,186.11 L 450.88,187.34 L 451.32,188.61 L 451.47,189.90 L 451.32,191.19 L 450.88,192.46 L 450.16,193.69 L 449.17,194.85 L 447.93,195.93 L 446.45,196.90 L 439.61,200.84 L 432.78,204.79 L 425.95,208.73 L 419.12,212.68 L 412.29,216.62 L 405.45,220.57 L 398.62,224.51 L 391.79,228.46 L 384.96,232.40 L 378.13,236.34 L 371.29,240.29 L 364.46,244.23 L 357.63,248.18 L 350.80,252.12 L 343.97,256.07 L 337.13,260.01 L 330.30,263.96 L 323.47,267.90 L 321.78,268.75 L 319.92,269.47 L 317.91,270.05 L 315.78,270.46 L 313.58,270.71 L 311.35,270.80 L 309.11,270.71 L 306.91,270.46 L 304.78,270.05 L 302.77,269.47 L 300.91,268.75 L 299.22,267.90 L 284.21,259.23 L 269.20,250.57 L 254.19,241.90 L 239.18,233.23 L 224.17,224.57 L 209.16,215.90 L 194.14,207.23 L 179.13,198.57 L 164.12,189.90 L 149.11,181.23 L 134.10,172.57 L 119.09,163.90 L 104.08,155.23 L 89.07,146.57 L 74.06,137.90 L 59.04,129.23 L 44.03,120.57 L 29.02,111.90 L 27.54,110.93 L 26.30,109.85 L 25.31,108.69 L 24.58,107.46 L 24.15,106.19 L 24.00,104.90 L 24.15,103.61 L 24.58,102.34 L 25.31,101.11 L 26.30,99.95 L 27.54,98.87 L 29.02,97.90 L 35.85,93.96 L 42.69,90.01 L 49.52,86.07 L 56.35,82.12 L 63.18,78.18 L 70.01,74.23 L 76.85,70.29 L 83.68,66.34 L 90.51,62.40 L 97.34,58.46 L 104.17,54.51 L 111.01,50.57 L 117.84,46.62 L 124.67,42.68 L 131.50,38.73 L 138.33,34.79 L 145.17,30.84 L 152.00,26.90 L 153.68,26.05 L 155.55,25.33 L 157.56,24.75 L 159.68,24.34 L 161.88,24.08 L 164.12,24.00 L 166.36,24.08 L 168.56,24.34 L 170.68,24.75 L 172.70,25.33 L 174.56,26.05 L 176.25,26.90 Z" fill="#1F1F23" stroke="#27272A" stroke-width="1.00" stroke-linejoin="round"/><path data-face="silhouette" d="M 451.47,189.90 L 451.47,203.90 L 451.32,205.19 L 450.88,206.46 L 450.16,207.69 L 449.17,208.85 L 447.93,209.93 L 446.45,210.90 L 439.61,214.84 L 432.78,218.79 L 425.95,222.73 L 419.12,226.68 L 412.29,230.62 L 405.45,234.57 L 398.62,238.51 L 391.79,242.46 L 384.96,246.40 L 378.13,250.34 L 371.29,254.29 L 364.46,258.23 L 357.63,262.18 L 350.80,266.12 L 343.97,270.07 L 337.13,274.01 L 330.30,277.96 L 323.47,281.90 L 321.78,282.75 L 319.92,283.47 L 317.91,284.05 L 315.78,284.46 L 313.58,284.71 L 311.35,284.80 L 309.11,284.71 L 306.91,284.46 L 304.78,284.05 L 302.77,283.47 L 300.91,282.75 L 299.22,281.90 L 284.21,273.23 L 269.20,264.57 L 254.19,255.90 L 239.18,247.23 L 224.17,238.57 L 209.16,229.90 L 194.14,221.23 L 179.13,212.57 L 164.12,203.90 L 149.11,195.23 L 134.10,186.57 L 119.09,177.90 L 104.08,169.23 L 89.07,160.57 L 74.06,151.90 L 59.04,143.23 L 44.03,134.57 L 29.02,125.90 L 27.54,124.93 L 26.30,123.85 L 25.31,122.69 L 24.58,121.46 L 24.15,120.19 L 24.15,106.19" fill="none" stroke="#27272A" stroke-width="1.00" stroke-linejoin="round" stroke-linecap="round"/><g data-face="top-content" transform="matrix(0.8660 0.5000 -0.8660 0.5000 164.12 19.90)"><text x="170.00" y="85.00" dy=".35em" font-family="Inter, system-ui, sans-serif" font-size="10.00" font-weight="500" fill="#A1A1AA" text-anchor="middle">Region B</text></g></g></g><g data-part="8" transform="translate(135.14 309.60)"><g data-face="wrap"><polygon data-face="side" points="239.27,101.67 238.23,105.60 235.83,109.72 232.14,113.89 227.31,117.93 221.52,121.69 215.66,125.07 209.80,128.45 203.94,131.84 198.08,135.22 192.22,138.60 186.36,141.99 184.23,142.93 181.75,143.53 179.09,143.73 176.42,143.53 173.94,142.93 171.81,141.99 162.76,136.76 153.71,131.54 144.66,126.31 135.61,121.09 126.56,115.86 117.51,110.64 108.46,105.41 99.41,100.19 90.36,94.96 81.31,89.74 72.26,84.51 63.21,79.29 54.16,74.06 45.11,68.84 36.06,63.61 27.01,58.39 25.38,57.16 24.35,55.73 24.00,54.19 24.00,78.19 24.35,79.73 25.38,81.16 27.01,82.39 36.06,87.61 45.11,92.84 54.16,98.06 63.21,103.29 72.26,108.51 81.31,113.74 90.36,118.96 99.41,124.19 108.46,129.41 117.51,134.64 126.56,139.86 135.61,145.09 144.66,150.31 153.71,155.54 162.76,160.76 171.81,165.99 173.94,166.93 176.42,167.53 179.09,167.73 181.75,167.53 184.23,166.93 186.36,165.99 192.22,162.60 198.08,159.22 203.94,155.84 209.80,152.45 215.66,149.07 221.52,145.69 227.31,141.93 232.14,137.89 235.83,133.72 238.23,129.60 239.27,125.67" fill="#5C8F2B" stroke="none"/><path data-face="outline" d="M 239.27 101.67 L 239.27 125.67 L 238.23 129.60 L 235.83 133.72 L 232.14 137.89 L 227.31 141.93 L 221.52 145.69 L 215.66 149.07 L 209.80 152.45 L 203.94 155.84 L 198.08 159.22 L 192.22 162.60 L 186.36 165.99 L 184.23 166.93 L 181.75 167.53 L 179.09 167.73 L 176.42 167.53 L 173.94 166.93 L 171.81 165.99 L 162.76 160.76 L 153.71 155.54 L 144.66 150.31 L 135.61 145.09 L 126.56 139.86 L 117.51 134.64 L 108.46 129.41 L 99.41 124.19 L 90.36 118.96 L 81.31 113.74 L 72.26 108.51 L 63.21 103.29 L 54.16 98.06 L 45.11 92.84 L 36.06 87.61 L 27.01 82.39 L 25.38 81.16 L 24.35 79.73 L 24.00 78.19 L 24.00 54.19" fill="none" stroke="#0A0A0B" stroke-width="1.20" stroke-linejoin="round" stroke-linecap="round"/><path data-face="top" d="M 62.17 29.69 L 66.80 27.44 L 71.98 25.70 L 77.51 24.54 L 83.19 24.00 L 88.79 24.10 L 94.10 24.84 L 98.91 26.18 L 103.05 28.09 L 106.35 30.48 L 108.68 33.26 L 109.96 36.32 L 110.13 39.56 L 109.19 42.83 L 107.18 46.03 L 104.17 49.02 L 100.28 51.69 L 111.49 46.14 L 123.86 41.73 L 136.92 38.62 L 150.18 36.94 L 163.11 36.74 L 175.23 38.05 L 186.06 40.80 L 195.20 44.89 L 202.28 50.16 L 207.04 56.42 L 209.30 63.41 L 208.96 70.88 L 206.05 78.53 L 200.67 86.07 L 193.03 93.22 L 183.42 99.69 L 189.93 96.35 L 196.93 93.56 L 204.14 91.43 L 211.29 90.04 L 218.10 89.44 L 224.30 89.66 L 229.67 90.69 L 233.99 92.49 L 237.10 94.98 L 238.88 98.08 L 239.27 101.67 L 238.23 105.60 L 235.83 109.72 L 232.14 113.89 L 227.31 117.93 L 221.52 121.69 L 215.66 125.07 L 209.80 128.45 L 203.94 131.84 L 198.08 135.22 L 192.22 138.60 L 186.36 141.99 L 184.23 142.93 L 181.75 143.53 L 179.09 143.73 L 176.42 143.53 L 173.94 142.93 L 171.81 141.99 L 162.76 136.76 L 153.71 131.54 L 144.66 126.31 L 135.61 121.09 L 126.56 115.86 L 117.51 110.64 L 108.46 105.41 L 99.41 100.19 L 90.36 94.96 L 81.31 89.74 L 72.26 84.51 L 63.21 79.29 L 54.16 74.06 L 45.11 68.84 L 36.06 63.61 L 27.01 58.39 L 25.38 57.16 L 24.35 55.73 L 24.00 54.19 L 24.35 52.65 L 25.38 51.22 L 27.01 49.99 L 32.87 46.60 L 38.73 43.22 L 44.59 39.84 L 50.45 36.45 L 56.31 33.07 L 62.17 29.69 Z" fill="#FFFFFF" stroke="#0A0A0B" stroke-width="1.20" stroke-linejoin="round"/><g data-face="top-content" transform="matrix(0.8660 0.5000 -0.8660 0.5000 115.87 -9.31)"><text x="100.00" y="70.00" dy=".35em" font-family="Inter, system-ui, sans-serif" font-size="10.00" font-weight="700" fill="#1F1F2A" text-anchor="middle">API</text></g></g></g><g data-part="9" transform="translate(285.08 372.02)"><g data-face="wrap"><path data-face="side-left" d="M 24.00 49.98 L 24.00 85.98 A 45.00 25.98 0 0 0 69.00 111.96 L 69.00 75.96 A 45.00 25.98 0 0 0 24.00 49.98 Z" fill="#5C8F2B" stroke="none"/><path data-face="side-right" d="M 114.00 49.98 L 114.00 85.98 A 45.00 25.98 0 0 1 69.00 111.96 L 69.00 75.96 A 45.00 25.98 0 0 1 114.00 49.98 Z" fill="#7AAE3F" stroke="none"/><path data-face="outline" d="M 24.00 49.98 L 24.00 85.98 A 45.00 25.98 0 0 0 114.00 85.98 L 114.00 49.98" fill="none" stroke="#0A0A0B" stroke-width="1.20" stroke-linejoin="round" stroke-linecap="round"/><ellipse data-face="top" cx="69.00" cy="49.98" rx="45.00" ry="25.98" fill="#FFFFFF" stroke="#0A0A0B" stroke-width="1.20"/><g data-face="top-content" transform="matrix(0.8660 0.5000 -0.8660 0.5000 69.00 24.00)"><text x="25.98" y="25.98" dy=".35em" font-family="Inter, system-ui, sans-serif" font-size="12.00" font-weight="700" fill="#1F1F2A" text-anchor="middle">{ }</text></g></g></g><g data-part="10" transform="translate(285.08 366.02)"><g data-face="wrap"><path data-face="side-left" d="M 24.00 49.98 L 24.00 85.98 A 45.00 25.98 0 0 0 69.00 111.96 L 69.00 75.96 A 45.00 25.98 0 0 0 24.00 49.98 Z" fill="#5C8F2B" stroke="none"/><path data-face="side-right" d="M 114.00 49.98 L 114.00 85.98 A 45.00 25.98 0 0 1 69.00 111.96 L 69.00 75.96 A 45.00 25.98 0 0 1 114.00 49.98 Z" fill="#7AAE3F" stroke="none"/><path data-face="outline" d="M 24.00 49.98 L 24.00 85.98 A 45.00 25.98 0 0 0 114.00 85.98 L 114.00 49.98" fill="none" stroke="#0A0A0B" stroke-width="1.20" stroke-linejoin="round" stroke-linecap="round"/><ellipse data-face="top" cx="69.00" cy="49.98" rx="45.00" ry="25.98" fill="#FFFFFF" stroke="#0A0A0B" stroke-width="1.20"/><g data-face="top-content" transform="matrix(0.8660 0.5000 -0.8660 0.5000 69.00 24.00)"><text x="25.98" y="25.98" dy=".35em" font-family="Inter, system-ui, sans-serif" font-size="12.00" font-weight="700" fill="#1F1F2A" text-anchor="middle">{ }</text></g></g></g><g data-part="11" transform="translate(285.08 360.02)"><g data-face="wrap"><path data-face="side-left" d="M 24.00 49.98 L 24.00 85.98 A 45.00 25.98 0 0 0 69.00 111.96 L 69.00 75.96 A 45.00 25.98 0 0 0 24.00 49.98 Z" fill="#5C8F2B" stroke="none"/><path data-face="side-right" d="M 114.00 49.98 L 114.00 85.98 A 45.00 25.98 0 0 1 69.00 111.96 L 69.00 75.96 A 45.00 25.98 0 0 1 114.00 49.98 Z" fill="#7AAE3F" stroke="none"/><path data-face="outline" d="M 24.00 49.98 L 24.00 85.98 A 45.00 25.98 0 0 0 114.00 85.98 L 114.00 49.98" fill="none" stroke="#0A0A0B" stroke-width="1.20" stroke-linejoin="round" stroke-linecap="round"/><ellipse data-face="top" cx="69.00" cy="49.98" rx="45.00" ry="25.98" fill="#FFFFFF" stroke="#0A0A0B" stroke-width="1.20"/><g data-face="top-content" transform="matrix(0.8660 0.5000 -0.8660 0.5000 69.00 24.00)"><text x="25.98" y="25.98" dy=".35em" font-family="Inter, system-ui, sans-serif" font-size="12.00" font-weight="700" fill="#1F1F2A" text-anchor="middle">{ }</text></g></g></g><g data-part="12" transform="translate(770.05 272.02)"><g data-face="wrap"><path data-face="side-left" d="M 24.00 49.98 L 24.00 89.98 A 45.00 25.98 0 0 0 69.00 115.96 L 69.00 75.96 A 45.00 25.98 0 0 0 24.00 49.98 Z" fill="#5C8F2B" stroke="none"/><path data-face="side-right" d="M 114.00 49.98 L 114.00 89.98 A 45.00 25.98 0 0 1 69.00 115.96 L 69.00 75.96 A 45.00 25.98 0 0 1 114.00 49.98 Z" fill="#7AAE3F" stroke="none"/><path data-face="outline" d="M 24.00 49.98 L 24.00 89.98 A 45.00 25.98 0 0 0 114.00 89.98 L 114.00 49.98" fill="none" stroke="#0A0A0B" stroke-width="1.20" stroke-linejoin="round" stroke-linecap="round"/><ellipse data-face="top" cx="69.00" cy="49.98" rx="45.00" ry="25.98" fill="#FFFFFF" stroke="#0A0A0B" stroke-width="1.20"/><g data-face="top-content" transform="matrix(0.8660 0.5000 -0.8660 0.5000 69.00 24.00)"><text x="25.98" y="25.98" dy=".35em" font-family="Inter, system-ui, sans-serif" font-size="12.00" font-weight="700" fill="#1F1F2A" text-anchor="middle">{ }</text></g></g></g><g data-part="13" transform="translate(770.05 266.02)"><g data-face="wrap"><path data-face="side-left" d="M 24.00 49.98 L 24.00 89.98 A 45.00 25.98 0 0 0 69.00 115.96 L 69.00 75.96 A 45.00 25.98 0 0 0 24.00 49.98 Z" fill="#5C8F2B" stroke="none"/><path data-face="side-right" d="M 114.00 49.98 L 114.00 89.98 A 45.00 25.98 0 0 1 69.00 115.96 L 69.00 75.96 A 45.00 25.98 0 0 1 114.00 49.98 Z" fill="#7AAE3F" stroke="none"/><path data-face="outline" d="M 24.00 49.98 L 24.00 89.98 A 45.00 25.98 0 0 0 114.00 89.98 L 114.00 49.98" fill="none" stroke="#0A0A0B" stroke-width="1.20" stroke-linejoin="round" stroke-linecap="round"/><ellipse data-face="top" cx="69.00" cy="49.98" rx="45.00" ry="25.98" fill="#FFFFFF" stroke="#0A0A0B" stroke-width="1.20"/><g data-face="top-content" transform="matrix(0.8660 0.5000 -0.8660 0.5000 69.00 24.00)"><text x="25.98" y="25.98" dy=".35em" font-family="Inter, system-ui, sans-serif" font-size="12.00" font-weight="700" fill="#1F1F2A" text-anchor="middle">{ }</text></g></g></g><g data-part="14" transform="translate(770.05 260.02)"><g data-face="wrap"><path data-face="side-left" d="M 24.00 49.98 L 24.00 89.98 A 45.00 25.98 0 0 0 69.00 115.96 L 69.00 75.96 A 45.00 25.98 0 0 0 24.00 49.98 Z" fill="#5C8F2B" stroke="none"/><path data-face="side-right" d="M 114.00 49.98 L 114.00 89.98 A 45.00 25.98 0 0 1 69.00 115.96 L 69.00 75.96 A 45.00 25.98 0 0 1 114.00 49.98 Z" fill="#7AAE3F" stroke="none"/><path data-face="outline" d="M 24.00 49.98 L 24.00 89.98 A 45.00 25.98 0 0 0 114.00 89.98 L 114.00 49.98" fill="none" stroke="#0A0A0B" stroke-width="1.20" stroke-linejoin="round" stroke-linecap="round"/><ellipse data-face="top" cx="69.00" cy="49.98" rx="45.00" ry="25.98" fill="#FFFFFF" stroke="#0A0A0B" stroke-width="1.20"/><g data-face="top-content" transform="matrix(0.8660 0.5000 -0.8660 0.5000 69.00 24.00)"><text x="25.98" y="25.98" dy=".35em" font-family="Inter, system-ui, sans-serif" font-size="12.00" font-weight="700" fill="#1F1F2A" text-anchor="middle">{ }</text></g></g></g><g data-part="15" transform="translate(770.05 412.02)"><g data-face="wrap"><path data-face="side-left" d="M 24.00 49.98 L 24.00 89.98 A 45.00 25.98 0 0 0 69.00 115.96 L 69.00 75.96 A 45.00 25.98 0 0 0 24.00 49.98 Z" fill="#5C8F2B" stroke="none"/><path data-face="side-right" d="M 114.00 49.98 L 114.00 89.98 A 45.00 25.98 0 0 1 69.00 115.96 L 69.00 75.96 A 45.00 25.98 0 0 1 114.00 49.98 Z" fill="#7AAE3F" stroke="none"/><path data-face="outline" d="M 24.00 49.98 L 24.00 89.98 A 45.00 25.98 0 0 0 114.00 89.98 L 114.00 49.98" fill="none" stroke="#0A0A0B" stroke-width="1.20" stroke-linejoin="round" stroke-linecap="round"/><ellipse data-face="top" cx="69.00" cy="49.98" rx="45.00" ry="25.98" fill="#FFFFFF" stroke="#0A0A0B" stroke-width="1.20"/><g data-face="top-content" transform="matrix(0.8660 0.5000 -0.8660 0.5000 69.00 24.00)"><text x="25.98" y="25.98" dy=".35em" font-family="Inter, system-ui, sans-serif" font-size="12.00" font-weight="700" fill="#1F1F2A" text-anchor="middle">{ }</text></g></g></g><g data-part="16" transform="translate(770.05 406.02)"><g data-face="wrap"><path data-face="side-left" d="M 24.00 49.98 L 24.00 89.98 A 45.00 25.98 0 0 0 69.00 115.96 L 69.00 75.96 A 45.00 25.98 0 0 0 24.00 49.98 Z" fill="#5C8F2B" stroke="none"/><path data-face="side-right" d="M 114.00 49.98 L 114.00 89.98 A 45.00 25.98 0 0 1 69.00 115.96 L 69.00 75.96 A 45.00 25.98 0 0 1 114.00 49.98 Z" fill="#7AAE3F" stroke="none"/><path data-face="outline" d="M 24.00 49.98 L 24.00 89.98 A 45.00 25.98 0 0 0 114.00 89.98 L 114.00 49.98" fill="none" stroke="#0A0A0B" stroke-width="1.20" stroke-linejoin="round" stroke-linecap="round"/><ellipse data-face="top" cx="69.00" cy="49.98" rx="45.00" ry="25.98" fill="#FFFFFF" stroke="#0A0A0B" stroke-width="1.20"/><g data-face="top-content" transform="matrix(0.8660 0.5000 -0.8660 0.5000 69.00 24.00)"><text x="25.98" y="25.98" dy=".35em" font-family="Inter, system-ui, sans-serif" font-size="12.00" font-weight="700" fill="#1F1F2A" text-anchor="middle">{ }</text></g></g></g><g data-part="17" transform="translate(770.05 400.02)"><g data-face="wrap"><path data-face="side-left" d="M 24.00 49.98 L 24.00 89.98 A 45.00 25.98 0 0 0 69.00 115.96 L 69.00 75.96 A 45.00 25.98 0 0 0 24.00 49.98 Z" fill="#5C8F2B" stroke="none"/><path data-face="side-right" d="M 114.00 49.98 L 114.00 89.98 A 45.00 25.98 0 0 1 69.00 115.96 L 69.00 75.96 A 45.00 25.98 0 0 1 114.00 49.98 Z" fill="#7AAE3F" stroke="none"/><path data-face="outline" d="M 24.00 49.98 L 24.00 89.98 A 45.00 25.98 0 0 0 114.00 89.98 L 114.00 49.98" fill="none" stroke="#0A0A0B" stroke-width="1.20" stroke-linejoin="round" stroke-linecap="round"/><ellipse data-face="top" cx="69.00" cy="49.98" rx="45.00" ry="25.98" fill="#FFFFFF" stroke="#0A0A0B" stroke-width="1.20"/><g data-face="top-content" transform="matrix(0.8660 0.5000 -0.8660 0.5000 69.00 24.00)"><text x="25.98" y="25.98" dy=".35em" font-family="Inter, system-ui, sans-serif" font-size="12.00" font-weight="700" fill="#1F1F2A" text-anchor="middle">{ }</text></g></g></g><g data-part="18" transform="translate(770.05 562.02)"><g data-face="wrap"><path data-face="side-left" d="M 24.00 49.98 L 24.00 89.98 A 45.00 25.98 0 0 0 69.00 115.96 L 69.00 75.96 A 45.00 25.98 0 0 0 24.00 49.98 Z" fill="#5C8F2B" stroke="none"/><path data-face="side-right" d="M 114.00 49.98 L 114.00 89.98 A 45.00 25.98 0 0 1 69.00 115.96 L 69.00 75.96 A 45.00 25.98 0 0 1 114.00 49.98 Z" fill="#7AAE3F" stroke="none"/><path data-face="outline" d="M 24.00 49.98 L 24.00 89.98 A 45.00 25.98 0 0 0 114.00 89.98 L 114.00 49.98" fill="none" stroke="#0A0A0B" stroke-width="1.20" stroke-linejoin="round" stroke-linecap="round"/><ellipse data-face="top" cx="69.00" cy="49.98" rx="45.00" ry="25.98" fill="#FFFFFF" stroke="#0A0A0B" stroke-width="1.20"/><g data-face="top-content" transform="matrix(0.8660 0.5000 -0.8660 0.5000 69.00 24.00)"><text x="25.98" y="25.98" dy=".35em" font-family="Inter, system-ui, sans-serif" font-size="12.00" font-weight="700" fill="#1F1F2A" text-anchor="middle">{ }</text></g></g></g><g data-part="19" transform="translate(770.05 556.02)"><g data-face="wrap"><path data-face="side-left" d="M 24.00 49.98 L 24.00 89.98 A 45.00 25.98 0 0 0 69.00 115.96 L 69.00 75.96 A 45.00 25.98 0 0 0 24.00 49.98 Z" fill="#5C8F2B" stroke="none"/><path data-face="side-right" d="M 114.00 49.98 L 114.00 89.98 A 45.00 25.98 0 0 1 69.00 115.96 L 69.00 75.96 A 45.00 25.98 0 0 1 114.00 49.98 Z" fill="#7AAE3F" stroke="none"/><path data-face="outline" d="M 24.00 49.98 L 24.00 89.98 A 45.00 25.98 0 0 0 114.00 89.98 L 114.00 49.98" fill="none" stroke="#0A0A0B" stroke-width="1.20" stroke-linejoin="round" stroke-linecap="round"/><ellipse data-face="top" cx="69.00" cy="49.98" rx="45.00" ry="25.98" fill="#FFFFFF" stroke="#0A0A0B" stroke-width="1.20"/><g data-face="top-content" transform="matrix(0.8660 0.5000 -0.8660 0.5000 69.00 24.00)"><text x="25.98" y="25.98" dy=".35em" font-family="Inter, system-ui, sans-serif" font-size="12.00" font-weight="700" fill="#1F1F2A" text-anchor="middle">{ }</text></g></g></g><g data-part="20" transform="translate(770.05 550.02)"><g data-face="wrap"><path data-face="side-left" d="M 24.00 49.98 L 24.00 89.98 A 45.00 25.98 0 0 0 69.00 115.96 L 69.00 75.96 A 45.00 25.98 0 0 0 24.00 49.98 Z" fill="#5C8F2B" stroke="none"/><path data-face="side-right" d="M 114.00 49.98 L 114.00 89.98 A 45.00 25.98 0 0 1 69.00 115.96 L 69.00 75.96 A 45.00 25.98 0 0 1 114.00 49.98 Z" fill="#7AAE3F" stroke="none"/><path data-face="outline" d="M 24.00 49.98 L 24.00 89.98 A 45.00 25.98 0 0 0 114.00 89.98 L 114.00 49.98" fill="none" stroke="#0A0A0B" stroke-width="1.20" stroke-linejoin="round" stroke-linecap="round"/><ellipse data-face="top" cx="69.00" cy="49.98" rx="45.00" ry="25.98" fill="#FFFFFF" stroke="#0A0A0B" stroke-width="1.20"/><g data-face="top-content" transform="matrix(0.8660 0.5000 -0.8660 0.5000 69.00 24.00)"><text x="25.98" y="25.98" dy=".35em" font-family="Inter, system-ui, sans-serif" font-size="12.00" font-weight="700" fill="#1F1F2A" text-anchor="middle">{ }</text></g></g></g><g data-layer="annotations" font-family="Inter, sans-serif"><line x1="258.82" y1="62.00" x2="258.82" y2="2.00" stroke="#3F3F46" stroke-width="1" stroke-dasharray="3 3"/><rect x="175.74" y="-48.00" width="166.16" height="50.00" rx="6" ry="6" fill="#1F1F23" stroke="#3F3F46" stroke-width="1"/><text x="258.82" y="-25.00" font-size="14.00" fill="#E4E4E7" text-anchor="middle">Region edge cache</text><text x="258.82" y="-10.00" font-size="14.00" fill="#E4E4E7" text-anchor="middle">p95 latency &lt;100ms</text><line x1="839.05" y1="322.00" x2="839.05" y2="272.00" stroke="#3F3F46" stroke-width="1" stroke-dasharray="3 3"/><rect x="731.61" y="222.00" width="214.88" height="50.00" rx="6" ry="6" fill="#1F1F23" stroke="#3F3F46" stroke-width="1"/><text x="839.05" y="245.00" font-size="14.00" fill="#E4E4E7" text-anchor="middle">Asynchronous replication</text><text x="839.05" y="260.00" font-size="14.00" fill="#E4E4E7" text-anchor="middle">across regions</text><line x1="839.05" y1="612.00" x2="889.05" y2="612.00" stroke="#3F3F46" stroke-width="1" stroke-dasharray="3 3"/><rect x="889.05" y="587.00" width="223.00" height="50.00" rx="6" ry="6" fill="#1F1F23" stroke="#3F3F46" stroke-width="1"/><text x="1000.55" y="610.00" font-size="14.00" fill="#E4E4E7" text-anchor="middle">Multi-region architecture</text><text x="1000.55" y="625.00" font-size="14.00" fill="#E4E4E7" text-anchor="middle">99.99% uptime SLA</text></g></svg>