<svg xmlns="http://www.w3.org/2000/svg" xmlns:xlink="http://www.w3.org/1999/xlink" viewBox="0 0 307.81 278.00" width="308" height="278"><defs><filter id="rev-backglow" x="-50%" y="-50%" width="200%" height="200%"><feGaussianBlur in="SourceGraphic" stdDeviation="32.00"/><feComponentTransfer><feFuncA type="linear" slope="0.40"/></feComponentTransfer></filter></defs><path data-face="backglow" d="M 97.65 146.52 L 97.83 142.62 L 98.35 138.92 L 99.21 135.42 L 100.41 132.11 L 101.94 129.00 L 103.78 126.06 L 105.94 123.31 L 108.40 120.73 L 111.13 118.31 L 114.13 116.04 L 117.37 113.91 L 120.84 111.91 L 124.51 110.03 L 128.37 108.26 L 132.38 106.57 L 136.52 104.96 L 140.77 103.42 L 145.10 101.92 L 149.49 100.45 L 153.90 99.00 L 156.45 101.53 L 158.98 104.07 L 161.49 106.62 L 163.94 109.21 L 166.33 111.82 L 168.65 114.49 L 170.87 117.20 L 172.99 119.98 L 175.00 122.82 L 176.87 125.74 L 178.60 128.74 L 180.18 131.83 L 199.41 173.27 L 201.86 178.69 L 204.02 183.94 L 205.87 189.00 L 207.40 193.89 L 208.60 198.58 L 209.46 203.08 L 209.98 207.38 L 210.15 211.48 L 121.43 197.75 Z" fill="#3B82F6" stroke="none" filter="url(#rev-backglow)"/><g data-face="wrap"><polygon data-face="band19" points="152.58,100.16 153.57,100.36 154.57,100.67 155.54,101.06 156.45,101.53 157.26,102.05 157.95,102.62 158.47,103.19 158.83,103.76 158.99,104.30 158.96,104.79 158.73,105.21 158.32,105.55 157.74,105.79 157.01,105.92 156.16,105.94 155.22,105.84 153.90,99.00 153.90,99.00 153.90,99.00 153.90,99.00 153.90,99.00 153.90,99.00 153.90,99.00 153.90,99.00 153.90,99.00 153.90,99.00 153.90,99.00 153.90,99.00 153.90,99.00 153.90,99.00 153.90,99.00 153.90,99.00 153.90,99.00" fill="#1E40AF" stroke="#1E3A8A" stroke-width="1.50" stroke-linejoin="round" stroke-linecap="round"/><polygon data-face="band18" points="151.27,101.33 153.24,101.74 155.23,102.35 157.17,103.13 158.98,104.07 160.60,105.11 161.96,106.23 163.02,107.38 163.72,108.52 164.04,109.59 163.98,110.57 163.53,111.41 162.70,112.08 161.54,112.55 160.09,112.82 158.40,112.85 156.53,112.67 155.22,105.84 156.16,105.94 157.01,105.92 157.74,105.79 158.32,105.55 158.73,105.21 158.96,104.79 158.99,104.30 158.83,103.76 158.47,103.19 157.95,102.62 157.26,102.05 156.45,101.53 155.54,101.06 154.57,100.67 153.57,100.36 152.58,100.16" fill="#1E40AF" stroke="#1E3A8A" stroke-width="1.50" stroke-linejoin="round" stroke-linecap="round"/><polygon data-face="band17" points="149.98,102.54 152.91,103.15 155.88,104.05 158.78,105.23 161.49,106.62 163.90,108.19 165.93,109.86 167.50,111.57 168.55,113.27 169.03,114.87 168.94,116.33 168.26,117.58 167.04,118.58 165.30,119.29 163.13,119.68 160.61,119.74 157.83,119.46 156.53,112.67 158.40,112.85 160.09,112.82 161.54,112.55 162.70,112.08 163.53,111.41 163.98,110.57 164.04,109.59 163.72,108.52 163.02,107.38 161.96,106.23 160.60,105.11 158.98,104.07 157.17,103.13 155.23,102.35 153.24,101.74 151.27,101.33" fill="#1E40AF" stroke="#1E3A8A" stroke-width="1.50" stroke-linejoin="round" stroke-linecap="round"/><polygon data-face="band16" points="148.71,103.81 152.59,104.61 156.52,105.81 160.36,107.36 163.94,109.21 167.14,111.28 169.83,113.49 171.91,115.76 173.29,118.00 173.93,120.13 173.80,122.05 172.91,123.71 171.29,125.04 168.99,125.97 166.12,126.49 162.78,126.56 159.10,126.19 157.83,119.46 160.61,119.74 163.13,119.68 165.30,119.29 167.04,118.58 168.26,117.58 168.94,116.33 169.03,114.87 168.55,113.27 167.50,111.57 165.93,109.86 163.90,108.19 161.49,106.62 158.78,105.23 155.88,104.05 152.91,103.15 149.98,102.54" fill="#1E40AF" stroke="#1E3A8A" stroke-width="1.50" stroke-linejoin="round" stroke-linecap="round"/><polygon data-face="band15" points="147.47,105.14 152.28,106.13 157.15,107.61 161.89,109.54 166.33,111.82 170.29,114.39 173.62,117.13 176.20,119.94 177.91,122.71 178.71,125.35 178.55,127.74 177.44,129.79 175.43,131.43 172.59,132.59 169.04,133.23 164.90,133.32 160.34,132.86 159.10,126.19 162.78,126.56 166.12,126.49 168.99,125.97 171.29,125.04 172.91,123.71 173.80,122.05 173.93,120.13 173.29,118.00 171.91,115.76 169.83,113.49 167.14,111.28 163.94,109.21 160.36,107.36 156.52,105.81 152.59,104.61 148.71,103.81" fill="#1E40AF" stroke="#1E3A8A" stroke-width="1.50" stroke-linejoin="round" stroke-linecap="round"/><polygon data-face="band14" points="146.27,106.56 151.98,107.73 157.75,109.49 163.38,111.77 168.65,114.49 173.35,117.53 177.30,120.78 180.35,124.11 182.39,127.41 183.33,130.53 183.14,133.36 181.83,135.80 179.44,137.74 176.07,139.12 171.85,139.88 166.95,139.99 161.54,139.44 160.34,132.86 164.90,133.32 169.04,133.23 172.59,132.59 175.43,131.43 177.44,129.79 178.55,127.74 178.71,125.35 177.91,122.71 176.20,119.94 173.62,117.13 170.29,114.39 166.33,111.82 161.89,109.54 157.15,107.61 152.28,106.13 147.47,105.14" fill="#1E40AF" stroke="#1E3A8A" stroke-width="1.50" stroke-linejoin="round" stroke-linecap="round"/><polygon data-face="band13" points="145.12,108.07 151.68,109.43 158.33,111.46 164.81,114.08 170.87,117.20 176.28,120.70 180.83,124.44 184.34,128.28 186.68,132.07 187.77,135.67 187.55,138.93 186.04,141.73 183.29,143.97 179.42,145.55 174.56,146.43 168.91,146.55 162.69,145.93 161.54,139.44 166.95,139.99 171.85,139.88 176.07,139.12 179.44,137.74 181.83,135.80 183.14,133.36 183.33,130.53 182.39,127.41 180.35,124.11 177.30,120.78 173.35,117.53 168.65,114.49 163.38,111.77 157.75,109.49 151.98,107.73 146.27,106.56" fill="#1E40AF" stroke="#1E3A8A" stroke-width="1.50" stroke-linejoin="round" stroke-linecap="round"/><polygon data-face="band12" points="144.02,109.71 151.41,111.23 158.89,113.51 166.18,116.47 172.99,119.98 179.08,123.91 184.19,128.12 188.14,132.44 190.78,136.70 192.00,140.75 191.75,144.42 190.06,147.57 186.97,150.09 182.61,151.87 177.14,152.85 170.79,152.99 163.78,152.29 162.69,145.93 168.91,146.55 174.56,146.43 179.42,145.55 183.29,143.97 186.04,141.73 187.55,138.93 187.77,135.67 186.68,132.07 184.34,128.28 180.83,124.44 176.28,120.70 170.87,117.20 164.81,114.08 158.33,111.46 151.68,109.43 145.12,108.07" fill="#1E40AF" stroke="#1E3A8A" stroke-width="1.50" stroke-linejoin="round" stroke-linecap="round"/><polygon data-face="band11" points="142.99,111.48 151.14,113.16 159.41,115.68 167.46,118.94 175.00,122.82 181.72,127.17 187.37,131.82 191.74,136.59 194.65,141.30 196.00,145.77 195.73,149.83 193.85,153.31 190.44,156.09 185.62,158.06 179.58,159.15 172.56,159.30 164.82,158.52 163.78,152.29 170.79,152.99 177.14,152.85 182.61,151.87 186.97,150.09 190.06,147.57 191.75,144.42 192.00,140.75 190.78,136.70 188.14,132.44 184.19,128.12 179.08,123.91 172.99,119.98 166.18,116.47 158.89,113.51 151.41,111.23 144.02,109.71" fill="#1E40AF" stroke="#1E3A8A" stroke-width="1.50" stroke-linejoin="round" stroke-linecap="round"/><polygon data-face="band10" points="142.02,113.39 150.90,115.22 159.90,117.96 168.67,121.52 176.87,125.74 184.19,130.48 190.34,135.54 195.10,140.73 198.27,145.86 199.73,150.73 199.44,155.14 197.39,158.94 193.68,161.96 188.43,164.11 181.86,165.29 174.22,165.46 165.79,164.61 164.82,158.52 172.56,159.30 179.58,159.15 185.62,158.06 190.44,156.09 193.85,153.31 195.73,149.83 196.00,145.77 194.65,141.30 191.74,136.59 187.37,131.82 181.72,127.17 175.00,122.82 167.46,118.94 159.41,115.68 151.14,113.16 142.99,111.48" fill="#1E40AF" stroke="#1E3A8A" stroke-width="1.50" stroke-linejoin="round" stroke-linecap="round"/><polygon data-face="band9" points="141.12,115.46 150.67,117.43 160.35,120.38 169.78,124.20 178.60,128.74 186.47,133.83 193.09,139.28 198.20,144.86 201.61,150.38 203.19,155.61 202.87,160.36 200.67,164.44 196.68,167.69 191.04,170.00 183.97,171.27 175.75,171.45 166.69,170.54 165.79,164.61 174.22,165.46 181.86,165.29 188.43,164.11 193.68,161.96 197.39,158.94 199.44,155.14 199.73,150.73 198.27,145.86 195.10,140.73 190.34,135.54 184.19,130.48 176.87,125.74 168.67,121.52 159.90,117.96 150.90,115.22 142.02,113.39" fill="#1E40AF" stroke="#1E3A8A" stroke-width="1.50" stroke-linejoin="round" stroke-linecap="round"/><polygon data-face="band8" points="140.30,117.70 150.47,119.79 160.76,122.93 170.79,127.00 180.18,131.83 188.55,137.25 195.59,143.04 201.03,148.98 204.66,154.85 206.34,160.42 206.00,165.47 203.66,169.81 199.41,173.27 193.41,175.73 185.89,177.08 177.14,177.27 167.50,176.30 166.69,170.54 175.75,171.45 183.97,171.27 191.04,170.00 196.68,167.69 200.67,164.44 202.87,160.36 203.19,155.61 201.61,150.38 198.20,144.86 193.09,139.28 186.47,133.83 178.60,128.74 169.78,124.20 160.35,120.38 150.67,117.43 141.12,115.46" fill="#1E40AF" stroke="#1E3A8A" stroke-width="1.50" stroke-linejoin="round" stroke-linecap="round"/><polygon data-face="band7" points="139.57,120.12 150.28,122.32 161.13,125.63 171.71,129.92 181.59,135.01 190.42,140.72 197.84,146.83 203.57,153.09 207.40,159.28 209.17,165.14 208.81,170.46 206.35,175.04 201.86,178.69 195.54,181.28 187.62,182.70 178.40,182.91 168.24,181.88 167.50,176.30 177.14,177.27 185.89,177.08 193.41,175.73 199.41,173.27 203.66,169.81 206.00,165.47 206.34,160.42 204.66,154.85 201.03,148.98 195.59,143.04 188.55,137.25 180.18,131.83 170.79,127.00 160.76,122.93 150.47,119.79 140.30,117.70" fill="#1E40AF" stroke="#1E3A8A" stroke-width="1.50" stroke-linejoin="round" stroke-linecap="round"/><polygon data-face="band6" points="138.93,122.73 150.12,125.03 161.46,128.49 172.51,132.97 182.84,138.29 192.06,144.26 199.82,150.64 205.81,157.19 209.80,163.65 211.65,169.78 211.28,175.34 208.71,180.12 204.02,183.94 197.41,186.64 189.13,188.13 179.50,188.34 168.88,187.27 168.24,181.88 178.40,182.91 187.62,182.70 195.54,181.28 201.86,178.69 206.35,175.04 208.81,170.46 209.17,165.14 207.40,159.28 203.57,153.09 197.84,146.83 190.42,140.72 181.59,135.01 171.71,129.92 161.13,125.63 150.28,122.32 139.57,120.12" fill="#1E40AF" stroke="#1E3A8A" stroke-width="1.50" stroke-linejoin="round" stroke-linecap="round"/><polygon data-face="band5" points="138.37,125.54 149.98,127.93 161.74,131.51 173.19,136.16 183.91,141.68 193.47,147.86 201.51,154.48 207.72,161.27 211.87,167.97 213.78,174.32 213.40,180.09 210.73,185.05 205.87,189.00 199.02,191.81 190.43,193.35 180.44,193.57 169.43,192.46 168.88,187.27 179.50,188.34 189.13,188.13 197.41,186.64 204.02,183.94 208.71,180.12 211.28,175.34 211.65,169.78 209.80,163.65 205.81,157.19 199.82,150.64 192.06,144.26 182.84,138.29 172.51,132.97 161.46,128.49 150.12,125.03 138.93,122.73" fill="#1E40AF" stroke="#1E3A8A" stroke-width="1.50" stroke-linejoin="round" stroke-linecap="round"/><polygon data-face="band4" points="137.92,128.55 149.86,131.01 161.97,134.71 173.76,139.48 184.79,145.17 194.63,151.54 202.91,158.34 209.31,165.33 213.57,172.23 215.54,178.77 215.15,184.71 212.40,189.81 207.40,193.89 200.35,196.77 191.51,198.36 181.23,198.59 169.89,197.45 169.43,192.46 180.44,193.57 190.43,193.35 199.02,191.81 205.87,189.00 210.73,185.05 213.40,180.09 213.78,174.32 211.87,167.97 207.72,161.27 201.51,154.48 193.47,147.86 183.91,141.68 173.19,136.16 161.74,131.51 149.98,127.93 138.37,125.54" fill="#1E40AF" stroke="#1E3A8A" stroke-width="1.50" stroke-linejoin="round" stroke-linecap="round"/><polygon data-face="band3" points="137.56,131.78 149.77,134.30 162.15,138.07 174.21,142.96 185.48,148.77 195.55,155.28 204.01,162.24 210.55,169.38 214.91,176.44 216.93,183.13 216.52,189.20 213.71,194.41 208.60,198.58 201.39,201.53 192.35,203.15 181.84,203.39 170.25,202.22 169.89,197.45 181.23,198.59 191.51,198.36 200.35,196.77 207.40,193.89 212.40,189.81 215.15,184.71 215.54,178.77 213.57,172.23 209.31,165.33 202.91,158.34 194.63,151.54 184.79,145.17 173.76,139.48 161.97,134.71 149.86,131.01 137.92,128.55" fill="#1E40AF" stroke="#1E3A8A" stroke-width="1.50" stroke-linejoin="round" stroke-linecap="round"/><polygon data-face="band2" points="137.30,135.22 149.71,137.78 162.28,141.62 174.52,146.58 185.98,152.48 196.20,159.09 204.80,166.17 211.44,173.42 215.87,180.59 217.92,187.38 217.51,193.55 214.65,198.85 209.46,203.08 202.14,206.07 192.96,207.72 182.28,207.96 170.51,206.78 170.25,202.22 181.84,203.39 192.35,203.15 201.39,201.53 208.60,198.58 213.71,194.41 216.52,189.20 216.93,183.13 214.91,176.44 210.55,169.38 204.01,162.24 195.55,155.28 185.48,148.77 174.21,142.96 162.15,138.07 149.77,134.30 137.56,131.78" fill="#1E40AF" stroke="#1E3A8A" stroke-width="1.50" stroke-linejoin="round" stroke-linecap="round"/><polygon data-face="band1" points="137.14,138.89 149.67,141.47 162.36,145.34 174.72,150.35 186.28,156.31 196.60,162.98 205.27,170.12 211.98,177.45 216.45,184.68 218.52,191.53 218.10,197.76 215.22,203.11 209.98,207.38 202.59,210.40 193.32,212.06 182.54,212.30 170.66,211.11 170.51,206.78 182.28,207.96 192.96,207.72 202.14,206.07 209.46,203.08 214.65,198.85 217.51,193.55 217.92,187.38 215.87,180.59 211.44,173.42 204.80,166.17 196.20,159.09 185.98,152.48 174.52,146.58 162.28,141.62 149.71,137.78 137.30,135.22" fill="#1E40AF" stroke="#1E3A8A" stroke-width="1.50" stroke-linejoin="round" stroke-linecap="round"/><polygon data-face="band0" points="137.09,142.78 149.66,145.37 162.38,149.25 174.78,154.27 186.38,160.25 196.73,166.95 205.43,174.11 212.16,181.45 216.64,188.71 218.72,195.59 218.30,201.83 215.41,207.19 210.15,211.48 202.74,214.51 193.44,216.18 182.63,216.42 170.71,215.22 170.66,211.11 182.54,212.30 193.32,212.06 202.59,210.40 209.98,207.38 215.22,203.11 218.10,197.76 218.52,191.53 216.45,184.68 211.98,177.45 205.27,170.12 196.60,162.98 186.28,156.31 174.72,150.35 162.36,145.34 149.67,141.47 137.14,138.89" fill="#1E40AF" stroke="#1E3A8A" stroke-width="1.50" stroke-linejoin="round" stroke-linecap="round"/><g data-face="top-content" transform="matrix(0.8660 0.5000 -0.8660 0.5000 153.90 76.50)"><text x="22.50" y="18.24" dy=".35em" font-family="Helvetica Neue, Arial, sans-serif" font-size="7.10" font-weight="600" fill="#0B1F3A" text-anchor="middle">Security</text><text x="22.50" y="26.76" dy=".35em" font-family="Helvetica Neue, Arial, sans-serif" font-size="7.10" font-weight="600" fill="#0B1F3A" text-anchor="middle">Dome</text></g></g></svg>