<svg xmlns="http://www.w3.org/2000/svg" xmlns:xlink="http://www.w3.org/1999/xlink" viewBox="0.00 0.00 922.93 567.00" width="923" height="567"><defs><pattern id="bg-grid" patternUnits="userSpaceOnUse" width="69.28" height="40.00"><rect width="69.28" height="40.00" fill="#FAFBFC"/><path d="M 34.64,0 L 69.28,20.00 L 34.64,40.00 L 0,20.00 Z" fill="none" stroke="#E2E6EE" stroke-width="1"/></pattern></defs><rect data-layer="canvas-bg" x="0.00" y="0.00" width="922.93" height="567.00" fill="url(#bg-grid)"/><g data-layer="connectors"><path data-connector="0" data-from="user" data-to="api" data-route="832.99,78.00,149.000,66.000 728.20,138.50,149.000,187.000" d="M 832.99,78.00 L 742.93,130.00" fill="none" stroke="#0D32B2" stroke-width="2.00" stroke-linecap="round" stroke-linejoin="round"/><path data-connector="1" data-from="api" data-to="queue" data-route="677.11,175.00,156.000,253.000 656.32,187.00,156.000,277.000 595.70,152.00,86.000,277.000 532.48,188.50,86.000,350.000 511.70,200.50,86.000,374.000" d="M 663.25,183.00 L 656.32,187.00 L 595.70,152.00 L 556.94,174.38" fill="none" stroke="#0D32B2" stroke-width="2.00" stroke-linecap="round" stroke-linejoin="round"/><path data-connector="2" data-from="api" data-to="cache" data-route="664.98,168.00,142.000,253.000 644.20,180.00,142.000,277.000 713.48,220.00,222.000,277.000 326.37,443.50,222.000,724.000 305.58,455.50,222.000,748.000" d="M 651.13,176.00 L 644.20,180.00 L 713.48,220.00 L 326.37,443.50 L 305.58,455.50" fill="none" stroke="#0D32B2" stroke-width="2.00" stroke-linecap="round" stroke-linejoin="round"/><path data-connector="3" data-from="queue" data-to="worker" data-route="454.54,233.50,86.000,440.000 349.75,294.00,86.000,561.000" d="M 410.16,259.12 L 364.47,285.50" fill="none" stroke="#0D32B2" stroke-width="2.00" stroke-linecap="round" stroke-linejoin="round"/><path data-connector="4" data-from="worker" data-to="db" data-route="298.65,330.50,93.000,627.000 277.87,342.50,93.000,651.000 245.83,324.00,56.000,651.000 182.61,360.50,56.000,724.000 161.82,372.50,56.000,748.000" d="M 284.80,338.50 L 277.87,342.50 L 245.83,324.00 L 182.61,360.50 L 161.82,372.50" fill="none" stroke="#0D32B2" stroke-width="2.00" stroke-linecap="round" stroke-linejoin="round"/><path data-connector="5" data-from="worker" data-to="cache" data-route="286.53,323.50,79.000,627.000 265.75,335.50,79.000,651.000 401.71,414.00,236.000,651.000 338.49,450.50,236.000,724.000 317.71,462.50,236.000,748.000" d="M 272.67,331.50 L 265.75,335.50 L 401.71,414.00 L 338.49,450.50 L 317.71,462.50" fill="none" stroke="#0D32B2" stroke-width="2.00" stroke-linecap="round" stroke-linejoin="round"/></g><g data-part="0" data-part-id="api" transform="translate(588.16 65.50)"><g data-face="wrap"><polygon data-face="left" points="24.00,87.00 24.00,57.00 141.78,125.00 141.78,155.00" fill="#3A6FBA" stroke="#0D32B2" stroke-width="2.00" stroke-linejoin="round" stroke-linecap="round"/><polygon data-face="right" points="198.94,122.00 198.94,92.00 141.78,125.00 141.78,155.00" fill="#5589D6" stroke="#0D32B2" stroke-width="2.00" stroke-linejoin="round" stroke-linecap="round"/><polygon data-face="top" points="81.16,24.00 198.94,92.00 141.78,125.00 24.00,57.00" fill="#F7F8FE" stroke="#0D32B2" stroke-width="2.00" stroke-linejoin="round" stroke-linecap="round"/><g data-face="top-content" transform="matrix(0.8660 0.5000 -0.8660 0.5000 81.16 24.00)"><text x="68.00" y="33.00" dy=".35em" font-family="Helvetica Neue, Arial, sans-serif" font-size="16.00" font-weight="600" fill="#0B1F3A" text-anchor="middle">API Gateway</text></g></g></g><g data-part="1" data-part-id="cache" transform="translate(192.55 424.10)"><g data-face="wrap"><path data-face="side-left" d="M 24.00 49.40 L 24.00 79.40 A 44.00 25.40 0 0 0 68.00 104.81 L 68.00 74.81 A 44.00 25.40 0 0 0 24.00 49.40 Z" fill="#B8651F" stroke="none"/><path data-face="side-right" d="M 112.00 49.40 L 112.00 79.40 A 44.00 25.40 0 0 1 68.00 104.81 L 68.00 74.81 A 44.00 25.40 0 0 1 112.00 49.40 Z" fill="#E08A47" stroke="none"/><path data-face="outline" d="M 24.00 49.40 L 24.00 79.40 A 44.00 25.40 0 0 0 112.00 79.40 L 112.00 49.40" fill="none" stroke="#0D32B2" stroke-width="2.00" stroke-linejoin="round" stroke-linecap="round"/><ellipse data-face="top" cx="68.00" cy="49.40" rx="44.00" ry="25.40" fill="#EDF0FD" stroke="#0D32B2" stroke-width="2.00"/><g data-face="top-content" transform="matrix(0.8660 0.5000 -0.8660 0.5000 68.00 24.00)"><text x="25.40" y="25.40" dy=".35em" font-family="Helvetica Neue, Arial, sans-serif" font-size="13.37" font-weight="600" fill="#3A1A06" text-anchor="middle">Cache</text></g></g></g><g data-part="2" data-part-id="db" transform="translate(31.73 331.25)"><g data-face="wrap"><path data-face="side-left" d="M 24.00 55.75 L 24.00 85.75 A 55.00 31.75 0 0 0 79.00 117.51 L 79.00 87.51 A 55.00 31.75 0 0 0 24.00 55.75 Z" fill="#B8651F" stroke="none"/><path data-face="side-right" d="M 134.00 55.75 L 134.00 85.75 A 55.00 31.75 0 0 1 79.00 117.51 L 79.00 87.51 A 55.00 31.75 0 0 1 134.00 55.75 Z" fill="#E08A47" stroke="none"/><path data-face="outline" d="M 24.00 55.75 L 24.00 85.75 A 55.00 31.75 0 0 0 134.00 85.75 L 134.00 55.75" fill="none" stroke="#0D32B2" stroke-width="2.00" stroke-linejoin="round" stroke-linecap="round"/><ellipse data-face="top" cx="79.00" cy="55.75" rx="55.00" ry="31.75" fill="#EDF0FD" stroke="#0D32B2" stroke-width="2.00"/><g data-face="top-content" transform="matrix(0.8660 0.5000 -0.8660 0.5000 79.00 24.00)"><text x="31.75" y="31.75" dy=".35em" font-family="Helvetica Neue, Arial, sans-serif" font-size="11.09" font-weight="600" fill="#3A1A06" text-anchor="middle">Database</text></g></g></g><g data-part="3" data-part-id="queue" transform="translate(373.12 128.35)"><g data-face="wrap"><path data-face="side-left" d="M 24.00 73.65 L 24.00 103.65 A 86.00 49.65 0 0 0 110.00 153.30 L 110.00 123.30 A 86.00 49.65 0 0 0 24.00 73.65 Z" fill="#B8651F" stroke="none"/><path data-face="side-right" d="M 196.00 73.65 L 196.00 103.65 A 86.00 49.65 0 0 1 110.00 153.30 L 110.00 123.30 A 86.00 49.65 0 0 1 196.00 73.65 Z" fill="#E08A47" stroke="none"/><path data-face="outline" d="M 24.00 73.65 L 24.00 103.65 A 86.00 49.65 0 0 0 196.00 103.65 L 196.00 73.65" fill="none" stroke="#0D32B2" stroke-width="2.00" stroke-linejoin="round" stroke-linecap="round"/><ellipse data-face="top" cx="110.00" cy="73.65" rx="86.00" ry="49.65" fill="#DEE1EB" stroke="#0D32B2" stroke-width="2.00"/><g data-face="top-content" transform="matrix(0.8660 0.5000 -0.8660 0.5000 110.00 24.00)"><text x="49.65" y="49.65" dy=".35em" font-family="Helvetica Neue, Arial, sans-serif" font-size="16.00" font-weight="600" fill="#3A1A06" text-anchor="middle">Job Queue</text></g></g></g><g data-part="4" data-part-id="user" transform="translate(813.57 -31.78)"><g data-face="wrap"><defs><radialGradient id="p4-person-head-grad" cx="35%" cy="30%" r="75%"><stop offset="0%" stop-color="#E3E9FD"/><stop offset="100%" stop-color="#A35F25"/></radialGradient></defs><path data-face="body-left" d="M 48.00 47.33 A 24.00 36.00 0 0 0 24.00 83.33 A 24.00 13.86 0 0 0 48.00 97.18 Z" fill="#3A6FBA" stroke="none"/><path data-face="body-right" d="M 48.00 47.33 A 24.00 36.00 0 0 1 72.00 83.33 A 24.00 13.86 0 0 1 48.00 97.18 Z" fill="#5589D6" stroke="none"/><line data-face="body-ridge" x1="48.00" y1="47.33" x2="48.00" y2="97.18" stroke="#0D32B2" stroke-width="1.40" stroke-linecap="round" opacity="0.35"/><path data-face="body-outline" d="M 48.00 47.33 A 24.00 36.00 0 0 1 72.00 83.33 A 24.00 13.86 0 0 1 24.00 83.33 A 24.00 36.00 0 0 1 48.00 47.33 Z" fill="none" stroke="#0D32B2" stroke-width="2.00" stroke-linejoin="round" stroke-linecap="round"/><circle data-face="head" cx="48.00" cy="36.96" r="12.96" fill="url(#p4-person-head-grad)" stroke="#0D32B2" stroke-width="2.00"/><text data-face="label" x="48.00" y="115.93" font-family="Helvetica Neue, Arial, sans-serif" font-size="15.00" font-weight="600" fill="#0B1F3A" text-anchor="middle">User</text></g></g><g data-part="5" data-part-id="worker" transform="translate(226.16 230.50)"><g data-face="wrap"><polygon data-face="left" points="24.00,87.00 24.00,57.00 108.87,106.00 108.87,136.00" fill="#3A6FBA" stroke="#0D32B2" stroke-width="2.00" stroke-linejoin="round" stroke-linecap="round"/><polygon data-face="right" points="166.03,103.00 166.03,73.00 108.87,106.00 108.87,136.00" fill="#5589D6" stroke="#0D32B2" stroke-width="2.00" stroke-linejoin="round" stroke-linecap="round"/><polygon data-face="top" points="81.16,24.00 166.03,73.00 108.87,106.00 24.00,57.00" fill="#F7F8FE" stroke="#0D32B2" stroke-width="2.00" stroke-linejoin="round" stroke-linecap="round"/><g data-face="top-content" transform="matrix(0.8660 0.5000 -0.8660 0.5000 81.16 24.00)"><text x="49.00" y="33.00" dy=".35em" font-family="Helvetica Neue, Arial, sans-serif" font-size="16.00" font-weight="600" fill="#0B1F3A" text-anchor="middle">Worker</text></g></g></g><g data-layer="connector-overlay"><polygon points="742.93,130.00 747.85,122.54 751.85,129.46" fill="#0D32B2"/><rect x="757.32" y="94.00" width="61.28" height="20" rx="4" ry="4" fill="#FFFFFFEE"/><text x="787.96" y="104.00" dy=".35em" font-family="Inter, sans-serif" font-size="11.0" font-weight="600" fill="#1F2433" text-anchor="middle">request</text><polygon points="556.94,174.38 561.87,166.91 565.87,173.84" fill="#0D32B2"/><rect x="595.37" y="159.50" width="61.28" height="20" rx="4" ry="4" fill="#FFFFFFEE"/><text x="626.01" y="169.50" dy=".35em" font-family="Inter, sans-serif" font-size="11.0" font-weight="600" fill="#1F2433" text-anchor="middle">enqueue</text><polygon points="305.58,455.50 310.51,448.04 314.51,454.96" fill="#0D32B2"/><rect x="492.80" y="321.75" width="54.24" height="20" rx="4" ry="4" fill="#FFFFFFEE"/><text x="519.92" y="331.75" dy=".35em" font-family="Inter, sans-serif" font-size="11.0" font-weight="600" fill="#1F2433" text-anchor="middle">lookup</text><polygon points="364.47,285.50 369.40,278.04 373.40,284.96" fill="#0D32B2"/><polygon points="161.82,372.50 166.75,365.04 170.75,371.96" fill="#0D32B2"/><rect x="190.62" y="332.25" width="47.20" height="20" rx="4" ry="4" fill="#FFFFFFEE"/><text x="214.22" y="342.25" dy=".35em" font-family="Inter, sans-serif" font-size="11.0" font-weight="600" fill="#1F2433" text-anchor="middle">write</text><polygon points="317.71,462.50 322.64,455.04 326.64,461.96" fill="#0D32B2"/><rect x="306.61" y="364.75" width="54.24" height="20" rx="4" ry="4" fill="#FFFFFFEE"/><text x="333.73" y="374.75" dy=".35em" font-family="Inter, sans-serif" font-size="11.0" font-weight="600" fill="#1F2433" text-anchor="middle">update</text></g></svg>