<svg xmlns="http://www.w3.org/2000/svg" xmlns:xlink="http://www.w3.org/1999/xlink" viewBox="0.00 0.00 922.93 567.00" width="922.93" height="567.00"><defs><pattern id="bg-grid" patternUnits="userSpaceOnUse" width="69.28" height="40.00"><rect width="69.28" height="40.00" fill="#FAFBFC"/><path d="M 34.64,0 L 69.28,20.00 L 34.64,40.00 L 0,20.00 Z" fill="none" stroke="#E2E6EE" stroke-width="1"/></pattern></defs><rect data-layer="canvas-bg" x="0.00" y="0.00" width="922.93" height="567.00" fill="url(#bg-grid)"/><g data-layer="connectors"><path data-connector="" d="M 861.57,61.50 L 882.36,73.50 L 889.28,77.50 L 727.34,171.00 L 706.55,159.00" fill="none" stroke="#0D32B2" stroke-width="2.00" stroke-linecap="round" stroke-linejoin="round"/><polygon points="706.55,159.00 715.48,159.54 711.48,166.46" fill="#0D32B2"/><rect x="753.56" y="100.25" width="61.00" height="20" rx="4" ry="4" fill="#FFFFFFEE"/><text x="784.06" y="110.25" dy=".35em" font-family="Inter, sans-serif" font-size="11" font-weight="600" fill="#1F2433" text-anchor="middle">request</text><path data-connector="" d="M 705.69,151.50 L 726.47,163.50 L 678.84,136.00 L 510.83,233.00 L 490.05,221.00" fill="none" stroke="#0D32B2" stroke-width="2.00" stroke-linecap="round" stroke-linejoin="round"/><polygon points="490.05,221.00 498.97,221.54 494.97,228.46" fill="#0D32B2"/><rect x="567.37" y="176.25" width="61.00" height="20" rx="4" ry="4" fill="#FFFFFFEE"/><text x="597.87" y="186.25" dy=".35em" font-family="Inter, sans-serif" font-size="11" font-weight="600" fill="#1F2433" text-anchor="middle">enqueue</text><path data-connector="" d="M 693.56,158.50 L 714.35,170.50 L 790.56,214.50 L 294.32,501.00 L 273.54,489.00" fill="none" stroke="#0D32B2" stroke-width="2.00" stroke-linecap="round" stroke-linejoin="round"/><polygon points="273.54,489.00 282.47,489.54 278.47,496.46" fill="#0D32B2"/><rect x="456.55" y="313.75" width="54.00" height="20" rx="4" ry="4" fill="#FFFFFFEE"/><text x="483.55" y="323.75" dy=".35em" font-family="Inter, sans-serif" font-size="11" font-weight="600" fill="#1F2433" text-anchor="middle">lookup</text><path data-connector="" d="M 483.12,217.00 L 503.90,229.00 L 510.83,233.00 L 348.88,326.50 L 328.10,314.50" fill="none" stroke="#0D32B2" stroke-width="2.00" stroke-linecap="round" stroke-linejoin="round"/><polygon points="328.10,314.50 337.03,315.04 333.03,321.96" fill="#0D32B2"/><path data-connector="" d="M 327.23,307.00 L 348.02,319.00 L 328.97,308.00 L 138.44,418.00 L 117.66,406.00" fill="none" stroke="#0D32B2" stroke-width="2.00" stroke-linecap="round" stroke-linejoin="round"/><polygon points="117.66,406.00 126.58,406.54 122.58,413.46" fill="#0D32B2"/><rect x="198.94" y="346.50" width="47.00" height="20" rx="4" ry="4" fill="#FFFFFFEE"/><text x="222.44" y="356.50" dy=".35em" font-family="Inter, sans-serif" font-size="11" font-weight="600" fill="#1F2433" text-anchor="middle">write</text><path data-connector="" d="M 315.11,314.00 L 335.89,326.00 L 466.66,401.50 L 282.20,508.00 L 261.42,496.00" fill="none" stroke="#0D32B2" stroke-width="2.00" stroke-linecap="round" stroke-linejoin="round"/><polygon points="261.42,496.00 270.34,496.54 266.34,503.46" fill="#0D32B2"/><rect x="261.26" y="395.00" width="54.00" height="20" rx="4" ry="4" fill="#FFFFFFEE"/><text x="288.26" y="405.00" dy=".35em" font-family="Inter, sans-serif" font-size="11" font-weight="600" fill="#1F2433" text-anchor="middle">update</text></g><g data-part="0" transform="translate(588.16 65.50)"><g data-face="wrap"><polygon data-face="left" points="24.00,87.00 24.00,57.00 141.78,125.00 141.78,155.00" fill="#3A6FBA" stroke="#0D32B2" stroke-width="2.00" stroke-linejoin="round" stroke-linecap="round"/><polygon data-face="right" points="198.94,122.00 198.94,92.00 141.78,125.00 141.78,155.00" fill="#5589D6" stroke="#0D32B2" stroke-width="2.00" stroke-linejoin="round" stroke-linecap="round"/><polygon data-face="top" points="81.16,24.00 198.94,92.00 141.78,125.00 24.00,57.00" fill="#F7F8FE" stroke="#0D32B2" stroke-width="2.00" stroke-linejoin="round" stroke-linecap="round"/><g data-face="top-content" transform="matrix(0.8660 0.5000 -0.8660 0.5000 81.16 24.00)"><text x="68.00" y="33.00" dy=".35em" font-family="Helvetica Neue, Arial, sans-serif" font-size="16.00" font-weight="600" fill="#0B1F3A" text-anchor="middle">API Gateway</text></g></g></g><g data-part="1" transform="translate(192.55 424.10)"><g data-face="wrap"><path data-face="side-left" d="M 24.00 49.40 L 24.00 79.40 A 44.00 25.40 0 0 0 68.00 104.81 L 68.00 74.81 A 44.00 25.40 0 0 0 24.00 49.40 Z" fill="#B8651F" stroke="none"/><path data-face="side-right" d="M 112.00 49.40 L 112.00 79.40 A 44.00 25.40 0 0 1 68.00 104.81 L 68.00 74.81 A 44.00 25.40 0 0 1 112.00 49.40 Z" fill="#E08A47" stroke="none"/><path data-face="outline" d="M 24.00 49.40 L 24.00 79.40 A 44.00 25.40 0 0 0 112.00 79.40 L 112.00 49.40" fill="none" stroke="#0D32B2" stroke-width="2.00" stroke-linejoin="round" stroke-linecap="round"/><ellipse data-face="top" cx="68.00" cy="49.40" rx="44.00" ry="25.40" fill="#EDF0FD" stroke="#0D32B2" stroke-width="2.00"/><g data-face="top-content" transform="matrix(0.8660 0.5000 -0.8660 0.5000 68.00 24.00)"><text x="25.40" y="25.40" dy=".35em" font-family="Helvetica Neue, Arial, sans-serif" font-size="16.00" font-weight="600" fill="#3A1A06" text-anchor="middle">Cache</text></g></g></g><g data-part="2" transform="translate(31.73 331.25)"><g data-face="wrap"><path data-face="side-left" d="M 24.00 55.75 L 24.00 85.75 A 55.00 31.75 0 0 0 79.00 117.51 L 79.00 87.51 A 55.00 31.75 0 0 0 24.00 55.75 Z" fill="#B8651F" stroke="none"/><path data-face="side-right" d="M 134.00 55.75 L 134.00 85.75 A 55.00 31.75 0 0 1 79.00 117.51 L 79.00 87.51 A 55.00 31.75 0 0 1 134.00 55.75 Z" fill="#E08A47" stroke="none"/><path data-face="outline" d="M 24.00 55.75 L 24.00 85.75 A 55.00 31.75 0 0 0 134.00 85.75 L 134.00 55.75" fill="none" stroke="#0D32B2" stroke-width="2.00" stroke-linejoin="round" stroke-linecap="round"/><ellipse data-face="top" cx="79.00" cy="55.75" rx="55.00" ry="31.75" fill="#EDF0FD" stroke="#0D32B2" stroke-width="2.00"/><g data-face="top-content" transform="matrix(0.8660 0.5000 -0.8660 0.5000 79.00 24.00)"><text x="31.75" y="31.75" dy=".35em" font-family="Helvetica Neue, Arial, sans-serif" font-size="16.00" font-weight="600" fill="#3A1A06" text-anchor="middle">Database</text></g></g></g><g data-part="3" transform="translate(373.12 128.35)"><g data-face="wrap"><path data-face="side-left" d="M 24.00 73.65 L 24.00 103.65 A 86.00 49.65 0 0 0 110.00 153.30 L 110.00 123.30 A 86.00 49.65 0 0 0 24.00 73.65 Z" fill="#B8651F" stroke="none"/><path data-face="side-right" d="M 196.00 73.65 L 196.00 103.65 A 86.00 49.65 0 0 1 110.00 153.30 L 110.00 123.30 A 86.00 49.65 0 0 1 196.00 73.65 Z" fill="#E08A47" stroke="none"/><path data-face="outline" d="M 24.00 73.65 L 24.00 103.65 A 86.00 49.65 0 0 0 196.00 103.65 L 196.00 73.65" fill="none" stroke="#0D32B2" stroke-width="2.00" stroke-linejoin="round" stroke-linecap="round"/><ellipse data-face="top" cx="110.00" cy="73.65" rx="86.00" ry="49.65" fill="#DEE1EB" stroke="#0D32B2" stroke-width="2.00"/><g data-face="top-content" transform="matrix(0.8660 0.5000 -0.8660 0.5000 110.00 24.00)"><text x="49.65" y="49.65" dy=".35em" font-family="Helvetica Neue, Arial, sans-serif" font-size="16.00" font-weight="600" fill="#3A1A06" text-anchor="middle">Job Queue</text></g></g></g><g data-part="4" transform="translate(813.57 -31.78)"><g data-face="wrap"><defs><radialGradient id="p4-person-head-grad" cx="35%" cy="30%" r="75%"><stop offset="0%" stop-color="#E3E9FD"/><stop offset="100%" stop-color="#A35F25"/></radialGradient></defs><path data-face="body-left" d="M 48.00 47.33 A 24.00 36.00 0 0 0 24.00 83.33 A 24.00 13.86 0 0 0 48.00 97.18 Z" fill="#3A6FBA" stroke="none"/><path data-face="body-right" d="M 48.00 47.33 A 24.00 36.00 0 0 1 72.00 83.33 A 24.00 13.86 0 0 1 48.00 97.18 Z" fill="#5589D6" stroke="none"/><line data-face="body-ridge" x1="48.00" y1="47.33" x2="48.00" y2="97.18" stroke="#0D32B2" stroke-width="1.40" stroke-linecap="round" opacity="0.35"/><path data-face="body-outline" d="M 48.00 47.33 A 24.00 36.00 0 0 1 72.00 83.33 A 24.00 13.86 0 0 1 24.00 83.33 A 24.00 36.00 0 0 1 48.00 47.33 Z" fill="none" stroke="#0D32B2" stroke-width="2.00" stroke-linejoin="round" stroke-linecap="round"/><circle data-face="head" cx="48.00" cy="36.96" r="12.96" fill="url(#p4-person-head-grad)" stroke="#0D32B2" stroke-width="2.00"/><text data-face="label" x="48.00" y="115.93" font-family="Helvetica Neue, Arial, sans-serif" font-size="15.00" font-weight="600" fill="#0B1F3A" text-anchor="middle">User</text></g></g><g data-part="5" transform="translate(226.16 230.50)"><g data-face="wrap"><polygon data-face="left" points="24.00,87.00 24.00,57.00 108.87,106.00 108.87,136.00" fill="#3A6FBA" stroke="#0D32B2" stroke-width="2.00" stroke-linejoin="round" stroke-linecap="round"/><polygon data-face="right" points="166.03,103.00 166.03,73.00 108.87,106.00 108.87,136.00" fill="#5589D6" stroke="#0D32B2" stroke-width="2.00" stroke-linejoin="round" stroke-linecap="round"/><polygon data-face="top" points="81.16,24.00 166.03,73.00 108.87,106.00 24.00,57.00" fill="#F7F8FE" stroke="#0D32B2" stroke-width="2.00" stroke-linejoin="round" stroke-linecap="round"/><g data-face="top-content" transform="matrix(0.8660 0.5000 -0.8660 0.5000 81.16 24.00)"><text x="49.00" y="33.00" dy=".35em" font-family="Helvetica Neue, Arial, sans-serif" font-size="16.00" font-weight="600" fill="#0B1F3A" text-anchor="middle">Worker</text></g></g></g></svg>