<svg xmlns="http://www.w3.org/2000/svg" xmlns:xlink="http://www.w3.org/1999/xlink" viewBox="0.00 0.00 922.93 567.00" width="923" height="567"><defs><pattern id="bg-grid" patternUnits="userSpaceOnUse" width="69.28" height="40.00"><rect width="69.28" height="40.00" fill="#FAFBFC"/><path d="M 34.64,0 L 69.28,20.00 L 34.64,40.00 L 0,20.00 Z" fill="none" stroke="#E2E6EE" stroke-width="1"/></pattern></defs><rect data-layer="canvas-bg" x="0.00" y="0.00" width="922.93" height="567.00" fill="url(#bg-grid)"/><g data-layer="connectors"><path data-connector="" d="M 819.14,86.00 L 742.93,130.00" fill="none" stroke="#0D32B2" stroke-width="2.00" stroke-linecap="round" stroke-linejoin="round"/><path data-connector="" d="M 663.25,183.00 L 656.32,187.00 L 600.03,219.50 L 539.41,184.50 L 526.42,192.00" fill="none" stroke="#0D32B2" stroke-width="2.00" stroke-linecap="round" stroke-linejoin="round"/><path data-connector="" d="M 651.13,176.00 L 644.20,180.00 L 264.01,399.50 L 333.30,439.50 L 320.31,447.00" fill="none" stroke="#0D32B2" stroke-width="2.00" stroke-linecap="round" stroke-linejoin="round"/><path data-connector="" d="M 440.68,241.50 L 364.47,285.50" fill="none" stroke="#0D32B2" stroke-width="2.00" stroke-linecap="round" stroke-linejoin="round"/><path data-connector="" d="M 284.80,338.50 L 277.87,342.50 L 221.58,375.00 L 189.54,356.50 L 176.54,364.00" fill="none" stroke="#0D32B2" stroke-width="2.00" stroke-linecap="round" stroke-linejoin="round"/><path data-connector="" d="M 272.67,331.50 L 265.75,335.50 L 209.45,368.00 L 345.42,446.50 L 332.43,454.00" fill="none" stroke="#0D32B2" stroke-width="2.00" stroke-linecap="round" stroke-linejoin="round"/></g><g data-part="0" data-part-id="api" transform="translate(588.16 65.50)"><g data-face="wrap"><polygon data-face="left" points="24.00,87.00 24.00,57.00 141.78,125.00 141.78,155.00" fill="#3A6FBA" stroke="#0D32B2" stroke-width="2.00" stroke-linejoin="round" stroke-linecap="round"/><polygon data-face="right" points="198.94,122.00 198.94,92.00 141.78,125.00 141.78,155.00" fill="#5589D6" stroke="#0D32B2" stroke-width="2.00" stroke-linejoin="round" stroke-linecap="round"/><polygon data-face="top" points="81.16,24.00 198.94,92.00 141.78,125.00 24.00,57.00" fill="#F7F8FE" stroke="#0D32B2" stroke-width="2.00" stroke-linejoin="round" stroke-linecap="round"/><g data-face="top-content" transform="matrix(0.8660 0.5000 -0.8660 0.5000 81.16 24.00)"><text x="68.00" y="33.00" dy=".35em" font-family="Helvetica Neue, Arial, sans-serif" font-size="16.00" font-weight="600" fill="#0B1F3A" text-anchor="middle">API Gateway</text></g></g></g><g data-part="1" data-part-id="cache" transform="translate(192.55 424.10)"><g data-face="wrap"><path data-face="side-left" d="M 24.00 49.40 L 24.00 79.40 A 44.00 25.40 0 0 0 68.00 104.81 L 68.00 74.81 A 44.00 25.40 0 0 0 24.00 49.40 Z" fill="#B8651F" stroke="none"/><path data-face="side-right" d="M 112.00 49.40 L 112.00 79.40 A 44.00 25.40 0 0 1 68.00 104.81 L 68.00 74.81 A 44.00 25.40 0 0 1 112.00 49.40 Z" fill="#E08A47" stroke="none"/><path data-face="outline" d="M 24.00 49.40 L 24.00 79.40 A 44.00 25.40 0 0 0 112.00 79.40 L 112.00 49.40" fill="none" stroke="#0D32B2" stroke-width="2.00" stroke-linejoin="round" stroke-linecap="round"/><ellipse data-face="top" cx="68.00" cy="49.40" rx="44.00" ry="25.40" fill="#EDF0FD" stroke="#0D32B2" stroke-width="2.00"/><g data-face="top-content" transform="matrix(0.8660 0.5000 -0.8660 0.5000 68.00 24.00)"><text x="25.40" y="25.40" dy=".35em" font-family="Helvetica Neue, Arial, sans-serif" font-size="13.37" font-weight="600" fill="#3A1A06" text-anchor="middle">Cache</text></g></g></g><g data-part="2" data-part-id="db" transform="translate(31.73 331.25)"><g data-face="wrap"><path data-face="side-left" d="M 24.00 55.75 L 24.00 85.75 A 55.00 31.75 0 0 0 79.00 117.51 L 79.00 87.51 A 55.00 31.75 0 0 0 24.00 55.75 Z" fill="#B8651F" stroke="none"/><path data-face="side-right" d="M 134.00 55.75 L 134.00 85.75 A 55.00 31.75 0 0 1 79.00 117.51 L 79.00 87.51 A 55.00 31.75 0 0 1 134.00 55.75 Z" fill="#E08A47" stroke="none"/><path data-face="outline" d="M 24.00 55.75 L 24.00 85.75 A 55.00 31.75 0 0 0 134.00 85.75 L 134.00 55.75" fill="none" stroke="#0D32B2" stroke-width="2.00" stroke-linejoin="round" stroke-linecap="round"/><ellipse data-face="top" cx="79.00" cy="55.75" rx="55.00" ry="31.75" fill="#EDF0FD" stroke="#0D32B2" stroke-width="2.00"/><g data-face="top-content" transform="matrix(0.8660 0.5000 -0.8660 0.5000 79.00 24.00)"><text x="31.75" y="31.75" dy=".35em" font-family="Helvetica Neue, Arial, sans-serif" font-size="11.09" font-weight="600" fill="#3A1A06" text-anchor="middle">Database</text></g></g></g><g data-part="3" data-part-id="queue" transform="translate(373.12 128.35)"><g data-face="wrap"><path data-face="side-left" d="M 24.00 73.65 L 24.00 103.65 A 86.00 49.65 0 0 0 110.00 153.30 L 110.00 123.30 A 86.00 49.65 0 0 0 24.00 73.65 Z" fill="#B8651F" stroke="none"/><path data-face="side-right" d="M 196.00 73.65 L 196.00 103.65 A 86.00 49.65 0 0 1 110.00 153.30 L 110.00 123.30 A 86.00 49.65 0 0 1 196.00 73.65 Z" fill="#E08A47" stroke="none"/><path data-face="outline" d="M 24.00 73.65 L 24.00 103.65 A 86.00 49.65 0 0 0 196.00 103.65 L 196.00 73.65" fill="none" stroke="#0D32B2" stroke-width="2.00" stroke-linejoin="round" stroke-linecap="round"/><ellipse data-face="top" cx="110.00" cy="73.65" rx="86.00" ry="49.65" fill="#DEE1EB" stroke="#0D32B2" stroke-width="2.00"/><g data-face="top-content" transform="matrix(0.8660 0.5000 -0.8660 0.5000 110.00 24.00)"><text x="49.65" y="49.65" dy=".35em" font-family="Helvetica Neue, Arial, sans-serif" font-size="16.00" font-weight="600" fill="#3A1A06" text-anchor="middle">Job Queue</text></g></g></g><g data-part="4" data-part-id="user" transform="translate(813.57 -31.78)"><g data-face="wrap"><defs><radialGradient id="p4-person-head-grad" cx="35%" cy="30%" r="75%"><stop offset="0%" stop-color="#E3E9FD"/><stop offset="100%" stop-color="#A35F25"/></radialGradient></defs><path data-face="body-left" d="M 48.00 47.33 A 24.00 36.00 0 0 0 24.00 83.33 A 24.00 13.86 0 0 0 48.00 97.18 Z" fill="#3A6FBA" stroke="none"/><path data-face="body-right" d="M 48.00 47.33 A 24.00 36.00 0 0 1 72.00 83.33 A 24.00 13.86 0 0 1 48.00 97.18 Z" fill="#5589D6" stroke="none"/><line data-face="body-ridge" x1="48.00" y1="47.33" x2="48.00" y2="97.18" stroke="#0D32B2" stroke-width="1.40" stroke-linecap="round" opacity="0.35"/><path data-face="body-outline" d="M 48.00 47.33 A 24.00 36.00 0 0 1 72.00 83.33 A 24.00 13.86 0 0 1 24.00 83.33 A 24.00 36.00 0 0 1 48.00 47.33 Z" fill="none" stroke="#0D32B2" stroke-width="2.00" stroke-linejoin="round" stroke-linecap="round"/><circle data-face="head" cx="48.00" cy="36.96" r="12.96" fill="url(#p4-person-head-grad)" stroke="#0D32B2" stroke-width="2.00"/><text data-face="label" x="48.00" y="115.93" font-family="Helvetica Neue, Arial, sans-serif" font-size="15.00" font-weight="600" fill="#0B1F3A" text-anchor="middle">User</text></g></g><g data-part="5" data-part-id="worker" transform="translate(226.16 230.50)"><g data-face="wrap"><polygon data-face="left" points="24.00,87.00 24.00,57.00 108.87,106.00 108.87,136.00" fill="#3A6FBA" stroke="#0D32B2" stroke-width="2.00" stroke-linejoin="round" stroke-linecap="round"/><polygon data-face="right" points="166.03,103.00 166.03,73.00 108.87,106.00 108.87,136.00" fill="#5589D6" stroke="#0D32B2" stroke-width="2.00" stroke-linejoin="round" stroke-linecap="round"/><polygon data-face="top" points="81.16,24.00 166.03,73.00 108.87,106.00 24.00,57.00" fill="#F7F8FE" stroke="#0D32B2" stroke-width="2.00" stroke-linejoin="round" stroke-linecap="round"/><g data-face="top-content" transform="matrix(0.8660 0.5000 -0.8660 0.5000 81.16 24.00)"><text x="49.00" y="33.00" dy=".35em" font-family="Helvetica Neue, Arial, sans-serif" font-size="16.00" font-weight="600" fill="#0B1F3A" text-anchor="middle">Worker</text></g></g></g><g data-layer="connector-overlay"><polygon points="742.93,130.00 747.85,122.54 751.85,129.46" fill="#0D32B2"/><rect x="750.53" y="98.00" width="61.00" height="20" rx="4" ry="4" fill="#FFFFFFEE"/><text x="781.03" y="108.00" dy=".35em" font-family="Inter, sans-serif" font-size="11" font-weight="600" fill="#1F2433" text-anchor="middle">request</text><polygon points="526.42,192.00 531.35,184.54 535.35,191.46" fill="#0D32B2"/><rect x="539.22" y="192.00" width="61.00" height="20" rx="4" ry="4" fill="#FFFFFFEE"/><text x="569.72" y="202.00" dy=".35em" font-family="Inter, sans-serif" font-size="11" font-weight="600" fill="#1F2433" text-anchor="middle">enqueue</text><polygon points="320.31,447.00 325.23,439.54 329.23,446.46" fill="#0D32B2"/><rect x="427.11" y="279.75" width="54.00" height="20" rx="4" ry="4" fill="#FFFFFFEE"/><text x="454.11" y="289.75" dy=".35em" font-family="Inter, sans-serif" font-size="11" font-weight="600" fill="#1F2433" text-anchor="middle">lookup</text><polygon points="364.47,285.50 369.40,278.04 373.40,284.96" fill="#0D32B2"/><polygon points="176.54,364.00 181.47,356.54 185.47,363.46" fill="#0D32B2"/><rect x="226.22" y="348.75" width="47.00" height="20" rx="4" ry="4" fill="#FFFFFFEE"/><text x="249.72" y="358.75" dy=".35em" font-family="Inter, sans-serif" font-size="11" font-weight="600" fill="#1F2433" text-anchor="middle">write</text><polygon points="332.43,454.00 337.36,446.54 341.36,453.46" fill="#0D32B2"/><rect x="250.44" y="397.25" width="54.00" height="20" rx="4" ry="4" fill="#FFFFFFEE"/><text x="277.44" y="407.25" dy=".35em" font-family="Inter, sans-serif" font-size="11" font-weight="600" fill="#1F2433" text-anchor="middle">update</text></g></svg>