<svg xmlns="http://www.w3.org/2000/svg" xmlns:xlink="http://www.w3.org/1999/xlink" viewBox="0 0 395 272" width="395" height="272"><g data-face="wrap"><polygon data-face="cell-0-0-0-left" points="142.93,79.33 142.93,55.33 197.21,86.67 197.21,110.67" fill="#1E40AF" stroke="#1E3A8A" stroke-width="0.56" stroke-linejoin="round" stroke-linecap="round"/><polygon data-face="cell-0-0-0-right" points="251.48,79.33 251.48,55.33 197.21,86.67 197.21,110.67" fill="#2563EB" stroke="#1E3A8A" stroke-width="0.56" stroke-linejoin="round" stroke-linecap="round"/><polygon data-face="cell-0-0-0-top" points="197.21,24.00 251.48,55.33 197.21,86.67 142.93,55.33" fill="#DBEAFE" stroke="#1E3A8A" stroke-width="0.56" stroke-linejoin="round" stroke-linecap="round"/><polygon data-face="cell-1-0-0-left" points="202.40,113.67 202.40,89.67 256.67,121.00 256.67,145.00" fill="#1E40AF" stroke="#1E3A8A" stroke-width="0.56" stroke-linejoin="round" stroke-linecap="round"/><polygon data-face="cell-1-0-0-right" points="310.94,113.67 310.94,89.67 256.67,121.00 256.67,145.00" fill="#2563EB" stroke="#1E3A8A" stroke-width="0.56" stroke-linejoin="round" stroke-linecap="round"/><polygon data-face="cell-1-0-0-top" points="256.67,58.33 310.94,89.67 256.67,121.00 202.40,89.67" fill="#DBEAFE" stroke="#1E3A8A" stroke-width="0.56" stroke-linejoin="round" stroke-linecap="round"/><polygon data-face="cell-0-1-0-left" points="83.47,113.67 83.47,89.67 137.74,121.00 137.74,145.00" fill="#1E40AF" stroke="#1E3A8A" stroke-width="0.56" stroke-linejoin="round" stroke-linecap="round"/><polygon data-face="cell-0-1-0-right" points="192.01,113.67 192.01,89.67 137.74,121.00 137.74,145.00" fill="#2563EB" stroke="#1E3A8A" stroke-width="0.56" stroke-linejoin="round" stroke-linecap="round"/><polygon data-face="cell-0-1-0-top" points="137.74,58.33 192.01,89.67 137.74,121.00 83.47,89.67" fill="#DBEAFE" stroke="#1E3A8A" stroke-width="0.56" stroke-linejoin="round" stroke-linecap="round"/><polygon data-face="cell-2-0-0-left" points="261.87,148.00 261.87,124.00 316.14,155.33 316.14,179.33" fill="#1E40AF" stroke="#1E3A8A" stroke-width="0.56" stroke-linejoin="round" stroke-linecap="round"/><polygon data-face="cell-2-0-0-right" points="370.41,148.00 370.41,124.00 316.14,155.33 316.14,179.33" fill="#2563EB" stroke="#1E3A8A" stroke-width="0.56" stroke-linejoin="round" stroke-linecap="round"/><polygon data-face="cell-2-0-0-top" points="316.14,92.67 370.41,124.00 316.14,155.33 261.87,124.00" fill="#DBEAFE" stroke="#1E3A8A" stroke-width="0.56" stroke-linejoin="round" stroke-linecap="round"/><polygon data-face="cell-1-1-0-left" points="142.93,148.00 142.93,124.00 197.21,155.33 197.21,179.33" fill="#1E40AF" stroke="#1E3A8A" stroke-width="0.56" stroke-linejoin="round" stroke-linecap="round"/><polygon data-face="cell-1-1-0-right" points="251.48,148.00 251.48,124.00 197.21,155.33 197.21,179.33" fill="#2563EB" stroke="#1E3A8A" stroke-width="0.56" stroke-linejoin="round" stroke-linecap="round"/><polygon data-face="cell-1-1-0-top" points="197.21,92.67 251.48,124.00 197.21,155.33 142.93,124.00" fill="#DBEAFE" stroke="#1E3A8A" stroke-width="0.56" stroke-linejoin="round" stroke-linecap="round"/><polygon data-face="cell-0-2-0-left" points="24.00,148.00 24.00,124.00 78.27,155.33 78.27,179.33" fill="#1E40AF" stroke="#1E3A8A" stroke-width="0.56" stroke-linejoin="round" stroke-linecap="round"/><polygon data-face="cell-0-2-0-right" points="132.54,148.00 132.54,124.00 78.27,155.33 78.27,179.33" fill="#2563EB" stroke="#1E3A8A" stroke-width="0.56" stroke-linejoin="round" stroke-linecap="round"/><polygon data-face="cell-0-2-0-top" points="78.27,92.67 132.54,124.00 78.27,155.33 24.00,124.00" fill="#DBEAFE" stroke="#1E3A8A" stroke-width="0.56" stroke-linejoin="round" stroke-linecap="round"/><polygon data-face="cell-2-1-0-left" points="202.40,182.33 202.40,158.33 256.67,189.67 256.67,213.67" fill="#1E40AF" stroke="#1E3A8A" stroke-width="0.56" stroke-linejoin="round" stroke-linecap="round"/><polygon data-face="cell-2-1-0-right" points="310.94,182.33 310.94,158.33 256.67,189.67 256.67,213.67" fill="#2563EB" stroke="#1E3A8A" stroke-width="0.56" stroke-linejoin="round" stroke-linecap="round"/><polygon data-face="cell-2-1-0-top" points="256.67,127.00 310.94,158.33 256.67,189.67 202.40,158.33" fill="#DBEAFE" stroke="#1E3A8A" stroke-width="0.56" stroke-linejoin="round" stroke-linecap="round"/><polygon data-face="cell-1-2-0-left" points="83.47,182.33 83.47,158.33 137.74,189.67 137.74,213.67" fill="#1E40AF" stroke="#1E3A8A" stroke-width="0.56" stroke-linejoin="round" stroke-linecap="round"/><polygon data-face="cell-1-2-0-right" points="192.01,182.33 192.01,158.33 137.74,189.67 137.74,213.67" fill="#2563EB" stroke="#1E3A8A" stroke-width="0.56" stroke-linejoin="round" stroke-linecap="round"/><polygon data-face="cell-1-2-0-top" points="137.74,127.00 192.01,158.33 137.74,189.67 83.47,158.33" fill="#DBEAFE" stroke="#1E3A8A" stroke-width="0.56" stroke-linejoin="round" stroke-linecap="round"/><polygon data-face="cell-2-2-0-left" points="142.93,216.67 142.93,192.67 197.21,224.00 197.21,248.00" fill="#1E40AF" stroke="#1E3A8A" stroke-width="0.56" stroke-linejoin="round" stroke-linecap="round"/><polygon data-face="cell-2-2-0-right" points="251.48,216.67 251.48,192.67 197.21,224.00 197.21,248.00" fill="#2563EB" stroke="#1E3A8A" stroke-width="0.56" stroke-linejoin="round" stroke-linecap="round"/><polygon data-face="cell-2-2-0-top" points="197.21,161.33 251.48,192.67 197.21,224.00 142.93,192.67" fill="#DBEAFE" stroke="#1E3A8A" stroke-width="0.56" stroke-linejoin="round" stroke-linecap="round"/><g data-face="top-content" transform="matrix(0.8660 0.5000 -0.8660 0.5000 197.21 24.00)"><text x="100.00" y="100.00" dy=".35em" font-family="Helvetica Neue, Arial, sans-serif" font-size="16.00" font-weight="600" fill="#0B1F3A" text-anchor="middle">Shard Matrix</text></g></g></svg>