<svg xmlns="http://www.w3.org/2000/svg" xmlns:xlink="http://www.w3.org/1999/xlink" viewBox="0 0 232.44 180.49" width="232.44" height="180.49"><defs><linearGradient id="rounded-side" x1="50%" y1="0%" x2="50%" y2="100%"><stop offset="0%" stop-color="#94A7C7"/><stop offset="100%" stop-color="#6B82A8"/></linearGradient></defs><g data-face="wrap"><path data-face="side" d="M 208.44,107.24 L 208.38,107.80 L 208.19,108.34 L 207.88,108.87 L 207.45,109.36 L 206.92,109.83 L 206.29,110.24 L 204.46,111.30 L 202.63,112.35 L 200.80,113.41 L 198.97,114.46 L 197.14,115.52 L 195.32,116.58 L 193.49,117.63 L 191.66,118.69 L 189.83,119.74 L 188.00,120.80 L 186.17,121.85 L 184.35,122.91 L 182.52,123.96 L 180.69,125.02 L 178.86,126.08 L 177.03,127.13 L 175.20,128.19 L 173.38,129.24 L 172.65,129.61 L 171.85,129.92 L 170.99,130.16 L 170.08,130.34 L 169.14,130.45 L 168.18,130.49 L 167.22,130.45 L 166.28,130.34 L 165.37,130.16 L 164.51,129.92 L 163.71,129.61 L 162.98,129.24 L 155.38,124.85 L 147.78,120.46 L 140.18,116.08 L 132.58,111.69 L 124.98,107.30 L 117.37,102.91 L 109.77,98.52 L 102.17,94.13 L 94.57,89.74 L 86.97,85.35 L 79.36,80.96 L 71.76,76.58 L 64.16,72.19 L 56.56,67.80 L 48.96,63.41 L 41.36,59.02 L 33.75,54.63 L 26.15,50.24 L 25.52,49.83 L 24.98,49.36 L 24.56,48.87 L 24.25,48.34 L 24.06,47.80 L 24.06,73.80 L 24.25,74.34 L 24.56,74.87 L 24.98,75.36 L 25.52,75.83 L 26.15,76.24 L 33.75,80.63 L 41.36,85.02 L 48.96,89.41 L 56.56,93.80 L 64.16,98.19 L 71.76,102.58 L 79.36,106.96 L 86.97,111.35 L 94.57,115.74 L 102.17,120.13 L 109.77,124.52 L 117.37,128.91 L 124.98,133.30 L 132.58,137.69 L 140.18,142.08 L 147.78,146.46 L 155.38,150.85 L 162.98,155.24 L 163.71,155.61 L 164.51,155.92 L 165.37,156.16 L 166.28,156.34 L 167.22,156.45 L 168.18,156.49 L 169.14,156.45 L 170.08,156.34 L 170.99,156.16 L 171.85,155.92 L 172.65,155.61 L 173.38,155.24 L 175.20,154.19 L 177.03,153.13 L 178.86,152.08 L 180.69,151.02 L 182.52,149.96 L 184.35,148.91 L 186.17,147.85 L 188.00,146.80 L 189.83,145.74 L 191.66,144.69 L 193.49,143.63 L 195.32,142.58 L 197.14,141.52 L 198.97,140.46 L 200.80,139.41 L 202.63,138.35 L 204.46,137.30 L 206.29,136.24 L 206.92,135.83 L 207.45,135.36 L 207.88,134.87 L 208.19,134.34 L 208.38,133.80 L 208.44,133.24 Z" fill="url(#rounded-side)" stroke="none"/><path data-face="top" d="M 69.45,25.24 L 77.06,29.63 L 84.66,34.02 L 92.26,38.41 L 99.86,42.80 L 107.46,47.19 L 115.06,51.58 L 122.67,55.96 L 130.27,60.35 L 137.87,64.74 L 145.47,69.13 L 153.07,73.52 L 160.67,77.91 L 168.28,82.30 L 175.88,86.69 L 183.48,91.08 L 191.08,95.46 L 198.68,99.85 L 206.29,104.24 L 206.92,104.66 L 207.45,105.12 L 207.88,105.62 L 208.19,106.14 L 208.38,106.69 L 208.44,107.24 L 208.38,107.80 L 208.19,108.34 L 207.88,108.87 L 207.45,109.36 L 206.92,109.83 L 206.29,110.24 L 204.46,111.30 L 202.63,112.35 L 200.80,113.41 L 198.97,114.46 L 197.14,115.52 L 195.32,116.58 L 193.49,117.63 L 191.66,118.69 L 189.83,119.74 L 188.00,120.80 L 186.17,121.85 L 184.35,122.91 L 182.52,123.96 L 180.69,125.02 L 178.86,126.08 L 177.03,127.13 L 175.20,128.19 L 173.38,129.24 L 172.65,129.61 L 171.85,129.92 L 170.99,130.16 L 170.08,130.34 L 169.14,130.45 L 168.18,130.49 L 167.22,130.45 L 166.28,130.34 L 165.37,130.16 L 164.51,129.92 L 163.71,129.61 L 162.98,129.24 L 155.38,124.85 L 147.78,120.46 L 140.18,116.08 L 132.58,111.69 L 124.98,107.30 L 117.37,102.91 L 109.77,98.52 L 102.17,94.13 L 94.57,89.74 L 86.97,85.35 L 79.36,80.96 L 71.76,76.58 L 64.16,72.19 L 56.56,67.80 L 48.96,63.41 L 41.36,59.02 L 33.75,54.63 L 26.15,50.24 L 25.52,49.83 L 24.98,49.36 L 24.56,48.87 L 24.25,48.34 L 24.06,47.80 L 24.00,47.24 L 24.06,46.69 L 24.25,46.14 L 24.56,45.62 L 24.98,45.12 L 25.52,44.66 L 26.15,44.24 L 27.98,43.19 L 29.81,42.13 L 31.64,41.08 L 33.47,40.02 L 35.29,38.96 L 37.12,37.91 L 38.95,36.85 L 40.78,35.80 L 42.61,34.74 L 44.44,33.69 L 46.26,32.63 L 48.09,31.58 L 49.92,30.52 L 51.75,29.46 L 53.58,28.41 L 55.40,27.35 L 57.23,26.30 L 59.06,25.24 L 59.78,24.88 L 60.58,24.57 L 61.45,24.32 L 62.36,24.14 L 63.30,24.04 L 64.26,24.00 L 65.22,24.04 L 66.16,24.14 L 67.07,24.32 L 67.93,24.57 L 68.73,24.88 L 69.45,25.24 Z" fill="#FFFFFF" stroke="#3A4A66" stroke-width="1.40" stroke-linejoin="round"/><path data-face="silhouette" d="M 208.44,107.24 L 208.44,133.24 L 208.38,133.80 L 208.19,134.34 L 207.88,134.87 L 207.45,135.36 L 206.92,135.83 L 206.29,136.24 L 204.46,137.30 L 202.63,138.35 L 200.80,139.41 L 198.97,140.46 L 197.14,141.52 L 195.32,142.58 L 193.49,143.63 L 191.66,144.69 L 189.83,145.74 L 188.00,146.80 L 186.17,147.85 L 184.35,148.91 L 182.52,149.96 L 180.69,151.02 L 178.86,152.08 L 177.03,153.13 L 175.20,154.19 L 173.38,155.24 L 172.65,155.61 L 171.85,155.92 L 170.99,156.16 L 170.08,156.34 L 169.14,156.45 L 168.18,156.49 L 167.22,156.45 L 166.28,156.34 L 165.37,156.16 L 164.51,155.92 L 163.71,155.61 L 162.98,155.24 L 155.38,150.85 L 147.78,146.46 L 140.18,142.08 L 132.58,137.69 L 124.98,133.30 L 117.37,128.91 L 109.77,124.52 L 102.17,120.13 L 94.57,115.74 L 86.97,111.35 L 79.36,106.96 L 71.76,102.58 L 64.16,98.19 L 56.56,93.80 L 48.96,89.41 L 41.36,85.02 L 33.75,80.63 L 26.15,76.24 L 25.52,75.83 L 24.98,75.36 L 24.56,74.87 L 24.25,74.34 L 24.06,73.80 L 24.06,47.80" fill="none" stroke="#3A4A66" stroke-width="1.40" stroke-linejoin="round" stroke-linecap="round"/><g data-face="top-content" transform="matrix(0.8660 0.5000 -0.8660 0.5000 64.26 22.24)"><text x="85.00" y="25.00" dy=".35em" font-family="Inter, sans-serif" font-size="8.00" font-weight="700" fill="#3A4A66" text-anchor="middle">INGRESS CONTROLLER</text></g></g></svg>