<svg xmlns="http://www.w3.org/2000/svg" xmlns:xlink="http://www.w3.org/1999/xlink" viewBox="0 0 118.00 188.21" width="118.00" height="188.21"><g data-face="wrap"><defs><radialGradient id="person-head-grad" cx="35%" cy="30%" r="75%"><stop offset="0%" stop-color="#F4C8A8"/><stop offset="100%" stop-color="#3A549B"/></radialGradient></defs><path data-face="body-left" d="M 24.00 86.01 L 24.00 144.01 A 35.00 20.21 0 0 0 59.00 164.21 L 59.00 106.21 A 35.00 20.21 0 0 0 24.00 86.01 Z" fill="#3A549B" stroke="none"/><path data-face="body-right" d="M 94.00 86.01 L 94.00 144.01 A 35.00 20.21 0 0 1 59.00 164.21 L 59.00 106.21 A 35.00 20.21 0 0 1 94.00 86.01 Z" fill="#5478C2" stroke="none"/><path data-face="body-outline" d="M 24.00 86.01 L 24.00 144.01 A 35.00 20.21 0 0 0 94.00 144.01 L 94.00 86.01" fill="none" stroke="#1F2E50" stroke-width="1.40" stroke-linejoin="round" stroke-linecap="round"/><ellipse data-face="body-top" cx="59.00" cy="86.01" rx="35.00" ry="20.21" fill="#F4C8A8" stroke="#1F2E50" stroke-width="1.40"/><circle data-face="head" cx="59.00" cy="42.90" r="18.90" fill="url(#person-head-grad)" stroke="#1F2E50" stroke-width="1.40"/></g></svg>