<svg xmlns="http://www.w3.org/2000/svg" xmlns:xlink="http://www.w3.org/1999/xlink" viewBox="0 0 360.86 238.63" width="360.86" height="238.63"><defs><linearGradient id="rounded-side" x1="50%" y1="0%" x2="50%" y2="100%"><stop offset="0%" stop-color="#A6B7D2"/><stop offset="100%" stop-color="#7E94B5"/></linearGradient></defs><g data-face="wrap"><path data-face="side" d="M 336.86,129.31 L 336.69,130.79 L 336.19,132.24 L 335.36,133.64 L 334.23,134.97 L 332.81,136.20 L 331.12,137.31 L 324.96,140.87 L 318.80,144.42 L 312.64,147.98 L 306.48,151.54 L 300.32,155.09 L 294.17,158.65 L 288.01,162.20 L 281.85,165.76 L 275.69,169.31 L 269.53,172.87 L 263.37,176.42 L 257.22,179.98 L 251.06,183.54 L 244.90,187.09 L 238.74,190.65 L 232.58,194.20 L 226.42,197.76 L 220.27,201.31 L 218.34,202.29 L 216.21,203.11 L 213.91,203.77 L 211.48,204.24 L 208.97,204.53 L 206.41,204.63 L 203.85,204.53 L 201.34,204.24 L 198.91,203.77 L 196.61,203.11 L 194.48,202.29 L 192.55,201.31 L 183.51,196.09 L 174.46,190.87 L 165.42,185.65 L 156.37,180.42 L 147.33,175.20 L 138.28,169.98 L 129.24,164.76 L 120.19,159.54 L 111.15,154.31 L 102.10,149.09 L 93.06,143.87 L 84.01,138.65 L 74.97,133.42 L 65.92,128.20 L 56.87,122.98 L 47.83,117.76 L 38.78,112.54 L 29.74,107.31 L 28.05,106.20 L 26.63,104.97 L 25.49,103.64 L 24.67,102.24 L 24.17,100.79 L 24.17,110.79 L 24.67,112.24 L 25.49,113.64 L 26.63,114.97 L 28.05,116.20 L 29.74,117.31 L 38.78,122.54 L 47.83,127.76 L 56.87,132.98 L 65.92,138.20 L 74.97,143.42 L 84.01,148.65 L 93.06,153.87 L 102.10,159.09 L 111.15,164.31 L 120.19,169.54 L 129.24,174.76 L 138.28,179.98 L 147.33,185.20 L 156.37,190.42 L 165.42,195.65 L 174.46,200.87 L 183.51,206.09 L 192.55,211.31 L 194.48,212.29 L 196.61,213.11 L 198.91,213.77 L 201.34,214.24 L 203.85,214.53 L 206.41,214.63 L 208.97,214.53 L 211.48,214.24 L 213.91,213.77 L 216.21,213.11 L 218.34,212.29 L 220.27,211.31 L 226.42,207.76 L 232.58,204.20 L 238.74,200.65 L 244.90,197.09 L 251.06,193.54 L 257.22,189.98 L 263.37,186.42 L 269.53,182.87 L 275.69,179.31 L 281.85,175.76 L 288.01,172.20 L 294.17,168.65 L 300.32,165.09 L 306.48,161.54 L 312.64,157.98 L 318.80,154.42 L 324.96,150.87 L 331.12,147.31 L 332.81,146.20 L 334.23,144.97 L 335.36,143.64 L 336.19,142.24 L 336.69,140.79 L 336.86,139.31 Z" fill="url(#rounded-side)" stroke="none"/><path data-face="top" d="M 168.30,27.31 L 177.35,32.54 L 186.39,37.76 L 195.44,42.98 L 204.48,48.20 L 213.53,53.42 L 222.57,58.65 L 231.62,63.87 L 240.66,69.09 L 249.71,74.31 L 258.76,79.54 L 267.80,84.76 L 276.85,89.98 L 285.89,95.20 L 294.94,100.42 L 303.98,105.65 L 313.03,110.87 L 322.07,116.09 L 331.12,121.31 L 332.81,122.43 L 334.23,123.66 L 335.36,124.98 L 336.19,126.39 L 336.69,127.84 L 336.86,129.31 L 336.69,130.79 L 336.19,132.24 L 335.36,133.64 L 334.23,134.97 L 332.81,136.20 L 331.12,137.31 L 324.96,140.87 L 318.80,144.42 L 312.64,147.98 L 306.48,151.54 L 300.32,155.09 L 294.17,158.65 L 288.01,162.20 L 281.85,165.76 L 275.69,169.31 L 269.53,172.87 L 263.37,176.42 L 257.22,179.98 L 251.06,183.54 L 244.90,187.09 L 238.74,190.65 L 232.58,194.20 L 226.42,197.76 L 220.27,201.31 L 218.34,202.29 L 216.21,203.11 L 213.91,203.77 L 211.48,204.24 L 208.97,204.53 L 206.41,204.63 L 203.85,204.53 L 201.34,204.24 L 198.91,203.77 L 196.61,203.11 L 194.48,202.29 L 192.55,201.31 L 183.51,196.09 L 174.46,190.87 L 165.42,185.65 L 156.37,180.42 L 147.33,175.20 L 138.28,169.98 L 129.24,164.76 L 120.19,159.54 L 111.15,154.31 L 102.10,149.09 L 93.06,143.87 L 84.01,138.65 L 74.97,133.42 L 65.92,128.20 L 56.87,122.98 L 47.83,117.76 L 38.78,112.54 L 29.74,107.31 L 28.05,106.20 L 26.63,104.97 L 25.49,103.64 L 24.67,102.24 L 24.17,100.79 L 24.00,99.31 L 24.17,97.84 L 24.67,96.39 L 25.49,94.98 L 26.63,93.66 L 28.05,92.43 L 29.74,91.31 L 35.90,87.76 L 42.06,84.20 L 48.21,80.65 L 54.37,77.09 L 60.53,73.54 L 66.69,69.98 L 72.85,66.42 L 79.01,62.87 L 85.17,59.31 L 91.32,55.76 L 97.48,52.20 L 103.64,48.65 L 109.80,45.09 L 115.96,41.54 L 122.12,37.98 L 128.27,34.42 L 134.43,30.87 L 140.59,27.31 L 142.52,26.34 L 144.65,25.52 L 146.95,24.86 L 149.38,24.39 L 151.89,24.10 L 154.45,24.00 L 157.00,24.10 L 159.52,24.39 L 161.95,24.86 L 164.25,25.52 L 166.38,26.34 L 168.30,27.31 Z" fill="#D7DFEE" stroke="#3A4A66" stroke-width="1.20" stroke-linejoin="round"/><path data-face="silhouette" d="M 336.86,129.31 L 336.86,139.31 L 336.69,140.79 L 336.19,142.24 L 335.36,143.64 L 334.23,144.97 L 332.81,146.20 L 331.12,147.31 L 324.96,150.87 L 318.80,154.42 L 312.64,157.98 L 306.48,161.54 L 300.32,165.09 L 294.17,168.65 L 288.01,172.20 L 281.85,175.76 L 275.69,179.31 L 269.53,182.87 L 263.37,186.42 L 257.22,189.98 L 251.06,193.54 L 244.90,197.09 L 238.74,200.65 L 232.58,204.20 L 226.42,207.76 L 220.27,211.31 L 218.34,212.29 L 216.21,213.11 L 213.91,213.77 L 211.48,214.24 L 208.97,214.53 L 206.41,214.63 L 203.85,214.53 L 201.34,214.24 L 198.91,213.77 L 196.61,213.11 L 194.48,212.29 L 192.55,211.31 L 183.51,206.09 L 174.46,200.87 L 165.42,195.65 L 156.37,190.42 L 147.33,185.20 L 138.28,179.98 L 129.24,174.76 L 120.19,169.54 L 111.15,164.31 L 102.10,159.09 L 93.06,153.87 L 84.01,148.65 L 74.97,143.42 L 65.92,138.20 L 56.87,132.98 L 47.83,127.76 L 38.78,122.54 L 29.74,117.31 L 28.05,116.20 L 26.63,114.97 L 25.49,113.64 L 24.67,112.24 L 24.17,110.79 L 24.17,100.79" fill="none" stroke="#3A4A66" stroke-width="1.20" stroke-linejoin="round" stroke-linecap="round"/><g data-face="top-content" transform="matrix(0.8660 0.5000 -0.8660 0.5000 154.45 19.31)"><text x="110.00" y="80.00" dy=".35em" font-family="Inter, sans-serif" font-size="10.00" font-weight="700" fill="#3A4A66" text-anchor="middle">WORKER NODE</text></g></g></svg>