<svg xmlns="http://www.w3.org/2000/svg" xmlns:xlink="http://www.w3.org/1999/xlink" viewBox="0 0 395.50 258.63" width="395.50" height="258.63"><defs><linearGradient id="rounded-side" x1="50%" y1="0%" x2="50%" y2="100%"><stop offset="0%" stop-color="#A6B7D2"/><stop offset="100%" stop-color="#7E94B5"/></linearGradient></defs><g data-face="wrap"><path data-face="side" d="M 371.50,139.31 L 371.33,140.79 L 370.83,142.24 L 370.01,143.64 L 368.87,144.97 L 367.45,146.20 L 365.76,147.31 L 358.64,151.42 L 351.52,155.54 L 344.40,159.65 L 337.27,163.76 L 330.15,167.87 L 323.03,171.98 L 315.91,176.09 L 308.79,180.20 L 301.67,184.31 L 294.55,188.42 L 287.43,192.54 L 280.31,196.65 L 273.19,200.76 L 266.07,204.87 L 258.95,208.98 L 251.83,213.09 L 244.71,217.20 L 237.59,221.31 L 235.66,222.29 L 233.53,223.11 L 231.23,223.77 L 228.80,224.24 L 226.29,224.53 L 223.73,224.63 L 221.17,224.53 L 218.66,224.24 L 216.23,223.77 L 213.93,223.11 L 211.80,222.29 L 209.87,221.31 L 199.87,215.54 L 189.86,209.76 L 179.85,203.98 L 169.84,198.20 L 159.84,192.42 L 149.83,186.65 L 139.82,180.87 L 129.81,175.09 L 119.81,169.31 L 109.80,163.54 L 99.79,157.76 L 89.78,151.98 L 79.78,146.20 L 69.77,140.42 L 59.76,134.65 L 49.75,128.87 L 39.75,123.09 L 29.74,117.31 L 28.05,116.20 L 26.63,114.97 L 25.49,113.64 L 24.67,112.24 L 24.17,110.79 L 24.17,120.79 L 24.67,122.24 L 25.49,123.64 L 26.63,124.97 L 28.05,126.20 L 29.74,127.31 L 39.75,133.09 L 49.75,138.87 L 59.76,144.65 L 69.77,150.42 L 79.78,156.20 L 89.78,161.98 L 99.79,167.76 L 109.80,173.54 L 119.81,179.31 L 129.81,185.09 L 139.82,190.87 L 149.83,196.65 L 159.84,202.42 L 169.84,208.20 L 179.85,213.98 L 189.86,219.76 L 199.87,225.54 L 209.87,231.31 L 211.80,232.29 L 213.93,233.11 L 216.23,233.77 L 218.66,234.24 L 221.17,234.53 L 223.73,234.63 L 226.29,234.53 L 228.80,234.24 L 231.23,233.77 L 233.53,233.11 L 235.66,232.29 L 237.59,231.31 L 244.71,227.20 L 251.83,223.09 L 258.95,218.98 L 266.07,214.87 L 273.19,210.76 L 280.31,206.65 L 287.43,202.54 L 294.55,198.42 L 301.67,194.31 L 308.79,190.20 L 315.91,186.09 L 323.03,181.98 L 330.15,177.87 L 337.27,173.76 L 344.40,169.65 L 351.52,165.54 L 358.64,161.42 L 365.76,157.31 L 367.45,156.20 L 368.87,154.97 L 370.01,153.64 L 370.83,152.24 L 371.33,150.79 L 371.50,149.31 Z" fill="url(#rounded-side)" stroke="none"/><path data-face="top" d="M 185.62,27.31 L 195.63,33.09 L 205.64,38.87 L 215.65,44.65 L 225.65,50.42 L 235.66,56.20 L 245.67,61.98 L 255.68,67.76 L 265.68,73.54 L 275.69,79.31 L 285.70,85.09 L 295.71,90.87 L 305.71,96.65 L 315.72,102.42 L 325.73,108.20 L 335.74,113.98 L 345.74,119.76 L 355.75,125.54 L 365.76,131.31 L 367.45,132.43 L 368.87,133.66 L 370.01,134.98 L 370.83,136.39 L 371.33,137.84 L 371.50,139.31 L 371.33,140.79 L 370.83,142.24 L 370.01,143.64 L 368.87,144.97 L 367.45,146.20 L 365.76,147.31 L 358.64,151.42 L 351.52,155.54 L 344.40,159.65 L 337.27,163.76 L 330.15,167.87 L 323.03,171.98 L 315.91,176.09 L 308.79,180.20 L 301.67,184.31 L 294.55,188.42 L 287.43,192.54 L 280.31,196.65 L 273.19,200.76 L 266.07,204.87 L 258.95,208.98 L 251.83,213.09 L 244.71,217.20 L 237.59,221.31 L 235.66,222.29 L 233.53,223.11 L 231.23,223.77 L 228.80,224.24 L 226.29,224.53 L 223.73,224.63 L 221.17,224.53 L 218.66,224.24 L 216.23,223.77 L 213.93,223.11 L 211.80,222.29 L 209.87,221.31 L 199.87,215.54 L 189.86,209.76 L 179.85,203.98 L 169.84,198.20 L 159.84,192.42 L 149.83,186.65 L 139.82,180.87 L 129.81,175.09 L 119.81,169.31 L 109.80,163.54 L 99.79,157.76 L 89.78,151.98 L 79.78,146.20 L 69.77,140.42 L 59.76,134.65 L 49.75,128.87 L 39.75,123.09 L 29.74,117.31 L 28.05,116.20 L 26.63,114.97 L 25.49,113.64 L 24.67,112.24 L 24.17,110.79 L 24.00,109.31 L 24.17,107.84 L 24.67,106.39 L 25.49,104.98 L 26.63,103.66 L 28.05,102.43 L 29.74,101.31 L 36.86,97.20 L 43.98,93.09 L 51.10,88.98 L 58.22,84.87 L 65.34,80.76 L 72.46,76.65 L 79.58,72.54 L 86.70,68.42 L 93.83,64.31 L 100.95,60.20 L 108.07,56.09 L 115.19,51.98 L 122.31,47.87 L 129.43,43.76 L 136.55,39.65 L 143.67,35.54 L 150.79,31.42 L 157.91,27.31 L 159.84,26.34 L 161.97,25.52 L 164.27,24.86 L 166.70,24.39 L 169.21,24.10 L 171.77,24.00 L 174.33,24.10 L 176.84,24.39 L 179.27,24.86 L 181.57,25.52 L 183.70,26.34 L 185.62,27.31 Z" fill="#D7DFEE" stroke="#3A4A66" stroke-width="1.20" stroke-linejoin="round"/><path data-face="silhouette" d="M 371.50,139.31 L 371.50,149.31 L 371.33,150.79 L 370.83,152.24 L 370.01,153.64 L 368.87,154.97 L 367.45,156.20 L 365.76,157.31 L 358.64,161.42 L 351.52,165.54 L 344.40,169.65 L 337.27,173.76 L 330.15,177.87 L 323.03,181.98 L 315.91,186.09 L 308.79,190.20 L 301.67,194.31 L 294.55,198.42 L 287.43,202.54 L 280.31,206.65 L 273.19,210.76 L 266.07,214.87 L 258.95,218.98 L 251.83,223.09 L 244.71,227.20 L 237.59,231.31 L 235.66,232.29 L 233.53,233.11 L 231.23,233.77 L 228.80,234.24 L 226.29,234.53 L 223.73,234.63 L 221.17,234.53 L 218.66,234.24 L 216.23,233.77 L 213.93,233.11 L 211.80,232.29 L 209.87,231.31 L 199.87,225.54 L 189.86,219.76 L 179.85,213.98 L 169.84,208.20 L 159.84,202.42 L 149.83,196.65 L 139.82,190.87 L 129.81,185.09 L 119.81,179.31 L 109.80,173.54 L 99.79,167.76 L 89.78,161.98 L 79.78,156.20 L 69.77,150.42 L 59.76,144.65 L 49.75,138.87 L 39.75,133.09 L 29.74,127.31 L 28.05,126.20 L 26.63,124.97 L 25.49,123.64 L 24.67,122.24 L 24.17,120.79 L 24.17,110.79" fill="none" stroke="#3A4A66" stroke-width="1.20" stroke-linejoin="round" stroke-linecap="round"/><g data-face="top-content" transform="matrix(0.8660 0.5000 -0.8660 0.5000 171.77 19.31)"><text x="120.00" y="90.00" dy=".35em" font-family="Inter, sans-serif" font-size="10.00" font-weight="700" fill="#3A4A66" text-anchor="middle">WORKER NODE</text></g></g></svg>