<svg xmlns="http://www.w3.org/2000/svg" xmlns:xlink="http://www.w3.org/1999/xlink" viewBox="0 0 421.48 273.63" width="421.48" height="273.63"><defs><linearGradient id="rounded-side" x1="50%" y1="0%" x2="50%" y2="100%"><stop offset="0%" stop-color="#A6B7D2"/><stop offset="100%" stop-color="#7E94B5"/></linearGradient></defs><g data-face="wrap"><path data-face="side" d="M 397.48,149.31 L 397.31,150.79 L 396.81,152.24 L 395.99,153.64 L 394.85,154.97 L 393.43,156.20 L 391.74,157.31 L 384.14,161.70 L 376.53,166.09 L 368.93,170.48 L 361.33,174.87 L 353.73,179.26 L 346.13,183.65 L 338.53,188.04 L 330.92,192.42 L 323.32,196.81 L 315.72,201.20 L 308.12,205.59 L 300.52,209.98 L 292.92,214.37 L 285.31,218.76 L 277.71,223.15 L 270.11,227.54 L 262.51,231.92 L 254.91,236.31 L 252.98,237.29 L 250.85,238.11 L 248.55,238.77 L 246.12,239.24 L 243.61,239.53 L 241.05,239.63 L 238.49,239.53 L 235.98,239.24 L 233.55,238.77 L 231.25,238.11 L 229.12,237.29 L 227.19,236.31 L 216.22,229.98 L 205.25,223.65 L 194.28,217.31 L 183.31,210.98 L 172.35,204.65 L 161.38,198.31 L 150.41,191.98 L 139.44,185.65 L 128.47,179.31 L 117.50,172.98 L 106.53,166.65 L 95.56,160.31 L 84.59,153.98 L 73.62,147.65 L 62.65,141.31 L 51.68,134.98 L 40.71,128.65 L 29.74,122.31 L 28.05,121.20 L 26.63,119.97 L 25.49,118.64 L 24.67,117.24 L 24.17,115.79 L 24.17,125.79 L 24.67,127.24 L 25.49,128.64 L 26.63,129.97 L 28.05,131.20 L 29.74,132.31 L 40.71,138.65 L 51.68,144.98 L 62.65,151.31 L 73.62,157.65 L 84.59,163.98 L 95.56,170.31 L 106.53,176.65 L 117.50,182.98 L 128.47,189.31 L 139.44,195.65 L 150.41,201.98 L 161.38,208.31 L 172.35,214.65 L 183.31,220.98 L 194.28,227.31 L 205.25,233.65 L 216.22,239.98 L 227.19,246.31 L 229.12,247.29 L 231.25,248.11 L 233.55,248.77 L 235.98,249.24 L 238.49,249.53 L 241.05,249.63 L 243.61,249.53 L 246.12,249.24 L 248.55,248.77 L 250.85,248.11 L 252.98,247.29 L 254.91,246.31 L 262.51,241.92 L 270.11,237.54 L 277.71,233.15 L 285.31,228.76 L 292.92,224.37 L 300.52,219.98 L 308.12,215.59 L 315.72,211.20 L 323.32,206.81 L 330.92,202.42 L 338.53,198.04 L 346.13,193.65 L 353.73,189.26 L 361.33,184.87 L 368.93,180.48 L 376.53,176.09 L 384.14,171.70 L 391.74,167.31 L 393.43,166.20 L 394.85,164.97 L 395.99,163.64 L 396.81,162.24 L 397.31,160.79 L 397.48,159.31 Z" fill="url(#rounded-side)" stroke="none"/><path data-face="top" d="M 194.28,27.31 L 205.25,33.65 L 216.22,39.98 L 227.19,46.31 L 238.16,52.65 L 249.13,58.98 L 260.10,65.31 L 271.07,71.65 L 282.04,77.98 L 293.01,84.31 L 303.98,90.65 L 314.95,96.98 L 325.92,103.31 L 336.89,109.65 L 347.86,115.98 L 358.83,122.31 L 369.80,128.65 L 380.77,134.98 L 391.74,141.31 L 393.43,142.43 L 394.85,143.66 L 395.99,144.98 L 396.81,146.39 L 397.31,147.84 L 397.48,149.31 L 397.31,150.79 L 396.81,152.24 L 395.99,153.64 L 394.85,154.97 L 393.43,156.20 L 391.74,157.31 L 384.14,161.70 L 376.53,166.09 L 368.93,170.48 L 361.33,174.87 L 353.73,179.26 L 346.13,183.65 L 338.53,188.04 L 330.92,192.42 L 323.32,196.81 L 315.72,201.20 L 308.12,205.59 L 300.52,209.98 L 292.92,214.37 L 285.31,218.76 L 277.71,223.15 L 270.11,227.54 L 262.51,231.92 L 254.91,236.31 L 252.98,237.29 L 250.85,238.11 L 248.55,238.77 L 246.12,239.24 L 243.61,239.53 L 241.05,239.63 L 238.49,239.53 L 235.98,239.24 L 233.55,238.77 L 231.25,238.11 L 229.12,237.29 L 227.19,236.31 L 216.22,229.98 L 205.25,223.65 L 194.28,217.31 L 183.31,210.98 L 172.35,204.65 L 161.38,198.31 L 150.41,191.98 L 139.44,185.65 L 128.47,179.31 L 117.50,172.98 L 106.53,166.65 L 95.56,160.31 L 84.59,153.98 L 73.62,147.65 L 62.65,141.31 L 51.68,134.98 L 40.71,128.65 L 29.74,122.31 L 28.05,121.20 L 26.63,119.97 L 25.49,118.64 L 24.67,117.24 L 24.17,115.79 L 24.00,114.31 L 24.17,112.84 L 24.67,111.39 L 25.49,109.98 L 26.63,108.66 L 28.05,107.43 L 29.74,106.31 L 37.34,101.92 L 44.94,97.54 L 52.54,93.15 L 60.15,88.76 L 67.75,84.37 L 75.35,79.98 L 82.95,75.59 L 90.55,71.20 L 98.16,66.81 L 105.76,62.42 L 113.36,58.04 L 120.96,53.65 L 128.56,49.26 L 136.16,44.87 L 143.77,40.48 L 151.37,36.09 L 158.97,31.70 L 166.57,27.31 L 168.50,26.34 L 170.63,25.52 L 172.93,24.86 L 175.36,24.39 L 177.87,24.10 L 180.43,24.00 L 182.99,24.10 L 185.50,24.39 L 187.93,24.86 L 190.23,25.52 L 192.36,26.34 L 194.28,27.31 Z" fill="#D7DFEE" stroke="#3A4A66" stroke-width="1.20" stroke-linejoin="round"/><path data-face="silhouette" d="M 397.48,149.31 L 397.48,159.31 L 397.31,160.79 L 396.81,162.24 L 395.99,163.64 L 394.85,164.97 L 393.43,166.20 L 391.74,167.31 L 384.14,171.70 L 376.53,176.09 L 368.93,180.48 L 361.33,184.87 L 353.73,189.26 L 346.13,193.65 L 338.53,198.04 L 330.92,202.42 L 323.32,206.81 L 315.72,211.20 L 308.12,215.59 L 300.52,219.98 L 292.92,224.37 L 285.31,228.76 L 277.71,233.15 L 270.11,237.54 L 262.51,241.92 L 254.91,246.31 L 252.98,247.29 L 250.85,248.11 L 248.55,248.77 L 246.12,249.24 L 243.61,249.53 L 241.05,249.63 L 238.49,249.53 L 235.98,249.24 L 233.55,248.77 L 231.25,248.11 L 229.12,247.29 L 227.19,246.31 L 216.22,239.98 L 205.25,233.65 L 194.28,227.31 L 183.31,220.98 L 172.35,214.65 L 161.38,208.31 L 150.41,201.98 L 139.44,195.65 L 128.47,189.31 L 117.50,182.98 L 106.53,176.65 L 95.56,170.31 L 84.59,163.98 L 73.62,157.65 L 62.65,151.31 L 51.68,144.98 L 40.71,138.65 L 29.74,132.31 L 28.05,131.20 L 26.63,129.97 L 25.49,128.64 L 24.67,127.24 L 24.17,125.79 L 24.17,115.79" fill="none" stroke="#3A4A66" stroke-width="1.20" stroke-linejoin="round" stroke-linecap="round"/><g data-face="top-content" transform="matrix(0.8660 0.5000 -0.8660 0.5000 180.43 19.31)"><text x="130.00" y="95.00" dy=".35em" font-family="Inter, sans-serif" font-size="10.00" font-weight="700" fill="#3A4A66" text-anchor="middle">WORKER NODE</text></g></g></svg>